%TF.GenerationSoftware,KiCad,Pcbnew,7.0.1*%
%TF.CreationDate,2023-05-06T18:31:28+10:00*%
%TF.ProjectId,switch_grid_test,73776974-6368-45f6-9772-69645f746573,rev?*%
%TF.SameCoordinates,Original*%
%TF.FileFunction,Copper,L2,Bot*%
%TF.FilePolarity,Positive*%
%FSLAX46Y46*%
G04 Gerber Fmt 4.6, Leading zero omitted, Abs format (unit mm)*
G04 Created by KiCad (PCBNEW 7.0.1) date 2023-05-06 18:31:28*
%MOMM*%
%LPD*%
G01*
G04 APERTURE LIST*
G04 Aperture macros list*
%AMRoundRect*
0 Rectangle with rounded corners*
0 $1 Rounding radius*
0 $2 $3 $4 $5 $6 $7 $8 $9 X,Y pos of 4 corners*
0 Add a 4 corners polygon primitive as box body*
4,1,4,$2,$3,$4,$5,$6,$7,$8,$9,$2,$3,0*
0 Add four circle primitives for the rounded corners*
1,1,$1+$1,$2,$3*
1,1,$1+$1,$4,$5*
1,1,$1+$1,$6,$7*
1,1,$1+$1,$8,$9*
0 Add four rect primitives between the rounded corners*
20,1,$1+$1,$2,$3,$4,$5,0*
20,1,$1+$1,$4,$5,$6,$7,0*
20,1,$1+$1,$6,$7,$8,$9,0*
20,1,$1+$1,$8,$9,$2,$3,0*%
G04 Aperture macros list end*
%TA.AperFunction,ComponentPad*%
%ADD10R,1.700000X1.700000*%
%TD*%
%TA.AperFunction,ComponentPad*%
%ADD11O,1.700000X1.700000*%
%TD*%
%TA.AperFunction,SMDPad,CuDef*%
%ADD12R,2.550000X2.500000*%
%TD*%
%TA.AperFunction,SMDPad,CuDef*%
%ADD13RoundRect,0.112500X-0.187500X-0.112500X0.187500X-0.112500X0.187500X0.112500X-0.187500X0.112500X0*%
%TD*%
%TA.AperFunction,SMDPad,CuDef*%
%ADD14RoundRect,0.225000X0.918000X0.225000X-0.918000X0.225000X-0.918000X-0.225000X0.918000X-0.225000X0*%
%TD*%
%TA.AperFunction,SMDPad,CuDef*%
%ADD15RoundRect,0.225000X0.225000X-0.918000X0.225000X0.918000X-0.225000X0.918000X-0.225000X-0.918000X0*%
%TD*%
%TA.AperFunction,SMDPad,CuDef*%
%ADD16RoundRect,0.225000X-0.918000X-0.225000X0.918000X-0.225000X0.918000X0.225000X-0.918000X0.225000X0*%
%TD*%
%TA.AperFunction,ComponentPad*%
%ADD17C,1.524000*%
%TD*%
%TA.AperFunction,SMDPad,CuDef*%
%ADD18C,15.000000*%
%TD*%
%TA.AperFunction,ViaPad*%
%ADD19C,0.800000*%
%TD*%
%TA.AperFunction,Conductor*%
%ADD20C,0.250000*%
%TD*%
%TA.AperFunction,Conductor*%
%ADD21C,0.200000*%
%TD*%
G04 APERTURE END LIST*
D10*
%TO.P,PRG1,1,Pin_1*%
%TO.N,GND*%
X109675000Y-88825000D03*
D11*
%TO.P,PRG1,2,Pin_2*%
%TO.N,SWCLK*%
X107135000Y-88825000D03*
%TO.P,PRG1,3,Pin_3*%
%TO.N,SWDIO*%
X104595000Y-88825000D03*
%TO.P,PRG1,4,Pin_4*%
%TO.N,VCC*%
X102055000Y-88825000D03*
%TD*%
D12*
%TO.P,SW6,1,A*%
%TO.N,ROW0*%
X136310000Y-107980000D03*
%TO.P,SW6,2,B*%
%TO.N,Net-(D6-A)*%
X150160000Y-105440000D03*
%TD*%
%TO.P,SW9,1,A*%
%TO.N,ROW1*%
X79160000Y-127030000D03*
%TO.P,SW9,2,B*%
%TO.N,Net-(D9-A)*%
X93010000Y-124490000D03*
%TD*%
%TO.P,SW20,1,A*%
%TO.N,ROW3*%
X60110000Y-165130000D03*
%TO.P,SW20,2,B*%
%TO.N,Net-(D20-A)*%
X73960000Y-162590000D03*
%TD*%
%TO.P,SW19,1,A*%
%TO.N,ROW3*%
X41060000Y-165130000D03*
%TO.P,SW19,2,B*%
%TO.N,Net-(D19-A)*%
X54910000Y-162590000D03*
%TD*%
%TO.P,SW5,1,A*%
%TO.N,ROW0*%
X117260000Y-107980000D03*
%TO.P,SW5,2,B*%
%TO.N,Net-(D5-A)*%
X131110000Y-105440000D03*
%TD*%
%TO.P,SW12,1,A*%
%TO.N,ROW1*%
X136310000Y-127030000D03*
%TO.P,SW12,2,B*%
%TO.N,Net-(D12-A)*%
X150160000Y-124490000D03*
%TD*%
%TO.P,SW2,1,A*%
%TO.N,ROW0*%
X60110000Y-107980000D03*
%TO.P,SW2,2,B*%
%TO.N,Net-(D2-A)*%
X73960000Y-105440000D03*
%TD*%
%TO.P,SW4,1,A*%
%TO.N,ROW0*%
X98210000Y-107980000D03*
%TO.P,SW4,2,B*%
%TO.N,Net-(D4-A)*%
X112060000Y-105440000D03*
%TD*%
%TO.P,SW7,1,A*%
%TO.N,ROW1*%
X41060000Y-127030000D03*
%TO.P,SW7,2,B*%
%TO.N,Net-(D7-A)*%
X54910000Y-124490000D03*
%TD*%
D10*
%TO.P,J1,1,Pin_1*%
%TO.N,COL0*%
X155975000Y-91075000D03*
D11*
%TO.P,J1,2,Pin_2*%
%TO.N,COL1*%
X155975000Y-93615000D03*
%TO.P,J1,3,Pin_3*%
%TO.N,COL2*%
X155975000Y-96155000D03*
%TO.P,J1,4,Pin_4*%
%TO.N,COL3*%
X155975000Y-98695000D03*
%TO.P,J1,5,Pin_5*%
%TO.N,COL4*%
X155975000Y-101235000D03*
%TO.P,J1,6,Pin_6*%
%TO.N,COL5*%
X155975000Y-103775000D03*
%TO.P,J1,7,Pin_7*%
%TO.N,ROW0*%
X155975000Y-106315000D03*
%TO.P,J1,8,Pin_8*%
%TO.N,ROW1*%
X155975000Y-108855000D03*
%TO.P,J1,9,Pin_9*%
%TO.N,ROW2*%
X155975000Y-111395000D03*
%TO.P,J1,10,Pin_10*%
%TO.N,ROW3*%
X155975000Y-113935000D03*
%TD*%
D10*
%TO.P,CHG1,1,Pin_1*%
%TO.N,VCC*%
X83425000Y-88825000D03*
D11*
%TO.P,CHG1,2,Pin_2*%
%TO.N,B+*%
X80885000Y-88825000D03*
%TO.P,CHG1,3,Pin_3*%
%TO.N,B-*%
X78345000Y-88825000D03*
%TO.P,CHG1,4,Pin_4*%
%TO.N,GND*%
X75805000Y-88825000D03*
%TD*%
D12*
%TO.P,SW22,1,A*%
%TO.N,ROW3*%
X98210000Y-165130000D03*
%TO.P,SW22,2,B*%
%TO.N,Net-(D22-A)*%
X112060000Y-162590000D03*
%TD*%
D10*
%TO.P,J2,1,Pin_1*%
%TO.N,COL0MCU*%
X168825000Y-91075000D03*
D11*
%TO.P,J2,2,Pin_2*%
%TO.N,COL1MCU*%
X168825000Y-93615000D03*
%TO.P,J2,3,Pin_3*%
%TO.N,COL2MCU*%
X168825000Y-96155000D03*
%TO.P,J2,4,Pin_4*%
%TO.N,COL3MCU*%
X168825000Y-98695000D03*
%TO.P,J2,5,Pin_5*%
%TO.N,COL4MCU*%
X168825000Y-101235000D03*
%TO.P,J2,6,Pin_6*%
%TO.N,COL5MCU*%
X168825000Y-103775000D03*
%TO.P,J2,7,Pin_7*%
%TO.N,ROW0MCU*%
X168825000Y-106315000D03*
%TO.P,J2,8,Pin_8*%
%TO.N,ROW1MCU*%
X168825000Y-108855000D03*
%TO.P,J2,9,Pin_9*%
%TO.N,ROW2MCU*%
X168825000Y-111395000D03*
%TO.P,J2,10,Pin_10*%
%TO.N,ROW3MCU*%
X168825000Y-113935000D03*
%TD*%
D12*
%TO.P,SW21,1,A*%
%TO.N,ROW3*%
X79160000Y-165130000D03*
%TO.P,SW21,2,B*%
%TO.N,Net-(D21-A)*%
X93010000Y-162590000D03*
%TD*%
%TO.P,SW18,1,A*%
%TO.N,ROW2*%
X136310000Y-146080000D03*
%TO.P,SW18,2,B*%
%TO.N,Net-(D18-A)*%
X150160000Y-143540000D03*
%TD*%
%TO.P,SW13,1,A*%
%TO.N,ROW2*%
X41060000Y-146080000D03*
%TO.P,SW13,2,B*%
%TO.N,Net-(D13-A)*%
X54910000Y-143540000D03*
%TD*%
%TO.P,SW23,1,A*%
%TO.N,ROW3*%
X117260000Y-165130000D03*
%TO.P,SW23,2,B*%
%TO.N,Net-(D23-A)*%
X131110000Y-162590000D03*
%TD*%
%TO.P,SW24,1,A*%
%TO.N,ROW3*%
X136310000Y-165130000D03*
%TO.P,SW24,2,B*%
%TO.N,Net-(D24-A)*%
X150160000Y-162590000D03*
%TD*%
%TO.P,SW14,1,A*%
%TO.N,ROW2*%
X60110000Y-146080000D03*
%TO.P,SW14,2,B*%
%TO.N,Net-(D14-A)*%
X73960000Y-143540000D03*
%TD*%
%TO.P,SW16,1,A*%
%TO.N,ROW2*%
X98210000Y-146080000D03*
%TO.P,SW16,2,B*%
%TO.N,Net-(D16-A)*%
X112060000Y-143540000D03*
%TD*%
%TO.P,SW10,1,A*%
%TO.N,ROW1*%
X98210000Y-127030000D03*
%TO.P,SW10,2,B*%
%TO.N,Net-(D10-A)*%
X112060000Y-124490000D03*
%TD*%
%TO.P,SW1,1,A*%
%TO.N,ROW0*%
X41060000Y-107980000D03*
%TO.P,SW1,2,B*%
%TO.N,Net-(D1-A)*%
X54910000Y-105440000D03*
%TD*%
%TO.P,SW15,1,A*%
%TO.N,ROW2*%
X79160000Y-146080000D03*
%TO.P,SW15,2,B*%
%TO.N,Net-(D15-A)*%
X93010000Y-143540000D03*
%TD*%
%TO.P,SW8,1,A*%
%TO.N,ROW1*%
X60110000Y-127030000D03*
%TO.P,SW8,2,B*%
%TO.N,Net-(D8-A)*%
X73960000Y-124490000D03*
%TD*%
D10*
%TO.P,J3,1,Pin_1*%
%TO.N,MCUP04*%
X184365000Y-91075000D03*
D11*
%TO.P,J3,2,Pin_2*%
%TO.N,MCUP05*%
X181825000Y-91075000D03*
%TO.P,J3,3,Pin_3*%
%TO.N,MCUP06*%
X184365000Y-93615000D03*
%TO.P,J3,4,Pin_4*%
%TO.N,MCUP07*%
X181825000Y-93615000D03*
%TO.P,J3,5,Pin_5*%
%TO.N,MCUP08*%
X184365000Y-96155000D03*
%TO.P,J3,6,Pin_6*%
%TO.N,MCUP09*%
X181825000Y-96155000D03*
%TO.P,J3,7,Pin_7*%
%TO.N,MCUP10*%
X184365000Y-98695000D03*
%TO.P,J3,8,Pin_8*%
%TO.N,MCUP17*%
X181825000Y-98695000D03*
%TO.P,J3,9,Pin_9*%
%TO.N,MCUP18*%
X184365000Y-101235000D03*
%TO.P,J3,10,Pin_10*%
%TO.N,MCUP19*%
X181825000Y-101235000D03*
%TO.P,J3,11,Pin_11*%
%TO.N,MCUP20*%
X184365000Y-103775000D03*
%TO.P,J3,12,Pin_12*%
%TO.N,MCUP21*%
X181825000Y-103775000D03*
%TO.P,J3,13,Pin_13*%
%TO.N,MCUP22*%
X184365000Y-106315000D03*
%TO.P,J3,14,Pin_14*%
%TO.N,MCUP23*%
X181825000Y-106315000D03*
%TO.P,J3,15,Pin_15*%
%TO.N,MCUP24*%
X184365000Y-108855000D03*
%TO.P,J3,16,Pin_16*%
%TO.N,MCUP25*%
X181825000Y-108855000D03*
%TO.P,J3,17,Pin_17*%
%TO.N,MCUNC1*%
X184365000Y-111395000D03*
%TO.P,J3,18,Pin_18*%
%TO.N,MCUNC2*%
X181825000Y-111395000D03*
%TO.P,J3,19,Pin_19*%
%TO.N,MCUP28*%
X184365000Y-113935000D03*
%TO.P,J3,20,Pin_20*%
%TO.N,MCUP29*%
X181825000Y-113935000D03*
%TO.P,J3,21,Pin_21*%
%TO.N,MCUP30*%
X184365000Y-116475000D03*
%TO.P,J3,22,Pin_22*%
%TO.N,SWCLK*%
X181825000Y-116475000D03*
%TO.P,J3,23,Pin_23*%
%TO.N,SWDIO*%
X184365000Y-119015000D03*
%TO.P,J3,24,Pin_24*%
%TO.N,GND*%
X181825000Y-119015000D03*
%TD*%
D12*
%TO.P,SW3,1,A*%
%TO.N,ROW0*%
X79160000Y-107980000D03*
%TO.P,SW3,2,B*%
%TO.N,Net-(D3-A)*%
X93010000Y-105440000D03*
%TD*%
%TO.P,SW17,1,A*%
%TO.N,ROW2*%
X117260000Y-146080000D03*
%TO.P,SW17,2,B*%
%TO.N,Net-(D17-A)*%
X131110000Y-143540000D03*
%TD*%
%TO.P,SW11,1,A*%
%TO.N,ROW1*%
X117260000Y-127030000D03*
%TO.P,SW11,2,B*%
%TO.N,Net-(D11-A)*%
X131110000Y-124490000D03*
%TD*%
D13*
%TO.P,D5,1,K*%
%TO.N,COL4*%
X126650000Y-111400000D03*
%TO.P,D5,2,A*%
%TO.N,Net-(D5-A)*%
X128750000Y-111400000D03*
%TD*%
%TO.P,D17,1,K*%
%TO.N,COL4*%
X126650000Y-149500000D03*
%TO.P,D17,2,A*%
%TO.N,Net-(D17-A)*%
X128750000Y-149500000D03*
%TD*%
%TO.P,D9,1,K*%
%TO.N,COL2*%
X88550000Y-130450000D03*
%TO.P,D9,2,A*%
%TO.N,Net-(D9-A)*%
X90650000Y-130450000D03*
%TD*%
%TO.P,D6,1,K*%
%TO.N,COL5*%
X145700000Y-111400000D03*
%TO.P,D6,2,A*%
%TO.N,Net-(D6-A)*%
X147800000Y-111400000D03*
%TD*%
%TO.P,D18,1,K*%
%TO.N,COL5*%
X145700000Y-149500000D03*
%TO.P,D18,2,A*%
%TO.N,Net-(D18-A)*%
X147800000Y-149500000D03*
%TD*%
%TO.P,D14,1,K*%
%TO.N,COL1*%
X69500000Y-149500000D03*
%TO.P,D14,2,A*%
%TO.N,Net-(D14-A)*%
X71600000Y-149500000D03*
%TD*%
%TO.P,D16,1,K*%
%TO.N,COL3*%
X107600000Y-149500000D03*
%TO.P,D16,2,A*%
%TO.N,Net-(D16-A)*%
X109700000Y-149500000D03*
%TD*%
%TO.P,D10,1,K*%
%TO.N,COL3*%
X107600000Y-130450000D03*
%TO.P,D10,2,A*%
%TO.N,Net-(D10-A)*%
X109700000Y-130450000D03*
%TD*%
D14*
%TO.P,U1,0,GND*%
%TO.N,GND*%
X141000000Y-84553500D03*
%TO.P,U1,1,P21*%
%TO.N,MCUP21*%
X141000000Y-85653500D03*
%TO.P,U1,2,P22*%
%TO.N,MCUP22*%
X141000000Y-86753500D03*
%TO.P,U1,3,P23*%
%TO.N,MCUP23*%
X141000000Y-87853500D03*
%TO.P,U1,4,P24*%
%TO.N,MCUP24*%
X141000000Y-88953500D03*
%TO.P,U1,5,P25*%
%TO.N,MCUP25*%
X141000000Y-90053500D03*
%TO.P,U1,6,NC*%
%TO.N,MCUNC1*%
X141000000Y-91153500D03*
%TO.P,U1,7,NC*%
%TO.N,MCUNC2*%
X141000000Y-92253500D03*
%TO.P,U1,8,P28*%
%TO.N,MCUP28*%
X141000000Y-93353500D03*
%TO.P,U1,9,P29*%
%TO.N,MCUP29*%
X141000000Y-94453500D03*
%TO.P,U1,10,GND*%
%TO.N,GND*%
X141000000Y-95553500D03*
%TO.P,U1,11,VCC*%
%TO.N,VCC*%
X141000000Y-96653500D03*
D15*
%TO.P,U1,12,P30*%
%TO.N,MCUP30*%
X138550000Y-99753500D03*
%TO.P,U1,13,P00*%
%TO.N,ROW0MCU*%
X137450000Y-99753500D03*
%TO.P,U1,14,P01*%
%TO.N,ROW1MCU*%
X136350000Y-99753500D03*
%TO.P,U1,15,P02*%
%TO.N,ROW2MCU*%
X135250000Y-99753500D03*
%TO.P,U1,16,P03*%
%TO.N,ROW3MCU*%
X134150000Y-99753500D03*
%TO.P,U1,17,P04*%
%TO.N,MCUP04*%
X133050000Y-99753500D03*
%TO.P,U1,18,P05*%
%TO.N,MCUP05*%
X131950000Y-99753500D03*
%TO.P,U1,19,P06*%
%TO.N,MCUP06*%
X130850000Y-99753500D03*
%TO.P,U1,20,P07*%
%TO.N,MCUP07*%
X129750000Y-99753500D03*
%TO.P,U1,21,P08*%
%TO.N,MCUP08*%
X128650000Y-99753500D03*
%TO.P,U1,22,P09*%
%TO.N,MCUP09*%
X127550000Y-99753500D03*
%TO.P,U1,23,P10*%
%TO.N,MCUP10*%
X126450000Y-99753500D03*
D16*
%TO.P,U1,24,P11*%
%TO.N,COL5MCU*%
X124000000Y-96653500D03*
%TO.P,U1,25,P12*%
%TO.N,COL4MCU*%
X124000000Y-95553500D03*
%TO.P,U1,26,P13*%
%TO.N,COL3MCU*%
X124000000Y-94453500D03*
%TO.P,U1,27,P14*%
%TO.N,COL2MCU*%
X124000000Y-93353500D03*
%TO.P,U1,28,P15*%
%TO.N,COL1MCU*%
X124000000Y-92253500D03*
%TO.P,U1,29,P16*%
%TO.N,COL0MCU*%
X124000000Y-91153500D03*
%TO.P,U1,30,SWDIO*%
%TO.N,SWDIO*%
X124000000Y-90053500D03*
%TO.P,U1,31,SWCLK*%
%TO.N,SWCLK*%
X124000000Y-88953500D03*
%TO.P,U1,32,P17*%
%TO.N,MCUP17*%
X124000000Y-87853500D03*
%TO.P,U1,33,P18*%
%TO.N,MCUP18*%
X124000000Y-86753500D03*
%TO.P,U1,34,P19*%
%TO.N,MCUP19*%
X124000000Y-85653500D03*
%TO.P,U1,35,P20*%
%TO.N,MCUP20*%
X124000000Y-84553500D03*
%TD*%
D13*
%TO.P,D8,1,K*%
%TO.N,COL1*%
X69500000Y-130450000D03*
%TO.P,D8,2,A*%
%TO.N,Net-(D8-A)*%
X71600000Y-130450000D03*
%TD*%
%TO.P,D20,1,K*%
%TO.N,COL1*%
X69500000Y-155050000D03*
%TO.P,D20,2,A*%
%TO.N,Net-(D20-A)*%
X71600000Y-155050000D03*
%TD*%
%TO.P,D1,1,K*%
%TO.N,COL0*%
X50450000Y-111400000D03*
%TO.P,D1,2,A*%
%TO.N,Net-(D1-A)*%
X52550000Y-111400000D03*
%TD*%
%TO.P,D7,1,K*%
%TO.N,COL0*%
X50450000Y-130450000D03*
%TO.P,D7,2,A*%
%TO.N,Net-(D7-A)*%
X52550000Y-130450000D03*
%TD*%
%TO.P,D4,1,K*%
%TO.N,COL3*%
X107600000Y-111400000D03*
%TO.P,D4,2,A*%
%TO.N,Net-(D4-A)*%
X109700000Y-111400000D03*
%TD*%
%TO.P,D24,1,K*%
%TO.N,COL5*%
X145700000Y-155050000D03*
%TO.P,D24,2,A*%
%TO.N,Net-(D24-A)*%
X147800000Y-155050000D03*
%TD*%
%TO.P,D15,1,K*%
%TO.N,COL2*%
X88550000Y-149500000D03*
%TO.P,D15,2,A*%
%TO.N,Net-(D15-A)*%
X90650000Y-149500000D03*
%TD*%
%TO.P,D22,1,K*%
%TO.N,COL3*%
X107600000Y-155050000D03*
%TO.P,D22,2,A*%
%TO.N,Net-(D22-A)*%
X109700000Y-155050000D03*
%TD*%
%TO.P,D2,1,K*%
%TO.N,COL1*%
X69500000Y-111400000D03*
%TO.P,D2,2,A*%
%TO.N,Net-(D2-A)*%
X71600000Y-111400000D03*
%TD*%
%TO.P,D11,1,K*%
%TO.N,COL4*%
X126650000Y-130450000D03*
%TO.P,D11,2,A*%
%TO.N,Net-(D11-A)*%
X128750000Y-130450000D03*
%TD*%
D17*
%TO.P,BT1,1,+*%
%TO.N,B+*%
X46512000Y-90500000D03*
X46512000Y-93600000D03*
X67362000Y-90500000D03*
X67362000Y-93600000D03*
D18*
%TO.P,BT1,2,-*%
%TO.N,B-*%
X56937000Y-92050000D03*
%TD*%
D13*
%TO.P,D21,1,K*%
%TO.N,COL2*%
X88550000Y-155050000D03*
%TO.P,D21,2,A*%
%TO.N,Net-(D21-A)*%
X90650000Y-155050000D03*
%TD*%
%TO.P,D19,1,K*%
%TO.N,COL0*%
X50450000Y-155050000D03*
%TO.P,D19,2,A*%
%TO.N,Net-(D19-A)*%
X52550000Y-155050000D03*
%TD*%
%TO.P,D13,1,K*%
%TO.N,COL0*%
X50450000Y-149500000D03*
%TO.P,D13,2,A*%
%TO.N,Net-(D13-A)*%
X52550000Y-149500000D03*
%TD*%
%TO.P,D12,1,K*%
%TO.N,COL5*%
X145700000Y-130450000D03*
%TO.P,D12,2,A*%
%TO.N,Net-(D12-A)*%
X147800000Y-130450000D03*
%TD*%
%TO.P,D3,1,K*%
%TO.N,COL2*%
X88550000Y-111400000D03*
%TO.P,D3,2,A*%
%TO.N,Net-(D3-A)*%
X90650000Y-111400000D03*
%TD*%
%TO.P,D23,1,K*%
%TO.N,COL4*%
X126650000Y-155050000D03*
%TO.P,D23,2,A*%
%TO.N,Net-(D23-A)*%
X128750000Y-155050000D03*
%TD*%
D19*
%TO.N,COL0*%
X50450000Y-114808000D03*
%TO.N,COL1*%
X69500000Y-115532500D03*
%TO.N,COL2*%
X88550000Y-116257000D03*
%TO.N,COL3*%
X107600000Y-113792000D03*
%TO.N,COL4*%
X126650000Y-115532500D03*
%TO.N,COL5*%
X145700000Y-114808000D03*
%TO.N,ROW0*%
X144000000Y-115251491D03*
%TO.N,ROW1*%
X144000000Y-116250994D03*
%TO.N,ROW2*%
X144000000Y-117250497D03*
%TO.N,ROW3*%
X144000000Y-118250000D03*
%TO.N,GND*%
X137250000Y-92000000D03*
%TO.N,COL0MCU*%
X126750000Y-91153500D03*
%TO.N,COL1MCU*%
X126750000Y-92250000D03*
%TO.N,COL2MCU*%
X126750000Y-93353500D03*
%TO.N,COL3MCU*%
X128750000Y-93895500D03*
%TO.N,COL4MCU*%
X130000000Y-93895500D03*
%TO.N,COL5MCU*%
X131375000Y-93875000D03*
%TO.N,VCC*%
X122000000Y-98250000D03*
X140750000Y-98054500D03*
%TO.N,MCUP04*%
X172676000Y-90524500D03*
X163525500Y-91523677D03*
X138499503Y-93895500D03*
%TO.N,MCUP05*%
X172678104Y-91755492D03*
X163500000Y-90524500D03*
X137500000Y-93895500D03*
%TO.N,MCUP06*%
X150000000Y-89174500D03*
X175475500Y-89750000D03*
X136498509Y-93895500D03*
%TO.N,MCUP07*%
X135499006Y-93895500D03*
X149000000Y-89174500D03*
X175475500Y-90749503D03*
%TO.N,MCUP08*%
X147999006Y-89174500D03*
X175475500Y-91750000D03*
X134499503Y-93895500D03*
%TO.N,MCUP09*%
X133500000Y-93895500D03*
X146999503Y-89174500D03*
X175475500Y-92750000D03*
%TO.N,SWCLK*%
X126718594Y-88903470D03*
%TO.N,SWDIO*%
X126750000Y-90053500D03*
%TO.N,MCUP10*%
X132500000Y-93895500D03*
X175475500Y-93750000D03*
X146000000Y-89174500D03*
%TO.N,MCUP17*%
X126750000Y-87853500D03*
%TO.N,MCUP18*%
X126750000Y-86753500D03*
%TO.N,MCUP19*%
X126750000Y-85653500D03*
%TO.N,MCUP20*%
X126750000Y-84553500D03*
%TD*%
D20*
%TO.N,COL0*%
X50450000Y-114808000D02*
X50450000Y-111400000D01*
X50450000Y-149500000D02*
X49285000Y-148335000D01*
X49285000Y-148335000D02*
X49285000Y-142763350D01*
X49285000Y-123435000D02*
X49285000Y-129285000D01*
X49285000Y-129285000D02*
X50450000Y-130450000D01*
X50450000Y-122270000D02*
X49285000Y-123435000D01*
X49285000Y-142763350D02*
X50450000Y-141598350D01*
X50450000Y-155050000D02*
X50450000Y-149500000D01*
X50450000Y-141598350D02*
X50450000Y-130450000D01*
X50450000Y-114808000D02*
X50450000Y-122270000D01*
%TO.N,Net-(D1-A)*%
X54910000Y-109040000D02*
X52550000Y-111400000D01*
X54910000Y-105440000D02*
X54910000Y-109040000D01*
%TO.N,COL1*%
X69500000Y-115532500D02*
X69500000Y-122200131D01*
X68335000Y-148335000D02*
X68335000Y-142415131D01*
X69500000Y-149500000D02*
X68335000Y-148335000D01*
X68335000Y-123365131D02*
X68335000Y-129285000D01*
X68335000Y-129285000D02*
X69500000Y-130450000D01*
X69500000Y-155050000D02*
X69500000Y-149500000D01*
X69500000Y-141250131D02*
X69500000Y-130450000D01*
X68335000Y-142415131D02*
X69500000Y-141250131D01*
X69500000Y-122200131D02*
X68335000Y-123365131D01*
X69500000Y-115532500D02*
X69500000Y-111400000D01*
%TO.N,Net-(D2-A)*%
X71600000Y-111400000D02*
X73960000Y-109040000D01*
X73960000Y-109040000D02*
X73960000Y-105440000D01*
%TO.N,COL2*%
X87385000Y-123365131D02*
X87385000Y-129285000D01*
X88550000Y-141598350D02*
X88550000Y-130450000D01*
X87385000Y-148335000D02*
X87385000Y-142763350D01*
X88550000Y-149500000D02*
X87385000Y-148335000D01*
X88550000Y-149500000D02*
X88550000Y-155050000D01*
X87385000Y-129285000D02*
X88550000Y-130450000D01*
X88550000Y-116257000D02*
X88550000Y-111400000D01*
X88550000Y-116257000D02*
X88550000Y-122200131D01*
X88550000Y-122200131D02*
X87385000Y-123365131D01*
X87385000Y-142763350D02*
X88550000Y-141598350D01*
%TO.N,Net-(D3-A)*%
X93010000Y-105440000D02*
X93010000Y-109040000D01*
X93010000Y-109040000D02*
X90650000Y-111400000D01*
%TO.N,COL3*%
X106435000Y-142763350D02*
X106435000Y-148335000D01*
X106435000Y-123365131D02*
X106435000Y-129285000D01*
X106435000Y-148335000D02*
X107600000Y-149500000D01*
X106435000Y-129285000D02*
X107600000Y-130450000D01*
X107600000Y-155050000D02*
X107600000Y-149500000D01*
X107600000Y-122200131D02*
X106435000Y-123365131D01*
X107600000Y-130450000D02*
X107600000Y-141598350D01*
X107600000Y-113792000D02*
X107600000Y-122200131D01*
X107600000Y-141598350D02*
X106435000Y-142763350D01*
X107600000Y-113792000D02*
X107600000Y-111400000D01*
%TO.N,Net-(D4-A)*%
X109700000Y-111400000D02*
X112060000Y-109040000D01*
X112060000Y-109040000D02*
X112060000Y-105440000D01*
%TO.N,COL4*%
X126650000Y-149500000D02*
X125485000Y-148335000D01*
X125485000Y-129285000D02*
X126650000Y-130450000D01*
X125485000Y-142763350D02*
X126650000Y-141598350D01*
X126650000Y-122548350D02*
X125485000Y-123713350D01*
X125485000Y-148335000D02*
X125485000Y-142763350D01*
X126650000Y-115532500D02*
X126650000Y-111400000D01*
X126650000Y-115532500D02*
X126650000Y-122548350D01*
X126650000Y-149500000D02*
X126650000Y-155050000D01*
X126650000Y-141598350D02*
X126650000Y-130450000D01*
X125485000Y-123713350D02*
X125485000Y-129285000D01*
%TO.N,Net-(D5-A)*%
X131110000Y-105440000D02*
X131110000Y-109040000D01*
X131110000Y-109040000D02*
X128750000Y-111400000D01*
%TO.N,COL5*%
X144535000Y-129285000D02*
X145700000Y-130450000D01*
X144535000Y-123365131D02*
X144535000Y-129285000D01*
X145700000Y-155050000D02*
X145700000Y-149500000D01*
X145700000Y-122200131D02*
X144535000Y-123365131D01*
X145700000Y-114808000D02*
X145700000Y-122200131D01*
X145700000Y-141250131D02*
X145700000Y-130450000D01*
X143581231Y-147381231D02*
X143581231Y-143368900D01*
X143581231Y-143368900D02*
X145700000Y-141250131D01*
X145700000Y-149500000D02*
X143581231Y-147381231D01*
X145700000Y-114808000D02*
X145700000Y-111400000D01*
%TO.N,Net-(D6-A)*%
X150160000Y-105440000D02*
X150160000Y-109040000D01*
X150160000Y-109040000D02*
X147800000Y-111400000D01*
%TO.N,Net-(D7-A)*%
X54910000Y-128090000D02*
X52550000Y-130450000D01*
X54910000Y-124490000D02*
X54910000Y-128090000D01*
%TO.N,Net-(D8-A)*%
X73960000Y-128090000D02*
X73960000Y-124490000D01*
X71600000Y-130450000D02*
X73960000Y-128090000D01*
%TO.N,Net-(D9-A)*%
X93010000Y-124490000D02*
X93010000Y-128090000D01*
X93010000Y-128090000D02*
X90650000Y-130450000D01*
%TO.N,Net-(D10-A)*%
X112060000Y-128090000D02*
X109700000Y-130450000D01*
X112060000Y-124490000D02*
X112060000Y-128090000D01*
%TO.N,Net-(D11-A)*%
X131110000Y-124490000D02*
X131110000Y-128090000D01*
X131110000Y-128090000D02*
X128750000Y-130450000D01*
%TO.N,Net-(D12-A)*%
X150160000Y-124490000D02*
X150160000Y-128090000D01*
X150160000Y-128090000D02*
X147800000Y-130450000D01*
%TO.N,Net-(D13-A)*%
X52550000Y-149500000D02*
X54910000Y-147140000D01*
X54910000Y-147140000D02*
X54910000Y-143540000D01*
%TO.N,Net-(D14-A)*%
X73960000Y-147140000D02*
X73960000Y-143540000D01*
X71600000Y-149500000D02*
X73960000Y-147140000D01*
%TO.N,Net-(D15-A)*%
X93010000Y-143540000D02*
X93010000Y-147140000D01*
X93010000Y-147140000D02*
X90650000Y-149500000D01*
%TO.N,Net-(D16-A)*%
X109700000Y-149500000D02*
X112060000Y-147140000D01*
X112060000Y-147140000D02*
X112060000Y-143540000D01*
%TO.N,Net-(D17-A)*%
X131110000Y-147140000D02*
X131110000Y-143540000D01*
X128750000Y-149500000D02*
X131110000Y-147140000D01*
%TO.N,Net-(D18-A)*%
X150160000Y-147140000D02*
X147800000Y-149500000D01*
X150160000Y-143540000D02*
X150160000Y-147140000D01*
%TO.N,Net-(D19-A)*%
X54910000Y-157410000D02*
X52550000Y-155050000D01*
X54910000Y-162590000D02*
X54910000Y-157410000D01*
%TO.N,Net-(D20-A)*%
X73960000Y-162590000D02*
X73960000Y-157410000D01*
X73960000Y-157410000D02*
X71600000Y-155050000D01*
%TO.N,Net-(D21-A)*%
X93010000Y-162590000D02*
X93010000Y-157410000D01*
X93010000Y-157410000D02*
X90650000Y-155050000D01*
%TO.N,Net-(D22-A)*%
X112060000Y-162590000D02*
X112060000Y-157410000D01*
X112060000Y-157410000D02*
X109700000Y-155050000D01*
%TO.N,Net-(D23-A)*%
X131110000Y-157410000D02*
X128750000Y-155050000D01*
X131110000Y-162590000D02*
X131110000Y-157410000D01*
%TO.N,Net-(D24-A)*%
X150160000Y-157410000D02*
X147800000Y-155050000D01*
X150160000Y-162590000D02*
X150160000Y-157410000D01*
%TO.N,ROW0*%
X143581491Y-115251491D02*
X136310000Y-107980000D01*
X65418769Y-100531100D02*
X72591100Y-100531100D01*
X81595900Y-103403969D02*
X84923869Y-100076000D01*
X98210000Y-107980000D02*
X100645900Y-105544100D01*
X100645900Y-105544100D02*
X100645900Y-103403969D01*
X60110000Y-106338000D02*
X60110000Y-107980000D01*
X84923869Y-100076000D02*
X90932000Y-100076000D01*
X62545900Y-105544100D02*
X62545900Y-103403969D01*
X127365070Y-109855000D02*
X128011287Y-110501217D01*
X62545900Y-103403969D02*
X65418769Y-100531100D01*
X43688000Y-105352000D02*
X43688000Y-103211869D01*
X60110000Y-107980000D02*
X62545900Y-105544100D01*
X103973869Y-100076000D02*
X110856000Y-100076000D01*
X100645900Y-103403969D02*
X103973869Y-100076000D01*
X98210000Y-107354000D02*
X98210000Y-107980000D01*
X54303100Y-100531100D02*
X60110000Y-106338000D01*
X128350000Y-111950000D02*
X130050000Y-111950000D01*
X41060000Y-107980000D02*
X43688000Y-105352000D01*
X144000000Y-115251491D02*
X143581491Y-115251491D01*
X117260000Y-106480000D02*
X117260000Y-107980000D01*
X46368769Y-100531100D02*
X54303100Y-100531100D01*
X110856000Y-100076000D02*
X117260000Y-106480000D01*
X130050000Y-111950000D02*
X134020000Y-107980000D01*
X79160000Y-107980000D02*
X81595900Y-105544100D01*
X128011287Y-111611287D02*
X128350000Y-111950000D01*
X72591100Y-100531100D02*
X79160000Y-107100000D01*
X134020000Y-107980000D02*
X136310000Y-107980000D01*
X81595900Y-105544100D02*
X81595900Y-103403969D01*
X43688000Y-103211869D02*
X46368769Y-100531100D01*
X79160000Y-107100000D02*
X79160000Y-107980000D01*
X128011287Y-110501217D02*
X128011287Y-111611287D01*
X90932000Y-100076000D02*
X98210000Y-107354000D01*
X117260000Y-107980000D02*
X119135000Y-109855000D01*
X119135000Y-109855000D02*
X127365070Y-109855000D01*
%TO.N,ROW1*%
X60110000Y-127030000D02*
X64031100Y-123108900D01*
X117260000Y-122340000D02*
X117260000Y-127030000D01*
X127508000Y-111252000D02*
X127508000Y-113284000D01*
X89175000Y-114067000D02*
X98210000Y-123102000D01*
X117260000Y-127030000D02*
X120396000Y-123894000D01*
X69868718Y-110850000D02*
X70125000Y-111106282D01*
X79160000Y-127030000D02*
X82804000Y-123386000D01*
X64031100Y-123108900D02*
X64031100Y-115950182D01*
X136294100Y-122070100D02*
X136294100Y-122457784D01*
X88181282Y-110850000D02*
X88918718Y-110850000D01*
X138800000Y-124540000D02*
X136310000Y-127030000D01*
X107862718Y-110744000D02*
X108225000Y-111106282D01*
X64031100Y-115950182D02*
X69131282Y-110850000D01*
X69131282Y-110850000D02*
X69868718Y-110850000D01*
X127106000Y-110850000D02*
X127508000Y-111252000D01*
X108225000Y-111106282D02*
X108225000Y-113305000D01*
X41060000Y-127030000D02*
X44981100Y-123108900D01*
X50081282Y-110850000D02*
X50818718Y-110850000D01*
X98210000Y-123102000D02*
X98210000Y-127030000D01*
X136294100Y-122457784D02*
X136310000Y-122473684D01*
X120396000Y-116735282D02*
X126281282Y-110850000D01*
X50818718Y-110850000D02*
X51366000Y-111397282D01*
X126281282Y-110850000D02*
X127106000Y-110850000D01*
X127508000Y-113284000D02*
X136294100Y-122070100D01*
X144000000Y-116250994D02*
X141062610Y-116250994D01*
X136310000Y-122473684D02*
X136310000Y-127030000D01*
X101600000Y-123640000D02*
X101600000Y-116481282D01*
X141062610Y-116250994D02*
X138800000Y-118513604D01*
X79160000Y-122340000D02*
X79160000Y-127030000D01*
X101600000Y-116481282D02*
X107337282Y-110744000D01*
X44981100Y-115950182D02*
X50081282Y-110850000D01*
X120396000Y-123894000D02*
X120396000Y-116735282D01*
X89175000Y-111106282D02*
X89175000Y-114067000D01*
X70125000Y-113305000D02*
X79160000Y-122340000D01*
X138800000Y-118513604D02*
X138800000Y-124540000D01*
X108225000Y-113305000D02*
X117260000Y-122340000D01*
X82804000Y-123386000D02*
X82804000Y-116227282D01*
X82804000Y-116227282D02*
X88181282Y-110850000D01*
X51366000Y-117406000D02*
X60110000Y-126150000D01*
X70125000Y-111106282D02*
X70125000Y-113305000D01*
X60110000Y-126150000D02*
X60110000Y-127030000D01*
X44981100Y-123108900D02*
X44981100Y-115950182D01*
X98210000Y-127030000D02*
X101600000Y-123640000D01*
X88918718Y-110850000D02*
X89175000Y-111106282D01*
X51366000Y-111397282D02*
X51366000Y-117406000D01*
X107337282Y-110744000D02*
X107862718Y-110744000D01*
%TO.N,ROW2*%
X54000000Y-152594544D02*
X54000000Y-150000000D01*
X42935000Y-148453718D02*
X50081282Y-155600000D01*
X54000000Y-150000000D02*
X57920000Y-146080000D01*
X117260000Y-146308718D02*
X117260000Y-146080000D01*
X79160000Y-146080000D02*
X79160000Y-147580000D01*
X125636000Y-155956000D02*
X126925282Y-155956000D01*
X139250000Y-118700000D02*
X139250000Y-125188350D01*
X88918718Y-155600000D02*
X98210000Y-146308718D01*
X107968718Y-155600000D02*
X117260000Y-146308718D01*
X130500000Y-152381282D02*
X130500000Y-149750000D01*
X98210000Y-146308718D02*
X98210000Y-146080000D01*
X50081282Y-155600000D02*
X50994544Y-155600000D01*
X136250000Y-140536316D02*
X136250000Y-146020000D01*
X50994544Y-155600000D02*
X54000000Y-152594544D01*
X69512718Y-155956000D02*
X79160000Y-146308718D01*
X60110000Y-147580000D02*
X68486000Y-155956000D01*
X117260000Y-147580000D02*
X125636000Y-155956000D01*
X57920000Y-146080000D02*
X60110000Y-146080000D01*
X107200000Y-155600000D02*
X107968718Y-155600000D01*
X130500000Y-149750000D02*
X134170000Y-146080000D01*
X60110000Y-146080000D02*
X60110000Y-147580000D01*
X87180000Y-155600000D02*
X88918718Y-155600000D01*
X79160000Y-146308718D02*
X79160000Y-146080000D01*
X98210000Y-146080000D02*
X98210000Y-146610000D01*
X126925282Y-155956000D02*
X130500000Y-152381282D01*
X42935000Y-147955000D02*
X42935000Y-148453718D01*
X138000000Y-126438350D02*
X138000000Y-138786316D01*
X68486000Y-155956000D02*
X69512718Y-155956000D01*
X117260000Y-146080000D02*
X117260000Y-147580000D01*
X136250000Y-146020000D02*
X136310000Y-146080000D01*
X139250000Y-125188350D02*
X138000000Y-126438350D01*
X98210000Y-146610000D02*
X107200000Y-155600000D01*
X134170000Y-146080000D02*
X136310000Y-146080000D01*
X144000000Y-117250497D02*
X140699503Y-117250497D01*
X41060000Y-146080000D02*
X42935000Y-147955000D01*
X140699503Y-117250497D02*
X139250000Y-118700000D01*
X138000000Y-138786316D02*
X136250000Y-140536316D01*
X79160000Y-147580000D02*
X87180000Y-155600000D01*
%TO.N,ROW3*%
X67751000Y-163255000D02*
X69626000Y-165130000D01*
X136294100Y-149270900D02*
X136294100Y-165114100D01*
X140231100Y-119018900D02*
X140231100Y-122931231D01*
X79160000Y-165130000D02*
X81035000Y-163255000D01*
X141000000Y-118250000D02*
X140231100Y-119018900D01*
X89148350Y-165130000D02*
X98210000Y-165130000D01*
X144000000Y-118250000D02*
X141000000Y-118250000D01*
X140231100Y-122931231D02*
X142500000Y-125200131D01*
X106323350Y-163255000D02*
X108198350Y-165130000D01*
X108198350Y-165130000D02*
X117260000Y-165130000D01*
X119135000Y-163255000D02*
X124647000Y-163255000D01*
X51048350Y-165130000D02*
X60110000Y-165130000D01*
X142500000Y-125200131D02*
X142500000Y-127241650D01*
X140250000Y-140250000D02*
X138185000Y-142315000D01*
X140250000Y-129491650D02*
X140250000Y-140250000D01*
X98210000Y-165130000D02*
X100085000Y-163255000D01*
X87273350Y-163255000D02*
X89148350Y-165130000D01*
X124647000Y-163255000D02*
X126522000Y-165130000D01*
X136294100Y-165114100D02*
X136310000Y-165130000D01*
X60110000Y-165130000D02*
X61985000Y-163255000D01*
X117260000Y-165130000D02*
X119135000Y-163255000D01*
X69626000Y-165130000D02*
X79160000Y-165130000D01*
X142500000Y-127241650D02*
X140250000Y-129491650D01*
X126522000Y-165130000D02*
X136310000Y-165130000D01*
X138185000Y-147380000D02*
X136294100Y-149270900D01*
X43122000Y-163068000D02*
X48986350Y-163068000D01*
X81035000Y-163255000D02*
X87273350Y-163255000D01*
X100085000Y-163255000D02*
X106323350Y-163255000D01*
X138185000Y-142315000D02*
X138185000Y-147380000D01*
X48986350Y-163068000D02*
X51048350Y-165130000D01*
X41060000Y-165130000D02*
X43122000Y-163068000D01*
X61985000Y-163255000D02*
X67751000Y-163255000D01*
%TO.N,GND*%
X139224503Y-94598820D02*
X139224503Y-93474503D01*
X137750000Y-92000000D02*
X137250000Y-92000000D01*
X141000000Y-95553500D02*
X140179183Y-95553500D01*
X140179183Y-95553500D02*
X139224503Y-94598820D01*
X139224503Y-93474503D02*
X137750000Y-92000000D01*
%TO.N,COL0MCU*%
X126750000Y-91153500D02*
X124000000Y-91153500D01*
%TO.N,COL1MCU*%
X126746500Y-92253500D02*
X124000000Y-92253500D01*
X126750000Y-92250000D02*
X126746500Y-92253500D01*
%TO.N,COL2MCU*%
X126750000Y-93353500D02*
X124000000Y-93353500D01*
%TO.N,COL3MCU*%
X128192000Y-94453500D02*
X124000000Y-94453500D01*
X128750000Y-93895500D02*
X128192000Y-94453500D01*
%TO.N,COL4MCU*%
X130000000Y-93895500D02*
X128342000Y-95553500D01*
X128342000Y-95553500D02*
X124000000Y-95553500D01*
%TO.N,COL5MCU*%
X128596500Y-96653500D02*
X124000000Y-96653500D01*
X131375000Y-93875000D02*
X128596500Y-96653500D01*
%TO.N,ROW0MCU*%
X137450000Y-99753500D02*
X137450000Y-100574317D01*
X139278500Y-101221500D02*
X142980000Y-97520000D01*
X160030000Y-97520000D02*
X168825000Y-106315000D01*
X138097183Y-101221500D02*
X139278500Y-101221500D01*
X137450000Y-100574317D02*
X138097183Y-101221500D01*
X142980000Y-97520000D02*
X160030000Y-97520000D01*
%TO.N,ROW1MCU*%
X136350000Y-100574317D02*
X137447183Y-101671500D01*
X139464896Y-101671500D02*
X141266396Y-99870000D01*
X141266396Y-99870000D02*
X159840000Y-99870000D01*
X137447183Y-101671500D02*
X139464896Y-101671500D01*
X159840000Y-99870000D02*
X168825000Y-108855000D01*
X136350000Y-99753500D02*
X136350000Y-100574317D01*
%TO.N,ROW2MCU*%
X140231100Y-101918769D02*
X141618769Y-100531100D01*
X160030000Y-102600000D02*
X168825000Y-111395000D01*
X155600000Y-102600000D02*
X160030000Y-102600000D01*
X136237550Y-104125900D02*
X138124100Y-104125900D01*
X135250000Y-99753500D02*
X135250000Y-103138350D01*
X141618769Y-100531100D02*
X153531100Y-100531100D01*
X153531100Y-100531100D02*
X155600000Y-102600000D01*
X138124100Y-104125900D02*
X140231100Y-102018900D01*
X135250000Y-103138350D02*
X136237550Y-104125900D01*
X140231100Y-102018900D02*
X140231100Y-101918769D01*
%TO.N,VCC*%
X102055000Y-88825000D02*
X83425000Y-88825000D01*
X141000000Y-97804500D02*
X140750000Y-98054500D01*
X92850000Y-98250000D02*
X122000000Y-98250000D01*
X141000000Y-96653500D02*
X141000000Y-97804500D01*
X83425000Y-88825000D02*
X92850000Y-98250000D01*
%TO.N,ROW3MCU*%
X146454100Y-102396031D02*
X146454100Y-102392216D01*
X160030000Y-105140000D02*
X168825000Y-113935000D01*
X136744154Y-105268900D02*
X143581231Y-105268900D01*
X143581231Y-105268900D02*
X146454100Y-102396031D01*
X134150000Y-102674746D02*
X136744154Y-105268900D01*
X134150000Y-99753500D02*
X134150000Y-102674746D01*
X146454100Y-102392216D02*
X147172216Y-101674100D01*
X155678299Y-105140000D02*
X160030000Y-105140000D01*
X147172216Y-101674100D02*
X152212399Y-101674100D01*
X152212399Y-101674100D02*
X155678299Y-105140000D01*
%TO.N,MCUP04*%
X133050000Y-98609188D02*
X133050000Y-99753500D01*
X138499503Y-93895500D02*
X138499503Y-93921302D01*
X164251823Y-92250000D02*
X163525500Y-91523677D01*
X136535210Y-95520500D02*
X136138688Y-95520500D01*
X137800305Y-94620500D02*
X137435210Y-94620500D01*
X172676000Y-90524500D02*
X170950500Y-92250000D01*
X138499503Y-93921302D02*
X137800305Y-94620500D01*
X170950500Y-92250000D02*
X164251823Y-92250000D01*
X136138688Y-95520500D02*
X133050000Y-98609188D01*
X137435210Y-94620500D02*
X136535210Y-95520500D01*
%TO.N,MCUP05*%
X135952292Y-95070500D02*
X134004594Y-97018198D01*
X169643596Y-94790000D02*
X165540000Y-94790000D01*
X137500000Y-93895500D02*
X137500000Y-93919314D01*
X136348814Y-95070500D02*
X135952292Y-95070500D01*
X165540000Y-94790000D02*
X162800500Y-92050500D01*
X162800500Y-91224000D02*
X163500000Y-90524500D01*
X134004594Y-97018198D02*
X132268198Y-97018198D01*
X132268198Y-97018198D02*
X131950000Y-97336396D01*
X137500000Y-93919314D02*
X136348814Y-95070500D01*
X162800500Y-92050500D02*
X162800500Y-91224000D01*
X131950000Y-97336396D02*
X131950000Y-99753500D01*
X172678104Y-91755492D02*
X169643596Y-94790000D01*
%TO.N,MCUP06*%
X132250000Y-96400000D02*
X130850000Y-97800000D01*
X136498509Y-93921302D02*
X135799311Y-94620500D01*
X135765896Y-94620500D02*
X133986396Y-96400000D01*
X130850000Y-97800000D02*
X130850000Y-99753500D01*
X175475500Y-89750000D02*
X175475500Y-89339460D01*
X133986396Y-96400000D02*
X132250000Y-96400000D01*
X175475500Y-89339460D02*
X174136040Y-88000000D01*
X151149195Y-88000000D02*
X150000000Y-89149195D01*
X150000000Y-89149195D02*
X150000000Y-89174500D01*
X135799311Y-94620500D02*
X135765896Y-94620500D01*
X174136040Y-88000000D02*
X151149195Y-88000000D01*
X136498509Y-93895500D02*
X136498509Y-93921302D01*
%TO.N,MCUP07*%
X135499006Y-93895500D02*
X135499006Y-94250994D01*
X173949644Y-88450000D02*
X151750000Y-88450000D01*
X174750500Y-89250856D02*
X173949644Y-88450000D01*
X129750000Y-98136396D02*
X129750000Y-99753500D01*
X131936396Y-95950000D02*
X129750000Y-98136396D01*
X149699695Y-89899500D02*
X149000000Y-89199805D01*
X133800000Y-95950000D02*
X131936396Y-95950000D01*
X175475500Y-90749503D02*
X175449698Y-90749503D01*
X149000000Y-89199805D02*
X149000000Y-89174500D01*
X151750000Y-88450000D02*
X150300500Y-89899500D01*
X135499006Y-94250994D02*
X133800000Y-95950000D01*
X174750500Y-90050305D02*
X174750500Y-89250856D01*
X150300500Y-89899500D02*
X149699695Y-89899500D01*
X175449698Y-90749503D02*
X174750500Y-90050305D01*
%TO.N,MCUP08*%
X175475500Y-91750000D02*
X175450692Y-91750000D01*
X131750000Y-95500000D02*
X128650000Y-98600000D01*
X173763248Y-88900000D02*
X152250000Y-88900000D01*
X150800500Y-90349500D02*
X149149695Y-90349500D01*
X147999006Y-89198811D02*
X147999006Y-89174500D01*
X152250000Y-88900000D02*
X150800500Y-90349500D01*
X134499503Y-94250497D02*
X133250000Y-95500000D01*
X134499503Y-93895500D02*
X134499503Y-94250497D01*
X175450692Y-91750000D02*
X174300500Y-90599808D01*
X149149695Y-90349500D02*
X147999006Y-89198811D01*
X133250000Y-95500000D02*
X131750000Y-95500000D01*
X174300500Y-89437252D02*
X173763248Y-88900000D01*
X128650000Y-98600000D02*
X128650000Y-99753500D01*
X174300500Y-90599808D02*
X174300500Y-89437252D01*
%TO.N,MCUP09*%
X175475500Y-92750000D02*
X175450195Y-92750000D01*
X152750000Y-89350000D02*
X151300500Y-90799500D01*
X131472792Y-95050000D02*
X128969292Y-97553500D01*
X128969292Y-97553500D02*
X128750000Y-97553500D01*
X133500000Y-93920805D02*
X132370805Y-95050000D01*
X148598701Y-90799500D02*
X146999503Y-89200302D01*
X175450195Y-92750000D02*
X173850500Y-91150305D01*
X173850500Y-89623648D02*
X173576852Y-89350000D01*
X132370805Y-95050000D02*
X131472792Y-95050000D01*
X173576852Y-89350000D02*
X152750000Y-89350000D01*
X151300500Y-90799500D02*
X148598701Y-90799500D01*
X146999503Y-89200302D02*
X146999503Y-89174500D01*
X173850500Y-91150305D02*
X173850500Y-89623648D01*
X128750000Y-97553500D02*
X127550000Y-98753500D01*
X127550000Y-98753500D02*
X127550000Y-99753500D01*
X133500000Y-93895500D02*
X133500000Y-93920805D01*
%TO.N,SWCLK*%
X126668564Y-88953500D02*
X126718594Y-88903470D01*
X108310000Y-87650000D02*
X110900000Y-87650000D01*
X107135000Y-88825000D02*
X108310000Y-87650000D01*
X112203500Y-88953500D02*
X124000000Y-88953500D01*
X124000000Y-88953500D02*
X126668564Y-88953500D01*
X110900000Y-87650000D02*
X112203500Y-88953500D01*
%TO.N,SWDIO*%
X105823500Y-90053500D02*
X104595000Y-88825000D01*
X124000000Y-90053500D02*
X126750000Y-90053500D01*
X124000000Y-90053500D02*
X105823500Y-90053500D01*
%TO.N,MCUP10*%
X126450000Y-98932683D02*
X126450000Y-99753500D01*
X146000000Y-89200302D02*
X146000000Y-89174500D01*
X131795500Y-94600000D02*
X131286396Y-94600000D01*
X173400500Y-91700305D02*
X173400500Y-89810044D01*
X132500000Y-93895500D02*
X131795500Y-94600000D01*
X175475500Y-93750000D02*
X175450195Y-93750000D01*
X153000000Y-89800000D02*
X151550500Y-91249500D01*
X173390456Y-89800000D02*
X153000000Y-89800000D01*
X131286396Y-94600000D02*
X128782896Y-97103500D01*
X175450195Y-93750000D02*
X173400500Y-91700305D01*
X173400500Y-89810044D02*
X173390456Y-89800000D01*
X128279183Y-97103500D02*
X126450000Y-98932683D01*
X148049198Y-91249500D02*
X146000000Y-89200302D01*
X151550500Y-91249500D02*
X148049198Y-91249500D01*
X128782896Y-97103500D02*
X128279183Y-97103500D01*
%TO.N,MCUP17*%
X126750000Y-87853500D02*
X124000000Y-87853500D01*
%TO.N,MCUP18*%
X126750000Y-86753500D02*
X124000000Y-86753500D01*
%TO.N,MCUP19*%
X126750000Y-85653500D02*
X124000000Y-85653500D01*
%TO.N,MCUP20*%
X126750000Y-84553500D02*
X124000000Y-84553500D01*
D21*
%TO.N,B-*%
X75120000Y-92050000D02*
X78345000Y-88825000D01*
X56937000Y-92050000D02*
X75120000Y-92050000D01*
D20*
%TO.N,MCUP21*%
X141820817Y-85653500D02*
X143974317Y-83500000D01*
X176000000Y-83500000D02*
X180250000Y-87750000D01*
X143974317Y-83500000D02*
X176000000Y-83500000D01*
X141000000Y-85653500D02*
X141820817Y-85653500D01*
X180250000Y-87750000D02*
X180250000Y-102200000D01*
X180250000Y-102200000D02*
X181825000Y-103775000D01*
%TO.N,MCUP22*%
X142468000Y-85642713D02*
X144160713Y-83950000D01*
X179800000Y-103411701D02*
X181528299Y-105140000D01*
X175813604Y-83950000D02*
X179800000Y-87936396D01*
X141000000Y-86753500D02*
X141820817Y-86753500D01*
X144160713Y-83950000D02*
X175813604Y-83950000D01*
X179800000Y-87936396D02*
X179800000Y-103411701D01*
X141820817Y-86753500D02*
X142468000Y-86106317D01*
X183190000Y-105140000D02*
X184365000Y-106315000D01*
X142468000Y-86106317D02*
X142468000Y-85642713D01*
X181528299Y-105140000D02*
X183190000Y-105140000D01*
%TO.N,MCUP23*%
X144347109Y-84400000D02*
X175627208Y-84400000D01*
X179350000Y-103840000D02*
X181825000Y-106315000D01*
X141000000Y-87853500D02*
X141820817Y-87853500D01*
X142468000Y-86742713D02*
X142918000Y-86292713D01*
X175627208Y-84400000D02*
X179350000Y-88122792D01*
X141820817Y-87853500D02*
X142468000Y-87206317D01*
X142918000Y-86292713D02*
X142918000Y-85829109D01*
X179350000Y-88122792D02*
X179350000Y-103840000D01*
X142918000Y-85829109D02*
X144347109Y-84400000D01*
X142468000Y-87206317D02*
X142468000Y-86742713D01*
%TO.N,MCUP24*%
X141820817Y-88953500D02*
X142468000Y-88306317D01*
X143368000Y-86479109D02*
X143368000Y-86015505D01*
X178900000Y-88309188D02*
X178900000Y-105051701D01*
X142918000Y-86929109D02*
X143368000Y-86479109D01*
X144533505Y-84850000D02*
X175440812Y-84850000D01*
X142468000Y-87842713D02*
X142918000Y-87392713D01*
X142918000Y-87392713D02*
X142918000Y-86929109D01*
X178900000Y-105051701D02*
X181348299Y-107500000D01*
X141000000Y-88953500D02*
X141820817Y-88953500D01*
X181348299Y-107500000D02*
X183010000Y-107500000D01*
X183010000Y-107500000D02*
X184365000Y-108855000D01*
X142468000Y-88306317D02*
X142468000Y-87842713D01*
X175440812Y-84850000D02*
X178900000Y-88309188D01*
X143368000Y-86015505D02*
X144533505Y-84850000D01*
%TO.N,MCUP25*%
X143818000Y-86201901D02*
X144719901Y-85300000D01*
X142918000Y-88029109D02*
X143368000Y-87579109D01*
X143368000Y-87115505D02*
X143818000Y-86665505D01*
X178450000Y-105480000D02*
X181825000Y-108855000D01*
X178450000Y-88495584D02*
X178450000Y-105480000D01*
X143368000Y-87579109D02*
X143368000Y-87115505D01*
X175254416Y-85300000D02*
X178450000Y-88495584D01*
X142918000Y-88492713D02*
X142918000Y-88029109D01*
X143818000Y-86665505D02*
X143818000Y-86201901D01*
X141000000Y-90053500D02*
X141820817Y-90053500D01*
X142468000Y-88942713D02*
X142918000Y-88492713D01*
X142468000Y-89406317D02*
X142468000Y-88942713D01*
X141820817Y-90053500D02*
X142468000Y-89406317D01*
X144719901Y-85300000D02*
X175254416Y-85300000D01*
%TO.N,MCUNC1*%
X142918000Y-89592713D02*
X142918000Y-89129109D01*
X144906297Y-85750000D02*
X175068020Y-85750000D01*
X183190000Y-110220000D02*
X184365000Y-111395000D01*
X142468000Y-90506317D02*
X142468000Y-90042713D01*
X143368000Y-88679109D02*
X143368000Y-88215505D01*
X144268000Y-86388297D02*
X144906297Y-85750000D01*
X178000000Y-88681980D02*
X178000000Y-106691701D01*
X181528299Y-110220000D02*
X183190000Y-110220000D01*
X141820817Y-91153500D02*
X142468000Y-90506317D01*
X143818000Y-87765505D02*
X143818000Y-87301901D01*
X143368000Y-88215505D02*
X143818000Y-87765505D01*
X175068020Y-85750000D02*
X178000000Y-88681980D01*
X144268000Y-86851901D02*
X144268000Y-86388297D01*
X142918000Y-89129109D02*
X143368000Y-88679109D01*
X143818000Y-87301901D02*
X144268000Y-86851901D01*
X142468000Y-90042713D02*
X142918000Y-89592713D01*
X178000000Y-106691701D02*
X181528299Y-110220000D01*
X141000000Y-91153500D02*
X141820817Y-91153500D01*
%TO.N,MCUNC2*%
X144718000Y-87038297D02*
X144718000Y-86574693D01*
X141000000Y-92253500D02*
X141820817Y-92253500D01*
X144268000Y-87488297D02*
X144718000Y-87038297D01*
X142468000Y-91606317D02*
X142468000Y-91142713D01*
X143368000Y-89779109D02*
X143368000Y-89315505D01*
X177550000Y-88868376D02*
X177550000Y-107120000D01*
X142918000Y-90229109D02*
X143368000Y-89779109D01*
X143818000Y-88401901D02*
X144268000Y-87951901D01*
X141820817Y-92253500D02*
X142468000Y-91606317D01*
X143368000Y-89315505D02*
X143818000Y-88865505D01*
X142468000Y-91142713D02*
X142918000Y-90692713D01*
X144718000Y-86574693D02*
X145092693Y-86200000D01*
X145092693Y-86200000D02*
X174881624Y-86200000D01*
X142918000Y-90692713D02*
X142918000Y-90229109D01*
X177550000Y-107120000D02*
X181825000Y-111395000D01*
X143818000Y-88865505D02*
X143818000Y-88401901D01*
X144268000Y-87951901D02*
X144268000Y-87488297D01*
X174881624Y-86200000D02*
X177550000Y-88868376D01*
%TO.N,MCUP28*%
X142468000Y-92706317D02*
X142468000Y-92242713D01*
X142918000Y-91792713D02*
X142918000Y-91329109D01*
X181338299Y-112570000D02*
X183000000Y-112570000D01*
X142468000Y-92242713D02*
X142918000Y-91792713D01*
X177100000Y-108331701D02*
X181338299Y-112570000D01*
X174695228Y-86650000D02*
X177100000Y-89054772D01*
X142918000Y-91329109D02*
X143368000Y-90879109D01*
X145279089Y-86650000D02*
X174695228Y-86650000D01*
X141000000Y-93353500D02*
X141820817Y-93353500D01*
X144268000Y-88588297D02*
X144718000Y-88138297D01*
X143818000Y-89501901D02*
X144268000Y-89051901D01*
X144268000Y-89051901D02*
X144268000Y-88588297D01*
X144718000Y-88138297D02*
X144718000Y-87674693D01*
X144718000Y-87674693D02*
X145168000Y-87224693D01*
X145168000Y-86761089D02*
X145279089Y-86650000D01*
X183000000Y-112570000D02*
X184365000Y-113935000D01*
X177100000Y-89054772D02*
X177100000Y-108331701D01*
X145168000Y-87224693D02*
X145168000Y-86761089D01*
X143368000Y-90879109D02*
X143368000Y-90415505D01*
X141820817Y-93353500D02*
X142468000Y-92706317D01*
X143818000Y-89965505D02*
X143818000Y-89501901D01*
X143368000Y-90415505D02*
X143818000Y-89965505D01*
%TO.N,MCUP30*%
X145168000Y-88961089D02*
X145168000Y-89424693D01*
X146068000Y-87597485D02*
X145618000Y-88047485D01*
X143368000Y-92615505D02*
X143368000Y-93079109D01*
X144718000Y-90338297D02*
X144268000Y-90788297D01*
X144268000Y-91251901D02*
X143818000Y-91701901D01*
X144718000Y-89874693D02*
X144718000Y-90338297D01*
X143818000Y-91701901D02*
X143818000Y-92165505D01*
X181528299Y-115300000D02*
X176200000Y-109971701D01*
X176200000Y-109971701D02*
X176200000Y-89427564D01*
X143818000Y-92165505D02*
X143368000Y-92615505D01*
X140076305Y-99753500D02*
X138550000Y-99753500D01*
X183190000Y-115300000D02*
X181528299Y-115300000D01*
X142918000Y-93529109D02*
X142918000Y-93992713D01*
X145618000Y-88511089D02*
X145168000Y-88961089D01*
X143368000Y-93079109D02*
X142918000Y-93529109D01*
X174322436Y-87550000D02*
X146068000Y-87550000D01*
X144268000Y-90788297D02*
X144268000Y-91251901D01*
X145618000Y-88047485D02*
X145618000Y-88511089D01*
X142468000Y-97361805D02*
X140076305Y-99753500D01*
X176200000Y-89427564D02*
X174322436Y-87550000D01*
X142468000Y-94442713D02*
X142468000Y-97361805D01*
X145168000Y-89424693D02*
X144718000Y-89874693D01*
X142918000Y-93992713D02*
X142468000Y-94442713D01*
X146068000Y-87550000D02*
X146068000Y-87597485D01*
X184365000Y-116475000D02*
X183190000Y-115300000D01*
%TO.N,MCUP29*%
X143368000Y-91515505D02*
X143818000Y-91065505D01*
X145618000Y-87411089D02*
X145618000Y-87100000D01*
X141820817Y-94453500D02*
X142468000Y-93806317D01*
X143818000Y-90601901D02*
X144268000Y-90151901D01*
X141000000Y-94453500D02*
X141820817Y-94453500D01*
X143818000Y-91065505D02*
X143818000Y-90601901D01*
X142918000Y-92429109D02*
X143368000Y-91979109D01*
X144268000Y-89688297D02*
X144718000Y-89238297D01*
X145168000Y-87861089D02*
X145618000Y-87411089D01*
X144268000Y-90151901D02*
X144268000Y-89688297D01*
X144718000Y-88774693D02*
X145168000Y-88324693D01*
X174508832Y-87100000D02*
X176650000Y-89241168D01*
X144718000Y-89238297D02*
X144718000Y-88774693D01*
X143368000Y-91979109D02*
X143368000Y-91515505D01*
X145618000Y-87100000D02*
X174508832Y-87100000D01*
X145168000Y-88324693D02*
X145168000Y-87861089D01*
X176650000Y-89241168D02*
X176650000Y-108760000D01*
X176650000Y-108760000D02*
X181825000Y-113935000D01*
X142468000Y-93342713D02*
X142918000Y-92892713D01*
X142918000Y-92892713D02*
X142918000Y-92429109D01*
X142468000Y-93806317D02*
X142468000Y-93342713D01*
%TD*%
%TA.AperFunction,Conductor*%
%TO.N,GND*%
G36*
X143346159Y-83014015D02*
G01*
X143390182Y-83051615D01*
X143412337Y-83105102D01*
X143407795Y-83162818D01*
X143377545Y-83212181D01*
X142686684Y-83903040D01*
X142639714Y-83932486D01*
X142584606Y-83938520D01*
X142532376Y-83919938D01*
X142493463Y-83880454D01*
X142490570Y-83875764D01*
X142370732Y-83755926D01*
X142234906Y-83672147D01*
X142234903Y-83672147D01*
X141240371Y-84666681D01*
X141200143Y-84693561D01*
X141152690Y-84703000D01*
X140847309Y-84703000D01*
X140799856Y-84693561D01*
X140759628Y-84666681D01*
X139765094Y-83672147D01*
X139765093Y-83672147D01*
X139629269Y-83755926D01*
X139509424Y-83875770D01*
X139420453Y-84020013D01*
X139367143Y-84180893D01*
X139357000Y-84280184D01*
X139357000Y-84826814D01*
X139367143Y-84926105D01*
X139412738Y-85063700D01*
X139419032Y-85102704D01*
X139412738Y-85141707D01*
X139366650Y-85280790D01*
X139356500Y-85380155D01*
X139356500Y-85926844D01*
X139366650Y-86026209D01*
X139412474Y-86164496D01*
X139418768Y-86203499D01*
X139412474Y-86242502D01*
X139366650Y-86380790D01*
X139356500Y-86480155D01*
X139356500Y-87026844D01*
X139366650Y-87126209D01*
X139412474Y-87264497D01*
X139418768Y-87303500D01*
X139412474Y-87342503D01*
X139366650Y-87480790D01*
X139356500Y-87580155D01*
X139356500Y-88126844D01*
X139366650Y-88226209D01*
X139412474Y-88364497D01*
X139418768Y-88403500D01*
X139412474Y-88442503D01*
X139366650Y-88580790D01*
X139356500Y-88680155D01*
X139356500Y-89226844D01*
X139366650Y-89326209D01*
X139412474Y-89464496D01*
X139418768Y-89503499D01*
X139412474Y-89542502D01*
X139366650Y-89680790D01*
X139356500Y-89780155D01*
X139356500Y-90326844D01*
X139366650Y-90426207D01*
X139381516Y-90471069D01*
X139412475Y-90564498D01*
X139418769Y-90603499D01*
X139412475Y-90642503D01*
X139366650Y-90780792D01*
X139356500Y-90880155D01*
X139356500Y-91426844D01*
X139366650Y-91526209D01*
X139412474Y-91664497D01*
X139418768Y-91703500D01*
X139412474Y-91742503D01*
X139366650Y-91880790D01*
X139356500Y-91980155D01*
X139356500Y-92526844D01*
X139366650Y-92626209D01*
X139412474Y-92764496D01*
X139418768Y-92803499D01*
X139412474Y-92842502D01*
X139366650Y-92980790D01*
X139356500Y-93080155D01*
X139356500Y-93178484D01*
X139342389Y-93235933D01*
X139303269Y-93280306D01*
X139248042Y-93301506D01*
X139189277Y-93294707D01*
X139140350Y-93261457D01*
X139105374Y-93222612D01*
X139087701Y-93209772D01*
X138952233Y-93111348D01*
X138779305Y-93034355D01*
X138594151Y-92995000D01*
X138594149Y-92995000D01*
X138404857Y-92995000D01*
X138404855Y-92995000D01*
X138219700Y-93034355D01*
X138050187Y-93109828D01*
X137999751Y-93120549D01*
X137949315Y-93109828D01*
X137779802Y-93034355D01*
X137594648Y-92995000D01*
X137594646Y-92995000D01*
X137405354Y-92995000D01*
X137405352Y-92995000D01*
X137220197Y-93034355D01*
X137049689Y-93110271D01*
X136999253Y-93120992D01*
X136948818Y-93110271D01*
X136881177Y-93080155D01*
X136778311Y-93034355D01*
X136593157Y-92995000D01*
X136593155Y-92995000D01*
X136403863Y-92995000D01*
X136403861Y-92995000D01*
X136218706Y-93034355D01*
X136049193Y-93109828D01*
X135998757Y-93120549D01*
X135948321Y-93109828D01*
X135778808Y-93034355D01*
X135593654Y-92995000D01*
X135593652Y-92995000D01*
X135404360Y-92995000D01*
X135404358Y-92995000D01*
X135219203Y-93034355D01*
X135049690Y-93109828D01*
X134999254Y-93120549D01*
X134948818Y-93109828D01*
X134779305Y-93034355D01*
X134594151Y-92995000D01*
X134594149Y-92995000D01*
X134404857Y-92995000D01*
X134404855Y-92995000D01*
X134219700Y-93034355D01*
X134050187Y-93109828D01*
X133999751Y-93120549D01*
X133949315Y-93109828D01*
X133779802Y-93034355D01*
X133594648Y-92995000D01*
X133594646Y-92995000D01*
X133405354Y-92995000D01*
X133405352Y-92995000D01*
X133220197Y-93034355D01*
X133050435Y-93109939D01*
X132999999Y-93120660D01*
X132949563Y-93109939D01*
X132779802Y-93034355D01*
X132594648Y-92995000D01*
X132594646Y-92995000D01*
X132405354Y-92995000D01*
X132405352Y-92995000D01*
X132220197Y-93034355D01*
X132047270Y-93111348D01*
X132024491Y-93127898D01*
X131977387Y-93148870D01*
X131925825Y-93148869D01*
X131878723Y-93127898D01*
X131827730Y-93090849D01*
X131827729Y-93090848D01*
X131827727Y-93090847D01*
X131654802Y-93013855D01*
X131469648Y-92974500D01*
X131469646Y-92974500D01*
X131280354Y-92974500D01*
X131280352Y-92974500D01*
X131095197Y-93013855D01*
X130922269Y-93090848D01*
X130769129Y-93202110D01*
X130768112Y-93203241D01*
X130760609Y-93208301D01*
X130758585Y-93209772D01*
X130758533Y-93209701D01*
X130718373Y-93236788D01*
X130658706Y-93243058D01*
X130603080Y-93220583D01*
X130452730Y-93111348D01*
X130279802Y-93034355D01*
X130094648Y-92995000D01*
X130094646Y-92995000D01*
X129905354Y-92995000D01*
X129905352Y-92995000D01*
X129720197Y-93034355D01*
X129547272Y-93111346D01*
X129447884Y-93183556D01*
X129400779Y-93204527D01*
X129349218Y-93204527D01*
X129302113Y-93183555D01*
X129298391Y-93180851D01*
X129202730Y-93111349D01*
X129202729Y-93111348D01*
X129202727Y-93111347D01*
X129029802Y-93034355D01*
X128844648Y-92995000D01*
X128844646Y-92995000D01*
X128655354Y-92995000D01*
X128655352Y-92995000D01*
X128470197Y-93034355D01*
X128297269Y-93111348D01*
X128144129Y-93222610D01*
X128017466Y-93363283D01*
X127922820Y-93527215D01*
X127864326Y-93707242D01*
X127864325Y-93707244D01*
X127864326Y-93707244D01*
X127863304Y-93716964D01*
X127842784Y-93773341D01*
X127798198Y-93813486D01*
X127739984Y-93828000D01*
X127713339Y-93828000D01*
X127657044Y-93814485D01*
X127613021Y-93776885D01*
X127590866Y-93723398D01*
X127595408Y-93665682D01*
X127616749Y-93600000D01*
X127635674Y-93541756D01*
X127655460Y-93353500D01*
X127635674Y-93165244D01*
X127586485Y-93013856D01*
X127577179Y-92985215D01*
X127515569Y-92878505D01*
X127507049Y-92863748D01*
X127490437Y-92801749D01*
X127507048Y-92739754D01*
X127577179Y-92618284D01*
X127635674Y-92438256D01*
X127655460Y-92250000D01*
X127635674Y-92061744D01*
X127577179Y-91881716D01*
X127577179Y-91881715D01*
X127509071Y-91763749D01*
X127492458Y-91701749D01*
X127509069Y-91639753D01*
X127577179Y-91521784D01*
X127635674Y-91341756D01*
X127655460Y-91153500D01*
X127635674Y-90965244D01*
X127599339Y-90853418D01*
X127577179Y-90785215D01*
X127508061Y-90665499D01*
X127491448Y-90603499D01*
X127508059Y-90541501D01*
X127577179Y-90421784D01*
X127635674Y-90241756D01*
X127655460Y-90053500D01*
X127635674Y-89865244D01*
X127594959Y-89739936D01*
X127577179Y-89685215D01*
X127477916Y-89513286D01*
X127461303Y-89451286D01*
X127477916Y-89389286D01*
X127545773Y-89271754D01*
X127552214Y-89251930D01*
X127604268Y-89091726D01*
X127624054Y-88903470D01*
X127604268Y-88715214D01*
X127545773Y-88535186D01*
X127506800Y-88467684D01*
X127490187Y-88405685D01*
X127506800Y-88343684D01*
X127577179Y-88221784D01*
X127577179Y-88221783D01*
X127635674Y-88041756D01*
X127655460Y-87853500D01*
X127635674Y-87665244D01*
X127593480Y-87535385D01*
X127577179Y-87485215D01*
X127508061Y-87365500D01*
X127491448Y-87303500D01*
X127508061Y-87241500D01*
X127577179Y-87121784D01*
X127588267Y-87087658D01*
X127635674Y-86941756D01*
X127655460Y-86753500D01*
X127635674Y-86565244D01*
X127577179Y-86385216D01*
X127577179Y-86385215D01*
X127508061Y-86265500D01*
X127491448Y-86203500D01*
X127508061Y-86141500D01*
X127577179Y-86021784D01*
X127608027Y-85926844D01*
X127635674Y-85841756D01*
X127655460Y-85653500D01*
X127635674Y-85465244D01*
X127577179Y-85285216D01*
X127577179Y-85285215D01*
X127508061Y-85165499D01*
X127491448Y-85103499D01*
X127508059Y-85041501D01*
X127577179Y-84921784D01*
X127635674Y-84741756D01*
X127655460Y-84553500D01*
X127635674Y-84365244D01*
X127605332Y-84271863D01*
X127577179Y-84185215D01*
X127482533Y-84021283D01*
X127355870Y-83880610D01*
X127202730Y-83769348D01*
X127029802Y-83692355D01*
X126844648Y-83653000D01*
X126844646Y-83653000D01*
X126655354Y-83653000D01*
X126655352Y-83653000D01*
X126470197Y-83692355D01*
X126297272Y-83769347D01*
X126243661Y-83808298D01*
X126144129Y-83880612D01*
X126138401Y-83886973D01*
X126096688Y-83917280D01*
X126046253Y-83928000D01*
X125592584Y-83928000D01*
X125532155Y-83912279D01*
X125502769Y-83884149D01*
X125501215Y-83885704D01*
X125490969Y-83875458D01*
X125490968Y-83875456D01*
X125371044Y-83755532D01*
X125371043Y-83755531D01*
X125371041Y-83755529D01*
X125226699Y-83666497D01*
X125065707Y-83613150D01*
X124971239Y-83603500D01*
X140403552Y-83603500D01*
X141000000Y-84199947D01*
X141000001Y-84199947D01*
X141596446Y-83603500D01*
X140403552Y-83603500D01*
X124971239Y-83603500D01*
X124966344Y-83603000D01*
X123033655Y-83603000D01*
X122934292Y-83613150D01*
X122773300Y-83666497D01*
X122628955Y-83755531D01*
X122509031Y-83875455D01*
X122419997Y-84019800D01*
X122366650Y-84180792D01*
X122356500Y-84280155D01*
X122356500Y-84826844D01*
X122366650Y-84926207D01*
X122382970Y-84975456D01*
X122412475Y-85064498D01*
X122418769Y-85103499D01*
X122412475Y-85142503D01*
X122366650Y-85280792D01*
X122356500Y-85380155D01*
X122356500Y-85926844D01*
X122366650Y-86026209D01*
X122412474Y-86164496D01*
X122418768Y-86203499D01*
X122412474Y-86242502D01*
X122366650Y-86380790D01*
X122356500Y-86480155D01*
X122356500Y-87026844D01*
X122366650Y-87126209D01*
X122412474Y-87264497D01*
X122418768Y-87303500D01*
X122412474Y-87342503D01*
X122366650Y-87480790D01*
X122356500Y-87580155D01*
X122356500Y-88126844D01*
X122363095Y-88191399D01*
X122351081Y-88258575D01*
X122305344Y-88309222D01*
X122239737Y-88328000D01*
X112513953Y-88328000D01*
X112466500Y-88318561D01*
X112426272Y-88291681D01*
X111400802Y-87266211D01*
X111387906Y-87250113D01*
X111336775Y-87202098D01*
X111333978Y-87199387D01*
X111314470Y-87179879D01*
X111311290Y-87177412D01*
X111302424Y-87169839D01*
X111270582Y-87139938D01*
X111253024Y-87130285D01*
X111236764Y-87119604D01*
X111220936Y-87107327D01*
X111180851Y-87089980D01*
X111170361Y-87084841D01*
X111132091Y-87063802D01*
X111112691Y-87058821D01*
X111094284Y-87052519D01*
X111075897Y-87044562D01*
X111032758Y-87037729D01*
X111021324Y-87035361D01*
X110979019Y-87024500D01*
X110958984Y-87024500D01*
X110939586Y-87022973D01*
X110932162Y-87021797D01*
X110919805Y-87019840D01*
X110919804Y-87019840D01*
X110894468Y-87022235D01*
X110876325Y-87023950D01*
X110864656Y-87024500D01*
X108392744Y-87024500D01*
X108372237Y-87022235D01*
X108302127Y-87024439D01*
X108298232Y-87024500D01*
X108270650Y-87024500D01*
X108266665Y-87025003D01*
X108255033Y-87025918D01*
X108211369Y-87027290D01*
X108192129Y-87032880D01*
X108173081Y-87036825D01*
X108153209Y-87039335D01*
X108112599Y-87055413D01*
X108101554Y-87059194D01*
X108059610Y-87071381D01*
X108042365Y-87081579D01*
X108024904Y-87090133D01*
X108006267Y-87097512D01*
X107970931Y-87123185D01*
X107961174Y-87129595D01*
X107923580Y-87151829D01*
X107909413Y-87165996D01*
X107894624Y-87178626D01*
X107878413Y-87190404D01*
X107850572Y-87224058D01*
X107842711Y-87232697D01*
X107590646Y-87484762D01*
X107535058Y-87516856D01*
X107470872Y-87516856D01*
X107386930Y-87494364D01*
X107370405Y-87489936D01*
X107135000Y-87469340D01*
X106899592Y-87489936D01*
X106671336Y-87551097D01*
X106457170Y-87650965D01*
X106263598Y-87786505D01*
X106096505Y-87953598D01*
X105966575Y-88139159D01*
X105922257Y-88178025D01*
X105865000Y-88192036D01*
X105807743Y-88178025D01*
X105763425Y-88139159D01*
X105718851Y-88075500D01*
X105633495Y-87953599D01*
X105466401Y-87786505D01*
X105272830Y-87650965D01*
X105058663Y-87551097D01*
X104997502Y-87534709D01*
X104830407Y-87489936D01*
X104595000Y-87469340D01*
X104359592Y-87489936D01*
X104131336Y-87551097D01*
X103917170Y-87650965D01*
X103723598Y-87786505D01*
X103556505Y-87953598D01*
X103426575Y-88139159D01*
X103382257Y-88178025D01*
X103325000Y-88192036D01*
X103267743Y-88178025D01*
X103223425Y-88139159D01*
X103178851Y-88075500D01*
X103093495Y-87953599D01*
X102926401Y-87786505D01*
X102732830Y-87650965D01*
X102518663Y-87551097D01*
X102457502Y-87534709D01*
X102290407Y-87489936D01*
X102055000Y-87469340D01*
X101819592Y-87489936D01*
X101591336Y-87551097D01*
X101377170Y-87650965D01*
X101183598Y-87786505D01*
X101016505Y-87953598D01*
X100881349Y-88146623D01*
X100837031Y-88185489D01*
X100779774Y-88199500D01*
X84899499Y-88199500D01*
X84837499Y-88182887D01*
X84792112Y-88137500D01*
X84775499Y-88075500D01*
X84775499Y-87927130D01*
X84773489Y-87908430D01*
X84769091Y-87867517D01*
X84718796Y-87732669D01*
X84632546Y-87617454D01*
X84517331Y-87531204D01*
X84382483Y-87480909D01*
X84322873Y-87474500D01*
X84322869Y-87474500D01*
X82527130Y-87474500D01*
X82467515Y-87480909D01*
X82332669Y-87531204D01*
X82217454Y-87617454D01*
X82131204Y-87732669D01*
X82082189Y-87864083D01*
X82047209Y-87914462D01*
X81992365Y-87941915D01*
X81931072Y-87939726D01*
X81878326Y-87908430D01*
X81756404Y-87786508D01*
X81756403Y-87786507D01*
X81756401Y-87786505D01*
X81562830Y-87650965D01*
X81348663Y-87551097D01*
X81287502Y-87534709D01*
X81120407Y-87489936D01*
X80885000Y-87469340D01*
X80649592Y-87489936D01*
X80421336Y-87551097D01*
X80207170Y-87650965D01*
X80013598Y-87786505D01*
X79846505Y-87953598D01*
X79716575Y-88139159D01*
X79672257Y-88178025D01*
X79615000Y-88192036D01*
X79557743Y-88178025D01*
X79513425Y-88139159D01*
X79468851Y-88075500D01*
X79383495Y-87953599D01*
X79216401Y-87786505D01*
X79022830Y-87650965D01*
X78808663Y-87551097D01*
X78747502Y-87534709D01*
X78580407Y-87489936D01*
X78345000Y-87469340D01*
X78109592Y-87489936D01*
X77881336Y-87551097D01*
X77667170Y-87650965D01*
X77473598Y-87786505D01*
X77306508Y-87953595D01*
X77176269Y-88139596D01*
X77131951Y-88178461D01*
X77074694Y-88192472D01*
X77017437Y-88178461D01*
X76973119Y-88139595D01*
X76843109Y-87953921D01*
X76676081Y-87786893D01*
X76482576Y-87651399D01*
X76268492Y-87551569D01*
X76055000Y-87494364D01*
X76055000Y-90214401D01*
X76045561Y-90261854D01*
X76018681Y-90302082D01*
X74907584Y-91413181D01*
X74867356Y-91440061D01*
X74819903Y-91449500D01*
X68476583Y-91449500D01*
X68412255Y-91431509D01*
X68366594Y-91382757D01*
X68352849Y-91317390D01*
X68375006Y-91254379D01*
X68459534Y-91133662D01*
X68552894Y-90933450D01*
X68610070Y-90720068D01*
X68629323Y-90500000D01*
X68624683Y-90446969D01*
X68610070Y-90279934D01*
X68610070Y-90279932D01*
X68552894Y-90066550D01*
X68459534Y-89866339D01*
X68332826Y-89685380D01*
X68176620Y-89529174D01*
X67995662Y-89402466D01*
X67832126Y-89326208D01*
X67795451Y-89309106D01*
X67582065Y-89251929D01*
X67361999Y-89232676D01*
X67141934Y-89251929D01*
X66928548Y-89309106D01*
X66728338Y-89402466D01*
X66547379Y-89529174D01*
X66391174Y-89685379D01*
X66264466Y-89866338D01*
X66171106Y-90066548D01*
X66113929Y-90279934D01*
X66094676Y-90500000D01*
X66113929Y-90720065D01*
X66171106Y-90933451D01*
X66198365Y-90991907D01*
X66264466Y-91133662D01*
X66348993Y-91254379D01*
X66371151Y-91317390D01*
X66357406Y-91382757D01*
X66311745Y-91431509D01*
X66247417Y-91449500D01*
X65030104Y-91449500D01*
X64971890Y-91434986D01*
X64927303Y-91394840D01*
X64906783Y-91338462D01*
X64864469Y-90935867D01*
X64767440Y-90385589D01*
X64632262Y-89843419D01*
X64459594Y-89312000D01*
X64363840Y-89075000D01*
X74474364Y-89075000D01*
X74531569Y-89288492D01*
X74631399Y-89502576D01*
X74766893Y-89696081D01*
X74933918Y-89863106D01*
X75127423Y-89998600D01*
X75341507Y-90098430D01*
X75554999Y-90155635D01*
X75555000Y-90155636D01*
X75555000Y-89075000D01*
X74474364Y-89075000D01*
X64363840Y-89075000D01*
X64250276Y-88793920D01*
X64250273Y-88793913D01*
X64143502Y-88575000D01*
X74474364Y-88575000D01*
X75555000Y-88575000D01*
X75555000Y-87494364D01*
X75554999Y-87494364D01*
X75341507Y-87551569D01*
X75127421Y-87651400D01*
X74933921Y-87786890D01*
X74766890Y-87953921D01*
X74631400Y-88147421D01*
X74531569Y-88361507D01*
X74474364Y-88574999D01*
X74474364Y-88575000D01*
X64143502Y-88575000D01*
X64005330Y-88291706D01*
X63725948Y-87807802D01*
X63711583Y-87786505D01*
X63413486Y-87344557D01*
X63368671Y-87287197D01*
X63245539Y-87129595D01*
X63069475Y-86904243D01*
X62695586Y-86488998D01*
X62293643Y-86100846D01*
X62293644Y-86100846D01*
X62293639Y-86100842D01*
X61865601Y-85741675D01*
X61413553Y-85413244D01*
X60939691Y-85117141D01*
X60839183Y-85063700D01*
X60446326Y-84854815D01*
X60191096Y-84741179D01*
X59935868Y-84627544D01*
X59410787Y-84436430D01*
X58873678Y-84282417D01*
X58327121Y-84166242D01*
X57773792Y-84088477D01*
X57402185Y-84062492D01*
X57216384Y-84049500D01*
X56657616Y-84049500D01*
X56518264Y-84059244D01*
X56100207Y-84088477D01*
X55546878Y-84166242D01*
X55000321Y-84282417D01*
X54463212Y-84436430D01*
X53938131Y-84627544D01*
X53427674Y-84854815D01*
X52934309Y-85117141D01*
X52460446Y-85413244D01*
X52008398Y-85741675D01*
X51580360Y-86100842D01*
X51178412Y-86489000D01*
X50804523Y-86904245D01*
X50460519Y-87344549D01*
X50148051Y-87807802D01*
X49868669Y-88291706D01*
X49623726Y-88793913D01*
X49414405Y-89312002D01*
X49241739Y-89843414D01*
X49106558Y-90385595D01*
X49009531Y-90935860D01*
X48951123Y-91491582D01*
X48931622Y-92050000D01*
X48951123Y-92608417D01*
X49009531Y-93164139D01*
X49106558Y-93714404D01*
X49241739Y-94256585D01*
X49379201Y-94679651D01*
X49414406Y-94788000D01*
X49430463Y-94827742D01*
X49623726Y-95306086D01*
X49868669Y-95808293D01*
X50148051Y-96292197D01*
X50148054Y-96292202D01*
X50148055Y-96292203D01*
X50435322Y-96718095D01*
X50460519Y-96755450D01*
X50569157Y-96894500D01*
X50804525Y-97195757D01*
X51178414Y-97611002D01*
X51477405Y-97899734D01*
X51580360Y-97999157D01*
X52008398Y-98358324D01*
X52387542Y-98633787D01*
X52460450Y-98686758D01*
X52934311Y-98982860D01*
X53427674Y-99245185D01*
X53938133Y-99472456D01*
X54463202Y-99663566D01*
X54463210Y-99663568D01*
X54463212Y-99663569D01*
X54536740Y-99684653D01*
X54546565Y-99690421D01*
X54557983Y-99690743D01*
X55000324Y-99817583D01*
X55198355Y-99859675D01*
X55546878Y-99933757D01*
X55775880Y-99965941D01*
X56100210Y-100011523D01*
X56657616Y-100050500D01*
X57216383Y-100050500D01*
X57216384Y-100050500D01*
X57773790Y-100011523D01*
X58193892Y-99952481D01*
X58327121Y-99933757D01*
X58559469Y-99884369D01*
X58873676Y-99817583D01*
X59410798Y-99663566D01*
X59935867Y-99472456D01*
X60446326Y-99245185D01*
X60939689Y-98982860D01*
X61413550Y-98686758D01*
X61865602Y-98358323D01*
X61979763Y-98262531D01*
X62103994Y-98158288D01*
X62293643Y-97999154D01*
X62695586Y-97611002D01*
X63069475Y-97195757D01*
X63413486Y-96755443D01*
X63725945Y-96292203D01*
X64005328Y-95808297D01*
X64250276Y-95306080D01*
X64459594Y-94788000D01*
X64632262Y-94256581D01*
X64767440Y-93714411D01*
X64864469Y-93164133D01*
X64906783Y-92761536D01*
X64927303Y-92705160D01*
X64971890Y-92665014D01*
X65030104Y-92650500D01*
X66247417Y-92650500D01*
X66311745Y-92668491D01*
X66357406Y-92717243D01*
X66371152Y-92782610D01*
X66348992Y-92845623D01*
X66264466Y-92966338D01*
X66171106Y-93166548D01*
X66113929Y-93379934D01*
X66094676Y-93600000D01*
X66113929Y-93820065D01*
X66171106Y-94033451D01*
X66226252Y-94151712D01*
X66264466Y-94233662D01*
X66391174Y-94414620D01*
X66547380Y-94570826D01*
X66728338Y-94697534D01*
X66928550Y-94790894D01*
X67141932Y-94848070D01*
X67362000Y-94867323D01*
X67582068Y-94848070D01*
X67795450Y-94790894D01*
X67995662Y-94697534D01*
X68176620Y-94570826D01*
X68332826Y-94414620D01*
X68459534Y-94233662D01*
X68552894Y-94033450D01*
X68610070Y-93820068D01*
X68629323Y-93600000D01*
X68610070Y-93379932D01*
X68552894Y-93166550D01*
X68459534Y-92966339D01*
X68375007Y-92845622D01*
X68352848Y-92782610D01*
X68366594Y-92717243D01*
X68412255Y-92668491D01*
X68476583Y-92650500D01*
X75072513Y-92650500D01*
X75088697Y-92651560D01*
X75120000Y-92655682D01*
X75276762Y-92635044D01*
X75422841Y-92574536D01*
X75439512Y-92561744D01*
X75548282Y-92478282D01*
X75567509Y-92453223D01*
X75578190Y-92441043D01*
X77861469Y-90157764D01*
X77917054Y-90125672D01*
X77981241Y-90125672D01*
X78109592Y-90160063D01*
X78345000Y-90180659D01*
X78580408Y-90160063D01*
X78808663Y-90098903D01*
X79022830Y-89999035D01*
X79216401Y-89863495D01*
X79383495Y-89696401D01*
X79513426Y-89510839D01*
X79557743Y-89471975D01*
X79615000Y-89457964D01*
X79672257Y-89471975D01*
X79716573Y-89510839D01*
X79846505Y-89696401D01*
X80013599Y-89863495D01*
X80207170Y-89999035D01*
X80421337Y-90098903D01*
X80649592Y-90160063D01*
X80885000Y-90180659D01*
X81120408Y-90160063D01*
X81348663Y-90098903D01*
X81562830Y-89999035D01*
X81756401Y-89863495D01*
X81878329Y-89741566D01*
X81931072Y-89710273D01*
X81992365Y-89708084D01*
X82047209Y-89735537D01*
X82082189Y-89785916D01*
X82103635Y-89843414D01*
X82131204Y-89917331D01*
X82217454Y-90032546D01*
X82332669Y-90118796D01*
X82467517Y-90169091D01*
X82527127Y-90175500D01*
X83839547Y-90175499D01*
X83887000Y-90184938D01*
X83927227Y-90211817D01*
X88138297Y-94422888D01*
X92349196Y-98633787D01*
X92362096Y-98649888D01*
X92413223Y-98697900D01*
X92416020Y-98700611D01*
X92435529Y-98720120D01*
X92438711Y-98722588D01*
X92447571Y-98730155D01*
X92479418Y-98760062D01*
X92496972Y-98769712D01*
X92513236Y-98780396D01*
X92524972Y-98789499D01*
X92529064Y-98792673D01*
X92553909Y-98803424D01*
X92569152Y-98810021D01*
X92579631Y-98815154D01*
X92617908Y-98836197D01*
X92637306Y-98841177D01*
X92655708Y-98847477D01*
X92674104Y-98855438D01*
X92717261Y-98862273D01*
X92728664Y-98864634D01*
X92770981Y-98875500D01*
X92791016Y-98875500D01*
X92810413Y-98877026D01*
X92830196Y-98880160D01*
X92873674Y-98876050D01*
X92885344Y-98875500D01*
X121296253Y-98875500D01*
X121346688Y-98886220D01*
X121388401Y-98916526D01*
X121394129Y-98922888D01*
X121547270Y-99034151D01*
X121547271Y-99034151D01*
X121547272Y-99034152D01*
X121720197Y-99111144D01*
X121905352Y-99150500D01*
X121905354Y-99150500D01*
X122094646Y-99150500D01*
X122094648Y-99150500D01*
X122244908Y-99118561D01*
X122279803Y-99111144D01*
X122452730Y-99034151D01*
X122454563Y-99032819D01*
X122605870Y-98922889D01*
X122611598Y-98916528D01*
X122732533Y-98782216D01*
X122827179Y-98618284D01*
X122885674Y-98438256D01*
X122905460Y-98250000D01*
X122885674Y-98061744D01*
X122850450Y-97953337D01*
X122827179Y-97881715D01*
X122759251Y-97764061D01*
X122742741Y-97707109D01*
X122754563Y-97649003D01*
X122792013Y-97603030D01*
X122846529Y-97579702D01*
X122905640Y-97584354D01*
X122934292Y-97593849D01*
X123033655Y-97604000D01*
X124966344Y-97603999D01*
X125065708Y-97593849D01*
X125226697Y-97540503D01*
X125307471Y-97490681D01*
X125371041Y-97451470D01*
X125371041Y-97451469D01*
X125371044Y-97451468D01*
X125490968Y-97331544D01*
X125490969Y-97331541D01*
X125501215Y-97321296D01*
X125502769Y-97322850D01*
X125532155Y-97294721D01*
X125592584Y-97279000D01*
X126919730Y-97279000D01*
X126976025Y-97292515D01*
X127020048Y-97330115D01*
X127042203Y-97383602D01*
X127037661Y-97441318D01*
X127007411Y-97490681D01*
X126424409Y-98073681D01*
X126384181Y-98100561D01*
X126336729Y-98110000D01*
X126176655Y-98110000D01*
X126077292Y-98120150D01*
X125916300Y-98173497D01*
X125771955Y-98262531D01*
X125652031Y-98382455D01*
X125562997Y-98526800D01*
X125509650Y-98687792D01*
X125499500Y-98787155D01*
X125499500Y-100719844D01*
X125509650Y-100819207D01*
X125562997Y-100980199D01*
X125652031Y-101124544D01*
X125771955Y-101244468D01*
X125916300Y-101333502D01*
X125916302Y-101333502D01*
X125916303Y-101333503D01*
X126077292Y-101386849D01*
X126176655Y-101397000D01*
X126723344Y-101396999D01*
X126822708Y-101386849D01*
X126960997Y-101341024D01*
X127000000Y-101334731D01*
X127039002Y-101341024D01*
X127177292Y-101386849D01*
X127276655Y-101397000D01*
X127823344Y-101396999D01*
X127922708Y-101386849D01*
X128060997Y-101341024D01*
X128100000Y-101334731D01*
X128139002Y-101341024D01*
X128277292Y-101386849D01*
X128376655Y-101397000D01*
X128923344Y-101396999D01*
X129022708Y-101386849D01*
X129160997Y-101341024D01*
X129200000Y-101334731D01*
X129239002Y-101341024D01*
X129377292Y-101386849D01*
X129476655Y-101397000D01*
X130023344Y-101396999D01*
X130122708Y-101386849D01*
X130260997Y-101341024D01*
X130300000Y-101334731D01*
X130339002Y-101341024D01*
X130477292Y-101386849D01*
X130576655Y-101397000D01*
X131123344Y-101396999D01*
X131222708Y-101386849D01*
X131360997Y-101341024D01*
X131400000Y-101334731D01*
X131439002Y-101341024D01*
X131577292Y-101386849D01*
X131676655Y-101397000D01*
X132223344Y-101396999D01*
X132322708Y-101386849D01*
X132460997Y-101341024D01*
X132500000Y-101334731D01*
X132539002Y-101341024D01*
X132677292Y-101386849D01*
X132776655Y-101397000D01*
X133323344Y-101396999D01*
X133387899Y-101390405D01*
X133455075Y-101402419D01*
X133505722Y-101448156D01*
X133524500Y-101513763D01*
X133524500Y-102592002D01*
X133522235Y-102612508D01*
X133524439Y-102682619D01*
X133524500Y-102686514D01*
X133524500Y-102714095D01*
X133525003Y-102718080D01*
X133525918Y-102729713D01*
X133527290Y-102773372D01*
X133532879Y-102792606D01*
X133536825Y-102811662D01*
X133539335Y-102831538D01*
X133555414Y-102872150D01*
X133559197Y-102883197D01*
X133571382Y-102925137D01*
X133581580Y-102942381D01*
X133590136Y-102959846D01*
X133597514Y-102978478D01*
X133597515Y-102978479D01*
X133623180Y-103013805D01*
X133629593Y-103023568D01*
X133651826Y-103061162D01*
X133651829Y-103061165D01*
X133651830Y-103061166D01*
X133665995Y-103075331D01*
X133678627Y-103090121D01*
X133690406Y-103106333D01*
X133724058Y-103134172D01*
X133732699Y-103142035D01*
X136243351Y-105652687D01*
X136256252Y-105668789D01*
X136258366Y-105670774D01*
X136258368Y-105670777D01*
X136305715Y-105715239D01*
X136307394Y-105716816D01*
X136310190Y-105719526D01*
X136329684Y-105739020D01*
X136332858Y-105741482D01*
X136341722Y-105749053D01*
X136373572Y-105778962D01*
X136384068Y-105784732D01*
X136391128Y-105788614D01*
X136407385Y-105799292D01*
X136423218Y-105811574D01*
X136439339Y-105818549D01*
X136463310Y-105828923D01*
X136473797Y-105834060D01*
X136512062Y-105855097D01*
X136531470Y-105860080D01*
X136549864Y-105866378D01*
X136568259Y-105874338D01*
X136611408Y-105881171D01*
X136622834Y-105883538D01*
X136638376Y-105887529D01*
X136665134Y-105894400D01*
X136665135Y-105894400D01*
X136685170Y-105894400D01*
X136704567Y-105895926D01*
X136724350Y-105899060D01*
X136767828Y-105894950D01*
X136779498Y-105894400D01*
X143498487Y-105894400D01*
X143518993Y-105896664D01*
X143521896Y-105896572D01*
X143521898Y-105896573D01*
X143589103Y-105894461D01*
X143592999Y-105894400D01*
X143620580Y-105894400D01*
X143620581Y-105894400D01*
X143624550Y-105893898D01*
X143636196Y-105892980D01*
X143679858Y-105891609D01*
X143699090Y-105886020D01*
X143718149Y-105882074D01*
X143725322Y-105881168D01*
X143738023Y-105879564D01*
X143778638Y-105863482D01*
X143789675Y-105859703D01*
X143831621Y-105847518D01*
X143848860Y-105837322D01*
X143866333Y-105828762D01*
X143884963Y-105821386D01*
X143920295Y-105795714D01*
X143930061Y-105789300D01*
X143967649Y-105767071D01*
X143967648Y-105767071D01*
X143967651Y-105767070D01*
X143981816Y-105752904D01*
X143996604Y-105740273D01*
X144012818Y-105728494D01*
X144040669Y-105694826D01*
X144048510Y-105686209D01*
X144343135Y-105391585D01*
X144447819Y-105286902D01*
X144497182Y-105256652D01*
X144554898Y-105252110D01*
X144608385Y-105274265D01*
X144645985Y-105318288D01*
X144659500Y-105374583D01*
X144659500Y-105571182D01*
X144698604Y-105830615D01*
X144775937Y-106081323D01*
X144889772Y-106317704D01*
X145021605Y-106511067D01*
X145037571Y-106534485D01*
X145184836Y-106693198D01*
X145216019Y-106726805D01*
X145421143Y-106890386D01*
X145648357Y-107021568D01*
X145816550Y-107087579D01*
X145854048Y-107102296D01*
X145892584Y-107117420D01*
X146148370Y-107175802D01*
X146204408Y-107180001D01*
X146344501Y-107190500D01*
X146344506Y-107190500D01*
X146475494Y-107190500D01*
X146475499Y-107190500D01*
X146598079Y-107181313D01*
X146671630Y-107175802D01*
X146927416Y-107117420D01*
X147171643Y-107021568D01*
X147398857Y-106890386D01*
X147603981Y-106726805D01*
X147734878Y-106585731D01*
X147782428Y-106534485D01*
X147782429Y-106534482D01*
X147782433Y-106534479D01*
X147930228Y-106317704D01*
X148044063Y-106081323D01*
X148121396Y-105830615D01*
X148137885Y-105721213D01*
X148161655Y-105664825D01*
X148209500Y-105626670D01*
X148269766Y-105616044D01*
X148327776Y-105635534D01*
X148369399Y-105680393D01*
X148384500Y-105739697D01*
X148384500Y-106737869D01*
X148390909Y-106797483D01*
X148441204Y-106932331D01*
X148527454Y-107047546D01*
X148642669Y-107133796D01*
X148777517Y-107184091D01*
X148837127Y-107190500D01*
X149410500Y-107190500D01*
X149472500Y-107207113D01*
X149517887Y-107252500D01*
X149534500Y-107314500D01*
X149534500Y-108729548D01*
X149525061Y-108777001D01*
X149498181Y-108817229D01*
X147677226Y-110638181D01*
X147636999Y-110665061D01*
X147589548Y-110674500D01*
X147550597Y-110674500D01*
X147518579Y-110677019D01*
X147515844Y-110677235D01*
X147466267Y-110691638D01*
X147367111Y-110720445D01*
X147233800Y-110799285D01*
X147124285Y-110908800D01*
X147045446Y-111042110D01*
X147045446Y-111042111D01*
X147045445Y-111042113D01*
X147002235Y-111190844D01*
X147002235Y-111190845D01*
X147002235Y-111190846D01*
X146999500Y-111225598D01*
X146999500Y-111574402D01*
X147001804Y-111603686D01*
X147002235Y-111609156D01*
X147011828Y-111642175D01*
X147045445Y-111757888D01*
X147124285Y-111891199D01*
X147233800Y-112000714D01*
X147293439Y-112035984D01*
X147367113Y-112079555D01*
X147515844Y-112122765D01*
X147550595Y-112125500D01*
X148049404Y-112125499D01*
X148084156Y-112122765D01*
X148232887Y-112079555D01*
X148366198Y-112000715D01*
X148475715Y-111891198D01*
X148554555Y-111757887D01*
X148597765Y-111609156D01*
X148600500Y-111574405D01*
X148600499Y-111535451D01*
X148609937Y-111488000D01*
X148636815Y-111447773D01*
X150543789Y-109540800D01*
X150559885Y-109527906D01*
X150561873Y-109525787D01*
X150561877Y-109525786D01*
X150607948Y-109476723D01*
X150610566Y-109474023D01*
X150630120Y-109454471D01*
X150632581Y-109451298D01*
X150640156Y-109442427D01*
X150670062Y-109410582D01*
X150679712Y-109393027D01*
X150690400Y-109376757D01*
X150702671Y-109360938D01*
X150702673Y-109360936D01*
X150720026Y-109320832D01*
X150725157Y-109310362D01*
X150746197Y-109272092D01*
X150751175Y-109252699D01*
X150757481Y-109234282D01*
X150763635Y-109220061D01*
X150765438Y-109215896D01*
X150772272Y-109172745D01*
X150774635Y-109161331D01*
X150785500Y-109119019D01*
X150785500Y-109098984D01*
X150787027Y-109079585D01*
X150787835Y-109074485D01*
X150790160Y-109059804D01*
X150786050Y-109016325D01*
X150785500Y-109004656D01*
X150785500Y-107314499D01*
X150802113Y-107252499D01*
X150847500Y-107207112D01*
X150909500Y-107190499D01*
X151482870Y-107190499D01*
X151482872Y-107190499D01*
X151542483Y-107184091D01*
X151677331Y-107133796D01*
X151792546Y-107047546D01*
X151878796Y-106932331D01*
X151929091Y-106797483D01*
X151935500Y-106737873D01*
X151935499Y-104142128D01*
X151929091Y-104082517D01*
X151878796Y-103947669D01*
X151792546Y-103832454D01*
X151677331Y-103746204D01*
X151542483Y-103695909D01*
X151482873Y-103689500D01*
X151482869Y-103689500D01*
X148837130Y-103689500D01*
X148777513Y-103695909D01*
X148737174Y-103710955D01*
X148677363Y-103717673D01*
X148621434Y-103695436D01*
X148582564Y-103649484D01*
X148569911Y-103590642D01*
X148586454Y-103532775D01*
X148686426Y-103359619D01*
X148755222Y-103160846D01*
X148785157Y-102952645D01*
X148775148Y-102742541D01*
X148725558Y-102538129D01*
X148723223Y-102533017D01*
X148696779Y-102475112D01*
X148685889Y-102414754D01*
X148705258Y-102356561D01*
X148750146Y-102314768D01*
X148809573Y-102299600D01*
X151901947Y-102299600D01*
X151949400Y-102309039D01*
X151989628Y-102335919D01*
X154929224Y-105275515D01*
X154961290Y-105331001D01*
X154961372Y-105395086D01*
X154939788Y-105432654D01*
X154942727Y-105434712D01*
X154800965Y-105637170D01*
X154701097Y-105851336D01*
X154639936Y-106079592D01*
X154619340Y-106314999D01*
X154639936Y-106550407D01*
X154678196Y-106693195D01*
X154701097Y-106778663D01*
X154800965Y-106992830D01*
X154936505Y-107186401D01*
X155103599Y-107353495D01*
X155289160Y-107483426D01*
X155328024Y-107527743D01*
X155342035Y-107585000D01*
X155328024Y-107642257D01*
X155289158Y-107686575D01*
X155136697Y-107793330D01*
X155103595Y-107816508D01*
X154936505Y-107983598D01*
X154800965Y-108177170D01*
X154701097Y-108391336D01*
X154639936Y-108619592D01*
X154619340Y-108854999D01*
X154639936Y-109090407D01*
X154676797Y-109227973D01*
X154701097Y-109318663D01*
X154800965Y-109532830D01*
X154936505Y-109726401D01*
X155103599Y-109893495D01*
X155289160Y-110023426D01*
X155328024Y-110067743D01*
X155342035Y-110125000D01*
X155328024Y-110182257D01*
X155289158Y-110226575D01*
X155142037Y-110329591D01*
X155103595Y-110356508D01*
X154936505Y-110523598D01*
X154800965Y-110717170D01*
X154701097Y-110931336D01*
X154639936Y-111159592D01*
X154619340Y-111394999D01*
X154639936Y-111630407D01*
X154674094Y-111757887D01*
X154701097Y-111858663D01*
X154800965Y-112072830D01*
X154936505Y-112266401D01*
X155103599Y-112433495D01*
X155289160Y-112563426D01*
X155328024Y-112607743D01*
X155342035Y-112665000D01*
X155328024Y-112722257D01*
X155289159Y-112766575D01*
X155103595Y-112896508D01*
X154936505Y-113063598D01*
X154800965Y-113257170D01*
X154701097Y-113471336D01*
X154639936Y-113699592D01*
X154619340Y-113934999D01*
X154639936Y-114170407D01*
X154676547Y-114307039D01*
X154701097Y-114398663D01*
X154800965Y-114612830D01*
X154936505Y-114806401D01*
X155103599Y-114973495D01*
X155297170Y-115109035D01*
X155511337Y-115208903D01*
X155739592Y-115270063D01*
X155975000Y-115290659D01*
X156210408Y-115270063D01*
X156438663Y-115208903D01*
X156652830Y-115109035D01*
X156846401Y-114973495D01*
X157013495Y-114806401D01*
X157149035Y-114612830D01*
X157248903Y-114398663D01*
X157310063Y-114170408D01*
X157330659Y-113935000D01*
X157310063Y-113699592D01*
X157248903Y-113471337D01*
X157149035Y-113257171D01*
X157013495Y-113063599D01*
X156846401Y-112896505D01*
X156660839Y-112766573D01*
X156621974Y-112722255D01*
X156607964Y-112664999D01*
X156621975Y-112607742D01*
X156660837Y-112563428D01*
X156846401Y-112433495D01*
X157013495Y-112266401D01*
X157149035Y-112072830D01*
X157248903Y-111858663D01*
X157310063Y-111630408D01*
X157330659Y-111395000D01*
X157321803Y-111293783D01*
X157310063Y-111159592D01*
X157283143Y-111059125D01*
X157248903Y-110931337D01*
X157149035Y-110717171D01*
X157013495Y-110523599D01*
X156846401Y-110356505D01*
X156660839Y-110226573D01*
X156621975Y-110182257D01*
X156607964Y-110125000D01*
X156621975Y-110067743D01*
X156660839Y-110023426D01*
X156846401Y-109893495D01*
X157013495Y-109726401D01*
X157149035Y-109532830D01*
X157248903Y-109318663D01*
X157310063Y-109090408D01*
X157330659Y-108855000D01*
X157310063Y-108619592D01*
X157248903Y-108391337D01*
X157149035Y-108177171D01*
X157013495Y-107983599D01*
X156846401Y-107816505D01*
X156660839Y-107686573D01*
X156621975Y-107642257D01*
X156607964Y-107585000D01*
X156621975Y-107527743D01*
X156660839Y-107483426D01*
X156846401Y-107353495D01*
X157013495Y-107186401D01*
X157149035Y-106992830D01*
X157248903Y-106778663D01*
X157310063Y-106550408D01*
X157330659Y-106315000D01*
X157324464Y-106244198D01*
X157310063Y-106079592D01*
X157267728Y-105921593D01*
X157265886Y-105865309D01*
X157289127Y-105814014D01*
X157332659Y-105778288D01*
X157387503Y-105765500D01*
X159719548Y-105765500D01*
X159767001Y-105774939D01*
X159807229Y-105801819D01*
X167484761Y-113479352D01*
X167516855Y-113534939D01*
X167516855Y-113599125D01*
X167489936Y-113699591D01*
X167469340Y-113935000D01*
X167489936Y-114170407D01*
X167526547Y-114307039D01*
X167551097Y-114398663D01*
X167650965Y-114612830D01*
X167786505Y-114806401D01*
X167953599Y-114973495D01*
X168147170Y-115109035D01*
X168361337Y-115208903D01*
X168589592Y-115270063D01*
X168825000Y-115290659D01*
X169060408Y-115270063D01*
X169288663Y-115208903D01*
X169502830Y-115109035D01*
X169696401Y-114973495D01*
X169863495Y-114806401D01*
X169999035Y-114612830D01*
X170098903Y-114398663D01*
X170160063Y-114170408D01*
X170180659Y-113935000D01*
X170160063Y-113699592D01*
X170098903Y-113471337D01*
X169999035Y-113257171D01*
X169863495Y-113063599D01*
X169696401Y-112896505D01*
X169510839Y-112766573D01*
X169471974Y-112722255D01*
X169457964Y-112664999D01*
X169471975Y-112607742D01*
X169510837Y-112563428D01*
X169696401Y-112433495D01*
X169863495Y-112266401D01*
X169999035Y-112072830D01*
X170098903Y-111858663D01*
X170160063Y-111630408D01*
X170180659Y-111395000D01*
X170171803Y-111293783D01*
X170160063Y-111159592D01*
X170133143Y-111059125D01*
X170098903Y-110931337D01*
X169999035Y-110717171D01*
X169863495Y-110523599D01*
X169696401Y-110356505D01*
X169510839Y-110226573D01*
X169471975Y-110182257D01*
X169457964Y-110125000D01*
X169471975Y-110067743D01*
X169510839Y-110023426D01*
X169696401Y-109893495D01*
X169863495Y-109726401D01*
X169999035Y-109532830D01*
X170098903Y-109318663D01*
X170160063Y-109090408D01*
X170180659Y-108855000D01*
X170160063Y-108619592D01*
X170098903Y-108391337D01*
X169999035Y-108177171D01*
X169863495Y-107983599D01*
X169696401Y-107816505D01*
X169510839Y-107686573D01*
X169471975Y-107642257D01*
X169457964Y-107585000D01*
X169471975Y-107527743D01*
X169510839Y-107483426D01*
X169696401Y-107353495D01*
X169863495Y-107186401D01*
X169999035Y-106992830D01*
X170098903Y-106778663D01*
X170160063Y-106550408D01*
X170180659Y-106315000D01*
X170174464Y-106244198D01*
X170160063Y-106079592D01*
X170157592Y-106070370D01*
X170098903Y-105851337D01*
X169999035Y-105637171D01*
X169863495Y-105443599D01*
X169696401Y-105276505D01*
X169510839Y-105146573D01*
X169471975Y-105102257D01*
X169457964Y-105045000D01*
X169471975Y-104987743D01*
X169510839Y-104943426D01*
X169696401Y-104813495D01*
X169863495Y-104646401D01*
X169999035Y-104452830D01*
X170098903Y-104238663D01*
X170160063Y-104010408D01*
X170180659Y-103775000D01*
X170160063Y-103539592D01*
X170098903Y-103311337D01*
X169999035Y-103097171D01*
X169863495Y-102903599D01*
X169696401Y-102736505D01*
X169510839Y-102606573D01*
X169471974Y-102562255D01*
X169457964Y-102504999D01*
X169471975Y-102447742D01*
X169510837Y-102403428D01*
X169696401Y-102273495D01*
X169863495Y-102106401D01*
X169999035Y-101912830D01*
X170098903Y-101698663D01*
X170160063Y-101470408D01*
X170180659Y-101235000D01*
X170174450Y-101164038D01*
X170160063Y-100999592D01*
X170142003Y-100932190D01*
X170098903Y-100771337D01*
X169999035Y-100557171D01*
X169863495Y-100363599D01*
X169696401Y-100196505D01*
X169510839Y-100066573D01*
X169471976Y-100022257D01*
X169457965Y-99965000D01*
X169471976Y-99907743D01*
X169510839Y-99863426D01*
X169696401Y-99733495D01*
X169863495Y-99566401D01*
X169999035Y-99372830D01*
X170098903Y-99158663D01*
X170160063Y-98930408D01*
X170180659Y-98695000D01*
X170160063Y-98459592D01*
X170098903Y-98231337D01*
X169999035Y-98017171D01*
X169863495Y-97823599D01*
X169696401Y-97656505D01*
X169510839Y-97526573D01*
X169471975Y-97482257D01*
X169457964Y-97425000D01*
X169471975Y-97367743D01*
X169510839Y-97323426D01*
X169696401Y-97193495D01*
X169863495Y-97026401D01*
X169999035Y-96832830D01*
X170098903Y-96618663D01*
X170160063Y-96390408D01*
X170180659Y-96155000D01*
X170179763Y-96144764D01*
X170160063Y-95919592D01*
X170142898Y-95855532D01*
X170098903Y-95691337D01*
X169999035Y-95477171D01*
X169991326Y-95466161D01*
X169969138Y-95402679D01*
X169983352Y-95336948D01*
X170019140Y-95299457D01*
X170018935Y-95299252D01*
X170027813Y-95290372D01*
X170029786Y-95288305D01*
X170030016Y-95288170D01*
X170044181Y-95274004D01*
X170058969Y-95261373D01*
X170075183Y-95249594D01*
X170103034Y-95215926D01*
X170110875Y-95207309D01*
X172625875Y-92692311D01*
X172666104Y-92665431D01*
X172713557Y-92655992D01*
X172772752Y-92655992D01*
X172912874Y-92626208D01*
X172957907Y-92616636D01*
X173130834Y-92539643D01*
X173171736Y-92509926D01*
X173175133Y-92507458D01*
X173228620Y-92485303D01*
X173286336Y-92489845D01*
X173335699Y-92520095D01*
X174539510Y-93723906D01*
X174563749Y-93758203D01*
X174575150Y-93798625D01*
X174589826Y-93938257D01*
X174648320Y-94118284D01*
X174742966Y-94282216D01*
X174869629Y-94422889D01*
X175022769Y-94534151D01*
X175195697Y-94611144D01*
X175380852Y-94650500D01*
X175450500Y-94650500D01*
X175512500Y-94667113D01*
X175557887Y-94712500D01*
X175574500Y-94774500D01*
X175574500Y-109888957D01*
X175572235Y-109909463D01*
X175574439Y-109979574D01*
X175574500Y-109983469D01*
X175574500Y-110011050D01*
X175575003Y-110015035D01*
X175575918Y-110026668D01*
X175577290Y-110070327D01*
X175582879Y-110089561D01*
X175586825Y-110108617D01*
X175589335Y-110128493D01*
X175605414Y-110169105D01*
X175609197Y-110180152D01*
X175621382Y-110222092D01*
X175631580Y-110239336D01*
X175640136Y-110256801D01*
X175647514Y-110275433D01*
X175647515Y-110275434D01*
X175673180Y-110310760D01*
X175679593Y-110320523D01*
X175701826Y-110358117D01*
X175701829Y-110358120D01*
X175701830Y-110358121D01*
X175715995Y-110372286D01*
X175728627Y-110387076D01*
X175740406Y-110403288D01*
X175774058Y-110431127D01*
X175782699Y-110438990D01*
X180779224Y-115435515D01*
X180811290Y-115491001D01*
X180811372Y-115555086D01*
X180789788Y-115592654D01*
X180792727Y-115594712D01*
X180650965Y-115797170D01*
X180551097Y-116011336D01*
X180489936Y-116239592D01*
X180469340Y-116475000D01*
X180489936Y-116710407D01*
X180504504Y-116764775D01*
X180551097Y-116938663D01*
X180650965Y-117152830D01*
X180786505Y-117346401D01*
X180953599Y-117513495D01*
X181139597Y-117643732D01*
X181178460Y-117688048D01*
X181192471Y-117745305D01*
X181178461Y-117802561D01*
X181139595Y-117846880D01*
X180953919Y-117976892D01*
X180786890Y-118143921D01*
X180651400Y-118337421D01*
X180551569Y-118551507D01*
X180494364Y-118764999D01*
X180494364Y-118765000D01*
X181951000Y-118765000D01*
X182013000Y-118781613D01*
X182058387Y-118827000D01*
X182075000Y-118889000D01*
X182075000Y-120345635D01*
X182288492Y-120288430D01*
X182502576Y-120188600D01*
X182696081Y-120053106D01*
X182863109Y-119886078D01*
X182993119Y-119700405D01*
X183037437Y-119661539D01*
X183094694Y-119647528D01*
X183151951Y-119661539D01*
X183196267Y-119700402D01*
X183326505Y-119886401D01*
X183493599Y-120053495D01*
X183687170Y-120189035D01*
X183901337Y-120288903D01*
X184129592Y-120350063D01*
X184365000Y-120370659D01*
X184600408Y-120350063D01*
X184828663Y-120288903D01*
X185042830Y-120189035D01*
X185236401Y-120053495D01*
X185403495Y-119886401D01*
X185539035Y-119692830D01*
X185638903Y-119478663D01*
X185700063Y-119250408D01*
X185720659Y-119015000D01*
X185700063Y-118779592D01*
X185638903Y-118551337D01*
X185539035Y-118337171D01*
X185403495Y-118143599D01*
X185236401Y-117976505D01*
X185050839Y-117846573D01*
X185011976Y-117802257D01*
X184997965Y-117745000D01*
X185011976Y-117687743D01*
X185050839Y-117643426D01*
X185236401Y-117513495D01*
X185403495Y-117346401D01*
X185539035Y-117152830D01*
X185638903Y-116938663D01*
X185700063Y-116710408D01*
X185720659Y-116475000D01*
X185700063Y-116239592D01*
X185638903Y-116011337D01*
X185539035Y-115797171D01*
X185403495Y-115603599D01*
X185236401Y-115436505D01*
X185050839Y-115306573D01*
X185011975Y-115262257D01*
X184997964Y-115205000D01*
X185011975Y-115147743D01*
X185050839Y-115103426D01*
X185236401Y-114973495D01*
X185403495Y-114806401D01*
X185539035Y-114612830D01*
X185638903Y-114398663D01*
X185700063Y-114170408D01*
X185720659Y-113935000D01*
X185700063Y-113699592D01*
X185638903Y-113471337D01*
X185539035Y-113257171D01*
X185403495Y-113063599D01*
X185236401Y-112896505D01*
X185050839Y-112766573D01*
X185011974Y-112722255D01*
X184997964Y-112664999D01*
X185011975Y-112607742D01*
X185050837Y-112563428D01*
X185236401Y-112433495D01*
X185403495Y-112266401D01*
X185539035Y-112072830D01*
X185638903Y-111858663D01*
X185700063Y-111630408D01*
X185720659Y-111395000D01*
X185711803Y-111293783D01*
X185700063Y-111159592D01*
X185673143Y-111059125D01*
X185638903Y-110931337D01*
X185539035Y-110717171D01*
X185403495Y-110523599D01*
X185236401Y-110356505D01*
X185050839Y-110226573D01*
X185011975Y-110182257D01*
X184997964Y-110125000D01*
X185011975Y-110067743D01*
X185050839Y-110023426D01*
X185236401Y-109893495D01*
X185403495Y-109726401D01*
X185539035Y-109532830D01*
X185638903Y-109318663D01*
X185700063Y-109090408D01*
X185720659Y-108855000D01*
X185700063Y-108619592D01*
X185638903Y-108391337D01*
X185539035Y-108177171D01*
X185403495Y-107983599D01*
X185236401Y-107816505D01*
X185050839Y-107686573D01*
X185011975Y-107642257D01*
X184997964Y-107585000D01*
X185011975Y-107527743D01*
X185050839Y-107483426D01*
X185236401Y-107353495D01*
X185403495Y-107186401D01*
X185539035Y-106992830D01*
X185638903Y-106778663D01*
X185700063Y-106550408D01*
X185720659Y-106315000D01*
X185714464Y-106244198D01*
X185700063Y-106079592D01*
X185697592Y-106070370D01*
X185638903Y-105851337D01*
X185539035Y-105637171D01*
X185403495Y-105443599D01*
X185236401Y-105276505D01*
X185050839Y-105146573D01*
X185011975Y-105102257D01*
X184997964Y-105045000D01*
X185011975Y-104987743D01*
X185050839Y-104943426D01*
X185236401Y-104813495D01*
X185403495Y-104646401D01*
X185539035Y-104452830D01*
X185638903Y-104238663D01*
X185700063Y-104010408D01*
X185720659Y-103775000D01*
X185700063Y-103539592D01*
X185638903Y-103311337D01*
X185539035Y-103097171D01*
X185403495Y-102903599D01*
X185236401Y-102736505D01*
X185050839Y-102606573D01*
X185011974Y-102562255D01*
X184997964Y-102504999D01*
X185011975Y-102447742D01*
X185050837Y-102403428D01*
X185236401Y-102273495D01*
X185403495Y-102106401D01*
X185539035Y-101912830D01*
X185638903Y-101698663D01*
X185700063Y-101470408D01*
X185720659Y-101235000D01*
X185714450Y-101164038D01*
X185700063Y-100999592D01*
X185682003Y-100932190D01*
X185638903Y-100771337D01*
X185539035Y-100557171D01*
X185403495Y-100363599D01*
X185236401Y-100196505D01*
X185050839Y-100066573D01*
X185011976Y-100022257D01*
X184997965Y-99965000D01*
X185011976Y-99907743D01*
X185050839Y-99863426D01*
X185236401Y-99733495D01*
X185403495Y-99566401D01*
X185539035Y-99372830D01*
X185638903Y-99158663D01*
X185700063Y-98930408D01*
X185720659Y-98695000D01*
X185700063Y-98459592D01*
X185638903Y-98231337D01*
X185539035Y-98017171D01*
X185403495Y-97823599D01*
X185236401Y-97656505D01*
X185050839Y-97526573D01*
X185011975Y-97482257D01*
X184997964Y-97425000D01*
X185011975Y-97367743D01*
X185050839Y-97323426D01*
X185236401Y-97193495D01*
X185403495Y-97026401D01*
X185539035Y-96832830D01*
X185638903Y-96618663D01*
X185700063Y-96390408D01*
X185720659Y-96155000D01*
X185719763Y-96144764D01*
X185700063Y-95919592D01*
X185682898Y-95855532D01*
X185638903Y-95691337D01*
X185539035Y-95477171D01*
X185403495Y-95283599D01*
X185236401Y-95116505D01*
X185050839Y-94986573D01*
X185011974Y-94942255D01*
X184997964Y-94884999D01*
X185011975Y-94827742D01*
X185050837Y-94783428D01*
X185236401Y-94653495D01*
X185403495Y-94486401D01*
X185539035Y-94292830D01*
X185638903Y-94078663D01*
X185700063Y-93850408D01*
X185720659Y-93615000D01*
X185700063Y-93379592D01*
X185638903Y-93151337D01*
X185539035Y-92937171D01*
X185403495Y-92743599D01*
X185281569Y-92621673D01*
X185250273Y-92568927D01*
X185248084Y-92507634D01*
X185275537Y-92452789D01*
X185325916Y-92417810D01*
X185457331Y-92368796D01*
X185572546Y-92282546D01*
X185658796Y-92167331D01*
X185709091Y-92032483D01*
X185715500Y-91972873D01*
X185715499Y-90177128D01*
X185709091Y-90117517D01*
X185658796Y-89982669D01*
X185572546Y-89867454D01*
X185457331Y-89781204D01*
X185322483Y-89730909D01*
X185262873Y-89724500D01*
X185262869Y-89724500D01*
X183467130Y-89724500D01*
X183407515Y-89730909D01*
X183272669Y-89781204D01*
X183157454Y-89867454D01*
X183071204Y-89982669D01*
X183022189Y-90114083D01*
X182987209Y-90164462D01*
X182932365Y-90191915D01*
X182871072Y-90189726D01*
X182818326Y-90158430D01*
X182696404Y-90036508D01*
X182696404Y-90036507D01*
X182696401Y-90036505D01*
X182502830Y-89900965D01*
X182288663Y-89801097D01*
X182219194Y-89782483D01*
X182060407Y-89739936D01*
X181824999Y-89719340D01*
X181589592Y-89739936D01*
X181361336Y-89801097D01*
X181147170Y-89900965D01*
X181070623Y-89954564D01*
X181007610Y-89976724D01*
X180942243Y-89962978D01*
X180893491Y-89917317D01*
X180875500Y-89852989D01*
X180875500Y-87832744D01*
X180877764Y-87812236D01*
X180875561Y-87742113D01*
X180875500Y-87738219D01*
X180875500Y-87710654D01*
X180875500Y-87710650D01*
X180874997Y-87706670D01*
X180874081Y-87695028D01*
X180872710Y-87651373D01*
X180867118Y-87632126D01*
X180863174Y-87613085D01*
X180860664Y-87593208D01*
X180844579Y-87552583D01*
X180840808Y-87541568D01*
X180828618Y-87499610D01*
X180818414Y-87482355D01*
X180809861Y-87464895D01*
X180802486Y-87446269D01*
X180802486Y-87446268D01*
X180776808Y-87410925D01*
X180770401Y-87401171D01*
X180748169Y-87363579D01*
X180734006Y-87349416D01*
X180721367Y-87334617D01*
X180709595Y-87318413D01*
X180675941Y-87290573D01*
X180667299Y-87282709D01*
X176596772Y-83212181D01*
X176566522Y-83162818D01*
X176561980Y-83105102D01*
X176584135Y-83051615D01*
X176628158Y-83014015D01*
X176684453Y-83000500D01*
X195494587Y-83000500D01*
X195505392Y-83000972D01*
X195517433Y-83002025D01*
X195544880Y-83004426D01*
X195545961Y-83004526D01*
X195671776Y-83016918D01*
X195691685Y-83020541D01*
X195756467Y-83037899D01*
X195760203Y-83038966D01*
X195851570Y-83066682D01*
X195867959Y-83072952D01*
X195933867Y-83103686D01*
X195939867Y-83106685D01*
X195982639Y-83129548D01*
X196019046Y-83149008D01*
X196031715Y-83156791D01*
X196092889Y-83199625D01*
X196100430Y-83205346D01*
X196168455Y-83261172D01*
X196177472Y-83269345D01*
X196230653Y-83322526D01*
X196238826Y-83331543D01*
X196294652Y-83399568D01*
X196300373Y-83407109D01*
X196343207Y-83468283D01*
X196350990Y-83480952D01*
X196393304Y-83560114D01*
X196396328Y-83566163D01*
X196427041Y-83632027D01*
X196433319Y-83648436D01*
X196461008Y-83739713D01*
X196462123Y-83743616D01*
X196479454Y-83808298D01*
X196483082Y-83828238D01*
X196495456Y-83953882D01*
X196495581Y-83955223D01*
X196499028Y-83994604D01*
X196499500Y-84005416D01*
X196499500Y-122744584D01*
X196499028Y-122755397D01*
X196495581Y-122794776D01*
X196495456Y-122796116D01*
X196483082Y-122921760D01*
X196479454Y-122941700D01*
X196462123Y-123006382D01*
X196461008Y-123010285D01*
X196433319Y-123101562D01*
X196427041Y-123117971D01*
X196396328Y-123183835D01*
X196393304Y-123189884D01*
X196350990Y-123269046D01*
X196343207Y-123281715D01*
X196300373Y-123342889D01*
X196294652Y-123350430D01*
X196238826Y-123418455D01*
X196230653Y-123427472D01*
X196177472Y-123480653D01*
X196168455Y-123488826D01*
X196100430Y-123544652D01*
X196092889Y-123550373D01*
X196031715Y-123593207D01*
X196019046Y-123600990D01*
X195939884Y-123643304D01*
X195933835Y-123646328D01*
X195867971Y-123677041D01*
X195851562Y-123683319D01*
X195760285Y-123711008D01*
X195756382Y-123712123D01*
X195691700Y-123729454D01*
X195671760Y-123733082D01*
X195546116Y-123745456D01*
X195544776Y-123745581D01*
X195509760Y-123748646D01*
X195505392Y-123749028D01*
X195494584Y-123749500D01*
X152912467Y-123749500D01*
X152740064Y-123779898D01*
X152575552Y-123839776D01*
X152423945Y-123927307D01*
X152289837Y-124039837D01*
X152177307Y-124173945D01*
X152166885Y-124191997D01*
X152121498Y-124237383D01*
X152059498Y-124253995D01*
X151997498Y-124237382D01*
X151952112Y-124191995D01*
X151935499Y-124129995D01*
X151935499Y-123192130D01*
X151934705Y-123184744D01*
X151929091Y-123132517D01*
X151878796Y-122997669D01*
X151792546Y-122882454D01*
X151677331Y-122796204D01*
X151542483Y-122745909D01*
X151482873Y-122739500D01*
X151482869Y-122739500D01*
X148837130Y-122739500D01*
X148777513Y-122745909D01*
X148737174Y-122760955D01*
X148677363Y-122767673D01*
X148621434Y-122745436D01*
X148582564Y-122699484D01*
X148569911Y-122640642D01*
X148586454Y-122582775D01*
X148686426Y-122409619D01*
X148755222Y-122210846D01*
X148785157Y-122002645D01*
X148775148Y-121792541D01*
X148725558Y-121588129D01*
X148638179Y-121396795D01*
X148638178Y-121396794D01*
X148638177Y-121396791D01*
X148516170Y-121225458D01*
X148516169Y-121225456D01*
X148363937Y-121080303D01*
X148363934Y-121080301D01*
X148363933Y-121080300D01*
X148186990Y-120966585D01*
X148022063Y-120900558D01*
X147991712Y-120888407D01*
X147991711Y-120888406D01*
X147991709Y-120888406D01*
X147785172Y-120848600D01*
X147785171Y-120848600D01*
X147627532Y-120848600D01*
X147540353Y-120856924D01*
X147470607Y-120863584D01*
X147268786Y-120922844D01*
X147081832Y-121019227D01*
X146916491Y-121149252D01*
X146778743Y-121308220D01*
X146673574Y-121490379D01*
X146604777Y-121689154D01*
X146574843Y-121897352D01*
X146584852Y-122107460D01*
X146601934Y-122177872D01*
X146634442Y-122311871D01*
X146663740Y-122376024D01*
X146721822Y-122503208D01*
X146760116Y-122556984D01*
X146782937Y-122622379D01*
X146767123Y-122689812D01*
X146717609Y-122738244D01*
X146649843Y-122752564D01*
X146475499Y-122739500D01*
X146475494Y-122739500D01*
X146344506Y-122739500D01*
X146344501Y-122739500D01*
X146335653Y-122740163D01*
X146271088Y-122727497D01*
X146222093Y-122683583D01*
X146202461Y-122620785D01*
X146217718Y-122556784D01*
X146219712Y-122553157D01*
X146230400Y-122536888D01*
X146242673Y-122521067D01*
X146260022Y-122480972D01*
X146265157Y-122470493D01*
X146278680Y-122445895D01*
X146286197Y-122432223D01*
X146291178Y-122412821D01*
X146297478Y-122394418D01*
X146305438Y-122376026D01*
X146312270Y-122332879D01*
X146314639Y-122321446D01*
X146325500Y-122279151D01*
X146325500Y-122259115D01*
X146327027Y-122239716D01*
X146328359Y-122231306D01*
X146330160Y-122219935D01*
X146326050Y-122176456D01*
X146325500Y-122164787D01*
X146325500Y-119265000D01*
X180494364Y-119265000D01*
X180551569Y-119478492D01*
X180651399Y-119692576D01*
X180786893Y-119886081D01*
X180953918Y-120053106D01*
X181147423Y-120188600D01*
X181361507Y-120288430D01*
X181574999Y-120345635D01*
X181575000Y-120345636D01*
X181575000Y-119265000D01*
X180494364Y-119265000D01*
X146325500Y-119265000D01*
X146325500Y-115506687D01*
X146333736Y-115462249D01*
X146357347Y-115423717D01*
X146432533Y-115340216D01*
X146508347Y-115208903D01*
X146527179Y-115176284D01*
X146535351Y-115151134D01*
X146585674Y-114996256D01*
X146605460Y-114808000D01*
X146585674Y-114619744D01*
X146536155Y-114467340D01*
X146527179Y-114439715D01*
X146432535Y-114275786D01*
X146419427Y-114261229D01*
X146357347Y-114192282D01*
X146333736Y-114153751D01*
X146325500Y-114109313D01*
X146325500Y-111992776D01*
X146334939Y-111945323D01*
X146361819Y-111905095D01*
X146375714Y-111891199D01*
X146375715Y-111891198D01*
X146454555Y-111757887D01*
X146497765Y-111609156D01*
X146500500Y-111574405D01*
X146500499Y-111225596D01*
X146497765Y-111190844D01*
X146454555Y-111042113D01*
X146426656Y-110994939D01*
X146375714Y-110908800D01*
X146266199Y-110799285D01*
X146132889Y-110720446D01*
X146132888Y-110720445D01*
X146132887Y-110720445D01*
X145984156Y-110677235D01*
X145949405Y-110674500D01*
X145949401Y-110674500D01*
X145450597Y-110674500D01*
X145418579Y-110677019D01*
X145415844Y-110677235D01*
X145366267Y-110691638D01*
X145267111Y-110720445D01*
X145133800Y-110799285D01*
X145024285Y-110908800D01*
X144945446Y-111042110D01*
X144945446Y-111042111D01*
X144945445Y-111042113D01*
X144902235Y-111190844D01*
X144902235Y-111190845D01*
X144902235Y-111190846D01*
X144899500Y-111225598D01*
X144899500Y-111574402D01*
X144901804Y-111603686D01*
X144902235Y-111609156D01*
X144911828Y-111642175D01*
X144945445Y-111757888D01*
X145024285Y-111891199D01*
X145038181Y-111905095D01*
X145065061Y-111945323D01*
X145074500Y-111992776D01*
X145074500Y-114109313D01*
X145066264Y-114153751D01*
X145042652Y-114192282D01*
X145009545Y-114229051D01*
X144967464Y-114275786D01*
X144872821Y-114439714D01*
X144835241Y-114555373D01*
X144800282Y-114609205D01*
X144743090Y-114638345D01*
X144678991Y-114634985D01*
X144625160Y-114600025D01*
X144605871Y-114578603D01*
X144605870Y-114578602D01*
X144605869Y-114578601D01*
X144452730Y-114467339D01*
X144279802Y-114390346D01*
X144094648Y-114350991D01*
X144094646Y-114350991D01*
X143905354Y-114350991D01*
X143905352Y-114350991D01*
X143720192Y-114390347D01*
X143718293Y-114391193D01*
X143670023Y-114401892D01*
X143621411Y-114392881D01*
X143580183Y-114365592D01*
X138121818Y-108907227D01*
X138094938Y-108866999D01*
X138085499Y-108819546D01*
X138085499Y-108279695D01*
X138100599Y-108220392D01*
X138142223Y-108175532D01*
X138200232Y-108156042D01*
X138260498Y-108166668D01*
X138308343Y-108204823D01*
X138332113Y-108261212D01*
X138348604Y-108370615D01*
X138425937Y-108621323D01*
X138539772Y-108857704D01*
X138675766Y-109057170D01*
X138687571Y-109074485D01*
X138852932Y-109252701D01*
X138866019Y-109266805D01*
X139071143Y-109430386D01*
X139298357Y-109561568D01*
X139542584Y-109657420D01*
X139798370Y-109715802D01*
X139854408Y-109720001D01*
X139994501Y-109730500D01*
X139994506Y-109730500D01*
X140125494Y-109730500D01*
X140125499Y-109730500D01*
X140248078Y-109721313D01*
X140321630Y-109715802D01*
X140577416Y-109657420D01*
X140821643Y-109561568D01*
X141048857Y-109430386D01*
X141253981Y-109266805D01*
X141409696Y-109098984D01*
X141432428Y-109074485D01*
X141432429Y-109074482D01*
X141432433Y-109074479D01*
X141580228Y-108857704D01*
X141694063Y-108621323D01*
X141771396Y-108370615D01*
X141810500Y-108111182D01*
X141810500Y-107848818D01*
X141771396Y-107589385D01*
X141694063Y-107338677D01*
X141580228Y-107102296D01*
X141432433Y-106885521D01*
X141432432Y-106885520D01*
X141432428Y-106885514D01*
X141253984Y-106693198D01*
X141253983Y-106693197D01*
X141253981Y-106693195D01*
X141048857Y-106529614D01*
X141048856Y-106529613D01*
X140878820Y-106431443D01*
X140821643Y-106398432D01*
X140821642Y-106398431D01*
X140821641Y-106398431D01*
X140577418Y-106302580D01*
X140321627Y-106244197D01*
X140125499Y-106229500D01*
X140125494Y-106229500D01*
X139994506Y-106229500D01*
X139994501Y-106229500D01*
X139798372Y-106244197D01*
X139542581Y-106302580D01*
X139298358Y-106398431D01*
X139071143Y-106529613D01*
X138866015Y-106693198D01*
X138687571Y-106885514D01*
X138539771Y-107102298D01*
X138425937Y-107338677D01*
X138348604Y-107589385D01*
X138332114Y-107698787D01*
X138308343Y-107755177D01*
X138260498Y-107793332D01*
X138200232Y-107803958D01*
X138142223Y-107784468D01*
X138100599Y-107739608D01*
X138085499Y-107680305D01*
X138085499Y-106682130D01*
X138083812Y-106666436D01*
X138079091Y-106622517D01*
X138028796Y-106487669D01*
X137942546Y-106372454D01*
X137827331Y-106286204D01*
X137692483Y-106235909D01*
X137632873Y-106229500D01*
X137632869Y-106229500D01*
X134987130Y-106229500D01*
X134927515Y-106235909D01*
X134792669Y-106286204D01*
X134677454Y-106372454D01*
X134591204Y-106487668D01*
X134540909Y-106622516D01*
X134534500Y-106682131D01*
X134534500Y-107230500D01*
X134517887Y-107292500D01*
X134472500Y-107337887D01*
X134410500Y-107354500D01*
X134102744Y-107354500D01*
X134082237Y-107352235D01*
X134012127Y-107354439D01*
X134008232Y-107354500D01*
X133980650Y-107354500D01*
X133976665Y-107355003D01*
X133965033Y-107355918D01*
X133921369Y-107357290D01*
X133902129Y-107362880D01*
X133883081Y-107366825D01*
X133863209Y-107369335D01*
X133822599Y-107385413D01*
X133811554Y-107389194D01*
X133769610Y-107401381D01*
X133752365Y-107411579D01*
X133734904Y-107420133D01*
X133716267Y-107427512D01*
X133680931Y-107453185D01*
X133671174Y-107459595D01*
X133633580Y-107481829D01*
X133619413Y-107495996D01*
X133604624Y-107508626D01*
X133588413Y-107520404D01*
X133560572Y-107554058D01*
X133552711Y-107562697D01*
X131950650Y-109164758D01*
X131897562Y-109196154D01*
X131835916Y-109198090D01*
X131780962Y-109170087D01*
X131746297Y-109119073D01*
X131742166Y-109075348D01*
X131741634Y-109075399D01*
X131736050Y-109016325D01*
X131735500Y-109004656D01*
X131735500Y-107314499D01*
X131752113Y-107252499D01*
X131797500Y-107207112D01*
X131859500Y-107190499D01*
X132432870Y-107190499D01*
X132432872Y-107190499D01*
X132492483Y-107184091D01*
X132627331Y-107133796D01*
X132742546Y-107047546D01*
X132828796Y-106932331D01*
X132879091Y-106797483D01*
X132885500Y-106737873D01*
X132885499Y-104142128D01*
X132879091Y-104082517D01*
X132828796Y-103947669D01*
X132742546Y-103832454D01*
X132627331Y-103746204D01*
X132492483Y-103695909D01*
X132432873Y-103689500D01*
X132432869Y-103689500D01*
X129787130Y-103689500D01*
X129727513Y-103695909D01*
X129687174Y-103710955D01*
X129627363Y-103717673D01*
X129571434Y-103695436D01*
X129532564Y-103649484D01*
X129519911Y-103590642D01*
X129536454Y-103532775D01*
X129636426Y-103359619D01*
X129705222Y-103160846D01*
X129735157Y-102952645D01*
X129725148Y-102742541D01*
X129675558Y-102538129D01*
X129588179Y-102346795D01*
X129588178Y-102346794D01*
X129588177Y-102346791D01*
X129506838Y-102232568D01*
X129466169Y-102175456D01*
X129313937Y-102030303D01*
X129313934Y-102030301D01*
X129313933Y-102030300D01*
X129136990Y-101916585D01*
X128990634Y-101857992D01*
X128941712Y-101838407D01*
X128941711Y-101838406D01*
X128941709Y-101838406D01*
X128735172Y-101798600D01*
X128735171Y-101798600D01*
X128577532Y-101798600D01*
X128490353Y-101806924D01*
X128420607Y-101813584D01*
X128218786Y-101872844D01*
X128031832Y-101969227D01*
X127866491Y-102099252D01*
X127728743Y-102258220D01*
X127623574Y-102440379D01*
X127554777Y-102639154D01*
X127527117Y-102831538D01*
X127524843Y-102847355D01*
X127531090Y-102978479D01*
X127534852Y-103057460D01*
X127535589Y-103060499D01*
X127584442Y-103261871D01*
X127607972Y-103313394D01*
X127671822Y-103453208D01*
X127710116Y-103506984D01*
X127732937Y-103572379D01*
X127717123Y-103639812D01*
X127667609Y-103688244D01*
X127599843Y-103702564D01*
X127425499Y-103689500D01*
X127425494Y-103689500D01*
X127294506Y-103689500D01*
X127294501Y-103689500D01*
X127098372Y-103704197D01*
X126842581Y-103762580D01*
X126598358Y-103858431D01*
X126371143Y-103989613D01*
X126166015Y-104153198D01*
X125987571Y-104345514D01*
X125906938Y-104463782D01*
X125839772Y-104562296D01*
X125725937Y-104798677D01*
X125648604Y-105049385D01*
X125609500Y-105308818D01*
X125609500Y-105571182D01*
X125648604Y-105830615D01*
X125725937Y-106081323D01*
X125839772Y-106317704D01*
X125971605Y-106511067D01*
X125987571Y-106534485D01*
X126134836Y-106693198D01*
X126166019Y-106726805D01*
X126371143Y-106890386D01*
X126598357Y-107021568D01*
X126766550Y-107087579D01*
X126804048Y-107102296D01*
X126842584Y-107117420D01*
X127098370Y-107175802D01*
X127154408Y-107180001D01*
X127294501Y-107190500D01*
X127294506Y-107190500D01*
X127425494Y-107190500D01*
X127425499Y-107190500D01*
X127548079Y-107181313D01*
X127621630Y-107175802D01*
X127877416Y-107117420D01*
X128121643Y-107021568D01*
X128348857Y-106890386D01*
X128553981Y-106726805D01*
X128684878Y-106585731D01*
X128732428Y-106534485D01*
X128732429Y-106534482D01*
X128732433Y-106534479D01*
X128880228Y-106317704D01*
X128994063Y-106081323D01*
X129071396Y-105830615D01*
X129087885Y-105721213D01*
X129111655Y-105664825D01*
X129159500Y-105626670D01*
X129219766Y-105616044D01*
X129277776Y-105635534D01*
X129319399Y-105680393D01*
X129334500Y-105739697D01*
X129334500Y-106737869D01*
X129340909Y-106797483D01*
X129391204Y-106932331D01*
X129477454Y-107047546D01*
X129592669Y-107133796D01*
X129727517Y-107184091D01*
X129787127Y-107190500D01*
X130360500Y-107190500D01*
X130422500Y-107207113D01*
X130467887Y-107252500D01*
X130484500Y-107314500D01*
X130484500Y-108729548D01*
X130475061Y-108777001D01*
X130448181Y-108817229D01*
X128834469Y-110430939D01*
X128774785Y-110464056D01*
X128706618Y-110460571D01*
X128650623Y-110421541D01*
X128623765Y-110358791D01*
X128621951Y-110344425D01*
X128614305Y-110325114D01*
X128605875Y-110303821D01*
X128602091Y-110292770D01*
X128595876Y-110271380D01*
X128589905Y-110250827D01*
X128579701Y-110233572D01*
X128571148Y-110216112D01*
X128563773Y-110197486D01*
X128563773Y-110197485D01*
X128538095Y-110162142D01*
X128531688Y-110152388D01*
X128518929Y-110130814D01*
X128509457Y-110114797D01*
X128495292Y-110100632D01*
X128482654Y-110085834D01*
X128470882Y-110069630D01*
X128437228Y-110041790D01*
X128428586Y-110033926D01*
X127865872Y-109471211D01*
X127852976Y-109455113D01*
X127801845Y-109407098D01*
X127799048Y-109404387D01*
X127779540Y-109384879D01*
X127776360Y-109382412D01*
X127767494Y-109374839D01*
X127735652Y-109344938D01*
X127718094Y-109335285D01*
X127701834Y-109324604D01*
X127686006Y-109312327D01*
X127645921Y-109294980D01*
X127635431Y-109289841D01*
X127597161Y-109268802D01*
X127577761Y-109263821D01*
X127559354Y-109257519D01*
X127540967Y-109249562D01*
X127497828Y-109242729D01*
X127486394Y-109240361D01*
X127444089Y-109229500D01*
X127424054Y-109229500D01*
X127404656Y-109227973D01*
X127397232Y-109226797D01*
X127384875Y-109224840D01*
X127384874Y-109224840D01*
X127351821Y-109227964D01*
X127341395Y-109228950D01*
X127329726Y-109229500D01*
X122511361Y-109229500D01*
X122447364Y-109211709D01*
X122401731Y-109163441D01*
X122387556Y-109098547D01*
X122408906Y-109035649D01*
X122530228Y-108857704D01*
X122644063Y-108621323D01*
X122721396Y-108370615D01*
X122760500Y-108111182D01*
X122760500Y-107848818D01*
X122721396Y-107589385D01*
X122644063Y-107338677D01*
X122530228Y-107102296D01*
X122382433Y-106885521D01*
X122382432Y-106885520D01*
X122382428Y-106885514D01*
X122203984Y-106693198D01*
X122203983Y-106693197D01*
X122203981Y-106693195D01*
X121998857Y-106529614D01*
X121998856Y-106529613D01*
X121828820Y-106431443D01*
X121771643Y-106398432D01*
X121771642Y-106398431D01*
X121771641Y-106398431D01*
X121527418Y-106302580D01*
X121271627Y-106244197D01*
X121075499Y-106229500D01*
X121075494Y-106229500D01*
X120944506Y-106229500D01*
X120944501Y-106229500D01*
X120748372Y-106244197D01*
X120492581Y-106302580D01*
X120248358Y-106398431D01*
X120021143Y-106529613D01*
X119816015Y-106693198D01*
X119637571Y-106885514D01*
X119489771Y-107102298D01*
X119375937Y-107338677D01*
X119298604Y-107589385D01*
X119282114Y-107698787D01*
X119258343Y-107755177D01*
X119210498Y-107793332D01*
X119150232Y-107803958D01*
X119092223Y-107784468D01*
X119050599Y-107739608D01*
X119035499Y-107680305D01*
X119035499Y-106682130D01*
X119033812Y-106666436D01*
X119029091Y-106622517D01*
X118978796Y-106487669D01*
X118892546Y-106372454D01*
X118777331Y-106286204D01*
X118642483Y-106235909D01*
X118582873Y-106229500D01*
X118582869Y-106229500D01*
X117914342Y-106229500D01*
X117858047Y-106215985D01*
X117814024Y-106178385D01*
X117786815Y-106140935D01*
X117780401Y-106131171D01*
X117758169Y-106093579D01*
X117744006Y-106079416D01*
X117731367Y-106064617D01*
X117719595Y-106048413D01*
X117685941Y-106020573D01*
X117677299Y-106012709D01*
X114511946Y-102847355D01*
X117364843Y-102847355D01*
X117371090Y-102978479D01*
X117374852Y-103057460D01*
X117375589Y-103060499D01*
X117424442Y-103261871D01*
X117447972Y-103313394D01*
X117511822Y-103453208D01*
X117596684Y-103572379D01*
X117633831Y-103624544D01*
X117786063Y-103769697D01*
X117786065Y-103769698D01*
X117786066Y-103769699D01*
X117963009Y-103883414D01*
X117963014Y-103883416D01*
X118158288Y-103961593D01*
X118287084Y-103986416D01*
X118364828Y-104001400D01*
X118364829Y-104001400D01*
X118522463Y-104001400D01*
X118522468Y-104001400D01*
X118679389Y-103986416D01*
X118881211Y-103927156D01*
X119068170Y-103830771D01*
X119233510Y-103700747D01*
X119371255Y-103541781D01*
X119476426Y-103359619D01*
X119545222Y-103160846D01*
X119571919Y-102975167D01*
X121301833Y-102975167D01*
X121331911Y-103274145D01*
X121401569Y-103566448D01*
X121509567Y-103846857D01*
X121653978Y-104110374D01*
X121665811Y-104126434D01*
X121832223Y-104352290D01*
X122041121Y-104568289D01*
X122276946Y-104754518D01*
X122535487Y-104907652D01*
X122812133Y-105024960D01*
X122812134Y-105024960D01*
X122812136Y-105024961D01*
X122831258Y-105030199D01*
X123101946Y-105104348D01*
X123399755Y-105144400D01*
X123625033Y-105144400D01*
X123625035Y-105144400D01*
X123849820Y-105129352D01*
X123928050Y-105113451D01*
X124144287Y-105069499D01*
X124428151Y-104970931D01*
X124648762Y-104859451D01*
X124696340Y-104835409D01*
X124728265Y-104813494D01*
X124944080Y-104665346D01*
X125166939Y-104463782D01*
X125360943Y-104234312D01*
X125522631Y-103981032D01*
X125649118Y-103708460D01*
X125738146Y-103421462D01*
X125788126Y-103125158D01*
X125798167Y-102824836D01*
X125768089Y-102525855D01*
X125698430Y-102233551D01*
X125667059Y-102152098D01*
X125590432Y-101953142D01*
X125568340Y-101912830D01*
X125446021Y-101689625D01*
X125267777Y-101447710D01*
X125058879Y-101231711D01*
X125028492Y-101207715D01*
X124823053Y-101045481D01*
X124693783Y-100968915D01*
X124564513Y-100892348D01*
X124363144Y-100806960D01*
X124287863Y-100775038D01*
X123998058Y-100695653D01*
X123998057Y-100695652D01*
X123998054Y-100695652D01*
X123700245Y-100655600D01*
X123474967Y-100655600D01*
X123474965Y-100655600D01*
X123250179Y-100670647D01*
X122955715Y-100730500D01*
X122671845Y-100829070D01*
X122403659Y-100964590D01*
X122155919Y-101134654D01*
X121933062Y-101336216D01*
X121739057Y-101565687D01*
X121577367Y-101818970D01*
X121450883Y-102091537D01*
X121361854Y-102378537D01*
X121330864Y-102562257D01*
X121311874Y-102674842D01*
X121304163Y-102905490D01*
X121301833Y-102975167D01*
X119571919Y-102975167D01*
X119575157Y-102952645D01*
X119565148Y-102742541D01*
X119515558Y-102538129D01*
X119428179Y-102346795D01*
X119428178Y-102346794D01*
X119428177Y-102346791D01*
X119346838Y-102232568D01*
X119306169Y-102175456D01*
X119153937Y-102030303D01*
X119153934Y-102030301D01*
X119153933Y-102030300D01*
X118976990Y-101916585D01*
X118830634Y-101857992D01*
X118781712Y-101838407D01*
X118781711Y-101838406D01*
X118781709Y-101838406D01*
X118575172Y-101798600D01*
X118575171Y-101798600D01*
X118417532Y-101798600D01*
X118330353Y-101806924D01*
X118260607Y-101813584D01*
X118058786Y-101872844D01*
X117871832Y-101969227D01*
X117706491Y-102099252D01*
X117568743Y-102258220D01*
X117463574Y-102440379D01*
X117394777Y-102639154D01*
X117367117Y-102831538D01*
X117364843Y-102847355D01*
X114511946Y-102847355D01*
X111356802Y-99692211D01*
X111343906Y-99676113D01*
X111292775Y-99628098D01*
X111289978Y-99625387D01*
X111270470Y-99605879D01*
X111267290Y-99603412D01*
X111258424Y-99595839D01*
X111226582Y-99565938D01*
X111209024Y-99556285D01*
X111192764Y-99545604D01*
X111176936Y-99533327D01*
X111136851Y-99515980D01*
X111126361Y-99510841D01*
X111088091Y-99489802D01*
X111068691Y-99484821D01*
X111050284Y-99478519D01*
X111031897Y-99470562D01*
X110988758Y-99463729D01*
X110977324Y-99461361D01*
X110935019Y-99450500D01*
X110914984Y-99450500D01*
X110895586Y-99448973D01*
X110888162Y-99447797D01*
X110875805Y-99445840D01*
X110875804Y-99445840D01*
X110850468Y-99448235D01*
X110832325Y-99449950D01*
X110820656Y-99450500D01*
X104056613Y-99450500D01*
X104036106Y-99448235D01*
X103965996Y-99450439D01*
X103962101Y-99450500D01*
X103934519Y-99450500D01*
X103930534Y-99451003D01*
X103918902Y-99451918D01*
X103875238Y-99453290D01*
X103855998Y-99458880D01*
X103836950Y-99462825D01*
X103817078Y-99465335D01*
X103776468Y-99481413D01*
X103765423Y-99485194D01*
X103723479Y-99497381D01*
X103706234Y-99507579D01*
X103688773Y-99516133D01*
X103670136Y-99523512D01*
X103634800Y-99549185D01*
X103625043Y-99555595D01*
X103587449Y-99577829D01*
X103573282Y-99591996D01*
X103558493Y-99604626D01*
X103542282Y-99616404D01*
X103514441Y-99650058D01*
X103506580Y-99658697D01*
X100642503Y-102522774D01*
X100591875Y-102553428D01*
X100532805Y-102557123D01*
X100478751Y-102533018D01*
X100442027Y-102486604D01*
X100424279Y-102447742D01*
X100378179Y-102346795D01*
X100378178Y-102346794D01*
X100378177Y-102346791D01*
X100296838Y-102232568D01*
X100256169Y-102175456D01*
X100103937Y-102030303D01*
X100103934Y-102030301D01*
X100103933Y-102030300D01*
X99926990Y-101916585D01*
X99780634Y-101857992D01*
X99731712Y-101838407D01*
X99731711Y-101838406D01*
X99731709Y-101838406D01*
X99525172Y-101798600D01*
X99525171Y-101798600D01*
X99367532Y-101798600D01*
X99280353Y-101806924D01*
X99210607Y-101813584D01*
X99008786Y-101872844D01*
X98821832Y-101969227D01*
X98656491Y-102099252D01*
X98518743Y-102258220D01*
X98413574Y-102440379D01*
X98344777Y-102639154D01*
X98317117Y-102831538D01*
X98314843Y-102847355D01*
X98321090Y-102978479D01*
X98324852Y-103057460D01*
X98325589Y-103060499D01*
X98374442Y-103261871D01*
X98397972Y-103313394D01*
X98461822Y-103453208D01*
X98546684Y-103572379D01*
X98583831Y-103624544D01*
X98736063Y-103769697D01*
X98736065Y-103769698D01*
X98736066Y-103769699D01*
X98913009Y-103883414D01*
X98913014Y-103883416D01*
X99108288Y-103961593D01*
X99237084Y-103986416D01*
X99314828Y-104001400D01*
X99314829Y-104001400D01*
X99472463Y-104001400D01*
X99472468Y-104001400D01*
X99629389Y-103986416D01*
X99831211Y-103927156D01*
X99839581Y-103922840D01*
X99900826Y-103909136D01*
X99960938Y-103927176D01*
X100004517Y-103972339D01*
X100020400Y-104033057D01*
X100020400Y-105233648D01*
X100010961Y-105281101D01*
X99984081Y-105321329D01*
X99112228Y-106193181D01*
X99072000Y-106220061D01*
X99024547Y-106229500D01*
X98021453Y-106229500D01*
X97974000Y-106220061D01*
X97933772Y-106193181D01*
X91432802Y-99692211D01*
X91419906Y-99676113D01*
X91368775Y-99628098D01*
X91365978Y-99625387D01*
X91346470Y-99605879D01*
X91343290Y-99603412D01*
X91334424Y-99595839D01*
X91302582Y-99565938D01*
X91285024Y-99556285D01*
X91268764Y-99545604D01*
X91252936Y-99533327D01*
X91212851Y-99515980D01*
X91202361Y-99510841D01*
X91164091Y-99489802D01*
X91144691Y-99484821D01*
X91126284Y-99478519D01*
X91107897Y-99470562D01*
X91064758Y-99463729D01*
X91053324Y-99461361D01*
X91011019Y-99450500D01*
X90990984Y-99450500D01*
X90971586Y-99448973D01*
X90964162Y-99447797D01*
X90951805Y-99445840D01*
X90951804Y-99445840D01*
X90926468Y-99448235D01*
X90908325Y-99449950D01*
X90896656Y-99450500D01*
X85006613Y-99450500D01*
X84986106Y-99448235D01*
X84915996Y-99450439D01*
X84912101Y-99450500D01*
X84884519Y-99450500D01*
X84880534Y-99451003D01*
X84868902Y-99451918D01*
X84825238Y-99453290D01*
X84805998Y-99458880D01*
X84786950Y-99462825D01*
X84767078Y-99465335D01*
X84726468Y-99481413D01*
X84715423Y-99485194D01*
X84673479Y-99497381D01*
X84656234Y-99507579D01*
X84638773Y-99516133D01*
X84620136Y-99523512D01*
X84584800Y-99549185D01*
X84575043Y-99555595D01*
X84537449Y-99577829D01*
X84523282Y-99591996D01*
X84508493Y-99604626D01*
X84492282Y-99616404D01*
X84464441Y-99650058D01*
X84456580Y-99658697D01*
X81592503Y-102522774D01*
X81541875Y-102553428D01*
X81482805Y-102557123D01*
X81428751Y-102533018D01*
X81392027Y-102486604D01*
X81374279Y-102447742D01*
X81328179Y-102346795D01*
X81328178Y-102346794D01*
X81328177Y-102346791D01*
X81246838Y-102232568D01*
X81206169Y-102175456D01*
X81053937Y-102030303D01*
X81053934Y-102030301D01*
X81053933Y-102030300D01*
X80876990Y-101916585D01*
X80730634Y-101857992D01*
X80681712Y-101838407D01*
X80681711Y-101838406D01*
X80681709Y-101838406D01*
X80475172Y-101798600D01*
X80475171Y-101798600D01*
X80317532Y-101798600D01*
X80230353Y-101806924D01*
X80160607Y-101813584D01*
X79958786Y-101872844D01*
X79771832Y-101969227D01*
X79606491Y-102099252D01*
X79468743Y-102258220D01*
X79363574Y-102440379D01*
X79294777Y-102639154D01*
X79267117Y-102831538D01*
X79264843Y-102847355D01*
X79271090Y-102978479D01*
X79274852Y-103057460D01*
X79275589Y-103060499D01*
X79324442Y-103261871D01*
X79347972Y-103313394D01*
X79411822Y-103453208D01*
X79496684Y-103572379D01*
X79533831Y-103624544D01*
X79686063Y-103769697D01*
X79686065Y-103769698D01*
X79686066Y-103769699D01*
X79863009Y-103883414D01*
X79863014Y-103883416D01*
X80058288Y-103961593D01*
X80187084Y-103986416D01*
X80264828Y-104001400D01*
X80264829Y-104001400D01*
X80422463Y-104001400D01*
X80422468Y-104001400D01*
X80579389Y-103986416D01*
X80781211Y-103927156D01*
X80789581Y-103922840D01*
X80850826Y-103909136D01*
X80910938Y-103927176D01*
X80954517Y-103972339D01*
X80970400Y-104033057D01*
X80970400Y-105233648D01*
X80960961Y-105281101D01*
X80934081Y-105321329D01*
X80062228Y-106193181D01*
X80022000Y-106220061D01*
X79974547Y-106229500D01*
X79225453Y-106229500D01*
X79178000Y-106220061D01*
X79137772Y-106193181D01*
X73091902Y-100147311D01*
X73079006Y-100131213D01*
X73027875Y-100083198D01*
X73025078Y-100080487D01*
X73005570Y-100060979D01*
X73002390Y-100058512D01*
X72993524Y-100050939D01*
X72961682Y-100021038D01*
X72944124Y-100011385D01*
X72927864Y-100000704D01*
X72912036Y-99988427D01*
X72871951Y-99971080D01*
X72861461Y-99965941D01*
X72823191Y-99944902D01*
X72803791Y-99939921D01*
X72785384Y-99933619D01*
X72766997Y-99925662D01*
X72723858Y-99918829D01*
X72712424Y-99916461D01*
X72670119Y-99905600D01*
X72650084Y-99905600D01*
X72630686Y-99904073D01*
X72623262Y-99902897D01*
X72610905Y-99900940D01*
X72610904Y-99900940D01*
X72584595Y-99903427D01*
X72567425Y-99905050D01*
X72555756Y-99905600D01*
X65501509Y-99905600D01*
X65481005Y-99903336D01*
X65410913Y-99905539D01*
X65407019Y-99905600D01*
X65379417Y-99905600D01*
X65375422Y-99906104D01*
X65363798Y-99907018D01*
X65320141Y-99908390D01*
X65300904Y-99913979D01*
X65281863Y-99917922D01*
X65261977Y-99920435D01*
X65221351Y-99936519D01*
X65210306Y-99940300D01*
X65168382Y-99952481D01*
X65151134Y-99962681D01*
X65133672Y-99971235D01*
X65121684Y-99975981D01*
X65115034Y-99978615D01*
X65079695Y-100004289D01*
X65069937Y-100010699D01*
X65032348Y-100032929D01*
X65018179Y-100047098D01*
X65003391Y-100059728D01*
X64987182Y-100071505D01*
X64959341Y-100105158D01*
X64951480Y-100113796D01*
X62542503Y-102522773D01*
X62491875Y-102553427D01*
X62432805Y-102557122D01*
X62378752Y-102533017D01*
X62342028Y-102486603D01*
X62278180Y-102346795D01*
X62192510Y-102226490D01*
X62156169Y-102175456D01*
X62003937Y-102030303D01*
X62003934Y-102030301D01*
X62003933Y-102030300D01*
X61826990Y-101916585D01*
X61680634Y-101857992D01*
X61631712Y-101838407D01*
X61631711Y-101838406D01*
X61631709Y-101838406D01*
X61425172Y-101798600D01*
X61425171Y-101798600D01*
X61267532Y-101798600D01*
X61180353Y-101806924D01*
X61110607Y-101813584D01*
X60908786Y-101872844D01*
X60721832Y-101969227D01*
X60556491Y-102099252D01*
X60418743Y-102258220D01*
X60313574Y-102440379D01*
X60244777Y-102639154D01*
X60217117Y-102831538D01*
X60214843Y-102847355D01*
X60221090Y-102978479D01*
X60224852Y-103057460D01*
X60225589Y-103060499D01*
X60274442Y-103261871D01*
X60297972Y-103313394D01*
X60361822Y-103453208D01*
X60446684Y-103572379D01*
X60483831Y-103624544D01*
X60636063Y-103769697D01*
X60636065Y-103769698D01*
X60636066Y-103769699D01*
X60813009Y-103883414D01*
X60813014Y-103883416D01*
X61008288Y-103961593D01*
X61137084Y-103986416D01*
X61214828Y-104001400D01*
X61214829Y-104001400D01*
X61372463Y-104001400D01*
X61372468Y-104001400D01*
X61529389Y-103986416D01*
X61731211Y-103927156D01*
X61739581Y-103922840D01*
X61800826Y-103909136D01*
X61860938Y-103927176D01*
X61904517Y-103972339D01*
X61920400Y-104033057D01*
X61920400Y-105233648D01*
X61910961Y-105281101D01*
X61884081Y-105321329D01*
X61012228Y-106193181D01*
X60972000Y-106220061D01*
X60924547Y-106229500D01*
X60824054Y-106229500D01*
X60776003Y-106219811D01*
X60735461Y-106192260D01*
X60708763Y-106151151D01*
X60706156Y-106144566D01*
X60704581Y-106140589D01*
X60700808Y-106129568D01*
X60688618Y-106087610D01*
X60678414Y-106070355D01*
X60669861Y-106052895D01*
X60668086Y-106048413D01*
X60662486Y-106034268D01*
X60636808Y-105998925D01*
X60630401Y-105989171D01*
X60608170Y-105951580D01*
X60594006Y-105937416D01*
X60581367Y-105922617D01*
X60569595Y-105906413D01*
X60535941Y-105878573D01*
X60527299Y-105870709D01*
X54803902Y-100147311D01*
X54791006Y-100131213D01*
X54739875Y-100083198D01*
X54737078Y-100080487D01*
X54717570Y-100060979D01*
X54714390Y-100058512D01*
X54705524Y-100050939D01*
X54673682Y-100021038D01*
X54656124Y-100011385D01*
X54639864Y-100000704D01*
X54624036Y-99988427D01*
X54583951Y-99971080D01*
X54573461Y-99965941D01*
X54535191Y-99944902D01*
X54515791Y-99939921D01*
X54497382Y-99933618D01*
X54478999Y-99925662D01*
X54435858Y-99918829D01*
X54424424Y-99916461D01*
X54382119Y-99905600D01*
X54362084Y-99905600D01*
X54342686Y-99904073D01*
X54335262Y-99902897D01*
X54322905Y-99900940D01*
X54322904Y-99900940D01*
X54296595Y-99903427D01*
X54279425Y-99905050D01*
X54267756Y-99905600D01*
X46451513Y-99905600D01*
X46431006Y-99903335D01*
X46360896Y-99905539D01*
X46357001Y-99905600D01*
X46329419Y-99905600D01*
X46325434Y-99906103D01*
X46313802Y-99907018D01*
X46270138Y-99908390D01*
X46250898Y-99913980D01*
X46231850Y-99917925D01*
X46211978Y-99920435D01*
X46171368Y-99936513D01*
X46160323Y-99940294D01*
X46118379Y-99952481D01*
X46101134Y-99962679D01*
X46083673Y-99971233D01*
X46065036Y-99978612D01*
X46029700Y-100004285D01*
X46019943Y-100010695D01*
X45982349Y-100032929D01*
X45968182Y-100047096D01*
X45953393Y-100059726D01*
X45937182Y-100071504D01*
X45909341Y-100105158D01*
X45901480Y-100113797D01*
X43492503Y-102522774D01*
X43441875Y-102553428D01*
X43382805Y-102557123D01*
X43328751Y-102533018D01*
X43292027Y-102486604D01*
X43274279Y-102447742D01*
X43228179Y-102346795D01*
X43228178Y-102346794D01*
X43228177Y-102346791D01*
X43146838Y-102232568D01*
X43106169Y-102175456D01*
X42953937Y-102030303D01*
X42953934Y-102030301D01*
X42953933Y-102030300D01*
X42776990Y-101916585D01*
X42630634Y-101857992D01*
X42581712Y-101838407D01*
X42581711Y-101838406D01*
X42581709Y-101838406D01*
X42375172Y-101798600D01*
X42375171Y-101798600D01*
X42217532Y-101798600D01*
X42130353Y-101806924D01*
X42060607Y-101813584D01*
X41858786Y-101872844D01*
X41671832Y-101969227D01*
X41506491Y-102099252D01*
X41368743Y-102258220D01*
X41263574Y-102440379D01*
X41194777Y-102639154D01*
X41167117Y-102831538D01*
X41164843Y-102847355D01*
X41171090Y-102978479D01*
X41174852Y-103057460D01*
X41175589Y-103060499D01*
X41224442Y-103261871D01*
X41247972Y-103313394D01*
X41311822Y-103453208D01*
X41396684Y-103572379D01*
X41433831Y-103624544D01*
X41586063Y-103769697D01*
X41586065Y-103769698D01*
X41586066Y-103769699D01*
X41763009Y-103883414D01*
X41763014Y-103883416D01*
X41958288Y-103961593D01*
X42087084Y-103986416D01*
X42164828Y-104001400D01*
X42164829Y-104001400D01*
X42322463Y-104001400D01*
X42322468Y-104001400D01*
X42479389Y-103986416D01*
X42681211Y-103927156D01*
X42716165Y-103909136D01*
X42878694Y-103825346D01*
X42880200Y-103828267D01*
X42925249Y-103809923D01*
X42992684Y-103821678D01*
X43043607Y-103867421D01*
X43062500Y-103933213D01*
X43062500Y-105041547D01*
X43053061Y-105089000D01*
X43026181Y-105129228D01*
X41962227Y-106193181D01*
X41921999Y-106220061D01*
X41874546Y-106229500D01*
X39737130Y-106229500D01*
X39677515Y-106235909D01*
X39542669Y-106286204D01*
X39427454Y-106372454D01*
X39341204Y-106487668D01*
X39290909Y-106622516D01*
X39284500Y-106682130D01*
X39284500Y-109277869D01*
X39290909Y-109337484D01*
X39308587Y-109384880D01*
X39341204Y-109472331D01*
X39427454Y-109587546D01*
X39542669Y-109673796D01*
X39677517Y-109724091D01*
X39737127Y-109730500D01*
X42382872Y-109730499D01*
X42442483Y-109724091D01*
X42577331Y-109673796D01*
X42692546Y-109587546D01*
X42778796Y-109472331D01*
X42829091Y-109337483D01*
X42835500Y-109277873D01*
X42835499Y-108279695D01*
X42850599Y-108220395D01*
X42892223Y-108175535D01*
X42950232Y-108156045D01*
X43010498Y-108166671D01*
X43058343Y-108204826D01*
X43082114Y-108261216D01*
X43084900Y-108279698D01*
X43098604Y-108370615D01*
X43175937Y-108621323D01*
X43289772Y-108857704D01*
X43425766Y-109057170D01*
X43437571Y-109074485D01*
X43602932Y-109252701D01*
X43616019Y-109266805D01*
X43821143Y-109430386D01*
X44048357Y-109561568D01*
X44292584Y-109657420D01*
X44548370Y-109715802D01*
X44604408Y-109720001D01*
X44744501Y-109730500D01*
X44744506Y-109730500D01*
X44875494Y-109730500D01*
X44875499Y-109730500D01*
X44998078Y-109721313D01*
X45071630Y-109715802D01*
X45327416Y-109657420D01*
X45571643Y-109561568D01*
X45798857Y-109430386D01*
X46003981Y-109266805D01*
X46159696Y-109098984D01*
X46182428Y-109074485D01*
X46182429Y-109074482D01*
X46182433Y-109074479D01*
X46330228Y-108857704D01*
X46444063Y-108621323D01*
X46521396Y-108370615D01*
X46560500Y-108111182D01*
X46560500Y-107848818D01*
X46521396Y-107589385D01*
X46444063Y-107338677D01*
X46330228Y-107102296D01*
X46182433Y-106885521D01*
X46182432Y-106885520D01*
X46182428Y-106885514D01*
X46003984Y-106693198D01*
X46003983Y-106693197D01*
X46003981Y-106693195D01*
X45798857Y-106529614D01*
X45798856Y-106529613D01*
X45628820Y-106431443D01*
X45571643Y-106398432D01*
X45571642Y-106398431D01*
X45571641Y-106398431D01*
X45327418Y-106302580D01*
X45071627Y-106244197D01*
X44875499Y-106229500D01*
X44875494Y-106229500D01*
X44744506Y-106229500D01*
X44744501Y-106229500D01*
X44548372Y-106244197D01*
X44292581Y-106302580D01*
X44048358Y-106398431D01*
X43821143Y-106529613D01*
X43616015Y-106693198D01*
X43437571Y-106885514D01*
X43289771Y-107102298D01*
X43175937Y-107338677D01*
X43098604Y-107589385D01*
X43082114Y-107698785D01*
X43058343Y-107755175D01*
X43010498Y-107793330D01*
X42950232Y-107803956D01*
X42892223Y-107784466D01*
X42850599Y-107739606D01*
X42835499Y-107680303D01*
X42835499Y-107140452D01*
X42844938Y-107092999D01*
X42871815Y-107052774D01*
X44071789Y-105852800D01*
X44087885Y-105839906D01*
X44089873Y-105837787D01*
X44089877Y-105837786D01*
X44135948Y-105788723D01*
X44138566Y-105786023D01*
X44158120Y-105766471D01*
X44160581Y-105763298D01*
X44168156Y-105754427D01*
X44198062Y-105722582D01*
X44207717Y-105705018D01*
X44218394Y-105688764D01*
X44230673Y-105672936D01*
X44248018Y-105632852D01*
X44253160Y-105622356D01*
X44274197Y-105584092D01*
X44279179Y-105564684D01*
X44285481Y-105546280D01*
X44293437Y-105527896D01*
X44300269Y-105484752D01*
X44302633Y-105473338D01*
X44313500Y-105431019D01*
X44313500Y-105410984D01*
X44315027Y-105391585D01*
X44315068Y-105391321D01*
X44318160Y-105371804D01*
X44314050Y-105328325D01*
X44313500Y-105316656D01*
X44313500Y-103522321D01*
X44322939Y-103474868D01*
X44349819Y-103434640D01*
X44610241Y-103174218D01*
X44890207Y-102894250D01*
X44950656Y-102860959D01*
X45019540Y-102865137D01*
X45075523Y-102905490D01*
X45101265Y-102969520D01*
X45131911Y-103274145D01*
X45201569Y-103566448D01*
X45309567Y-103846857D01*
X45453978Y-104110374D01*
X45465811Y-104126434D01*
X45632223Y-104352290D01*
X45841121Y-104568289D01*
X46076946Y-104754518D01*
X46335487Y-104907652D01*
X46612133Y-105024960D01*
X46612134Y-105024960D01*
X46612136Y-105024961D01*
X46631258Y-105030199D01*
X46901946Y-105104348D01*
X47199755Y-105144400D01*
X47425033Y-105144400D01*
X47425035Y-105144400D01*
X47649820Y-105129352D01*
X47728050Y-105113451D01*
X47944287Y-105069499D01*
X48228151Y-104970931D01*
X48448762Y-104859451D01*
X48496340Y-104835409D01*
X48528265Y-104813494D01*
X48744080Y-104665346D01*
X48966939Y-104463782D01*
X49160943Y-104234312D01*
X49322631Y-103981032D01*
X49449118Y-103708460D01*
X49538146Y-103421462D01*
X49588126Y-103125158D01*
X49598167Y-102824836D01*
X49568089Y-102525855D01*
X49498430Y-102233551D01*
X49467059Y-102152098D01*
X49390432Y-101953142D01*
X49368340Y-101912830D01*
X49246021Y-101689625D01*
X49067777Y-101447710D01*
X48989531Y-101366804D01*
X48960232Y-101317338D01*
X48956392Y-101259975D01*
X48978836Y-101207046D01*
X49022740Y-101169928D01*
X49078665Y-101156600D01*
X53992648Y-101156600D01*
X54040101Y-101166039D01*
X54080329Y-101192919D01*
X56369809Y-103482399D01*
X56400853Y-103534296D01*
X56403658Y-103594704D01*
X56377560Y-103649256D01*
X56328763Y-103684976D01*
X56268875Y-103693370D01*
X56237264Y-103689972D01*
X56232872Y-103689500D01*
X53587130Y-103689500D01*
X53527513Y-103695909D01*
X53487174Y-103710955D01*
X53427363Y-103717673D01*
X53371434Y-103695436D01*
X53332564Y-103649484D01*
X53319911Y-103590642D01*
X53336454Y-103532775D01*
X53436426Y-103359619D01*
X53505222Y-103160846D01*
X53535157Y-102952645D01*
X53525148Y-102742541D01*
X53475558Y-102538129D01*
X53388179Y-102346795D01*
X53388178Y-102346794D01*
X53388177Y-102346791D01*
X53306838Y-102232568D01*
X53266169Y-102175456D01*
X53113937Y-102030303D01*
X53113934Y-102030301D01*
X53113933Y-102030300D01*
X52936990Y-101916585D01*
X52790634Y-101857992D01*
X52741712Y-101838407D01*
X52741711Y-101838406D01*
X52741709Y-101838406D01*
X52535172Y-101798600D01*
X52535171Y-101798600D01*
X52377532Y-101798600D01*
X52290353Y-101806924D01*
X52220607Y-101813584D01*
X52018786Y-101872844D01*
X51831832Y-101969227D01*
X51666491Y-102099252D01*
X51528743Y-102258220D01*
X51423574Y-102440379D01*
X51354777Y-102639154D01*
X51327117Y-102831538D01*
X51324843Y-102847355D01*
X51331090Y-102978479D01*
X51334852Y-103057460D01*
X51335589Y-103060499D01*
X51384442Y-103261871D01*
X51407972Y-103313394D01*
X51471822Y-103453208D01*
X51510116Y-103506984D01*
X51532937Y-103572379D01*
X51517123Y-103639812D01*
X51467609Y-103688244D01*
X51399843Y-103702564D01*
X51225499Y-103689500D01*
X51225494Y-103689500D01*
X51094506Y-103689500D01*
X51094501Y-103689500D01*
X50898372Y-103704197D01*
X50642581Y-103762580D01*
X50398358Y-103858431D01*
X50171143Y-103989613D01*
X49966015Y-104153198D01*
X49787571Y-104345514D01*
X49706938Y-104463782D01*
X49639772Y-104562296D01*
X49525937Y-104798677D01*
X49448604Y-105049385D01*
X49409500Y-105308818D01*
X49409500Y-105571182D01*
X49448604Y-105830615D01*
X49525937Y-106081323D01*
X49639772Y-106317704D01*
X49771605Y-106511067D01*
X49787571Y-106534485D01*
X49934836Y-106693198D01*
X49966019Y-106726805D01*
X50171143Y-106890386D01*
X50398357Y-107021568D01*
X50566550Y-107087579D01*
X50604048Y-107102296D01*
X50642584Y-107117420D01*
X50898370Y-107175802D01*
X50954408Y-107180001D01*
X51094501Y-107190500D01*
X51094506Y-107190500D01*
X51225494Y-107190500D01*
X51225499Y-107190500D01*
X51348079Y-107181313D01*
X51421630Y-107175802D01*
X51677416Y-107117420D01*
X51921643Y-107021568D01*
X52148857Y-106890386D01*
X52353981Y-106726805D01*
X52484878Y-106585731D01*
X52532428Y-106534485D01*
X52532429Y-106534482D01*
X52532433Y-106534479D01*
X52680228Y-106317704D01*
X52794063Y-106081323D01*
X52871396Y-105830615D01*
X52887885Y-105721213D01*
X52911655Y-105664825D01*
X52959500Y-105626670D01*
X53019766Y-105616044D01*
X53077776Y-105635534D01*
X53119399Y-105680393D01*
X53134500Y-105739697D01*
X53134500Y-106737869D01*
X53140909Y-106797483D01*
X53191204Y-106932331D01*
X53277454Y-107047546D01*
X53392669Y-107133796D01*
X53527517Y-107184091D01*
X53587127Y-107190500D01*
X54160500Y-107190500D01*
X54222500Y-107207113D01*
X54267887Y-107252500D01*
X54284500Y-107314500D01*
X54284500Y-108729548D01*
X54275061Y-108777001D01*
X54248181Y-108817229D01*
X52427226Y-110638181D01*
X52386999Y-110665061D01*
X52339548Y-110674500D01*
X52300597Y-110674500D01*
X52268579Y-110677019D01*
X52265844Y-110677235D01*
X52216267Y-110691638D01*
X52117111Y-110720445D01*
X51983802Y-110799284D01*
X51905878Y-110877208D01*
X51850290Y-110909301D01*
X51786103Y-110909301D01*
X51730516Y-110877207D01*
X51319520Y-110466211D01*
X51306624Y-110450113D01*
X51255493Y-110402098D01*
X51252696Y-110399387D01*
X51233188Y-110379879D01*
X51230008Y-110377412D01*
X51221142Y-110369839D01*
X51189300Y-110339938D01*
X51171742Y-110330285D01*
X51155482Y-110319604D01*
X51139654Y-110307327D01*
X51099569Y-110289980D01*
X51089079Y-110284841D01*
X51050809Y-110263802D01*
X51031409Y-110258821D01*
X51013002Y-110252519D01*
X50994615Y-110244562D01*
X50951476Y-110237729D01*
X50940042Y-110235361D01*
X50897737Y-110224500D01*
X50877702Y-110224500D01*
X50858304Y-110222973D01*
X50850880Y-110221797D01*
X50838523Y-110219840D01*
X50838522Y-110219840D01*
X50812213Y-110222327D01*
X50795043Y-110223950D01*
X50783374Y-110224500D01*
X50164026Y-110224500D01*
X50143518Y-110222235D01*
X50073395Y-110224439D01*
X50069501Y-110224500D01*
X50041932Y-110224500D01*
X50037953Y-110225002D01*
X50026323Y-110225917D01*
X49982654Y-110227289D01*
X49963410Y-110232880D01*
X49944366Y-110236824D01*
X49924490Y-110239335D01*
X49883882Y-110255413D01*
X49872836Y-110259194D01*
X49846339Y-110266894D01*
X49830889Y-110271383D01*
X49813647Y-110281579D01*
X49796186Y-110290133D01*
X49777549Y-110297512D01*
X49742213Y-110323185D01*
X49732456Y-110329595D01*
X49694862Y-110351829D01*
X49680695Y-110365996D01*
X49665906Y-110378626D01*
X49649695Y-110390404D01*
X49621854Y-110424058D01*
X49613993Y-110432697D01*
X44597308Y-115449381D01*
X44581210Y-115462278D01*
X44533196Y-115513407D01*
X44530491Y-115516199D01*
X44510974Y-115535716D01*
X44508515Y-115538887D01*
X44500942Y-115547754D01*
X44471035Y-115579602D01*
X44461385Y-115597156D01*
X44450709Y-115613410D01*
X44438426Y-115629245D01*
X44421075Y-115669340D01*
X44415938Y-115679826D01*
X44394902Y-115718089D01*
X44389921Y-115737491D01*
X44383620Y-115755893D01*
X44375661Y-115774284D01*
X44368828Y-115817424D01*
X44366460Y-115828856D01*
X44355600Y-115871160D01*
X44355600Y-115891198D01*
X44354073Y-115910595D01*
X44350940Y-115930378D01*
X44353450Y-115956926D01*
X44355050Y-115973857D01*
X44355600Y-115985526D01*
X44355600Y-122798448D01*
X44346161Y-122845901D01*
X44319281Y-122886129D01*
X41962227Y-125243181D01*
X41921999Y-125270061D01*
X41874546Y-125279500D01*
X39737130Y-125279500D01*
X39677515Y-125285909D01*
X39542669Y-125336204D01*
X39427454Y-125422454D01*
X39341204Y-125537668D01*
X39290909Y-125672516D01*
X39284500Y-125732130D01*
X39284500Y-128327869D01*
X39290909Y-128387483D01*
X39341204Y-128522331D01*
X39427454Y-128637546D01*
X39542669Y-128723796D01*
X39677517Y-128774091D01*
X39737127Y-128780500D01*
X42382872Y-128780499D01*
X42442483Y-128774091D01*
X42577331Y-128723796D01*
X42692546Y-128637546D01*
X42778796Y-128522331D01*
X42829091Y-128387483D01*
X42835500Y-128327873D01*
X42835499Y-127329695D01*
X42850599Y-127270395D01*
X42892223Y-127225535D01*
X42950232Y-127206045D01*
X43010498Y-127216671D01*
X43058343Y-127254826D01*
X43082114Y-127311216D01*
X43090769Y-127368632D01*
X43098604Y-127420615D01*
X43175937Y-127671323D01*
X43289772Y-127907704D01*
X43393952Y-128060507D01*
X43437571Y-128124485D01*
X43602932Y-128302701D01*
X43616019Y-128316805D01*
X43821143Y-128480386D01*
X44048357Y-128611568D01*
X44292584Y-128707420D01*
X44548370Y-128765802D01*
X44604408Y-128770001D01*
X44744501Y-128780500D01*
X44744506Y-128780500D01*
X44875494Y-128780500D01*
X44875499Y-128780500D01*
X44998078Y-128771313D01*
X45071630Y-128765802D01*
X45327416Y-128707420D01*
X45571643Y-128611568D01*
X45798857Y-128480386D01*
X46003981Y-128316805D01*
X46168749Y-128139227D01*
X46182428Y-128124485D01*
X46182429Y-128124482D01*
X46182433Y-128124479D01*
X46330228Y-127907704D01*
X46444063Y-127671323D01*
X46521396Y-127420615D01*
X46560500Y-127161182D01*
X46560500Y-126898818D01*
X46521396Y-126639385D01*
X46444063Y-126388677D01*
X46330228Y-126152296D01*
X46182433Y-125935521D01*
X46182432Y-125935520D01*
X46182428Y-125935514D01*
X46003984Y-125743198D01*
X46003983Y-125743197D01*
X46003981Y-125743195D01*
X45798857Y-125579614D01*
X45798856Y-125579613D01*
X45571641Y-125448431D01*
X45327418Y-125352580D01*
X45071627Y-125294197D01*
X44875499Y-125279500D01*
X44875494Y-125279500D01*
X44744506Y-125279500D01*
X44744501Y-125279500D01*
X44548372Y-125294197D01*
X44292581Y-125352580D01*
X44048358Y-125448431D01*
X43821143Y-125579613D01*
X43616015Y-125743198D01*
X43437571Y-125935514D01*
X43339432Y-126079459D01*
X43296112Y-126142998D01*
X43289771Y-126152298D01*
X43175937Y-126388677D01*
X43098604Y-126639385D01*
X43082114Y-126748785D01*
X43058343Y-126805175D01*
X43010498Y-126843330D01*
X42950232Y-126853956D01*
X42892223Y-126834466D01*
X42850599Y-126789606D01*
X42835499Y-126730303D01*
X42835499Y-126190451D01*
X42844938Y-126142998D01*
X42871815Y-126102773D01*
X45364886Y-123609702D01*
X45380987Y-123596804D01*
X45382974Y-123594687D01*
X45382977Y-123594686D01*
X45429032Y-123545641D01*
X45431713Y-123542876D01*
X45451220Y-123523370D01*
X45453681Y-123520195D01*
X45461252Y-123511331D01*
X45491162Y-123479482D01*
X45491162Y-123479480D01*
X45501888Y-123468060D01*
X45502663Y-123468787D01*
X45526958Y-123441984D01*
X45580589Y-123421376D01*
X45637752Y-123427154D01*
X45686175Y-123458076D01*
X45692889Y-123465018D01*
X45841121Y-123618289D01*
X46076946Y-123804518D01*
X46335487Y-123957652D01*
X46612133Y-124074960D01*
X46612134Y-124074960D01*
X46612136Y-124074961D01*
X46660744Y-124088276D01*
X46901946Y-124154348D01*
X47199755Y-124194400D01*
X47425033Y-124194400D01*
X47425035Y-124194400D01*
X47649820Y-124179352D01*
X47723597Y-124164356D01*
X47944287Y-124119499D01*
X48228151Y-124020931D01*
X48346877Y-123960936D01*
X48479575Y-123893881D01*
X48540679Y-123880661D01*
X48600466Y-123898934D01*
X48643740Y-123944054D01*
X48659500Y-124004553D01*
X48659500Y-129202256D01*
X48657235Y-129222762D01*
X48659439Y-129292873D01*
X48659500Y-129296768D01*
X48659500Y-129324349D01*
X48660003Y-129328334D01*
X48660918Y-129339967D01*
X48662290Y-129383626D01*
X48667879Y-129402860D01*
X48671825Y-129421916D01*
X48674335Y-129441792D01*
X48690414Y-129482404D01*
X48694197Y-129493451D01*
X48706382Y-129535391D01*
X48716580Y-129552635D01*
X48725136Y-129570100D01*
X48732514Y-129588732D01*
X48732515Y-129588733D01*
X48758180Y-129624059D01*
X48764593Y-129633822D01*
X48786826Y-129671416D01*
X48786829Y-129671419D01*
X48786830Y-129671420D01*
X48800995Y-129685585D01*
X48813627Y-129700375D01*
X48825406Y-129716587D01*
X48859058Y-129744426D01*
X48867699Y-129752289D01*
X49613181Y-130497771D01*
X49640061Y-130537998D01*
X49649500Y-130585449D01*
X49649500Y-130624402D01*
X49651804Y-130653685D01*
X49652235Y-130659156D01*
X49661828Y-130692175D01*
X49695445Y-130807888D01*
X49774285Y-130941199D01*
X49788181Y-130955095D01*
X49815061Y-130995323D01*
X49824500Y-131042776D01*
X49824500Y-140703243D01*
X49808908Y-140763440D01*
X49766054Y-140808498D01*
X49706714Y-140827087D01*
X49645811Y-140814532D01*
X49598662Y-140773989D01*
X49577123Y-140715655D01*
X49575874Y-140703243D01*
X49568089Y-140625855D01*
X49498430Y-140333551D01*
X49418116Y-140125021D01*
X49390432Y-140053142D01*
X49246021Y-139789625D01*
X49067776Y-139547709D01*
X48858878Y-139331710D01*
X48623053Y-139145481D01*
X48490836Y-139067169D01*
X48364513Y-138992348D01*
X48164728Y-138907632D01*
X48087863Y-138875038D01*
X47798058Y-138795653D01*
X47798057Y-138795652D01*
X47798054Y-138795652D01*
X47500245Y-138755600D01*
X47274967Y-138755600D01*
X47274965Y-138755600D01*
X47050179Y-138770647D01*
X46755715Y-138830500D01*
X46471845Y-138929070D01*
X46203659Y-139064590D01*
X45955919Y-139234654D01*
X45733062Y-139436216D01*
X45539057Y-139665687D01*
X45377367Y-139918970D01*
X45250883Y-140191537D01*
X45161854Y-140478537D01*
X45111874Y-140774841D01*
X45101833Y-141075167D01*
X45131911Y-141374145D01*
X45201569Y-141666448D01*
X45309567Y-141946857D01*
X45453978Y-142210374D01*
X45477374Y-142242127D01*
X45632223Y-142452290D01*
X45841121Y-142668289D01*
X46076946Y-142854518D01*
X46335487Y-143007652D01*
X46612133Y-143124960D01*
X46612134Y-143124960D01*
X46612136Y-143124961D01*
X46631258Y-143130199D01*
X46901946Y-143204348D01*
X47199755Y-143244400D01*
X47425033Y-143244400D01*
X47425035Y-143244400D01*
X47649820Y-143229352D01*
X47723436Y-143214388D01*
X47944287Y-143169499D01*
X48228151Y-143070931D01*
X48329390Y-143019772D01*
X48479575Y-142943881D01*
X48540679Y-142930661D01*
X48600466Y-142948934D01*
X48643740Y-142994054D01*
X48659500Y-143054553D01*
X48659500Y-148252256D01*
X48657235Y-148272762D01*
X48659439Y-148342873D01*
X48659500Y-148346768D01*
X48659500Y-148374349D01*
X48660003Y-148378334D01*
X48660918Y-148389967D01*
X48662290Y-148433626D01*
X48667879Y-148452860D01*
X48671825Y-148471916D01*
X48674335Y-148491792D01*
X48690414Y-148532404D01*
X48694197Y-148543451D01*
X48706382Y-148585391D01*
X48716580Y-148602635D01*
X48725136Y-148620100D01*
X48732514Y-148638732D01*
X48732515Y-148638733D01*
X48758180Y-148674059D01*
X48764593Y-148683822D01*
X48786826Y-148721416D01*
X48786829Y-148721419D01*
X48786830Y-148721420D01*
X48800995Y-148735585D01*
X48813627Y-148750375D01*
X48825406Y-148766587D01*
X48859058Y-148794426D01*
X48867699Y-148802289D01*
X49613181Y-149547771D01*
X49640061Y-149587998D01*
X49649500Y-149635449D01*
X49649500Y-149674402D01*
X49650808Y-149691016D01*
X49652235Y-149709156D01*
X49677686Y-149796759D01*
X49695445Y-149857888D01*
X49774285Y-149991199D01*
X49788181Y-150005095D01*
X49815061Y-150045323D01*
X49824500Y-150092776D01*
X49824500Y-154159266D01*
X49810985Y-154215561D01*
X49773385Y-154259584D01*
X49719898Y-154281739D01*
X49662182Y-154277197D01*
X49612819Y-154246947D01*
X46673697Y-151307825D01*
X43596819Y-148230946D01*
X43569939Y-148190718D01*
X43560500Y-148143265D01*
X43560500Y-148037740D01*
X43562763Y-148017236D01*
X43561166Y-147966417D01*
X43560561Y-147947144D01*
X43560500Y-147943250D01*
X43560500Y-147915657D01*
X43560500Y-147915650D01*
X43559995Y-147911653D01*
X43559080Y-147900023D01*
X43558788Y-147890731D01*
X43557709Y-147856372D01*
X43552119Y-147837134D01*
X43548174Y-147818082D01*
X43545664Y-147798208D01*
X43541100Y-147786680D01*
X43529578Y-147757581D01*
X43525805Y-147746560D01*
X43513617Y-147704610D01*
X43509886Y-147698302D01*
X43503421Y-147687369D01*
X43494863Y-147669902D01*
X43487486Y-147651268D01*
X43461798Y-147615912D01*
X43455409Y-147606184D01*
X43433170Y-147568579D01*
X43419006Y-147554415D01*
X43406369Y-147539620D01*
X43394595Y-147523414D01*
X43388228Y-147518147D01*
X43360935Y-147495568D01*
X43352305Y-147487714D01*
X42871818Y-147007227D01*
X42844938Y-146966999D01*
X42835499Y-146919546D01*
X42835499Y-146379695D01*
X42850599Y-146320392D01*
X42892223Y-146275532D01*
X42950232Y-146256042D01*
X43010498Y-146266668D01*
X43058343Y-146304823D01*
X43082113Y-146361212D01*
X43098604Y-146470615D01*
X43175937Y-146721323D01*
X43289772Y-146957704D01*
X43393952Y-147110507D01*
X43437571Y-147174485D01*
X43602932Y-147352701D01*
X43616019Y-147366805D01*
X43821143Y-147530386D01*
X44048357Y-147661568D01*
X44292584Y-147757420D01*
X44548370Y-147815802D01*
X44604408Y-147820001D01*
X44744501Y-147830500D01*
X44744506Y-147830500D01*
X44875494Y-147830500D01*
X44875499Y-147830500D01*
X44998078Y-147821313D01*
X45071630Y-147815802D01*
X45327416Y-147757420D01*
X45571643Y-147661568D01*
X45798857Y-147530386D01*
X46003981Y-147366805D01*
X46168749Y-147189227D01*
X46182428Y-147174485D01*
X46182429Y-147174482D01*
X46182433Y-147174479D01*
X46330228Y-146957704D01*
X46444063Y-146721323D01*
X46521396Y-146470615D01*
X46560500Y-146211182D01*
X46560500Y-145948818D01*
X46521396Y-145689385D01*
X46444063Y-145438677D01*
X46330228Y-145202296D01*
X46182433Y-144985521D01*
X46182432Y-144985520D01*
X46182428Y-144985514D01*
X46003984Y-144793198D01*
X46003983Y-144793197D01*
X46003981Y-144793195D01*
X45850138Y-144670509D01*
X45798856Y-144629613D01*
X45571641Y-144498431D01*
X45327418Y-144402580D01*
X45071627Y-144344197D01*
X44875499Y-144329500D01*
X44875494Y-144329500D01*
X44744506Y-144329500D01*
X44744501Y-144329500D01*
X44548372Y-144344197D01*
X44292581Y-144402580D01*
X44048358Y-144498431D01*
X43821143Y-144629613D01*
X43616015Y-144793198D01*
X43437571Y-144985514D01*
X43289771Y-145202298D01*
X43175937Y-145438677D01*
X43098604Y-145689385D01*
X43082114Y-145798787D01*
X43058343Y-145855177D01*
X43010498Y-145893332D01*
X42950232Y-145903958D01*
X42892223Y-145884468D01*
X42850599Y-145839608D01*
X42835499Y-145780305D01*
X42835499Y-144782130D01*
X42835499Y-144782127D01*
X42829091Y-144722517D01*
X42778796Y-144587669D01*
X42692546Y-144472454D01*
X42577331Y-144386204D01*
X42442483Y-144335909D01*
X42382873Y-144329500D01*
X42382869Y-144329500D01*
X39737130Y-144329500D01*
X39677515Y-144335909D01*
X39542669Y-144386204D01*
X39427454Y-144472454D01*
X39341204Y-144587668D01*
X39290909Y-144722516D01*
X39284500Y-144782130D01*
X39284500Y-147377869D01*
X39290909Y-147437484D01*
X39306398Y-147479011D01*
X39341204Y-147572331D01*
X39427454Y-147687546D01*
X39542669Y-147773796D01*
X39677517Y-147824091D01*
X39737127Y-147830500D01*
X41874546Y-147830499D01*
X41921999Y-147839938D01*
X41962227Y-147866818D01*
X42273181Y-148177772D01*
X42300061Y-148218000D01*
X42309500Y-148265453D01*
X42309500Y-148370974D01*
X42307235Y-148391480D01*
X42309439Y-148461591D01*
X42309500Y-148465486D01*
X42309500Y-148493067D01*
X42310003Y-148497052D01*
X42310918Y-148508685D01*
X42312290Y-148552344D01*
X42317879Y-148571578D01*
X42321825Y-148590634D01*
X42324335Y-148610510D01*
X42340414Y-148651122D01*
X42344197Y-148662169D01*
X42356382Y-148704109D01*
X42366580Y-148721353D01*
X42375136Y-148738818D01*
X42382514Y-148757450D01*
X42382515Y-148757451D01*
X42408180Y-148792777D01*
X42414593Y-148802540D01*
X42436826Y-148840134D01*
X42436829Y-148840137D01*
X42436830Y-148840138D01*
X42450995Y-148854303D01*
X42463627Y-148869093D01*
X42475406Y-148885305D01*
X42509058Y-148913144D01*
X42517699Y-148921007D01*
X49580478Y-155983787D01*
X49593378Y-155999888D01*
X49644505Y-156047900D01*
X49647302Y-156050611D01*
X49666811Y-156070120D01*
X49669993Y-156072588D01*
X49678853Y-156080155D01*
X49710700Y-156110062D01*
X49728254Y-156119712D01*
X49744518Y-156130396D01*
X49756254Y-156139499D01*
X49760346Y-156142673D01*
X49785191Y-156153424D01*
X49800434Y-156160021D01*
X49810913Y-156165154D01*
X49849190Y-156186197D01*
X49868588Y-156191177D01*
X49886990Y-156197477D01*
X49905386Y-156205438D01*
X49948543Y-156212273D01*
X49959946Y-156214634D01*
X50002263Y-156225500D01*
X50022298Y-156225500D01*
X50041695Y-156227026D01*
X50061478Y-156230160D01*
X50104956Y-156226050D01*
X50116626Y-156225500D01*
X50911800Y-156225500D01*
X50932306Y-156227764D01*
X50935209Y-156227672D01*
X50935211Y-156227673D01*
X51002416Y-156225561D01*
X51006312Y-156225500D01*
X51033893Y-156225500D01*
X51033894Y-156225500D01*
X51037863Y-156224998D01*
X51049509Y-156224080D01*
X51093171Y-156222709D01*
X51112403Y-156217120D01*
X51131462Y-156213174D01*
X51138635Y-156212268D01*
X51151336Y-156210664D01*
X51191951Y-156194582D01*
X51202988Y-156190803D01*
X51244934Y-156178618D01*
X51262173Y-156168422D01*
X51279646Y-156159862D01*
X51298276Y-156152486D01*
X51333608Y-156126814D01*
X51343374Y-156120400D01*
X51380962Y-156098171D01*
X51380961Y-156098171D01*
X51380964Y-156098170D01*
X51395129Y-156084004D01*
X51409917Y-156071373D01*
X51426131Y-156059594D01*
X51453982Y-156025926D01*
X51461823Y-156017309D01*
X51818430Y-155660702D01*
X51874015Y-155628610D01*
X51938203Y-155628610D01*
X51968373Y-155646029D01*
X51970318Y-155642741D01*
X52023455Y-155674166D01*
X52117113Y-155729555D01*
X52265844Y-155772765D01*
X52300595Y-155775500D01*
X52339546Y-155775499D01*
X52386998Y-155784937D01*
X52427228Y-155811818D01*
X54248181Y-157632772D01*
X54275061Y-157673000D01*
X54284500Y-157720453D01*
X54284500Y-160715501D01*
X54267887Y-160777501D01*
X54222500Y-160822888D01*
X54160500Y-160839501D01*
X53587128Y-160839501D01*
X53567257Y-160841637D01*
X53527513Y-160845909D01*
X53487174Y-160860955D01*
X53427363Y-160867673D01*
X53371434Y-160845436D01*
X53332564Y-160799484D01*
X53319911Y-160740642D01*
X53336454Y-160682775D01*
X53436426Y-160509619D01*
X53505222Y-160310846D01*
X53535157Y-160102645D01*
X53525148Y-159892541D01*
X53475558Y-159688129D01*
X53388179Y-159496795D01*
X53388178Y-159496794D01*
X53388177Y-159496791D01*
X53266170Y-159325458D01*
X53266169Y-159325456D01*
X53113937Y-159180303D01*
X53113934Y-159180301D01*
X53113933Y-159180300D01*
X52936990Y-159066585D01*
X52790634Y-159007992D01*
X52741712Y-158988407D01*
X52741711Y-158988406D01*
X52741709Y-158988406D01*
X52535172Y-158948600D01*
X52535171Y-158948600D01*
X52377532Y-158948600D01*
X52290353Y-158956924D01*
X52220607Y-158963584D01*
X52018786Y-159022844D01*
X51831832Y-159119227D01*
X51666491Y-159249252D01*
X51528743Y-159408220D01*
X51423574Y-159590379D01*
X51354777Y-159789154D01*
X51324843Y-159997352D01*
X51324843Y-159997355D01*
X51334852Y-160207459D01*
X51384442Y-160411871D01*
X51429082Y-160509619D01*
X51471822Y-160603208D01*
X51510116Y-160656984D01*
X51532937Y-160722379D01*
X51517123Y-160789812D01*
X51467609Y-160838244D01*
X51399843Y-160852564D01*
X51225499Y-160839500D01*
X51225494Y-160839500D01*
X51094506Y-160839500D01*
X51094501Y-160839500D01*
X50898372Y-160854197D01*
X50642581Y-160912580D01*
X50398358Y-161008431D01*
X50171143Y-161139613D01*
X49966015Y-161303198D01*
X49787571Y-161495514D01*
X49639771Y-161712298D01*
X49525937Y-161948677D01*
X49448604Y-162199385D01*
X49418187Y-162401184D01*
X49395726Y-162455812D01*
X49350541Y-162493852D01*
X49292883Y-162506673D01*
X49235836Y-162491365D01*
X49218440Y-162481802D01*
X49199041Y-162476821D01*
X49180634Y-162470519D01*
X49162247Y-162462562D01*
X49119108Y-162455729D01*
X49107674Y-162453361D01*
X49065369Y-162442500D01*
X49045334Y-162442500D01*
X49025936Y-162440973D01*
X49018512Y-162439797D01*
X49006155Y-162437840D01*
X49006154Y-162437840D01*
X48979834Y-162440328D01*
X48962675Y-162441950D01*
X48951006Y-162442500D01*
X48037197Y-162442500D01*
X47971175Y-162423462D01*
X47925426Y-162372195D01*
X47913997Y-162304440D01*
X47940398Y-162241002D01*
X47996522Y-162201361D01*
X48003592Y-162198906D01*
X48228151Y-162120931D01*
X48362247Y-162053168D01*
X48496340Y-161985409D01*
X48496343Y-161985407D01*
X48744080Y-161815346D01*
X48966939Y-161613782D01*
X49160943Y-161384312D01*
X49322631Y-161131032D01*
X49449118Y-160858460D01*
X49538146Y-160571462D01*
X49588126Y-160275158D01*
X49598167Y-159974836D01*
X49568089Y-159675855D01*
X49498430Y-159383551D01*
X49390431Y-159103140D01*
X49246021Y-158839625D01*
X49067777Y-158597710D01*
X48858879Y-158381711D01*
X48623054Y-158195482D01*
X48623055Y-158195482D01*
X48623053Y-158195481D01*
X48493783Y-158118915D01*
X48364513Y-158042348D01*
X48183407Y-157965552D01*
X48087863Y-157925038D01*
X47798058Y-157845653D01*
X47798057Y-157845652D01*
X47798054Y-157845652D01*
X47500245Y-157805600D01*
X47274967Y-157805600D01*
X47274965Y-157805600D01*
X47050179Y-157820647D01*
X46755715Y-157880500D01*
X46471845Y-157979070D01*
X46203659Y-158114590D01*
X45955919Y-158284654D01*
X45733062Y-158486216D01*
X45539057Y-158715687D01*
X45377367Y-158968970D01*
X45250883Y-159241537D01*
X45161854Y-159528537D01*
X45111874Y-159824841D01*
X45101833Y-160125167D01*
X45131911Y-160424145D01*
X45201569Y-160716448D01*
X45309567Y-160996857D01*
X45438710Y-161232514D01*
X45453979Y-161260375D01*
X45632223Y-161502290D01*
X45841121Y-161718289D01*
X46076946Y-161904518D01*
X46335487Y-162057652D01*
X46612133Y-162174960D01*
X46612134Y-162174960D01*
X46612136Y-162174961D01*
X46699550Y-162198906D01*
X46750987Y-162227467D01*
X46783469Y-162276522D01*
X46789684Y-162335028D01*
X46768233Y-162389812D01*
X46723945Y-162428542D01*
X46666790Y-162442500D01*
X43204740Y-162442500D01*
X43184236Y-162440236D01*
X43114144Y-162442439D01*
X43110250Y-162442500D01*
X43082648Y-162442500D01*
X43078653Y-162443004D01*
X43067029Y-162443918D01*
X43023368Y-162445290D01*
X43004129Y-162450880D01*
X42985080Y-162454825D01*
X42965208Y-162457335D01*
X42924593Y-162473415D01*
X42913549Y-162477196D01*
X42871611Y-162489382D01*
X42854364Y-162499581D01*
X42836900Y-162508136D01*
X42818267Y-162515514D01*
X42782926Y-162541189D01*
X42773168Y-162547599D01*
X42735579Y-162569829D01*
X42721410Y-162583998D01*
X42706622Y-162596628D01*
X42690413Y-162608405D01*
X42662572Y-162642058D01*
X42654711Y-162650696D01*
X41962226Y-163343181D01*
X41921998Y-163370061D01*
X41874545Y-163379500D01*
X39737130Y-163379500D01*
X39677515Y-163385909D01*
X39542669Y-163436204D01*
X39427454Y-163522454D01*
X39341204Y-163637668D01*
X39290909Y-163772516D01*
X39284500Y-163832130D01*
X39284500Y-166427869D01*
X39290909Y-166487483D01*
X39341204Y-166622331D01*
X39427454Y-166737546D01*
X39542669Y-166823796D01*
X39677517Y-166874091D01*
X39737127Y-166880500D01*
X42382872Y-166880499D01*
X42442483Y-166874091D01*
X42577331Y-166823796D01*
X42692546Y-166737546D01*
X42778796Y-166622331D01*
X42829091Y-166487483D01*
X42835500Y-166427873D01*
X42835499Y-165429695D01*
X42850599Y-165370395D01*
X42892223Y-165325535D01*
X42950232Y-165306045D01*
X43010498Y-165316671D01*
X43058343Y-165354826D01*
X43082114Y-165411216D01*
X43098604Y-165520615D01*
X43175937Y-165771323D01*
X43289772Y-166007704D01*
X43425766Y-166207170D01*
X43437571Y-166224485D01*
X43616015Y-166416801D01*
X43616019Y-166416805D01*
X43821143Y-166580386D01*
X44048357Y-166711568D01*
X44292584Y-166807420D01*
X44548370Y-166865802D01*
X44604408Y-166870001D01*
X44744501Y-166880500D01*
X44744506Y-166880500D01*
X44875494Y-166880500D01*
X44875499Y-166880500D01*
X44998078Y-166871313D01*
X45071630Y-166865802D01*
X45327416Y-166807420D01*
X45571643Y-166711568D01*
X45798857Y-166580386D01*
X46003981Y-166416805D01*
X46103273Y-166309792D01*
X46182428Y-166224485D01*
X46182429Y-166224482D01*
X46182433Y-166224479D01*
X46330228Y-166007704D01*
X46444063Y-165771323D01*
X46521396Y-165520615D01*
X46560500Y-165261182D01*
X46560500Y-164998818D01*
X46521396Y-164739385D01*
X46444063Y-164488677D01*
X46330228Y-164252296D01*
X46182433Y-164035521D01*
X46182431Y-164035518D01*
X46058397Y-163901842D01*
X46030271Y-163852273D01*
X46027288Y-163795359D01*
X46050078Y-163743122D01*
X46093828Y-163706597D01*
X46149295Y-163693500D01*
X48675898Y-163693500D01*
X48723351Y-163702939D01*
X48763579Y-163729819D01*
X50547546Y-165513787D01*
X50560446Y-165529888D01*
X50611573Y-165577900D01*
X50614370Y-165580611D01*
X50633879Y-165600120D01*
X50637061Y-165602588D01*
X50645921Y-165610155D01*
X50677767Y-165640061D01*
X50677768Y-165640062D01*
X50695320Y-165649711D01*
X50711588Y-165660397D01*
X50727414Y-165672673D01*
X50767496Y-165690017D01*
X50777983Y-165695155D01*
X50816257Y-165716197D01*
X50824760Y-165718379D01*
X50835658Y-165721178D01*
X50854063Y-165727478D01*
X50872454Y-165735437D01*
X50915600Y-165742270D01*
X50927018Y-165744635D01*
X50969331Y-165755500D01*
X50989366Y-165755500D01*
X51008765Y-165757027D01*
X51028546Y-165760160D01*
X51072024Y-165756050D01*
X51083694Y-165755500D01*
X58210501Y-165755500D01*
X58272501Y-165772113D01*
X58317888Y-165817500D01*
X58334501Y-165879500D01*
X58334501Y-166427872D01*
X58340909Y-166487483D01*
X58391204Y-166622331D01*
X58477454Y-166737546D01*
X58592669Y-166823796D01*
X58727517Y-166874091D01*
X58787127Y-166880500D01*
X61432872Y-166880499D01*
X61492483Y-166874091D01*
X61627331Y-166823796D01*
X61742546Y-166737546D01*
X61828796Y-166622331D01*
X61879091Y-166487483D01*
X61885500Y-166427873D01*
X61885499Y-165429695D01*
X61900599Y-165370395D01*
X61942223Y-165325535D01*
X62000232Y-165306045D01*
X62060498Y-165316671D01*
X62108343Y-165354826D01*
X62132114Y-165411216D01*
X62148604Y-165520615D01*
X62225937Y-165771323D01*
X62339772Y-166007704D01*
X62475766Y-166207170D01*
X62487571Y-166224485D01*
X62666015Y-166416801D01*
X62666019Y-166416805D01*
X62871143Y-166580386D01*
X63098357Y-166711568D01*
X63342584Y-166807420D01*
X63598370Y-166865802D01*
X63654408Y-166870001D01*
X63794501Y-166880500D01*
X63794506Y-166880500D01*
X63925494Y-166880500D01*
X63925499Y-166880500D01*
X64048078Y-166871313D01*
X64121630Y-166865802D01*
X64377416Y-166807420D01*
X64621643Y-166711568D01*
X64848857Y-166580386D01*
X65053981Y-166416805D01*
X65153273Y-166309792D01*
X65232428Y-166224485D01*
X65232429Y-166224482D01*
X65232433Y-166224479D01*
X65380228Y-166007704D01*
X65494063Y-165771323D01*
X65571396Y-165520615D01*
X65610500Y-165261182D01*
X65610500Y-164998818D01*
X65571396Y-164739385D01*
X65494063Y-164488677D01*
X65380228Y-164252296D01*
X65258906Y-164074350D01*
X65237556Y-164011453D01*
X65251731Y-163946559D01*
X65297364Y-163898291D01*
X65361361Y-163880500D01*
X67440548Y-163880500D01*
X67488001Y-163889939D01*
X67528229Y-163916819D01*
X69125196Y-165513787D01*
X69138096Y-165529888D01*
X69189223Y-165577900D01*
X69192020Y-165580611D01*
X69211529Y-165600120D01*
X69214711Y-165602588D01*
X69223571Y-165610155D01*
X69255417Y-165640061D01*
X69255418Y-165640062D01*
X69272970Y-165649711D01*
X69289238Y-165660397D01*
X69305064Y-165672673D01*
X69345146Y-165690017D01*
X69355633Y-165695155D01*
X69393907Y-165716197D01*
X69402410Y-165718379D01*
X69413308Y-165721178D01*
X69431713Y-165727478D01*
X69450104Y-165735437D01*
X69493250Y-165742270D01*
X69504668Y-165744635D01*
X69546981Y-165755500D01*
X69567016Y-165755500D01*
X69586415Y-165757027D01*
X69606196Y-165760160D01*
X69649674Y-165756050D01*
X69661344Y-165755500D01*
X77260501Y-165755500D01*
X77322501Y-165772113D01*
X77367888Y-165817500D01*
X77384501Y-165879500D01*
X77384501Y-166427872D01*
X77390909Y-166487483D01*
X77441204Y-166622331D01*
X77527454Y-166737546D01*
X77642669Y-166823796D01*
X77777517Y-166874091D01*
X77837127Y-166880500D01*
X80482872Y-166880499D01*
X80542483Y-166874091D01*
X80677331Y-166823796D01*
X80792546Y-166737546D01*
X80878796Y-166622331D01*
X80929091Y-166487483D01*
X80935500Y-166427873D01*
X80935499Y-165429695D01*
X80950599Y-165370395D01*
X80992223Y-165325535D01*
X81050232Y-165306045D01*
X81110498Y-165316671D01*
X81158343Y-165354826D01*
X81182114Y-165411216D01*
X81198604Y-165520615D01*
X81275937Y-165771323D01*
X81389772Y-166007704D01*
X81525766Y-166207170D01*
X81537571Y-166224485D01*
X81716015Y-166416801D01*
X81716019Y-166416805D01*
X81921143Y-166580386D01*
X82148357Y-166711568D01*
X82392584Y-166807420D01*
X82648370Y-166865802D01*
X82704408Y-166870001D01*
X82844501Y-166880500D01*
X82844506Y-166880500D01*
X82975494Y-166880500D01*
X82975499Y-166880500D01*
X83098078Y-166871313D01*
X83171630Y-166865802D01*
X83427416Y-166807420D01*
X83671643Y-166711568D01*
X83898857Y-166580386D01*
X84103981Y-166416805D01*
X84203273Y-166309792D01*
X84282428Y-166224485D01*
X84282429Y-166224482D01*
X84282433Y-166224479D01*
X84430228Y-166007704D01*
X84544063Y-165771323D01*
X84621396Y-165520615D01*
X84660500Y-165261182D01*
X84660500Y-164998818D01*
X84621396Y-164739385D01*
X84544063Y-164488677D01*
X84430228Y-164252296D01*
X84308906Y-164074350D01*
X84287556Y-164011453D01*
X84301731Y-163946559D01*
X84347364Y-163898291D01*
X84411361Y-163880500D01*
X86962898Y-163880500D01*
X87010351Y-163889939D01*
X87050579Y-163916819D01*
X88647546Y-165513787D01*
X88660446Y-165529888D01*
X88711573Y-165577900D01*
X88714370Y-165580611D01*
X88733879Y-165600120D01*
X88737061Y-165602588D01*
X88745921Y-165610155D01*
X88777767Y-165640061D01*
X88777768Y-165640062D01*
X88795320Y-165649711D01*
X88811588Y-165660397D01*
X88827414Y-165672673D01*
X88867496Y-165690017D01*
X88877983Y-165695155D01*
X88916257Y-165716197D01*
X88924760Y-165718379D01*
X88935658Y-165721178D01*
X88954063Y-165727478D01*
X88972454Y-165735437D01*
X89015600Y-165742270D01*
X89027018Y-165744635D01*
X89069331Y-165755500D01*
X89089366Y-165755500D01*
X89108765Y-165757027D01*
X89128546Y-165760160D01*
X89172024Y-165756050D01*
X89183694Y-165755500D01*
X96310501Y-165755500D01*
X96372501Y-165772113D01*
X96417888Y-165817500D01*
X96434501Y-165879500D01*
X96434501Y-166427872D01*
X96440909Y-166487483D01*
X96491204Y-166622331D01*
X96577454Y-166737546D01*
X96692669Y-166823796D01*
X96827517Y-166874091D01*
X96887127Y-166880500D01*
X99532872Y-166880499D01*
X99592483Y-166874091D01*
X99727331Y-166823796D01*
X99842546Y-166737546D01*
X99928796Y-166622331D01*
X99979091Y-166487483D01*
X99985500Y-166427873D01*
X99985499Y-165429695D01*
X100000599Y-165370395D01*
X100042223Y-165325535D01*
X100100232Y-165306045D01*
X100160498Y-165316671D01*
X100208343Y-165354826D01*
X100232114Y-165411216D01*
X100248604Y-165520615D01*
X100325937Y-165771323D01*
X100439772Y-166007704D01*
X100575766Y-166207170D01*
X100587571Y-166224485D01*
X100766015Y-166416801D01*
X100766019Y-166416805D01*
X100971143Y-166580386D01*
X101198357Y-166711568D01*
X101442584Y-166807420D01*
X101698370Y-166865802D01*
X101754408Y-166870001D01*
X101894501Y-166880500D01*
X101894506Y-166880500D01*
X102025494Y-166880500D01*
X102025499Y-166880500D01*
X102148078Y-166871313D01*
X102221630Y-166865802D01*
X102477416Y-166807420D01*
X102721643Y-166711568D01*
X102948857Y-166580386D01*
X103153981Y-166416805D01*
X103253273Y-166309792D01*
X103332428Y-166224485D01*
X103332429Y-166224482D01*
X103332433Y-166224479D01*
X103480228Y-166007704D01*
X103594063Y-165771323D01*
X103671396Y-165520615D01*
X103710500Y-165261182D01*
X103710500Y-164998818D01*
X103671396Y-164739385D01*
X103594063Y-164488677D01*
X103480228Y-164252296D01*
X103358906Y-164074350D01*
X103337556Y-164011453D01*
X103351731Y-163946559D01*
X103397364Y-163898291D01*
X103461361Y-163880500D01*
X106012898Y-163880500D01*
X106060351Y-163889939D01*
X106100579Y-163916819D01*
X107697546Y-165513787D01*
X107710446Y-165529888D01*
X107761573Y-165577900D01*
X107764370Y-165580611D01*
X107783879Y-165600120D01*
X107787061Y-165602588D01*
X107795921Y-165610155D01*
X107827767Y-165640061D01*
X107827768Y-165640062D01*
X107845320Y-165649711D01*
X107861588Y-165660397D01*
X107877414Y-165672673D01*
X107917496Y-165690017D01*
X107927983Y-165695155D01*
X107966257Y-165716197D01*
X107974760Y-165718379D01*
X107985658Y-165721178D01*
X108004063Y-165727478D01*
X108022454Y-165735437D01*
X108065600Y-165742270D01*
X108077018Y-165744635D01*
X108119331Y-165755500D01*
X108139366Y-165755500D01*
X108158765Y-165757027D01*
X108178546Y-165760160D01*
X108222024Y-165756050D01*
X108233694Y-165755500D01*
X115360501Y-165755500D01*
X115422501Y-165772113D01*
X115467888Y-165817500D01*
X115484501Y-165879500D01*
X115484501Y-166427872D01*
X115490909Y-166487483D01*
X115541204Y-166622331D01*
X115627454Y-166737546D01*
X115742669Y-166823796D01*
X115877517Y-166874091D01*
X115937127Y-166880500D01*
X118582872Y-166880499D01*
X118642483Y-166874091D01*
X118777331Y-166823796D01*
X118892546Y-166737546D01*
X118978796Y-166622331D01*
X119029091Y-166487483D01*
X119035500Y-166427873D01*
X119035499Y-165429695D01*
X119050599Y-165370395D01*
X119092223Y-165325535D01*
X119150232Y-165306045D01*
X119210498Y-165316671D01*
X119258343Y-165354826D01*
X119282114Y-165411216D01*
X119298604Y-165520615D01*
X119375937Y-165771323D01*
X119489772Y-166007704D01*
X119625766Y-166207170D01*
X119637571Y-166224485D01*
X119816015Y-166416801D01*
X119816019Y-166416805D01*
X120021143Y-166580386D01*
X120248357Y-166711568D01*
X120492584Y-166807420D01*
X120748370Y-166865802D01*
X120804408Y-166870001D01*
X120944501Y-166880500D01*
X120944506Y-166880500D01*
X121075494Y-166880500D01*
X121075499Y-166880500D01*
X121198078Y-166871313D01*
X121271630Y-166865802D01*
X121527416Y-166807420D01*
X121771643Y-166711568D01*
X121998857Y-166580386D01*
X122203981Y-166416805D01*
X122303273Y-166309792D01*
X122382428Y-166224485D01*
X122382429Y-166224482D01*
X122382433Y-166224479D01*
X122530228Y-166007704D01*
X122644063Y-165771323D01*
X122721396Y-165520615D01*
X122760500Y-165261182D01*
X122760500Y-164998818D01*
X122721396Y-164739385D01*
X122644063Y-164488677D01*
X122530228Y-164252296D01*
X122408906Y-164074350D01*
X122387556Y-164011453D01*
X122401731Y-163946559D01*
X122447364Y-163898291D01*
X122511361Y-163880500D01*
X124336548Y-163880500D01*
X124384001Y-163889939D01*
X124424229Y-163916819D01*
X126021196Y-165513787D01*
X126034096Y-165529888D01*
X126085223Y-165577900D01*
X126088020Y-165580611D01*
X126107529Y-165600120D01*
X126110711Y-165602588D01*
X126119571Y-165610155D01*
X126151417Y-165640061D01*
X126151418Y-165640062D01*
X126168970Y-165649711D01*
X126185238Y-165660397D01*
X126201064Y-165672673D01*
X126241146Y-165690017D01*
X126251633Y-165695155D01*
X126289907Y-165716197D01*
X126298410Y-165718379D01*
X126309308Y-165721178D01*
X126327713Y-165727478D01*
X126346104Y-165735437D01*
X126389250Y-165742270D01*
X126400668Y-165744635D01*
X126442981Y-165755500D01*
X126463016Y-165755500D01*
X126482415Y-165757027D01*
X126502196Y-165760160D01*
X126545674Y-165756050D01*
X126557344Y-165755500D01*
X134410501Y-165755500D01*
X134472501Y-165772113D01*
X134517888Y-165817500D01*
X134534501Y-165879500D01*
X134534501Y-166427872D01*
X134540909Y-166487483D01*
X134591204Y-166622331D01*
X134677454Y-166737546D01*
X134792669Y-166823796D01*
X134927517Y-166874091D01*
X134987127Y-166880500D01*
X137632872Y-166880499D01*
X137692483Y-166874091D01*
X137827331Y-166823796D01*
X137942546Y-166737546D01*
X138028796Y-166622331D01*
X138079091Y-166487483D01*
X138085500Y-166427873D01*
X138085499Y-165429695D01*
X138100599Y-165370395D01*
X138142223Y-165325535D01*
X138200232Y-165306045D01*
X138260498Y-165316671D01*
X138308343Y-165354826D01*
X138332114Y-165411216D01*
X138348604Y-165520615D01*
X138425937Y-165771323D01*
X138539772Y-166007704D01*
X138675766Y-166207170D01*
X138687571Y-166224485D01*
X138866015Y-166416801D01*
X138866019Y-166416805D01*
X139071143Y-166580386D01*
X139298357Y-166711568D01*
X139542584Y-166807420D01*
X139798370Y-166865802D01*
X139854408Y-166870001D01*
X139994501Y-166880500D01*
X139994506Y-166880500D01*
X140125494Y-166880500D01*
X140125499Y-166880500D01*
X140248078Y-166871313D01*
X140321630Y-166865802D01*
X140577416Y-166807420D01*
X140821643Y-166711568D01*
X141048857Y-166580386D01*
X141253981Y-166416805D01*
X141353273Y-166309792D01*
X141432428Y-166224485D01*
X141432429Y-166224482D01*
X141432433Y-166224479D01*
X141580228Y-166007704D01*
X141694063Y-165771323D01*
X141771396Y-165520615D01*
X141810500Y-165261182D01*
X141810500Y-164998818D01*
X141771396Y-164739385D01*
X141694063Y-164488677D01*
X141580228Y-164252296D01*
X141432433Y-164035521D01*
X141432432Y-164035520D01*
X141432428Y-164035514D01*
X141253984Y-163843198D01*
X141253983Y-163843197D01*
X141253981Y-163843195D01*
X141078106Y-163702939D01*
X141048856Y-163679613D01*
X140821641Y-163548431D01*
X140577418Y-163452580D01*
X140321627Y-163394197D01*
X140125499Y-163379500D01*
X140125494Y-163379500D01*
X139994506Y-163379500D01*
X139994501Y-163379500D01*
X139798372Y-163394197D01*
X139542581Y-163452580D01*
X139298358Y-163548431D01*
X139071143Y-163679613D01*
X138866015Y-163843198D01*
X138687571Y-164035514D01*
X138539771Y-164252298D01*
X138425937Y-164488677D01*
X138348604Y-164739385D01*
X138332114Y-164848784D01*
X138308343Y-164905174D01*
X138260498Y-164943329D01*
X138200232Y-164953955D01*
X138142223Y-164934465D01*
X138100599Y-164889605D01*
X138085499Y-164830302D01*
X138085499Y-163832130D01*
X138081546Y-163795359D01*
X138079091Y-163772517D01*
X138028796Y-163637669D01*
X137942546Y-163522454D01*
X137827331Y-163436204D01*
X137692483Y-163385909D01*
X137632873Y-163379500D01*
X137632869Y-163379500D01*
X137043600Y-163379500D01*
X136981600Y-163362887D01*
X136936213Y-163317500D01*
X136919600Y-163255500D01*
X136919600Y-161179229D01*
X136934068Y-161121101D01*
X136974097Y-161076538D01*
X137030345Y-161055939D01*
X137089684Y-161064110D01*
X137208288Y-161111593D01*
X137337084Y-161136416D01*
X137414828Y-161151400D01*
X137414829Y-161151400D01*
X137572463Y-161151400D01*
X137572468Y-161151400D01*
X137729389Y-161136416D01*
X137931211Y-161077156D01*
X138118170Y-160980771D01*
X138283510Y-160850747D01*
X138421255Y-160691781D01*
X138526426Y-160509619D01*
X138595222Y-160310846D01*
X138621919Y-160125167D01*
X140351833Y-160125167D01*
X140381911Y-160424145D01*
X140451569Y-160716448D01*
X140559567Y-160996857D01*
X140688710Y-161232514D01*
X140703979Y-161260375D01*
X140882223Y-161502290D01*
X141091121Y-161718289D01*
X141326946Y-161904518D01*
X141585487Y-162057652D01*
X141862133Y-162174960D01*
X141862134Y-162174960D01*
X141862136Y-162174961D01*
X141926010Y-162192457D01*
X142151946Y-162254348D01*
X142449755Y-162294400D01*
X142675033Y-162294400D01*
X142675035Y-162294400D01*
X142899820Y-162279352D01*
X142973435Y-162264388D01*
X143194287Y-162219499D01*
X143478151Y-162120931D01*
X143612247Y-162053168D01*
X143746340Y-161985409D01*
X143746343Y-161985407D01*
X143994080Y-161815346D01*
X144216939Y-161613782D01*
X144410943Y-161384312D01*
X144572631Y-161131032D01*
X144699118Y-160858460D01*
X144788146Y-160571462D01*
X144838126Y-160275158D01*
X144848167Y-159974836D01*
X144818089Y-159675855D01*
X144748430Y-159383551D01*
X144640431Y-159103140D01*
X144496021Y-158839625D01*
X144317777Y-158597710D01*
X144108879Y-158381711D01*
X143873054Y-158195482D01*
X143873055Y-158195482D01*
X143873053Y-158195481D01*
X143743783Y-158118915D01*
X143614513Y-158042348D01*
X143433407Y-157965552D01*
X143337863Y-157925038D01*
X143048058Y-157845653D01*
X143048057Y-157845652D01*
X143048054Y-157845652D01*
X142750245Y-157805600D01*
X142524967Y-157805600D01*
X142524965Y-157805600D01*
X142300179Y-157820647D01*
X142005715Y-157880500D01*
X141721845Y-157979070D01*
X141453659Y-158114590D01*
X141205919Y-158284654D01*
X140983062Y-158486216D01*
X140789057Y-158715687D01*
X140627367Y-158968970D01*
X140500883Y-159241537D01*
X140411854Y-159528537D01*
X140361874Y-159824841D01*
X140351833Y-160125167D01*
X138621919Y-160125167D01*
X138625157Y-160102645D01*
X138615148Y-159892541D01*
X138565558Y-159688129D01*
X138478179Y-159496795D01*
X138478178Y-159496794D01*
X138478177Y-159496791D01*
X138356170Y-159325458D01*
X138356169Y-159325456D01*
X138203937Y-159180303D01*
X138203934Y-159180301D01*
X138203933Y-159180300D01*
X138026990Y-159066585D01*
X137880634Y-159007992D01*
X137831712Y-158988407D01*
X137831711Y-158988406D01*
X137831709Y-158988406D01*
X137625172Y-158948600D01*
X137625171Y-158948600D01*
X137467532Y-158948600D01*
X137380353Y-158956924D01*
X137310607Y-158963584D01*
X137108790Y-159022843D01*
X137104397Y-159025107D01*
X137100418Y-159027159D01*
X137039174Y-159040864D01*
X136979062Y-159022824D01*
X136935483Y-158977661D01*
X136919600Y-158916943D01*
X136919600Y-149581352D01*
X136929039Y-149533899D01*
X136955919Y-149493671D01*
X137745482Y-148704108D01*
X138568789Y-147880800D01*
X138584885Y-147867906D01*
X138586873Y-147865787D01*
X138586877Y-147865786D01*
X138632948Y-147816723D01*
X138635566Y-147814023D01*
X138655120Y-147794471D01*
X138657581Y-147791298D01*
X138665156Y-147782427D01*
X138695062Y-147750582D01*
X138704717Y-147733018D01*
X138715394Y-147716764D01*
X138727673Y-147700936D01*
X138745018Y-147660852D01*
X138750160Y-147650356D01*
X138771197Y-147612092D01*
X138776179Y-147592684D01*
X138782481Y-147574280D01*
X138790437Y-147555896D01*
X138792193Y-147544807D01*
X138818151Y-147486350D01*
X138869793Y-147448606D01*
X138933375Y-147441622D01*
X138991979Y-147467255D01*
X139055796Y-147518147D01*
X139071143Y-147530386D01*
X139298357Y-147661568D01*
X139542584Y-147757420D01*
X139798370Y-147815802D01*
X139854408Y-147820001D01*
X139994501Y-147830500D01*
X139994506Y-147830500D01*
X140125494Y-147830500D01*
X140125499Y-147830500D01*
X140248078Y-147821313D01*
X140321630Y-147815802D01*
X140577416Y-147757420D01*
X140821643Y-147661568D01*
X141048857Y-147530386D01*
X141253981Y-147366805D01*
X141418749Y-147189227D01*
X141432428Y-147174485D01*
X141432429Y-147174482D01*
X141432433Y-147174479D01*
X141580228Y-146957704D01*
X141694063Y-146721323D01*
X141771396Y-146470615D01*
X141810500Y-146211182D01*
X141810500Y-145948818D01*
X141771396Y-145689385D01*
X141694063Y-145438677D01*
X141580228Y-145202296D01*
X141432433Y-144985521D01*
X141432432Y-144985520D01*
X141432428Y-144985514D01*
X141253984Y-144793198D01*
X141253983Y-144793197D01*
X141253981Y-144793195D01*
X141100138Y-144670509D01*
X141048856Y-144629613D01*
X140821641Y-144498431D01*
X140577418Y-144402580D01*
X140321627Y-144344197D01*
X140125499Y-144329500D01*
X140125494Y-144329500D01*
X139994506Y-144329500D01*
X139994501Y-144329500D01*
X139798372Y-144344197D01*
X139542581Y-144402580D01*
X139298358Y-144498431D01*
X139071143Y-144629613D01*
X139011813Y-144676928D01*
X138948384Y-144703201D01*
X138880699Y-144691701D01*
X138829506Y-144645953D01*
X138810500Y-144579981D01*
X138810500Y-142625452D01*
X138819939Y-142577999D01*
X138846819Y-142537771D01*
X139174216Y-142210374D01*
X140163072Y-141221516D01*
X140223519Y-141188226D01*
X140292403Y-141192404D01*
X140348386Y-141232756D01*
X140374128Y-141296786D01*
X140381911Y-141374145D01*
X140451569Y-141666448D01*
X140559567Y-141946857D01*
X140703978Y-142210374D01*
X140727374Y-142242127D01*
X140882223Y-142452290D01*
X141091121Y-142668289D01*
X141326946Y-142854518D01*
X141585487Y-143007652D01*
X141862133Y-143124960D01*
X141862134Y-143124960D01*
X141862136Y-143124961D01*
X141881258Y-143130199D01*
X142151946Y-143204348D01*
X142449755Y-143244400D01*
X142675033Y-143244400D01*
X142675034Y-143244400D01*
X142712109Y-143241918D01*
X142819121Y-143234754D01*
X142881073Y-143246693D01*
X142929131Y-143287571D01*
X142950853Y-143346806D01*
X142955180Y-143392573D01*
X142955731Y-143404244D01*
X142955731Y-147298487D01*
X142953466Y-147318993D01*
X142955670Y-147389104D01*
X142955731Y-147392999D01*
X142955731Y-147420580D01*
X142956234Y-147424565D01*
X142957149Y-147436198D01*
X142958521Y-147479857D01*
X142964110Y-147499091D01*
X142968056Y-147518147D01*
X142970566Y-147538023D01*
X142986645Y-147578635D01*
X142990428Y-147589682D01*
X143002613Y-147631622D01*
X143012811Y-147648866D01*
X143021367Y-147666331D01*
X143028745Y-147684963D01*
X143028746Y-147684964D01*
X143054411Y-147720290D01*
X143060824Y-147730053D01*
X143083057Y-147767647D01*
X143083060Y-147767650D01*
X143083061Y-147767651D01*
X143097226Y-147781816D01*
X143109858Y-147796606D01*
X143121637Y-147812818D01*
X143155289Y-147840657D01*
X143163930Y-147848520D01*
X144863181Y-149547772D01*
X144890061Y-149587999D01*
X144899500Y-149635450D01*
X144899500Y-149674402D01*
X144900808Y-149691016D01*
X144902235Y-149709156D01*
X144927686Y-149796759D01*
X144945445Y-149857888D01*
X145024285Y-149991199D01*
X145038181Y-150005095D01*
X145065061Y-150045323D01*
X145074500Y-150092776D01*
X145074500Y-154457224D01*
X145065061Y-154504677D01*
X145038181Y-154544905D01*
X145024285Y-154558800D01*
X144945446Y-154692110D01*
X144945446Y-154692111D01*
X144945445Y-154692113D01*
X144902235Y-154840844D01*
X144902235Y-154840845D01*
X144902235Y-154840846D01*
X144899500Y-154875598D01*
X144899500Y-155224402D01*
X144901804Y-155253686D01*
X144902235Y-155259156D01*
X144913901Y-155299310D01*
X144945445Y-155407888D01*
X145024285Y-155541199D01*
X145133800Y-155650714D01*
X145133802Y-155650715D01*
X145267113Y-155729555D01*
X145415844Y-155772765D01*
X145450595Y-155775500D01*
X145949404Y-155775499D01*
X145984156Y-155772765D01*
X146132887Y-155729555D01*
X146266198Y-155650715D01*
X146375715Y-155541198D01*
X146454555Y-155407887D01*
X146497765Y-155259156D01*
X146500500Y-155224405D01*
X146500499Y-154875596D01*
X146497765Y-154840844D01*
X146454555Y-154692113D01*
X146385167Y-154574785D01*
X146375714Y-154558800D01*
X146361819Y-154544905D01*
X146334939Y-154504677D01*
X146325500Y-154457224D01*
X146325500Y-150092776D01*
X146334939Y-150045323D01*
X146361819Y-150005095D01*
X146375714Y-149991199D01*
X146375715Y-149991198D01*
X146454555Y-149857887D01*
X146497765Y-149709156D01*
X146500500Y-149674405D01*
X146500499Y-149325596D01*
X146497765Y-149290844D01*
X146454555Y-149142113D01*
X146375715Y-149008802D01*
X146375714Y-149008800D01*
X146266199Y-148899285D01*
X146132889Y-148820446D01*
X146132888Y-148820445D01*
X146132887Y-148820445D01*
X145984156Y-148777235D01*
X145949405Y-148774500D01*
X145949402Y-148774500D01*
X145910452Y-148774500D01*
X145862999Y-148765061D01*
X145822771Y-148738181D01*
X144243050Y-147158459D01*
X144216170Y-147118231D01*
X144206731Y-147070778D01*
X144206731Y-143679352D01*
X144216170Y-143631899D01*
X144243050Y-143591671D01*
X144447819Y-143386902D01*
X144497182Y-143356652D01*
X144554898Y-143352110D01*
X144608385Y-143374265D01*
X144645985Y-143418288D01*
X144659500Y-143474583D01*
X144659500Y-143671182D01*
X144698604Y-143930615D01*
X144775937Y-144181323D01*
X144889772Y-144417704D01*
X145025766Y-144617170D01*
X145037571Y-144634485D01*
X145184836Y-144793198D01*
X145216019Y-144826805D01*
X145421143Y-144990386D01*
X145648357Y-145121568D01*
X145714548Y-145147546D01*
X145854048Y-145202296D01*
X145892584Y-145217420D01*
X146148370Y-145275802D01*
X146204408Y-145280001D01*
X146344501Y-145290500D01*
X146344506Y-145290500D01*
X146475494Y-145290500D01*
X146475499Y-145290500D01*
X146598078Y-145281313D01*
X146671630Y-145275802D01*
X146927416Y-145217420D01*
X147171643Y-145121568D01*
X147398857Y-144990386D01*
X147603981Y-144826805D01*
X147703273Y-144719792D01*
X147782428Y-144634485D01*
X147782429Y-144634482D01*
X147782433Y-144634479D01*
X147930228Y-144417704D01*
X148044063Y-144181323D01*
X148121396Y-143930615D01*
X148137885Y-143821213D01*
X148161655Y-143764825D01*
X148209500Y-143726670D01*
X148269766Y-143716044D01*
X148327776Y-143735534D01*
X148369399Y-143780393D01*
X148384500Y-143839697D01*
X148384500Y-144837869D01*
X148390909Y-144897484D01*
X148416056Y-144964907D01*
X148441204Y-145032331D01*
X148527454Y-145147546D01*
X148642669Y-145233796D01*
X148777517Y-145284091D01*
X148837127Y-145290500D01*
X149410500Y-145290500D01*
X149472500Y-145307113D01*
X149517887Y-145352500D01*
X149534500Y-145414500D01*
X149534500Y-146829548D01*
X149525061Y-146877001D01*
X149498181Y-146917229D01*
X147677226Y-148738181D01*
X147636999Y-148765061D01*
X147589548Y-148774500D01*
X147550597Y-148774500D01*
X147518579Y-148777019D01*
X147515844Y-148777235D01*
X147466266Y-148791638D01*
X147367111Y-148820445D01*
X147233800Y-148899285D01*
X147124285Y-149008800D01*
X147045446Y-149142110D01*
X147045446Y-149142111D01*
X147045445Y-149142113D01*
X147002235Y-149290844D01*
X147001484Y-149300393D01*
X146999500Y-149325598D01*
X146999500Y-149674402D01*
X147000808Y-149691016D01*
X147002235Y-149709156D01*
X147027686Y-149796759D01*
X147045445Y-149857888D01*
X147124285Y-149991199D01*
X147233800Y-150100714D01*
X147233802Y-150100715D01*
X147367113Y-150179555D01*
X147515844Y-150222765D01*
X147550595Y-150225500D01*
X148049404Y-150225499D01*
X148084156Y-150222765D01*
X148232887Y-150179555D01*
X148366198Y-150100715D01*
X148475715Y-149991198D01*
X148554555Y-149857887D01*
X148597765Y-149709156D01*
X148600500Y-149674405D01*
X148600500Y-149635449D01*
X148609937Y-149588000D01*
X148636817Y-149547772D01*
X150543789Y-147640800D01*
X150559885Y-147627906D01*
X150561873Y-147625787D01*
X150561877Y-147625786D01*
X150607948Y-147576723D01*
X150610566Y-147574023D01*
X150630120Y-147554471D01*
X150632581Y-147551298D01*
X150640156Y-147542427D01*
X150670062Y-147510582D01*
X150679712Y-147493027D01*
X150690400Y-147476757D01*
X150702673Y-147460936D01*
X150720026Y-147420832D01*
X150725157Y-147410362D01*
X150746197Y-147372092D01*
X150751175Y-147352699D01*
X150757481Y-147334282D01*
X150762840Y-147321898D01*
X150765438Y-147315896D01*
X150772272Y-147272745D01*
X150774635Y-147261331D01*
X150785500Y-147219019D01*
X150785500Y-147198984D01*
X150787027Y-147179585D01*
X150787835Y-147174485D01*
X150790160Y-147159804D01*
X150786050Y-147116325D01*
X150785500Y-147104656D01*
X150785500Y-145414499D01*
X150802113Y-145352499D01*
X150847500Y-145307112D01*
X150909500Y-145290499D01*
X151482870Y-145290499D01*
X151482872Y-145290499D01*
X151542483Y-145284091D01*
X151677331Y-145233796D01*
X151792546Y-145147546D01*
X151792547Y-145147545D01*
X151801189Y-145141076D01*
X151864448Y-145116837D01*
X151931004Y-145129459D01*
X151980995Y-145175176D01*
X151999500Y-145240343D01*
X151999500Y-160889657D01*
X151980995Y-160954824D01*
X151931004Y-161000541D01*
X151864448Y-161013163D01*
X151801189Y-160988924D01*
X151677331Y-160896204D01*
X151542483Y-160845909D01*
X151542482Y-160845908D01*
X151482873Y-160839500D01*
X151482869Y-160839500D01*
X150909500Y-160839500D01*
X150847500Y-160822887D01*
X150802113Y-160777500D01*
X150785500Y-160715500D01*
X150785500Y-157492744D01*
X150787764Y-157472237D01*
X150785561Y-157402127D01*
X150785500Y-157398232D01*
X150785500Y-157370653D01*
X150784997Y-157366672D01*
X150784080Y-157355019D01*
X150782709Y-157311373D01*
X150777120Y-157292140D01*
X150773174Y-157273082D01*
X150770664Y-157253206D01*
X150754588Y-157212604D01*
X150750804Y-157201553D01*
X150744881Y-157181168D01*
X150738618Y-157159610D01*
X150728414Y-157142355D01*
X150719861Y-157124895D01*
X150712486Y-157106269D01*
X150712486Y-157106268D01*
X150686808Y-157070925D01*
X150680401Y-157061171D01*
X150658169Y-157023579D01*
X150644006Y-157009416D01*
X150631367Y-156994617D01*
X150619595Y-156978413D01*
X150585941Y-156950573D01*
X150577299Y-156942709D01*
X148636818Y-155002227D01*
X148609938Y-154961999D01*
X148600499Y-154914546D01*
X148600499Y-154875597D01*
X148600499Y-154875595D01*
X148597765Y-154840844D01*
X148554555Y-154692113D01*
X148485167Y-154574785D01*
X148475714Y-154558800D01*
X148366199Y-154449285D01*
X148232889Y-154370446D01*
X148232888Y-154370445D01*
X148232887Y-154370445D01*
X148084156Y-154327235D01*
X148049405Y-154324500D01*
X148049401Y-154324500D01*
X147550597Y-154324500D01*
X147518579Y-154327019D01*
X147515844Y-154327235D01*
X147488807Y-154335090D01*
X147367111Y-154370445D01*
X147233800Y-154449285D01*
X147124285Y-154558800D01*
X147045446Y-154692110D01*
X147045446Y-154692111D01*
X147045445Y-154692113D01*
X147002235Y-154840844D01*
X147002235Y-154840845D01*
X147002235Y-154840846D01*
X146999500Y-154875598D01*
X146999500Y-155224402D01*
X147001804Y-155253685D01*
X147002235Y-155259156D01*
X147013901Y-155299310D01*
X147045445Y-155407888D01*
X147124285Y-155541199D01*
X147233800Y-155650714D01*
X147233802Y-155650715D01*
X147367113Y-155729555D01*
X147515844Y-155772765D01*
X147550595Y-155775500D01*
X147589546Y-155775499D01*
X147636998Y-155784937D01*
X147677228Y-155811818D01*
X149498181Y-157632772D01*
X149525061Y-157673000D01*
X149534500Y-157720453D01*
X149534500Y-160715501D01*
X149517887Y-160777501D01*
X149472500Y-160822888D01*
X149410500Y-160839501D01*
X148837128Y-160839501D01*
X148817257Y-160841637D01*
X148777513Y-160845909D01*
X148737174Y-160860955D01*
X148677363Y-160867673D01*
X148621434Y-160845436D01*
X148582564Y-160799484D01*
X148569911Y-160740642D01*
X148586454Y-160682775D01*
X148686426Y-160509619D01*
X148755222Y-160310846D01*
X148785157Y-160102645D01*
X148775148Y-159892541D01*
X148725558Y-159688129D01*
X148638179Y-159496795D01*
X148638178Y-159496794D01*
X148638177Y-159496791D01*
X148516170Y-159325458D01*
X148516169Y-159325456D01*
X148363937Y-159180303D01*
X148363934Y-159180301D01*
X148363933Y-159180300D01*
X148186990Y-159066585D01*
X148040634Y-159007992D01*
X147991712Y-158988407D01*
X147991711Y-158988406D01*
X147991709Y-158988406D01*
X147785172Y-158948600D01*
X147785171Y-158948600D01*
X147627532Y-158948600D01*
X147540353Y-158956924D01*
X147470607Y-158963584D01*
X147268786Y-159022844D01*
X147081832Y-159119227D01*
X146916491Y-159249252D01*
X146778743Y-159408220D01*
X146673574Y-159590379D01*
X146604777Y-159789154D01*
X146574843Y-159997352D01*
X146574843Y-159997355D01*
X146584852Y-160207459D01*
X146634442Y-160411871D01*
X146679082Y-160509619D01*
X146721822Y-160603208D01*
X146760116Y-160656984D01*
X146782937Y-160722379D01*
X146767123Y-160789812D01*
X146717609Y-160838244D01*
X146649843Y-160852564D01*
X146475499Y-160839500D01*
X146475494Y-160839500D01*
X146344506Y-160839500D01*
X146344501Y-160839500D01*
X146148372Y-160854197D01*
X145892581Y-160912580D01*
X145648358Y-161008431D01*
X145421143Y-161139613D01*
X145216015Y-161303198D01*
X145037571Y-161495514D01*
X144956938Y-161613782D01*
X144889772Y-161712296D01*
X144775937Y-161948677D01*
X144698604Y-162199385D01*
X144659500Y-162458818D01*
X144659500Y-162721182D01*
X144698604Y-162980615D01*
X144775937Y-163231323D01*
X144889772Y-163467704D01*
X145025766Y-163667170D01*
X145037571Y-163684485D01*
X145216015Y-163876801D01*
X145216019Y-163876805D01*
X145421143Y-164040386D01*
X145648357Y-164171568D01*
X145714548Y-164197546D01*
X145854048Y-164252296D01*
X145892584Y-164267420D01*
X146148370Y-164325802D01*
X146190899Y-164328989D01*
X146344501Y-164340500D01*
X146344506Y-164340500D01*
X146475494Y-164340500D01*
X146475499Y-164340500D01*
X146598079Y-164331313D01*
X146671630Y-164325802D01*
X146927416Y-164267420D01*
X147171643Y-164171568D01*
X147398857Y-164040386D01*
X147603981Y-163876805D01*
X147703273Y-163769792D01*
X147782428Y-163684485D01*
X147782429Y-163684482D01*
X147782433Y-163684479D01*
X147930228Y-163467704D01*
X148044063Y-163231323D01*
X148121396Y-162980615D01*
X148137885Y-162871213D01*
X148161655Y-162814825D01*
X148209500Y-162776670D01*
X148269766Y-162766044D01*
X148327776Y-162785534D01*
X148369399Y-162830393D01*
X148384500Y-162889697D01*
X148384500Y-163887869D01*
X148390810Y-163946559D01*
X148390909Y-163947483D01*
X148441204Y-164082331D01*
X148527454Y-164197546D01*
X148642669Y-164283796D01*
X148777517Y-164334091D01*
X148837127Y-164340500D01*
X151482872Y-164340499D01*
X151542483Y-164334091D01*
X151677331Y-164283796D01*
X151792546Y-164197546D01*
X151792547Y-164197545D01*
X151801189Y-164191076D01*
X151864448Y-164166837D01*
X151931004Y-164179459D01*
X151980995Y-164225176D01*
X151999500Y-164290343D01*
X151999500Y-166994584D01*
X151999028Y-167005397D01*
X151995581Y-167044776D01*
X151995456Y-167046116D01*
X151983082Y-167171760D01*
X151979454Y-167191700D01*
X151962123Y-167256382D01*
X151961008Y-167260285D01*
X151933319Y-167351562D01*
X151927041Y-167367971D01*
X151896328Y-167433835D01*
X151893304Y-167439884D01*
X151850990Y-167519046D01*
X151843207Y-167531715D01*
X151800373Y-167592889D01*
X151794652Y-167600430D01*
X151738826Y-167668455D01*
X151730653Y-167677472D01*
X151677472Y-167730653D01*
X151668455Y-167738826D01*
X151600430Y-167794652D01*
X151592889Y-167800373D01*
X151531715Y-167843207D01*
X151519046Y-167850990D01*
X151439884Y-167893304D01*
X151433835Y-167896328D01*
X151367971Y-167927041D01*
X151351562Y-167933319D01*
X151260285Y-167961008D01*
X151256382Y-167962123D01*
X151191700Y-167979454D01*
X151171760Y-167983082D01*
X151046116Y-167995456D01*
X151044776Y-167995581D01*
X151009760Y-167998646D01*
X151005392Y-167999028D01*
X150994584Y-167999500D01*
X40005416Y-167999500D01*
X39994606Y-167999028D01*
X39992001Y-167998800D01*
X39955223Y-167995581D01*
X39953882Y-167995456D01*
X39828238Y-167983082D01*
X39808298Y-167979454D01*
X39743616Y-167962123D01*
X39739713Y-167961008D01*
X39648436Y-167933319D01*
X39632027Y-167927041D01*
X39566163Y-167896328D01*
X39560114Y-167893304D01*
X39480952Y-167850990D01*
X39468283Y-167843207D01*
X39407109Y-167800373D01*
X39399568Y-167794652D01*
X39331543Y-167738826D01*
X39322526Y-167730653D01*
X39269345Y-167677472D01*
X39261172Y-167668455D01*
X39205346Y-167600430D01*
X39199625Y-167592889D01*
X39156791Y-167531715D01*
X39149008Y-167519046D01*
X39129548Y-167482639D01*
X39106685Y-167439867D01*
X39103686Y-167433867D01*
X39072952Y-167367959D01*
X39066682Y-167351570D01*
X39038966Y-167260203D01*
X39037899Y-167256467D01*
X39020541Y-167191685D01*
X39016918Y-167171776D01*
X39004526Y-167045961D01*
X39004417Y-167044776D01*
X39000972Y-167005392D01*
X39000500Y-166994587D01*
X39000500Y-159997355D01*
X41164843Y-159997355D01*
X41174852Y-160207459D01*
X41224442Y-160411871D01*
X41269082Y-160509619D01*
X41311822Y-160603208D01*
X41396684Y-160722379D01*
X41433831Y-160774544D01*
X41586063Y-160919697D01*
X41586065Y-160919698D01*
X41586066Y-160919699D01*
X41763009Y-161033414D01*
X41763014Y-161033416D01*
X41958288Y-161111593D01*
X42087084Y-161136416D01*
X42164828Y-161151400D01*
X42164829Y-161151400D01*
X42322463Y-161151400D01*
X42322468Y-161151400D01*
X42479389Y-161136416D01*
X42681211Y-161077156D01*
X42868170Y-160980771D01*
X43033510Y-160850747D01*
X43171255Y-160691781D01*
X43276426Y-160509619D01*
X43345222Y-160310846D01*
X43375157Y-160102645D01*
X43365148Y-159892541D01*
X43315558Y-159688129D01*
X43228179Y-159496795D01*
X43228178Y-159496794D01*
X43228177Y-159496791D01*
X43106170Y-159325458D01*
X43106169Y-159325456D01*
X42953937Y-159180303D01*
X42953934Y-159180301D01*
X42953933Y-159180300D01*
X42776990Y-159066585D01*
X42630634Y-159007992D01*
X42581712Y-158988407D01*
X42581711Y-158988406D01*
X42581709Y-158988406D01*
X42375172Y-158948600D01*
X42375171Y-158948600D01*
X42217532Y-158948600D01*
X42130353Y-158956924D01*
X42060607Y-158963584D01*
X41858786Y-159022844D01*
X41671832Y-159119227D01*
X41506491Y-159249252D01*
X41368743Y-159408220D01*
X41263574Y-159590379D01*
X41194777Y-159789154D01*
X41164843Y-159997352D01*
X41164843Y-159997355D01*
X39000500Y-159997355D01*
X39000500Y-140947352D01*
X41164843Y-140947352D01*
X41174852Y-141157460D01*
X41191934Y-141227872D01*
X41224442Y-141361871D01*
X41262137Y-141444411D01*
X41311822Y-141553208D01*
X41395549Y-141670785D01*
X41433831Y-141724544D01*
X41586063Y-141869697D01*
X41586065Y-141869698D01*
X41586066Y-141869699D01*
X41763009Y-141983414D01*
X41763014Y-141983416D01*
X41958288Y-142061593D01*
X42087084Y-142086416D01*
X42164828Y-142101400D01*
X42164829Y-142101400D01*
X42322463Y-142101400D01*
X42322468Y-142101400D01*
X42479389Y-142086416D01*
X42681211Y-142027156D01*
X42868170Y-141930771D01*
X43033510Y-141800747D01*
X43171255Y-141641781D01*
X43276426Y-141459619D01*
X43345222Y-141260846D01*
X43375157Y-141052645D01*
X43365148Y-140842541D01*
X43315558Y-140638129D01*
X43228179Y-140446795D01*
X43228178Y-140446794D01*
X43228177Y-140446791D01*
X43140470Y-140323625D01*
X43106169Y-140275456D01*
X42953937Y-140130303D01*
X42953934Y-140130301D01*
X42953933Y-140130300D01*
X42776990Y-140016585D01*
X42584562Y-139939548D01*
X42581712Y-139938407D01*
X42581711Y-139938406D01*
X42581709Y-139938406D01*
X42375172Y-139898600D01*
X42375171Y-139898600D01*
X42217532Y-139898600D01*
X42130353Y-139906924D01*
X42060607Y-139913584D01*
X41858786Y-139972844D01*
X41671832Y-140069227D01*
X41506491Y-140199252D01*
X41368743Y-140358220D01*
X41263574Y-140540379D01*
X41194777Y-140739154D01*
X41164843Y-140947352D01*
X39000500Y-140947352D01*
X39000500Y-121897352D01*
X41164843Y-121897352D01*
X41174852Y-122107460D01*
X41191934Y-122177872D01*
X41224442Y-122311871D01*
X41253740Y-122376024D01*
X41311822Y-122503208D01*
X41400238Y-122627369D01*
X41433831Y-122674544D01*
X41586063Y-122819697D01*
X41586065Y-122819698D01*
X41586066Y-122819699D01*
X41763009Y-122933414D01*
X41763014Y-122933416D01*
X41958288Y-123011593D01*
X42087084Y-123036416D01*
X42164828Y-123051400D01*
X42164829Y-123051400D01*
X42322463Y-123051400D01*
X42322468Y-123051400D01*
X42479389Y-123036416D01*
X42681211Y-122977156D01*
X42868170Y-122880771D01*
X43033510Y-122750747D01*
X43171255Y-122591781D01*
X43276426Y-122409619D01*
X43345222Y-122210846D01*
X43375157Y-122002645D01*
X43365148Y-121792541D01*
X43315558Y-121588129D01*
X43228179Y-121396795D01*
X43228178Y-121396794D01*
X43228177Y-121396791D01*
X43106170Y-121225458D01*
X43106169Y-121225456D01*
X42953937Y-121080303D01*
X42953934Y-121080301D01*
X42953933Y-121080300D01*
X42776990Y-120966585D01*
X42612063Y-120900558D01*
X42581712Y-120888407D01*
X42581711Y-120888406D01*
X42581709Y-120888406D01*
X42375172Y-120848600D01*
X42375171Y-120848600D01*
X42217532Y-120848600D01*
X42130353Y-120856924D01*
X42060607Y-120863584D01*
X41858786Y-120922844D01*
X41671832Y-121019227D01*
X41506491Y-121149252D01*
X41368743Y-121308220D01*
X41263574Y-121490379D01*
X41194777Y-121689154D01*
X41164843Y-121897352D01*
X39000500Y-121897352D01*
X39000500Y-93599999D01*
X45244676Y-93599999D01*
X45263929Y-93820065D01*
X45321106Y-94033451D01*
X45376252Y-94151712D01*
X45414466Y-94233662D01*
X45541174Y-94414620D01*
X45697380Y-94570826D01*
X45878338Y-94697534D01*
X46078550Y-94790894D01*
X46291932Y-94848070D01*
X46512000Y-94867323D01*
X46732068Y-94848070D01*
X46945450Y-94790894D01*
X47145662Y-94697534D01*
X47326620Y-94570826D01*
X47482826Y-94414620D01*
X47609534Y-94233662D01*
X47702894Y-94033450D01*
X47760070Y-93820068D01*
X47779323Y-93600000D01*
X47760070Y-93379932D01*
X47702894Y-93166550D01*
X47609534Y-92966339D01*
X47482826Y-92785380D01*
X47326620Y-92629174D01*
X47145662Y-92502466D01*
X47050270Y-92457984D01*
X46945451Y-92409106D01*
X46732065Y-92351929D01*
X46512000Y-92332676D01*
X46291934Y-92351929D01*
X46078548Y-92409106D01*
X45878338Y-92502466D01*
X45697379Y-92629174D01*
X45541174Y-92785379D01*
X45414466Y-92966338D01*
X45321106Y-93166548D01*
X45263929Y-93379934D01*
X45244676Y-93599999D01*
X39000500Y-93599999D01*
X39000500Y-90499999D01*
X45244676Y-90499999D01*
X45263929Y-90720065D01*
X45321106Y-90933451D01*
X45374235Y-91047387D01*
X45414466Y-91133662D01*
X45541174Y-91314620D01*
X45697380Y-91470826D01*
X45878338Y-91597534D01*
X46078550Y-91690894D01*
X46291932Y-91748070D01*
X46423289Y-91759562D01*
X46511999Y-91767323D01*
X46511999Y-91767322D01*
X46512000Y-91767323D01*
X46732068Y-91748070D01*
X46945450Y-91690894D01*
X47145662Y-91597534D01*
X47326620Y-91470826D01*
X47482826Y-91314620D01*
X47609534Y-91133662D01*
X47702894Y-90933450D01*
X47760070Y-90720068D01*
X47779323Y-90500000D01*
X47774683Y-90446969D01*
X47760070Y-90279934D01*
X47760070Y-90279932D01*
X47702894Y-90066550D01*
X47609534Y-89866339D01*
X47482826Y-89685380D01*
X47326620Y-89529174D01*
X47145662Y-89402466D01*
X46982126Y-89326208D01*
X46945451Y-89309106D01*
X46732065Y-89251929D01*
X46512000Y-89232676D01*
X46291934Y-89251929D01*
X46078548Y-89309106D01*
X45878338Y-89402466D01*
X45697379Y-89529174D01*
X45541174Y-89685379D01*
X45414466Y-89866338D01*
X45321106Y-90066548D01*
X45263929Y-90279934D01*
X45244676Y-90499999D01*
X39000500Y-90499999D01*
X39000500Y-84005412D01*
X39000972Y-83994605D01*
X39004415Y-83955250D01*
X39004540Y-83953904D01*
X39006055Y-83938520D01*
X39016918Y-83828221D01*
X39020540Y-83808318D01*
X39037908Y-83743498D01*
X39038956Y-83739828D01*
X39066685Y-83648419D01*
X39072948Y-83632049D01*
X39103700Y-83566102D01*
X39106670Y-83560161D01*
X39149012Y-83480944D01*
X39156786Y-83468289D01*
X39199639Y-83407089D01*
X39205330Y-83399587D01*
X39261191Y-83331521D01*
X39269325Y-83322547D01*
X39322547Y-83269325D01*
X39331521Y-83261191D01*
X39399587Y-83205330D01*
X39407089Y-83199639D01*
X39468289Y-83156786D01*
X39480944Y-83149012D01*
X39560161Y-83106670D01*
X39566102Y-83103700D01*
X39632049Y-83072948D01*
X39648419Y-83066685D01*
X39739828Y-83038956D01*
X39743498Y-83037908D01*
X39808318Y-83020540D01*
X39828221Y-83016918D01*
X39953927Y-83004537D01*
X39955204Y-83004419D01*
X39994605Y-83000971D01*
X40005412Y-83000500D01*
X143289864Y-83000500D01*
X143346159Y-83014015D01*
G37*
%TD.AperFunction*%
%TA.AperFunction,Conductor*%
G36*
X139303267Y-94510691D02*
G01*
X139342389Y-94555064D01*
X139356500Y-94612513D01*
X139356500Y-94726844D01*
X139366650Y-94826209D01*
X139412737Y-94965291D01*
X139419031Y-95004294D01*
X139412737Y-95043297D01*
X139367143Y-95180891D01*
X139357000Y-95280184D01*
X139357000Y-95826814D01*
X139367143Y-95926105D01*
X139412738Y-96063700D01*
X139419032Y-96102704D01*
X139412738Y-96141707D01*
X139366650Y-96280790D01*
X139356500Y-96380155D01*
X139356500Y-96926844D01*
X139366650Y-97026207D01*
X139419997Y-97187199D01*
X139509031Y-97331544D01*
X139628955Y-97451468D01*
X139773300Y-97540502D01*
X139834007Y-97560618D01*
X139887474Y-97595710D01*
X139916343Y-97652778D01*
X139912934Y-97716641D01*
X139864326Y-97866240D01*
X139844540Y-98054499D01*
X139864326Y-98242757D01*
X139922820Y-98422784D01*
X140017464Y-98586713D01*
X140017467Y-98586716D01*
X140100309Y-98678721D01*
X140128980Y-98733798D01*
X140127355Y-98795871D01*
X140095839Y-98849373D01*
X139853530Y-99091683D01*
X139813305Y-99118561D01*
X139765852Y-99128000D01*
X139624499Y-99128000D01*
X139562499Y-99111387D01*
X139517112Y-99066000D01*
X139500499Y-99004000D01*
X139500499Y-98787155D01*
X139490349Y-98687792D01*
X139437002Y-98526800D01*
X139347968Y-98382455D01*
X139228044Y-98262531D01*
X139083699Y-98173497D01*
X138922707Y-98120150D01*
X138832810Y-98110967D01*
X138823344Y-98110000D01*
X138276655Y-98110000D01*
X138177290Y-98120150D01*
X138039003Y-98165974D01*
X138000000Y-98172268D01*
X137960997Y-98165974D01*
X137822709Y-98120150D01*
X137731772Y-98110861D01*
X137723344Y-98110000D01*
X137176655Y-98110000D01*
X137077290Y-98120150D01*
X136939003Y-98165974D01*
X136900000Y-98172268D01*
X136860997Y-98165974D01*
X136722709Y-98120150D01*
X136631772Y-98110861D01*
X136623344Y-98110000D01*
X136076655Y-98110000D01*
X135977290Y-98120150D01*
X135839003Y-98165974D01*
X135800000Y-98172268D01*
X135760997Y-98165974D01*
X135622709Y-98120150D01*
X135531772Y-98110861D01*
X135523344Y-98110000D01*
X134976655Y-98110000D01*
X134877290Y-98120150D01*
X134739003Y-98165974D01*
X134700000Y-98172268D01*
X134660996Y-98165974D01*
X134639117Y-98158724D01*
X134586698Y-98124791D01*
X134557463Y-98069614D01*
X134558826Y-98007186D01*
X134590438Y-97953339D01*
X136361459Y-96182319D01*
X136401688Y-96155439D01*
X136449141Y-96146000D01*
X136452466Y-96146000D01*
X136472972Y-96148264D01*
X136475875Y-96148172D01*
X136475877Y-96148173D01*
X136543082Y-96146061D01*
X136546978Y-96146000D01*
X136574559Y-96146000D01*
X136574560Y-96146000D01*
X136578529Y-96145498D01*
X136590175Y-96144580D01*
X136633837Y-96143209D01*
X136653069Y-96137620D01*
X136672128Y-96133674D01*
X136678406Y-96132881D01*
X136692002Y-96131164D01*
X136732617Y-96115082D01*
X136743654Y-96111303D01*
X136785600Y-96099118D01*
X136802839Y-96088922D01*
X136820312Y-96080362D01*
X136838942Y-96072986D01*
X136874274Y-96047314D01*
X136884040Y-96040900D01*
X136921628Y-96018671D01*
X136921627Y-96018671D01*
X136921630Y-96018670D01*
X136935795Y-96004504D01*
X136950583Y-95991873D01*
X136966797Y-95980094D01*
X136994648Y-95946426D01*
X137002489Y-95937809D01*
X137655829Y-95284471D01*
X137694262Y-95258352D01*
X137739614Y-95248215D01*
X137740969Y-95248172D01*
X137740972Y-95248173D01*
X137804902Y-95246163D01*
X137808179Y-95246061D01*
X137812073Y-95246000D01*
X137839654Y-95246000D01*
X137839655Y-95246000D01*
X137843624Y-95245498D01*
X137855270Y-95244580D01*
X137898932Y-95243209D01*
X137918164Y-95237620D01*
X137937223Y-95233674D01*
X137943501Y-95232881D01*
X137957097Y-95231164D01*
X137997712Y-95215082D01*
X138008749Y-95211303D01*
X138050695Y-95199118D01*
X138067934Y-95188922D01*
X138085407Y-95180362D01*
X138104037Y-95172986D01*
X138139369Y-95147314D01*
X138149135Y-95140900D01*
X138150927Y-95139840D01*
X138186725Y-95118670D01*
X138200890Y-95104504D01*
X138215678Y-95091873D01*
X138231892Y-95080094D01*
X138259743Y-95046426D01*
X138267574Y-95037819D01*
X138473078Y-94832316D01*
X138513305Y-94805439D01*
X138560757Y-94796000D01*
X138594151Y-94796000D01*
X138717586Y-94769762D01*
X138779306Y-94756644D01*
X138952233Y-94679651D01*
X139044641Y-94612513D01*
X139105372Y-94568390D01*
X139105374Y-94568388D01*
X139140352Y-94529540D01*
X139189275Y-94496292D01*
X139248040Y-94489492D01*
X139303267Y-94510691D01*
G37*
%TD.AperFunction*%
%TD*%
M02*
