M48
; DRILL file {KiCad 7.0.1} date Sat May  6 18:31:32 2023
; FORMAT={-:-/ absolute / inch / decimal}
; #@! TF.CreationDate,2023-05-06T18:31:32+10:00
; #@! TF.GenerationSoftware,Kicad,Pcbnew,7.0.1
; #@! TF.FileFunction,MixedPlating,1,2
FMAT,2
INCH
; #@! TA.AperFunction,Plated,PTH,ViaDrill
T1C0.0157
; #@! TA.AperFunction,Plated,PTH,ComponentDrill
T2C0.0300
; #@! TA.AperFunction,Plated,PTH,ComponentDrill
T3C0.0394
; #@! TA.AperFunction,NonPlated,NPTH,ComponentDrill
T4C0.0670
; #@! TA.AperFunction,NonPlated,NPTH,ComponentDrill
T5C0.0787
; #@! TA.AperFunction,NonPlated,NPTH,ComponentDrill
T6C0.1181
; #@! TA.AperFunction,NonPlated,NPTH,ComponentDrill
T7C0.1570
%
G90
G05
T1
X1.9862Y-4.52
X2.7362Y-4.5485
X3.4862Y-4.577
X4.2362Y-4.48
X4.8031Y-3.8681
X4.9862Y-4.5485
X4.9889Y-3.5001
X4.9902Y-3.3289
X4.9902Y-3.3722
X4.9902Y-3.4155
X4.9902Y-3.4588
X4.9902Y-3.5454
X4.9902Y-3.5887
X4.9902Y-3.6319
X4.9902Y-3.6753
X5.0689Y-3.6967
X5.1181Y-3.6967
X5.1722Y-3.6959
X5.2165Y-3.6967
X5.2559Y-3.6967
X5.2953Y-3.6967
X5.3346Y-3.6967
X5.374Y-3.6967
X5.4035Y-3.622
X5.4134Y-3.6967
X5.4527Y-3.6967
X5.5413Y-3.8604
X5.6693Y-4.5375
X5.6693Y-4.5768
X5.6693Y-4.6162
X5.6693Y-4.6555
X5.7362Y-4.52
X5.748Y-3.5108
X5.7874Y-3.5108
X5.8267Y-3.5108
X5.8661Y-3.5108
X5.9055Y-3.5108
X6.437Y-3.564
X6.438Y-3.6033
X6.7983Y-3.564
X6.7984Y-3.6124
X6.9085Y-3.5335
X6.9085Y-3.5728
X6.9085Y-3.6122
X6.9085Y-3.6516
X6.9085Y-3.6909
T2
X1.8312Y-3.563
X1.8312Y-3.685
X2.652Y-3.563
X2.652Y-3.685
T3
X2.9844Y-3.497
X3.0844Y-3.497
X3.1844Y-3.497
X3.2844Y-3.497
X4.0179Y-3.497
X4.1179Y-3.497
X4.2179Y-3.497
X4.3179Y-3.497
X6.1407Y-3.5856
X6.1407Y-3.6856
X6.1407Y-3.7856
X6.1407Y-3.8856
X6.1407Y-3.9856
X6.1407Y-4.0856
X6.1407Y-4.1856
X6.1407Y-4.2856
X6.1407Y-4.3856
X6.1407Y-4.4856
X6.6467Y-3.5856
X6.6467Y-3.6856
X6.6467Y-3.7856
X6.6467Y-3.8856
X6.6467Y-3.9856
X6.6467Y-4.0856
X6.6467Y-4.1856
X6.6467Y-4.2856
X6.6467Y-4.3856
X6.6467Y-4.4856
X7.1585Y-3.5856
X7.1585Y-3.6856
X7.1585Y-3.7856
X7.1585Y-3.8856
X7.1585Y-3.9856
X7.1585Y-4.0856
X7.1585Y-4.1856
X7.1585Y-4.2856
X7.1585Y-4.3856
X7.1585Y-4.4856
X7.1585Y-4.5856
X7.1585Y-4.6856
X7.2585Y-3.5856
X7.2585Y-3.6856
X7.2585Y-3.7856
X7.2585Y-3.8856
X7.2585Y-3.9856
X7.2585Y-4.0856
X7.2585Y-4.1856
X7.2585Y-4.2856
X7.2585Y-4.3856
X7.2585Y-4.4856
X7.2585Y-4.5856
X7.2585Y-4.6856
T4
X1.6642Y-4.0512
X1.6642Y-4.8012
X1.6642Y-5.5512
X1.6642Y-6.3012
X2.0642Y-4.0512
X2.0642Y-4.8012
X2.0642Y-5.5512
X2.0642Y-6.3012
X2.4142Y-4.0512
X2.4142Y-4.8012
X2.4142Y-5.5512
X2.4142Y-6.3012
X2.8142Y-4.0512
X2.8142Y-4.8012
X2.8142Y-5.5512
X2.8142Y-6.3012
X3.1642Y-4.0512
X3.1642Y-4.8012
X3.1642Y-5.5512
X3.1642Y-6.3012
X3.5642Y-4.0512
X3.5642Y-4.8012
X3.5642Y-5.5512
X3.5642Y-6.3012
X3.9142Y-4.0512
X3.9142Y-4.8012
X3.9142Y-5.5512
X3.9142Y-6.3012
X4.3142Y-4.0512
X4.3142Y-4.8012
X4.3142Y-5.5512
X4.3142Y-6.3012
X4.6642Y-4.0512
X4.6642Y-4.8012
X4.6642Y-5.5512
X4.6642Y-6.3012
X5.0642Y-4.0512
X5.0642Y-4.8012
X5.0642Y-5.5512
X5.0642Y-6.3012
X5.4142Y-4.0512
X5.4142Y-4.8012
X5.4142Y-5.5512
X5.4142Y-6.3012
X5.8142Y-4.0512
X5.8142Y-4.8012
X5.8142Y-5.5512
X5.8142Y-6.3012
T5
X2.2392Y-4.4262
X2.2392Y-5.9262
X3.7392Y-5.1762
X5.2392Y-4.4262
X5.2392Y-5.9262
T6
X1.7642Y-4.2512
X1.7642Y-5.0012
X1.7642Y-5.7512
X1.7642Y-6.5012
X2.0142Y-4.1512
X2.0142Y-4.9012
X2.0142Y-5.6512
X2.0142Y-6.4012
X2.5142Y-4.2512
X2.5142Y-5.0012
X2.5142Y-5.7512
X2.5142Y-6.5012
X2.7642Y-4.1512
X2.7642Y-4.9012
X2.7642Y-5.6512
X2.7642Y-6.4012
X3.2642Y-4.2512
X3.2642Y-5.0012
X3.2642Y-5.7512
X3.2642Y-6.5012
X3.5142Y-4.1512
X3.5142Y-4.9012
X3.5142Y-5.6512
X3.5142Y-6.4012
X4.0142Y-4.2512
X4.0142Y-5.0012
X4.0142Y-5.7512
X4.0142Y-6.5012
X4.2642Y-4.1512
X4.2642Y-4.9012
X4.2642Y-5.6512
X4.2642Y-6.4012
X4.7642Y-4.2512
X4.7642Y-5.0012
X4.7642Y-5.7512
X4.7642Y-6.5012
X5.0142Y-4.1512
X5.0142Y-4.9012
X5.0142Y-5.6512
X5.0142Y-6.4012
X5.5142Y-4.2512
X5.5142Y-5.0012
X5.5142Y-5.7512
X5.5142Y-6.5012
X5.7642Y-4.1512
X5.7642Y-4.9012
X5.7642Y-5.6512
X5.7642Y-6.4012
T7
X1.8642Y-4.0512
X1.8642Y-4.8012
X1.8642Y-5.5512
X1.8642Y-6.3012
X2.6142Y-4.0512
X2.6142Y-4.8012
X2.6142Y-5.5512
X2.6142Y-6.3012
X3.3642Y-4.0512
X3.3642Y-4.8012
X3.3642Y-5.5512
X3.3642Y-6.3012
X4.1142Y-4.0512
X4.1142Y-4.8012
X4.1142Y-5.5512
X4.1142Y-6.3012
X4.8642Y-4.0512
X4.8642Y-4.8012
X4.8642Y-5.5512
X4.8642Y-6.3012
X5.6142Y-4.0512
X5.6142Y-4.8012
X5.6142Y-5.5512
X5.6142Y-6.3012
T0
M30
