%TF.GenerationSoftware,KiCad,Pcbnew,7.0.1*%
%TF.CreationDate,2023-05-06T18:31:28+10:00*%
%TF.ProjectId,switch_grid_test,73776974-6368-45f6-9772-69645f746573,rev?*%
%TF.SameCoordinates,Original*%
%TF.FileFunction,Legend,Top*%
%TF.FilePolarity,Positive*%
%FSLAX46Y46*%
G04 Gerber Fmt 4.6, Leading zero omitted, Abs format (unit mm)*
G04 Created by KiCad (PCBNEW 7.0.1) date 2023-05-06 18:31:28*
%MOMM*%
%LPD*%
G01*
G04 APERTURE LIST*
%ADD10C,0.150000*%
%ADD11C,0.300000*%
%ADD12C,0.120000*%
G04 APERTURE END LIST*
D10*
X86321427Y-150877619D02*
X86321427Y-149877619D01*
X86321427Y-149877619D02*
X86559522Y-149877619D01*
X86559522Y-149877619D02*
X86702379Y-149925238D01*
X86702379Y-149925238D02*
X86797617Y-150020476D01*
X86797617Y-150020476D02*
X86845236Y-150115714D01*
X86845236Y-150115714D02*
X86892855Y-150306190D01*
X86892855Y-150306190D02*
X86892855Y-150449047D01*
X86892855Y-150449047D02*
X86845236Y-150639523D01*
X86845236Y-150639523D02*
X86797617Y-150734761D01*
X86797617Y-150734761D02*
X86702379Y-150830000D01*
X86702379Y-150830000D02*
X86559522Y-150877619D01*
X86559522Y-150877619D02*
X86321427Y-150877619D01*
X87702379Y-150830000D02*
X87607141Y-150877619D01*
X87607141Y-150877619D02*
X87416665Y-150877619D01*
X87416665Y-150877619D02*
X87321427Y-150830000D01*
X87321427Y-150830000D02*
X87273808Y-150734761D01*
X87273808Y-150734761D02*
X87273808Y-150353809D01*
X87273808Y-150353809D02*
X87321427Y-150258571D01*
X87321427Y-150258571D02*
X87416665Y-150210952D01*
X87416665Y-150210952D02*
X87607141Y-150210952D01*
X87607141Y-150210952D02*
X87702379Y-150258571D01*
X87702379Y-150258571D02*
X87749998Y-150353809D01*
X87749998Y-150353809D02*
X87749998Y-150449047D01*
X87749998Y-150449047D02*
X87273808Y-150544285D01*
X88130951Y-150830000D02*
X88226189Y-150877619D01*
X88226189Y-150877619D02*
X88416665Y-150877619D01*
X88416665Y-150877619D02*
X88511903Y-150830000D01*
X88511903Y-150830000D02*
X88559522Y-150734761D01*
X88559522Y-150734761D02*
X88559522Y-150687142D01*
X88559522Y-150687142D02*
X88511903Y-150591904D01*
X88511903Y-150591904D02*
X88416665Y-150544285D01*
X88416665Y-150544285D02*
X88273808Y-150544285D01*
X88273808Y-150544285D02*
X88178570Y-150496666D01*
X88178570Y-150496666D02*
X88130951Y-150401428D01*
X88130951Y-150401428D02*
X88130951Y-150353809D01*
X88130951Y-150353809D02*
X88178570Y-150258571D01*
X88178570Y-150258571D02*
X88273808Y-150210952D01*
X88273808Y-150210952D02*
X88416665Y-150210952D01*
X88416665Y-150210952D02*
X88511903Y-150258571D01*
X88988094Y-150877619D02*
X88988094Y-150210952D01*
X88988094Y-149877619D02*
X88940475Y-149925238D01*
X88940475Y-149925238D02*
X88988094Y-149972857D01*
X88988094Y-149972857D02*
X89035713Y-149925238D01*
X89035713Y-149925238D02*
X88988094Y-149877619D01*
X88988094Y-149877619D02*
X88988094Y-149972857D01*
X89892855Y-150210952D02*
X89892855Y-151020476D01*
X89892855Y-151020476D02*
X89845236Y-151115714D01*
X89845236Y-151115714D02*
X89797617Y-151163333D01*
X89797617Y-151163333D02*
X89702379Y-151210952D01*
X89702379Y-151210952D02*
X89559522Y-151210952D01*
X89559522Y-151210952D02*
X89464284Y-151163333D01*
X89892855Y-150830000D02*
X89797617Y-150877619D01*
X89797617Y-150877619D02*
X89607141Y-150877619D01*
X89607141Y-150877619D02*
X89511903Y-150830000D01*
X89511903Y-150830000D02*
X89464284Y-150782380D01*
X89464284Y-150782380D02*
X89416665Y-150687142D01*
X89416665Y-150687142D02*
X89416665Y-150401428D01*
X89416665Y-150401428D02*
X89464284Y-150306190D01*
X89464284Y-150306190D02*
X89511903Y-150258571D01*
X89511903Y-150258571D02*
X89607141Y-150210952D01*
X89607141Y-150210952D02*
X89797617Y-150210952D01*
X89797617Y-150210952D02*
X89892855Y-150258571D01*
X90369046Y-150210952D02*
X90369046Y-150877619D01*
X90369046Y-150306190D02*
X90416665Y-150258571D01*
X90416665Y-150258571D02*
X90511903Y-150210952D01*
X90511903Y-150210952D02*
X90654760Y-150210952D01*
X90654760Y-150210952D02*
X90749998Y-150258571D01*
X90749998Y-150258571D02*
X90797617Y-150353809D01*
X90797617Y-150353809D02*
X90797617Y-150877619D01*
X91654760Y-150830000D02*
X91559522Y-150877619D01*
X91559522Y-150877619D02*
X91369046Y-150877619D01*
X91369046Y-150877619D02*
X91273808Y-150830000D01*
X91273808Y-150830000D02*
X91226189Y-150734761D01*
X91226189Y-150734761D02*
X91226189Y-150353809D01*
X91226189Y-150353809D02*
X91273808Y-150258571D01*
X91273808Y-150258571D02*
X91369046Y-150210952D01*
X91369046Y-150210952D02*
X91559522Y-150210952D01*
X91559522Y-150210952D02*
X91654760Y-150258571D01*
X91654760Y-150258571D02*
X91702379Y-150353809D01*
X91702379Y-150353809D02*
X91702379Y-150449047D01*
X91702379Y-150449047D02*
X91226189Y-150544285D01*
X92559522Y-150877619D02*
X92559522Y-149877619D01*
X92559522Y-150830000D02*
X92464284Y-150877619D01*
X92464284Y-150877619D02*
X92273808Y-150877619D01*
X92273808Y-150877619D02*
X92178570Y-150830000D01*
X92178570Y-150830000D02*
X92130951Y-150782380D01*
X92130951Y-150782380D02*
X92083332Y-150687142D01*
X92083332Y-150687142D02*
X92083332Y-150401428D01*
X92083332Y-150401428D02*
X92130951Y-150306190D01*
X92130951Y-150306190D02*
X92178570Y-150258571D01*
X92178570Y-150258571D02*
X92273808Y-150210952D01*
X92273808Y-150210952D02*
X92464284Y-150210952D01*
X92464284Y-150210952D02*
X92559522Y-150258571D01*
X93797618Y-150877619D02*
X93797618Y-149877619D01*
X93797618Y-150258571D02*
X93892856Y-150210952D01*
X93892856Y-150210952D02*
X94083332Y-150210952D01*
X94083332Y-150210952D02*
X94178570Y-150258571D01*
X94178570Y-150258571D02*
X94226189Y-150306190D01*
X94226189Y-150306190D02*
X94273808Y-150401428D01*
X94273808Y-150401428D02*
X94273808Y-150687142D01*
X94273808Y-150687142D02*
X94226189Y-150782380D01*
X94226189Y-150782380D02*
X94178570Y-150830000D01*
X94178570Y-150830000D02*
X94083332Y-150877619D01*
X94083332Y-150877619D02*
X93892856Y-150877619D01*
X93892856Y-150877619D02*
X93797618Y-150830000D01*
X94607142Y-150210952D02*
X94845237Y-150877619D01*
X95083332Y-150210952D02*
X94845237Y-150877619D01*
X94845237Y-150877619D02*
X94749999Y-151115714D01*
X94749999Y-151115714D02*
X94702380Y-151163333D01*
X94702380Y-151163333D02*
X94607142Y-151210952D01*
X96083333Y-149877619D02*
X96654761Y-149877619D01*
X96369047Y-150877619D02*
X96369047Y-149877619D01*
X97369047Y-150830000D02*
X97273809Y-150877619D01*
X97273809Y-150877619D02*
X97083333Y-150877619D01*
X97083333Y-150877619D02*
X96988095Y-150830000D01*
X96988095Y-150830000D02*
X96940476Y-150734761D01*
X96940476Y-150734761D02*
X96940476Y-150353809D01*
X96940476Y-150353809D02*
X96988095Y-150258571D01*
X96988095Y-150258571D02*
X97083333Y-150210952D01*
X97083333Y-150210952D02*
X97273809Y-150210952D01*
X97273809Y-150210952D02*
X97369047Y-150258571D01*
X97369047Y-150258571D02*
X97416666Y-150353809D01*
X97416666Y-150353809D02*
X97416666Y-150449047D01*
X97416666Y-150449047D02*
X96940476Y-150544285D01*
X98273809Y-150877619D02*
X98273809Y-149877619D01*
X98273809Y-150830000D02*
X98178571Y-150877619D01*
X98178571Y-150877619D02*
X97988095Y-150877619D01*
X97988095Y-150877619D02*
X97892857Y-150830000D01*
X97892857Y-150830000D02*
X97845238Y-150782380D01*
X97845238Y-150782380D02*
X97797619Y-150687142D01*
X97797619Y-150687142D02*
X97797619Y-150401428D01*
X97797619Y-150401428D02*
X97845238Y-150306190D01*
X97845238Y-150306190D02*
X97892857Y-150258571D01*
X97892857Y-150258571D02*
X97988095Y-150210952D01*
X97988095Y-150210952D02*
X98178571Y-150210952D01*
X98178571Y-150210952D02*
X98273809Y-150258571D01*
X99845238Y-150353809D02*
X99988095Y-150401428D01*
X99988095Y-150401428D02*
X100035714Y-150449047D01*
X100035714Y-150449047D02*
X100083333Y-150544285D01*
X100083333Y-150544285D02*
X100083333Y-150687142D01*
X100083333Y-150687142D02*
X100035714Y-150782380D01*
X100035714Y-150782380D02*
X99988095Y-150830000D01*
X99988095Y-150830000D02*
X99892857Y-150877619D01*
X99892857Y-150877619D02*
X99511905Y-150877619D01*
X99511905Y-150877619D02*
X99511905Y-149877619D01*
X99511905Y-149877619D02*
X99845238Y-149877619D01*
X99845238Y-149877619D02*
X99940476Y-149925238D01*
X99940476Y-149925238D02*
X99988095Y-149972857D01*
X99988095Y-149972857D02*
X100035714Y-150068095D01*
X100035714Y-150068095D02*
X100035714Y-150163333D01*
X100035714Y-150163333D02*
X99988095Y-150258571D01*
X99988095Y-150258571D02*
X99940476Y-150306190D01*
X99940476Y-150306190D02*
X99845238Y-150353809D01*
X99845238Y-150353809D02*
X99511905Y-150353809D01*
X100940476Y-150877619D02*
X100940476Y-150353809D01*
X100940476Y-150353809D02*
X100892857Y-150258571D01*
X100892857Y-150258571D02*
X100797619Y-150210952D01*
X100797619Y-150210952D02*
X100607143Y-150210952D01*
X100607143Y-150210952D02*
X100511905Y-150258571D01*
X100940476Y-150830000D02*
X100845238Y-150877619D01*
X100845238Y-150877619D02*
X100607143Y-150877619D01*
X100607143Y-150877619D02*
X100511905Y-150830000D01*
X100511905Y-150830000D02*
X100464286Y-150734761D01*
X100464286Y-150734761D02*
X100464286Y-150639523D01*
X100464286Y-150639523D02*
X100511905Y-150544285D01*
X100511905Y-150544285D02*
X100607143Y-150496666D01*
X100607143Y-150496666D02*
X100845238Y-150496666D01*
X100845238Y-150496666D02*
X100940476Y-150449047D01*
X101416667Y-150877619D02*
X101416667Y-150210952D01*
X101416667Y-150401428D02*
X101464286Y-150306190D01*
X101464286Y-150306190D02*
X101511905Y-150258571D01*
X101511905Y-150258571D02*
X101607143Y-150210952D01*
X101607143Y-150210952D02*
X101702381Y-150210952D01*
X102035715Y-150877619D02*
X102035715Y-150210952D01*
X102035715Y-150401428D02*
X102083334Y-150306190D01*
X102083334Y-150306190D02*
X102130953Y-150258571D01*
X102130953Y-150258571D02*
X102226191Y-150210952D01*
X102226191Y-150210952D02*
X102321429Y-150210952D01*
X103035715Y-150830000D02*
X102940477Y-150877619D01*
X102940477Y-150877619D02*
X102750001Y-150877619D01*
X102750001Y-150877619D02*
X102654763Y-150830000D01*
X102654763Y-150830000D02*
X102607144Y-150734761D01*
X102607144Y-150734761D02*
X102607144Y-150353809D01*
X102607144Y-150353809D02*
X102654763Y-150258571D01*
X102654763Y-150258571D02*
X102750001Y-150210952D01*
X102750001Y-150210952D02*
X102940477Y-150210952D01*
X102940477Y-150210952D02*
X103035715Y-150258571D01*
X103035715Y-150258571D02*
X103083334Y-150353809D01*
X103083334Y-150353809D02*
X103083334Y-150449047D01*
X103083334Y-150449047D02*
X102607144Y-150544285D01*
X103369049Y-150210952D02*
X103750001Y-150210952D01*
X103511906Y-149877619D02*
X103511906Y-150734761D01*
X103511906Y-150734761D02*
X103559525Y-150830000D01*
X103559525Y-150830000D02*
X103654763Y-150877619D01*
X103654763Y-150877619D02*
X103750001Y-150877619D01*
X103940478Y-150210952D02*
X104321430Y-150210952D01*
X104083335Y-149877619D02*
X104083335Y-150734761D01*
X104083335Y-150734761D02*
X104130954Y-150830000D01*
X104130954Y-150830000D02*
X104226192Y-150877619D01*
X104226192Y-150877619D02*
X104321430Y-150877619D01*
X97488095Y-132127619D02*
X97488095Y-131127619D01*
X97488095Y-131127619D02*
X97726190Y-131127619D01*
X97726190Y-131127619D02*
X97869047Y-131175238D01*
X97869047Y-131175238D02*
X97964285Y-131270476D01*
X97964285Y-131270476D02*
X98011904Y-131365714D01*
X98011904Y-131365714D02*
X98059523Y-131556190D01*
X98059523Y-131556190D02*
X98059523Y-131699047D01*
X98059523Y-131699047D02*
X98011904Y-131889523D01*
X98011904Y-131889523D02*
X97964285Y-131984761D01*
X97964285Y-131984761D02*
X97869047Y-132080000D01*
X97869047Y-132080000D02*
X97726190Y-132127619D01*
X97726190Y-132127619D02*
X97488095Y-132127619D01*
X98678571Y-131651428D02*
X98678571Y-132127619D01*
X98345238Y-131127619D02*
X98678571Y-131651428D01*
X98678571Y-131651428D02*
X99011904Y-131127619D01*
X99297619Y-131841904D02*
X99773809Y-131841904D01*
X99202381Y-132127619D02*
X99535714Y-131127619D01*
X99535714Y-131127619D02*
X99869047Y-132127619D01*
X100202381Y-132127619D02*
X100202381Y-131127619D01*
X100202381Y-131127619D02*
X100440476Y-131127619D01*
X100440476Y-131127619D02*
X100583333Y-131175238D01*
X100583333Y-131175238D02*
X100678571Y-131270476D01*
X100678571Y-131270476D02*
X100726190Y-131365714D01*
X100726190Y-131365714D02*
X100773809Y-131556190D01*
X100773809Y-131556190D02*
X100773809Y-131699047D01*
X100773809Y-131699047D02*
X100726190Y-131889523D01*
X100726190Y-131889523D02*
X100678571Y-131984761D01*
X100678571Y-131984761D02*
X100583333Y-132080000D01*
X100583333Y-132080000D02*
X100440476Y-132127619D01*
X100440476Y-132127619D02*
X100202381Y-132127619D01*
X101821429Y-131127619D02*
X102392857Y-131127619D01*
X102107143Y-132127619D02*
X102107143Y-131127619D01*
X102726191Y-131603809D02*
X103059524Y-131603809D01*
X103202381Y-132127619D02*
X102726191Y-132127619D01*
X102726191Y-132127619D02*
X102726191Y-131127619D01*
X102726191Y-131127619D02*
X103202381Y-131127619D01*
X103583334Y-132080000D02*
X103726191Y-132127619D01*
X103726191Y-132127619D02*
X103964286Y-132127619D01*
X103964286Y-132127619D02*
X104059524Y-132080000D01*
X104059524Y-132080000D02*
X104107143Y-132032380D01*
X104107143Y-132032380D02*
X104154762Y-131937142D01*
X104154762Y-131937142D02*
X104154762Y-131841904D01*
X104154762Y-131841904D02*
X104107143Y-131746666D01*
X104107143Y-131746666D02*
X104059524Y-131699047D01*
X104059524Y-131699047D02*
X103964286Y-131651428D01*
X103964286Y-131651428D02*
X103773810Y-131603809D01*
X103773810Y-131603809D02*
X103678572Y-131556190D01*
X103678572Y-131556190D02*
X103630953Y-131508571D01*
X103630953Y-131508571D02*
X103583334Y-131413333D01*
X103583334Y-131413333D02*
X103583334Y-131318095D01*
X103583334Y-131318095D02*
X103630953Y-131222857D01*
X103630953Y-131222857D02*
X103678572Y-131175238D01*
X103678572Y-131175238D02*
X103773810Y-131127619D01*
X103773810Y-131127619D02*
X104011905Y-131127619D01*
X104011905Y-131127619D02*
X104154762Y-131175238D01*
X104440477Y-131127619D02*
X105011905Y-131127619D01*
X104726191Y-132127619D02*
X104726191Y-131127619D01*
X106107144Y-132127619D02*
X106107144Y-131127619D01*
X106107144Y-131127619D02*
X106488096Y-131127619D01*
X106488096Y-131127619D02*
X106583334Y-131175238D01*
X106583334Y-131175238D02*
X106630953Y-131222857D01*
X106630953Y-131222857D02*
X106678572Y-131318095D01*
X106678572Y-131318095D02*
X106678572Y-131460952D01*
X106678572Y-131460952D02*
X106630953Y-131556190D01*
X106630953Y-131556190D02*
X106583334Y-131603809D01*
X106583334Y-131603809D02*
X106488096Y-131651428D01*
X106488096Y-131651428D02*
X106107144Y-131651428D01*
X107678572Y-132032380D02*
X107630953Y-132080000D01*
X107630953Y-132080000D02*
X107488096Y-132127619D01*
X107488096Y-132127619D02*
X107392858Y-132127619D01*
X107392858Y-132127619D02*
X107250001Y-132080000D01*
X107250001Y-132080000D02*
X107154763Y-131984761D01*
X107154763Y-131984761D02*
X107107144Y-131889523D01*
X107107144Y-131889523D02*
X107059525Y-131699047D01*
X107059525Y-131699047D02*
X107059525Y-131556190D01*
X107059525Y-131556190D02*
X107107144Y-131365714D01*
X107107144Y-131365714D02*
X107154763Y-131270476D01*
X107154763Y-131270476D02*
X107250001Y-131175238D01*
X107250001Y-131175238D02*
X107392858Y-131127619D01*
X107392858Y-131127619D02*
X107488096Y-131127619D01*
X107488096Y-131127619D02*
X107630953Y-131175238D01*
X107630953Y-131175238D02*
X107678572Y-131222857D01*
X108440477Y-131603809D02*
X108583334Y-131651428D01*
X108583334Y-131651428D02*
X108630953Y-131699047D01*
X108630953Y-131699047D02*
X108678572Y-131794285D01*
X108678572Y-131794285D02*
X108678572Y-131937142D01*
X108678572Y-131937142D02*
X108630953Y-132032380D01*
X108630953Y-132032380D02*
X108583334Y-132080000D01*
X108583334Y-132080000D02*
X108488096Y-132127619D01*
X108488096Y-132127619D02*
X108107144Y-132127619D01*
X108107144Y-132127619D02*
X108107144Y-131127619D01*
X108107144Y-131127619D02*
X108440477Y-131127619D01*
X108440477Y-131127619D02*
X108535715Y-131175238D01*
X108535715Y-131175238D02*
X108583334Y-131222857D01*
X108583334Y-131222857D02*
X108630953Y-131318095D01*
X108630953Y-131318095D02*
X108630953Y-131413333D01*
X108630953Y-131413333D02*
X108583334Y-131508571D01*
X108583334Y-131508571D02*
X108535715Y-131556190D01*
X108535715Y-131556190D02*
X108440477Y-131603809D01*
X108440477Y-131603809D02*
X108107144Y-131603809D01*
X110059525Y-131127619D02*
X110154763Y-131127619D01*
X110154763Y-131127619D02*
X110250001Y-131175238D01*
X110250001Y-131175238D02*
X110297620Y-131222857D01*
X110297620Y-131222857D02*
X110345239Y-131318095D01*
X110345239Y-131318095D02*
X110392858Y-131508571D01*
X110392858Y-131508571D02*
X110392858Y-131746666D01*
X110392858Y-131746666D02*
X110345239Y-131937142D01*
X110345239Y-131937142D02*
X110297620Y-132032380D01*
X110297620Y-132032380D02*
X110250001Y-132080000D01*
X110250001Y-132080000D02*
X110154763Y-132127619D01*
X110154763Y-132127619D02*
X110059525Y-132127619D01*
X110059525Y-132127619D02*
X109964287Y-132080000D01*
X109964287Y-132080000D02*
X109916668Y-132032380D01*
X109916668Y-132032380D02*
X109869049Y-131937142D01*
X109869049Y-131937142D02*
X109821430Y-131746666D01*
X109821430Y-131746666D02*
X109821430Y-131508571D01*
X109821430Y-131508571D02*
X109869049Y-131318095D01*
X109869049Y-131318095D02*
X109916668Y-131222857D01*
X109916668Y-131222857D02*
X109964287Y-131175238D01*
X109964287Y-131175238D02*
X110059525Y-131127619D01*
X110821430Y-132032380D02*
X110869049Y-132080000D01*
X110869049Y-132080000D02*
X110821430Y-132127619D01*
X110821430Y-132127619D02*
X110773811Y-132080000D01*
X110773811Y-132080000D02*
X110821430Y-132032380D01*
X110821430Y-132032380D02*
X110821430Y-132127619D01*
X111821429Y-132127619D02*
X111250001Y-132127619D01*
X111535715Y-132127619D02*
X111535715Y-131127619D01*
X111535715Y-131127619D02*
X111440477Y-131270476D01*
X111440477Y-131270476D02*
X111345239Y-131365714D01*
X111345239Y-131365714D02*
X111250001Y-131413333D01*
X112250001Y-132032380D02*
X112297620Y-132080000D01*
X112297620Y-132080000D02*
X112250001Y-132127619D01*
X112250001Y-132127619D02*
X112202382Y-132080000D01*
X112202382Y-132080000D02*
X112250001Y-132032380D01*
X112250001Y-132032380D02*
X112250001Y-132127619D01*
X112916667Y-131127619D02*
X113011905Y-131127619D01*
X113011905Y-131127619D02*
X113107143Y-131175238D01*
X113107143Y-131175238D02*
X113154762Y-131222857D01*
X113154762Y-131222857D02*
X113202381Y-131318095D01*
X113202381Y-131318095D02*
X113250000Y-131508571D01*
X113250000Y-131508571D02*
X113250000Y-131746666D01*
X113250000Y-131746666D02*
X113202381Y-131937142D01*
X113202381Y-131937142D02*
X113154762Y-132032380D01*
X113154762Y-132032380D02*
X113107143Y-132080000D01*
X113107143Y-132080000D02*
X113011905Y-132127619D01*
X113011905Y-132127619D02*
X112916667Y-132127619D01*
X112916667Y-132127619D02*
X112821429Y-132080000D01*
X112821429Y-132080000D02*
X112773810Y-132032380D01*
X112773810Y-132032380D02*
X112726191Y-131937142D01*
X112726191Y-131937142D02*
X112678572Y-131746666D01*
X112678572Y-131746666D02*
X112678572Y-131508571D01*
X112678572Y-131508571D02*
X112726191Y-131318095D01*
X112726191Y-131318095D02*
X112773810Y-131222857D01*
X112773810Y-131222857D02*
X112821429Y-131175238D01*
X112821429Y-131175238D02*
X112916667Y-131127619D01*
X82738093Y-131127619D02*
X82738093Y-131841904D01*
X82738093Y-131841904D02*
X82690474Y-131984761D01*
X82690474Y-131984761D02*
X82595236Y-132080000D01*
X82595236Y-132080000D02*
X82452379Y-132127619D01*
X82452379Y-132127619D02*
X82357141Y-132127619D01*
X83690474Y-132127619D02*
X83214284Y-132127619D01*
X83214284Y-132127619D02*
X83214284Y-131127619D01*
X84595236Y-132032380D02*
X84547617Y-132080000D01*
X84547617Y-132080000D02*
X84404760Y-132127619D01*
X84404760Y-132127619D02*
X84309522Y-132127619D01*
X84309522Y-132127619D02*
X84166665Y-132080000D01*
X84166665Y-132080000D02*
X84071427Y-131984761D01*
X84071427Y-131984761D02*
X84023808Y-131889523D01*
X84023808Y-131889523D02*
X83976189Y-131699047D01*
X83976189Y-131699047D02*
X83976189Y-131556190D01*
X83976189Y-131556190D02*
X84023808Y-131365714D01*
X84023808Y-131365714D02*
X84071427Y-131270476D01*
X84071427Y-131270476D02*
X84166665Y-131175238D01*
X84166665Y-131175238D02*
X84309522Y-131127619D01*
X84309522Y-131127619D02*
X84404760Y-131127619D01*
X84404760Y-131127619D02*
X84547617Y-131175238D01*
X84547617Y-131175238D02*
X84595236Y-131222857D01*
X85309522Y-131127619D02*
X85309522Y-131841904D01*
X85309522Y-131841904D02*
X85261903Y-131984761D01*
X85261903Y-131984761D02*
X85166665Y-132080000D01*
X85166665Y-132080000D02*
X85023808Y-132127619D01*
X85023808Y-132127619D02*
X84928570Y-132127619D01*
X86261903Y-132127619D02*
X85785713Y-132127619D01*
X85785713Y-132127619D02*
X85785713Y-131127619D01*
X87166665Y-132032380D02*
X87119046Y-132080000D01*
X87119046Y-132080000D02*
X86976189Y-132127619D01*
X86976189Y-132127619D02*
X86880951Y-132127619D01*
X86880951Y-132127619D02*
X86738094Y-132080000D01*
X86738094Y-132080000D02*
X86642856Y-131984761D01*
X86642856Y-131984761D02*
X86595237Y-131889523D01*
X86595237Y-131889523D02*
X86547618Y-131699047D01*
X86547618Y-131699047D02*
X86547618Y-131556190D01*
X86547618Y-131556190D02*
X86595237Y-131365714D01*
X86595237Y-131365714D02*
X86642856Y-131270476D01*
X86642856Y-131270476D02*
X86738094Y-131175238D01*
X86738094Y-131175238D02*
X86880951Y-131127619D01*
X86880951Y-131127619D02*
X86976189Y-131127619D01*
X86976189Y-131127619D02*
X87119046Y-131175238D01*
X87119046Y-131175238D02*
X87166665Y-131222857D01*
X87880951Y-131127619D02*
X87880951Y-131841904D01*
X87880951Y-131841904D02*
X87833332Y-131984761D01*
X87833332Y-131984761D02*
X87738094Y-132080000D01*
X87738094Y-132080000D02*
X87595237Y-132127619D01*
X87595237Y-132127619D02*
X87499999Y-132127619D01*
X88833332Y-132127619D02*
X88357142Y-132127619D01*
X88357142Y-132127619D02*
X88357142Y-131127619D01*
X89738094Y-132032380D02*
X89690475Y-132080000D01*
X89690475Y-132080000D02*
X89547618Y-132127619D01*
X89547618Y-132127619D02*
X89452380Y-132127619D01*
X89452380Y-132127619D02*
X89309523Y-132080000D01*
X89309523Y-132080000D02*
X89214285Y-131984761D01*
X89214285Y-131984761D02*
X89166666Y-131889523D01*
X89166666Y-131889523D02*
X89119047Y-131699047D01*
X89119047Y-131699047D02*
X89119047Y-131556190D01*
X89119047Y-131556190D02*
X89166666Y-131365714D01*
X89166666Y-131365714D02*
X89214285Y-131270476D01*
X89214285Y-131270476D02*
X89309523Y-131175238D01*
X89309523Y-131175238D02*
X89452380Y-131127619D01*
X89452380Y-131127619D02*
X89547618Y-131127619D01*
X89547618Y-131127619D02*
X89690475Y-131175238D01*
X89690475Y-131175238D02*
X89738094Y-131222857D01*
X90452380Y-131127619D02*
X90452380Y-131841904D01*
X90452380Y-131841904D02*
X90404761Y-131984761D01*
X90404761Y-131984761D02*
X90309523Y-132080000D01*
X90309523Y-132080000D02*
X90166666Y-132127619D01*
X90166666Y-132127619D02*
X90071428Y-132127619D01*
X91404761Y-132127619D02*
X90928571Y-132127619D01*
X90928571Y-132127619D02*
X90928571Y-131127619D01*
X92309523Y-132032380D02*
X92261904Y-132080000D01*
X92261904Y-132080000D02*
X92119047Y-132127619D01*
X92119047Y-132127619D02*
X92023809Y-132127619D01*
X92023809Y-132127619D02*
X91880952Y-132080000D01*
X91880952Y-132080000D02*
X91785714Y-131984761D01*
X91785714Y-131984761D02*
X91738095Y-131889523D01*
X91738095Y-131889523D02*
X91690476Y-131699047D01*
X91690476Y-131699047D02*
X91690476Y-131556190D01*
X91690476Y-131556190D02*
X91738095Y-131365714D01*
X91738095Y-131365714D02*
X91785714Y-131270476D01*
X91785714Y-131270476D02*
X91880952Y-131175238D01*
X91880952Y-131175238D02*
X92023809Y-131127619D01*
X92023809Y-131127619D02*
X92119047Y-131127619D01*
X92119047Y-131127619D02*
X92261904Y-131175238D01*
X92261904Y-131175238D02*
X92309523Y-131222857D01*
X153950208Y-84500000D02*
X170806937Y-84500000D01*
X170806937Y-115879340D01*
X153950208Y-115879340D01*
X153950208Y-84500000D01*
X171143271Y-84500000D02*
X195310915Y-84500000D01*
X195310915Y-121000000D01*
X171143271Y-121000000D01*
X171143271Y-84500000D01*
D11*
X75149523Y-93928571D02*
X75074761Y-94071429D01*
X75074761Y-94071429D02*
X75074761Y-94285714D01*
X75074761Y-94285714D02*
X75149523Y-94500000D01*
X75149523Y-94500000D02*
X75299047Y-94642857D01*
X75299047Y-94642857D02*
X75448571Y-94714286D01*
X75448571Y-94714286D02*
X75747619Y-94785714D01*
X75747619Y-94785714D02*
X75971904Y-94785714D01*
X75971904Y-94785714D02*
X76270952Y-94714286D01*
X76270952Y-94714286D02*
X76420476Y-94642857D01*
X76420476Y-94642857D02*
X76570000Y-94500000D01*
X76570000Y-94500000D02*
X76644761Y-94285714D01*
X76644761Y-94285714D02*
X76644761Y-94142857D01*
X76644761Y-94142857D02*
X76570000Y-93928571D01*
X76570000Y-93928571D02*
X76495238Y-93857143D01*
X76495238Y-93857143D02*
X75971904Y-93857143D01*
X75971904Y-93857143D02*
X75971904Y-94142857D01*
X76644761Y-93214286D02*
X75074761Y-93214286D01*
X75074761Y-93214286D02*
X76644761Y-92357143D01*
X76644761Y-92357143D02*
X75074761Y-92357143D01*
X76644761Y-91642857D02*
X75074761Y-91642857D01*
X75074761Y-91642857D02*
X75074761Y-91285714D01*
X75074761Y-91285714D02*
X75149523Y-91071428D01*
X75149523Y-91071428D02*
X75299047Y-90928571D01*
X75299047Y-90928571D02*
X75448571Y-90857142D01*
X75448571Y-90857142D02*
X75747619Y-90785714D01*
X75747619Y-90785714D02*
X75971904Y-90785714D01*
X75971904Y-90785714D02*
X76270952Y-90857142D01*
X76270952Y-90857142D02*
X76420476Y-90928571D01*
X76420476Y-90928571D02*
X76570000Y-91071428D01*
X76570000Y-91071428D02*
X76644761Y-91285714D01*
X76644761Y-91285714D02*
X76644761Y-91642857D01*
X78365780Y-93000000D02*
X78440542Y-92785714D01*
X78440542Y-92785714D02*
X78515304Y-92714285D01*
X78515304Y-92714285D02*
X78664828Y-92642857D01*
X78664828Y-92642857D02*
X78889114Y-92642857D01*
X78889114Y-92642857D02*
X79038638Y-92714285D01*
X79038638Y-92714285D02*
X79113400Y-92785714D01*
X79113400Y-92785714D02*
X79188161Y-92928571D01*
X79188161Y-92928571D02*
X79188161Y-93500000D01*
X79188161Y-93500000D02*
X77618161Y-93500000D01*
X77618161Y-93500000D02*
X77618161Y-93000000D01*
X77618161Y-93000000D02*
X77692923Y-92857143D01*
X77692923Y-92857143D02*
X77767685Y-92785714D01*
X77767685Y-92785714D02*
X77917209Y-92714285D01*
X77917209Y-92714285D02*
X78066733Y-92714285D01*
X78066733Y-92714285D02*
X78216257Y-92785714D01*
X78216257Y-92785714D02*
X78291019Y-92857143D01*
X78291019Y-92857143D02*
X78365780Y-93000000D01*
X78365780Y-93000000D02*
X78365780Y-93500000D01*
X78590066Y-92000000D02*
X78590066Y-90857143D01*
X80909180Y-93000000D02*
X80983942Y-92785714D01*
X80983942Y-92785714D02*
X81058704Y-92714285D01*
X81058704Y-92714285D02*
X81208228Y-92642857D01*
X81208228Y-92642857D02*
X81432514Y-92642857D01*
X81432514Y-92642857D02*
X81582038Y-92714285D01*
X81582038Y-92714285D02*
X81656800Y-92785714D01*
X81656800Y-92785714D02*
X81731561Y-92928571D01*
X81731561Y-92928571D02*
X81731561Y-93500000D01*
X81731561Y-93500000D02*
X80161561Y-93500000D01*
X80161561Y-93500000D02*
X80161561Y-93000000D01*
X80161561Y-93000000D02*
X80236323Y-92857143D01*
X80236323Y-92857143D02*
X80311085Y-92785714D01*
X80311085Y-92785714D02*
X80460609Y-92714285D01*
X80460609Y-92714285D02*
X80610133Y-92714285D01*
X80610133Y-92714285D02*
X80759657Y-92785714D01*
X80759657Y-92785714D02*
X80834419Y-92857143D01*
X80834419Y-92857143D02*
X80909180Y-93000000D01*
X80909180Y-93000000D02*
X80909180Y-93500000D01*
X81133466Y-92000000D02*
X81133466Y-90857143D01*
X81731561Y-91428571D02*
X80535371Y-91428571D01*
X82704961Y-94642856D02*
X84274961Y-94142856D01*
X84274961Y-94142856D02*
X82704961Y-93642856D01*
X84125438Y-92285714D02*
X84200200Y-92357142D01*
X84200200Y-92357142D02*
X84274961Y-92571428D01*
X84274961Y-92571428D02*
X84274961Y-92714285D01*
X84274961Y-92714285D02*
X84200200Y-92928571D01*
X84200200Y-92928571D02*
X84050676Y-93071428D01*
X84050676Y-93071428D02*
X83901152Y-93142857D01*
X83901152Y-93142857D02*
X83602104Y-93214285D01*
X83602104Y-93214285D02*
X83377819Y-93214285D01*
X83377819Y-93214285D02*
X83078771Y-93142857D01*
X83078771Y-93142857D02*
X82929247Y-93071428D01*
X82929247Y-93071428D02*
X82779723Y-92928571D01*
X82779723Y-92928571D02*
X82704961Y-92714285D01*
X82704961Y-92714285D02*
X82704961Y-92571428D01*
X82704961Y-92571428D02*
X82779723Y-92357142D01*
X82779723Y-92357142D02*
X82854485Y-92285714D01*
X84125438Y-90785714D02*
X84200200Y-90857142D01*
X84200200Y-90857142D02*
X84274961Y-91071428D01*
X84274961Y-91071428D02*
X84274961Y-91214285D01*
X84274961Y-91214285D02*
X84200200Y-91428571D01*
X84200200Y-91428571D02*
X84050676Y-91571428D01*
X84050676Y-91571428D02*
X83901152Y-91642857D01*
X83901152Y-91642857D02*
X83602104Y-91714285D01*
X83602104Y-91714285D02*
X83377819Y-91714285D01*
X83377819Y-91714285D02*
X83078771Y-91642857D01*
X83078771Y-91642857D02*
X82929247Y-91571428D01*
X82929247Y-91571428D02*
X82779723Y-91428571D01*
X82779723Y-91428571D02*
X82704961Y-91214285D01*
X82704961Y-91214285D02*
X82704961Y-91071428D01*
X82704961Y-91071428D02*
X82779723Y-90857142D01*
X82779723Y-90857142D02*
X82854485Y-90785714D01*
X154607142Y-86816428D02*
X154607142Y-85316428D01*
X155464285Y-86816428D02*
X154821428Y-85959285D01*
X155464285Y-85316428D02*
X154607142Y-86173571D01*
X156107142Y-86030714D02*
X156607142Y-86030714D01*
X156821428Y-86816428D02*
X156107142Y-86816428D01*
X156107142Y-86816428D02*
X156107142Y-85316428D01*
X156107142Y-85316428D02*
X156821428Y-85316428D01*
X157750000Y-86102142D02*
X157750000Y-86816428D01*
X157250000Y-85316428D02*
X157750000Y-86102142D01*
X157750000Y-86102142D02*
X158250000Y-85316428D01*
X158678571Y-86745000D02*
X158892857Y-86816428D01*
X158892857Y-86816428D02*
X159249999Y-86816428D01*
X159249999Y-86816428D02*
X159392857Y-86745000D01*
X159392857Y-86745000D02*
X159464285Y-86673571D01*
X159464285Y-86673571D02*
X159535714Y-86530714D01*
X159535714Y-86530714D02*
X159535714Y-86387857D01*
X159535714Y-86387857D02*
X159464285Y-86245000D01*
X159464285Y-86245000D02*
X159392857Y-86173571D01*
X159392857Y-86173571D02*
X159249999Y-86102142D01*
X159249999Y-86102142D02*
X158964285Y-86030714D01*
X158964285Y-86030714D02*
X158821428Y-85959285D01*
X158821428Y-85959285D02*
X158749999Y-85887857D01*
X158749999Y-85887857D02*
X158678571Y-85745000D01*
X158678571Y-85745000D02*
X158678571Y-85602142D01*
X158678571Y-85602142D02*
X158749999Y-85459285D01*
X158749999Y-85459285D02*
X158821428Y-85387857D01*
X158821428Y-85387857D02*
X158964285Y-85316428D01*
X158964285Y-85316428D02*
X159321428Y-85316428D01*
X159321428Y-85316428D02*
X159535714Y-85387857D01*
X166107142Y-86816428D02*
X166107142Y-85316428D01*
X166107142Y-85316428D02*
X166607142Y-86387857D01*
X166607142Y-86387857D02*
X167107142Y-85316428D01*
X167107142Y-85316428D02*
X167107142Y-86816428D01*
X168678571Y-86673571D02*
X168607143Y-86745000D01*
X168607143Y-86745000D02*
X168392857Y-86816428D01*
X168392857Y-86816428D02*
X168250000Y-86816428D01*
X168250000Y-86816428D02*
X168035714Y-86745000D01*
X168035714Y-86745000D02*
X167892857Y-86602142D01*
X167892857Y-86602142D02*
X167821428Y-86459285D01*
X167821428Y-86459285D02*
X167750000Y-86173571D01*
X167750000Y-86173571D02*
X167750000Y-85959285D01*
X167750000Y-85959285D02*
X167821428Y-85673571D01*
X167821428Y-85673571D02*
X167892857Y-85530714D01*
X167892857Y-85530714D02*
X168035714Y-85387857D01*
X168035714Y-85387857D02*
X168250000Y-85316428D01*
X168250000Y-85316428D02*
X168392857Y-85316428D01*
X168392857Y-85316428D02*
X168607143Y-85387857D01*
X168607143Y-85387857D02*
X168678571Y-85459285D01*
X169321428Y-85316428D02*
X169321428Y-86530714D01*
X169321428Y-86530714D02*
X169392857Y-86673571D01*
X169392857Y-86673571D02*
X169464286Y-86745000D01*
X169464286Y-86745000D02*
X169607143Y-86816428D01*
X169607143Y-86816428D02*
X169892857Y-86816428D01*
X169892857Y-86816428D02*
X170035714Y-86745000D01*
X170035714Y-86745000D02*
X170107143Y-86673571D01*
X170107143Y-86673571D02*
X170178571Y-86530714D01*
X170178571Y-86530714D02*
X170178571Y-85316428D01*
X171714285Y-91894761D02*
X171714285Y-90324761D01*
X171714285Y-90324761D02*
X172214285Y-91446190D01*
X172214285Y-91446190D02*
X172714285Y-90324761D01*
X172714285Y-90324761D02*
X172714285Y-91894761D01*
X174285714Y-91745238D02*
X174214286Y-91820000D01*
X174214286Y-91820000D02*
X174000000Y-91894761D01*
X174000000Y-91894761D02*
X173857143Y-91894761D01*
X173857143Y-91894761D02*
X173642857Y-91820000D01*
X173642857Y-91820000D02*
X173500000Y-91670476D01*
X173500000Y-91670476D02*
X173428571Y-91520952D01*
X173428571Y-91520952D02*
X173357143Y-91221904D01*
X173357143Y-91221904D02*
X173357143Y-90997619D01*
X173357143Y-90997619D02*
X173428571Y-90698571D01*
X173428571Y-90698571D02*
X173500000Y-90549047D01*
X173500000Y-90549047D02*
X173642857Y-90399523D01*
X173642857Y-90399523D02*
X173857143Y-90324761D01*
X173857143Y-90324761D02*
X174000000Y-90324761D01*
X174000000Y-90324761D02*
X174214286Y-90399523D01*
X174214286Y-90399523D02*
X174285714Y-90474285D01*
X174928571Y-90324761D02*
X174928571Y-91595714D01*
X174928571Y-91595714D02*
X175000000Y-91745238D01*
X175000000Y-91745238D02*
X175071429Y-91820000D01*
X175071429Y-91820000D02*
X175214286Y-91894761D01*
X175214286Y-91894761D02*
X175500000Y-91894761D01*
X175500000Y-91894761D02*
X175642857Y-91820000D01*
X175642857Y-91820000D02*
X175714286Y-91745238D01*
X175714286Y-91745238D02*
X175785714Y-91595714D01*
X175785714Y-91595714D02*
X175785714Y-90324761D01*
X176500000Y-91894761D02*
X176500000Y-90324761D01*
X176500000Y-90324761D02*
X177071429Y-90324761D01*
X177071429Y-90324761D02*
X177214286Y-90399523D01*
X177214286Y-90399523D02*
X177285715Y-90474285D01*
X177285715Y-90474285D02*
X177357143Y-90623809D01*
X177357143Y-90623809D02*
X177357143Y-90848095D01*
X177357143Y-90848095D02*
X177285715Y-90997619D01*
X177285715Y-90997619D02*
X177214286Y-91072380D01*
X177214286Y-91072380D02*
X177071429Y-91147142D01*
X177071429Y-91147142D02*
X176500000Y-91147142D01*
X178285715Y-90324761D02*
X178428572Y-90324761D01*
X178428572Y-90324761D02*
X178571429Y-90399523D01*
X178571429Y-90399523D02*
X178642858Y-90474285D01*
X178642858Y-90474285D02*
X178714286Y-90623809D01*
X178714286Y-90623809D02*
X178785715Y-90922857D01*
X178785715Y-90922857D02*
X178785715Y-91296666D01*
X178785715Y-91296666D02*
X178714286Y-91595714D01*
X178714286Y-91595714D02*
X178642858Y-91745238D01*
X178642858Y-91745238D02*
X178571429Y-91820000D01*
X178571429Y-91820000D02*
X178428572Y-91894761D01*
X178428572Y-91894761D02*
X178285715Y-91894761D01*
X178285715Y-91894761D02*
X178142858Y-91820000D01*
X178142858Y-91820000D02*
X178071429Y-91745238D01*
X178071429Y-91745238D02*
X178000000Y-91595714D01*
X178000000Y-91595714D02*
X177928572Y-91296666D01*
X177928572Y-91296666D02*
X177928572Y-90922857D01*
X177928572Y-90922857D02*
X178000000Y-90623809D01*
X178000000Y-90623809D02*
X178071429Y-90474285D01*
X178071429Y-90474285D02*
X178142858Y-90399523D01*
X178142858Y-90399523D02*
X178285715Y-90324761D01*
X180142857Y-90324761D02*
X179428571Y-90324761D01*
X179428571Y-90324761D02*
X179357143Y-91072380D01*
X179357143Y-91072380D02*
X179428571Y-90997619D01*
X179428571Y-90997619D02*
X179571429Y-90922857D01*
X179571429Y-90922857D02*
X179928571Y-90922857D01*
X179928571Y-90922857D02*
X180071429Y-90997619D01*
X180071429Y-90997619D02*
X180142857Y-91072380D01*
X180142857Y-91072380D02*
X180214286Y-91221904D01*
X180214286Y-91221904D02*
X180214286Y-91595714D01*
X180214286Y-91595714D02*
X180142857Y-91745238D01*
X180142857Y-91745238D02*
X180071429Y-91820000D01*
X180071429Y-91820000D02*
X179928571Y-91894761D01*
X179928571Y-91894761D02*
X179571429Y-91894761D01*
X179571429Y-91894761D02*
X179428571Y-91820000D01*
X179428571Y-91820000D02*
X179357143Y-91745238D01*
X171714285Y-94438161D02*
X171714285Y-92868161D01*
X171714285Y-92868161D02*
X172214285Y-93989590D01*
X172214285Y-93989590D02*
X172714285Y-92868161D01*
X172714285Y-92868161D02*
X172714285Y-94438161D01*
X174285714Y-94288638D02*
X174214286Y-94363400D01*
X174214286Y-94363400D02*
X174000000Y-94438161D01*
X174000000Y-94438161D02*
X173857143Y-94438161D01*
X173857143Y-94438161D02*
X173642857Y-94363400D01*
X173642857Y-94363400D02*
X173500000Y-94213876D01*
X173500000Y-94213876D02*
X173428571Y-94064352D01*
X173428571Y-94064352D02*
X173357143Y-93765304D01*
X173357143Y-93765304D02*
X173357143Y-93541019D01*
X173357143Y-93541019D02*
X173428571Y-93241971D01*
X173428571Y-93241971D02*
X173500000Y-93092447D01*
X173500000Y-93092447D02*
X173642857Y-92942923D01*
X173642857Y-92942923D02*
X173857143Y-92868161D01*
X173857143Y-92868161D02*
X174000000Y-92868161D01*
X174000000Y-92868161D02*
X174214286Y-92942923D01*
X174214286Y-92942923D02*
X174285714Y-93017685D01*
X174928571Y-92868161D02*
X174928571Y-94139114D01*
X174928571Y-94139114D02*
X175000000Y-94288638D01*
X175000000Y-94288638D02*
X175071429Y-94363400D01*
X175071429Y-94363400D02*
X175214286Y-94438161D01*
X175214286Y-94438161D02*
X175500000Y-94438161D01*
X175500000Y-94438161D02*
X175642857Y-94363400D01*
X175642857Y-94363400D02*
X175714286Y-94288638D01*
X175714286Y-94288638D02*
X175785714Y-94139114D01*
X175785714Y-94139114D02*
X175785714Y-92868161D01*
X176500000Y-94438161D02*
X176500000Y-92868161D01*
X176500000Y-92868161D02*
X177071429Y-92868161D01*
X177071429Y-92868161D02*
X177214286Y-92942923D01*
X177214286Y-92942923D02*
X177285715Y-93017685D01*
X177285715Y-93017685D02*
X177357143Y-93167209D01*
X177357143Y-93167209D02*
X177357143Y-93391495D01*
X177357143Y-93391495D02*
X177285715Y-93541019D01*
X177285715Y-93541019D02*
X177214286Y-93615780D01*
X177214286Y-93615780D02*
X177071429Y-93690542D01*
X177071429Y-93690542D02*
X176500000Y-93690542D01*
X178285715Y-92868161D02*
X178428572Y-92868161D01*
X178428572Y-92868161D02*
X178571429Y-92942923D01*
X178571429Y-92942923D02*
X178642858Y-93017685D01*
X178642858Y-93017685D02*
X178714286Y-93167209D01*
X178714286Y-93167209D02*
X178785715Y-93466257D01*
X178785715Y-93466257D02*
X178785715Y-93840066D01*
X178785715Y-93840066D02*
X178714286Y-94139114D01*
X178714286Y-94139114D02*
X178642858Y-94288638D01*
X178642858Y-94288638D02*
X178571429Y-94363400D01*
X178571429Y-94363400D02*
X178428572Y-94438161D01*
X178428572Y-94438161D02*
X178285715Y-94438161D01*
X178285715Y-94438161D02*
X178142858Y-94363400D01*
X178142858Y-94363400D02*
X178071429Y-94288638D01*
X178071429Y-94288638D02*
X178000000Y-94139114D01*
X178000000Y-94139114D02*
X177928572Y-93840066D01*
X177928572Y-93840066D02*
X177928572Y-93466257D01*
X177928572Y-93466257D02*
X178000000Y-93167209D01*
X178000000Y-93167209D02*
X178071429Y-93017685D01*
X178071429Y-93017685D02*
X178142858Y-92942923D01*
X178142858Y-92942923D02*
X178285715Y-92868161D01*
X179285714Y-92868161D02*
X180285714Y-92868161D01*
X180285714Y-92868161D02*
X179642857Y-94438161D01*
X171714285Y-96981561D02*
X171714285Y-95411561D01*
X171714285Y-95411561D02*
X172214285Y-96532990D01*
X172214285Y-96532990D02*
X172714285Y-95411561D01*
X172714285Y-95411561D02*
X172714285Y-96981561D01*
X174285714Y-96832038D02*
X174214286Y-96906800D01*
X174214286Y-96906800D02*
X174000000Y-96981561D01*
X174000000Y-96981561D02*
X173857143Y-96981561D01*
X173857143Y-96981561D02*
X173642857Y-96906800D01*
X173642857Y-96906800D02*
X173500000Y-96757276D01*
X173500000Y-96757276D02*
X173428571Y-96607752D01*
X173428571Y-96607752D02*
X173357143Y-96308704D01*
X173357143Y-96308704D02*
X173357143Y-96084419D01*
X173357143Y-96084419D02*
X173428571Y-95785371D01*
X173428571Y-95785371D02*
X173500000Y-95635847D01*
X173500000Y-95635847D02*
X173642857Y-95486323D01*
X173642857Y-95486323D02*
X173857143Y-95411561D01*
X173857143Y-95411561D02*
X174000000Y-95411561D01*
X174000000Y-95411561D02*
X174214286Y-95486323D01*
X174214286Y-95486323D02*
X174285714Y-95561085D01*
X174928571Y-95411561D02*
X174928571Y-96682514D01*
X174928571Y-96682514D02*
X175000000Y-96832038D01*
X175000000Y-96832038D02*
X175071429Y-96906800D01*
X175071429Y-96906800D02*
X175214286Y-96981561D01*
X175214286Y-96981561D02*
X175500000Y-96981561D01*
X175500000Y-96981561D02*
X175642857Y-96906800D01*
X175642857Y-96906800D02*
X175714286Y-96832038D01*
X175714286Y-96832038D02*
X175785714Y-96682514D01*
X175785714Y-96682514D02*
X175785714Y-95411561D01*
X176500000Y-96981561D02*
X176500000Y-95411561D01*
X176500000Y-95411561D02*
X177071429Y-95411561D01*
X177071429Y-95411561D02*
X177214286Y-95486323D01*
X177214286Y-95486323D02*
X177285715Y-95561085D01*
X177285715Y-95561085D02*
X177357143Y-95710609D01*
X177357143Y-95710609D02*
X177357143Y-95934895D01*
X177357143Y-95934895D02*
X177285715Y-96084419D01*
X177285715Y-96084419D02*
X177214286Y-96159180D01*
X177214286Y-96159180D02*
X177071429Y-96233942D01*
X177071429Y-96233942D02*
X176500000Y-96233942D01*
X178285715Y-95411561D02*
X178428572Y-95411561D01*
X178428572Y-95411561D02*
X178571429Y-95486323D01*
X178571429Y-95486323D02*
X178642858Y-95561085D01*
X178642858Y-95561085D02*
X178714286Y-95710609D01*
X178714286Y-95710609D02*
X178785715Y-96009657D01*
X178785715Y-96009657D02*
X178785715Y-96383466D01*
X178785715Y-96383466D02*
X178714286Y-96682514D01*
X178714286Y-96682514D02*
X178642858Y-96832038D01*
X178642858Y-96832038D02*
X178571429Y-96906800D01*
X178571429Y-96906800D02*
X178428572Y-96981561D01*
X178428572Y-96981561D02*
X178285715Y-96981561D01*
X178285715Y-96981561D02*
X178142858Y-96906800D01*
X178142858Y-96906800D02*
X178071429Y-96832038D01*
X178071429Y-96832038D02*
X178000000Y-96682514D01*
X178000000Y-96682514D02*
X177928572Y-96383466D01*
X177928572Y-96383466D02*
X177928572Y-96009657D01*
X177928572Y-96009657D02*
X178000000Y-95710609D01*
X178000000Y-95710609D02*
X178071429Y-95561085D01*
X178071429Y-95561085D02*
X178142858Y-95486323D01*
X178142858Y-95486323D02*
X178285715Y-95411561D01*
X179500000Y-96981561D02*
X179785714Y-96981561D01*
X179785714Y-96981561D02*
X179928571Y-96906800D01*
X179928571Y-96906800D02*
X180000000Y-96832038D01*
X180000000Y-96832038D02*
X180142857Y-96607752D01*
X180142857Y-96607752D02*
X180214286Y-96308704D01*
X180214286Y-96308704D02*
X180214286Y-95710609D01*
X180214286Y-95710609D02*
X180142857Y-95561085D01*
X180142857Y-95561085D02*
X180071429Y-95486323D01*
X180071429Y-95486323D02*
X179928571Y-95411561D01*
X179928571Y-95411561D02*
X179642857Y-95411561D01*
X179642857Y-95411561D02*
X179500000Y-95486323D01*
X179500000Y-95486323D02*
X179428571Y-95561085D01*
X179428571Y-95561085D02*
X179357143Y-95710609D01*
X179357143Y-95710609D02*
X179357143Y-96084419D01*
X179357143Y-96084419D02*
X179428571Y-96233942D01*
X179428571Y-96233942D02*
X179500000Y-96308704D01*
X179500000Y-96308704D02*
X179642857Y-96383466D01*
X179642857Y-96383466D02*
X179928571Y-96383466D01*
X179928571Y-96383466D02*
X180071429Y-96308704D01*
X180071429Y-96308704D02*
X180142857Y-96233942D01*
X180142857Y-96233942D02*
X180214286Y-96084419D01*
X171714285Y-99524961D02*
X171714285Y-97954961D01*
X171714285Y-97954961D02*
X172214285Y-99076390D01*
X172214285Y-99076390D02*
X172714285Y-97954961D01*
X172714285Y-97954961D02*
X172714285Y-99524961D01*
X174285714Y-99375438D02*
X174214286Y-99450200D01*
X174214286Y-99450200D02*
X174000000Y-99524961D01*
X174000000Y-99524961D02*
X173857143Y-99524961D01*
X173857143Y-99524961D02*
X173642857Y-99450200D01*
X173642857Y-99450200D02*
X173500000Y-99300676D01*
X173500000Y-99300676D02*
X173428571Y-99151152D01*
X173428571Y-99151152D02*
X173357143Y-98852104D01*
X173357143Y-98852104D02*
X173357143Y-98627819D01*
X173357143Y-98627819D02*
X173428571Y-98328771D01*
X173428571Y-98328771D02*
X173500000Y-98179247D01*
X173500000Y-98179247D02*
X173642857Y-98029723D01*
X173642857Y-98029723D02*
X173857143Y-97954961D01*
X173857143Y-97954961D02*
X174000000Y-97954961D01*
X174000000Y-97954961D02*
X174214286Y-98029723D01*
X174214286Y-98029723D02*
X174285714Y-98104485D01*
X174928571Y-97954961D02*
X174928571Y-99225914D01*
X174928571Y-99225914D02*
X175000000Y-99375438D01*
X175000000Y-99375438D02*
X175071429Y-99450200D01*
X175071429Y-99450200D02*
X175214286Y-99524961D01*
X175214286Y-99524961D02*
X175500000Y-99524961D01*
X175500000Y-99524961D02*
X175642857Y-99450200D01*
X175642857Y-99450200D02*
X175714286Y-99375438D01*
X175714286Y-99375438D02*
X175785714Y-99225914D01*
X175785714Y-99225914D02*
X175785714Y-97954961D01*
X176500000Y-99524961D02*
X176500000Y-97954961D01*
X176500000Y-97954961D02*
X177071429Y-97954961D01*
X177071429Y-97954961D02*
X177214286Y-98029723D01*
X177214286Y-98029723D02*
X177285715Y-98104485D01*
X177285715Y-98104485D02*
X177357143Y-98254009D01*
X177357143Y-98254009D02*
X177357143Y-98478295D01*
X177357143Y-98478295D02*
X177285715Y-98627819D01*
X177285715Y-98627819D02*
X177214286Y-98702580D01*
X177214286Y-98702580D02*
X177071429Y-98777342D01*
X177071429Y-98777342D02*
X176500000Y-98777342D01*
X178785715Y-99524961D02*
X177928572Y-99524961D01*
X178357143Y-99524961D02*
X178357143Y-97954961D01*
X178357143Y-97954961D02*
X178214286Y-98179247D01*
X178214286Y-98179247D02*
X178071429Y-98328771D01*
X178071429Y-98328771D02*
X177928572Y-98403533D01*
X179285714Y-97954961D02*
X180285714Y-97954961D01*
X180285714Y-97954961D02*
X179642857Y-99524961D01*
X171714285Y-102068361D02*
X171714285Y-100498361D01*
X171714285Y-100498361D02*
X172214285Y-101619790D01*
X172214285Y-101619790D02*
X172714285Y-100498361D01*
X172714285Y-100498361D02*
X172714285Y-102068361D01*
X174285714Y-101918838D02*
X174214286Y-101993600D01*
X174214286Y-101993600D02*
X174000000Y-102068361D01*
X174000000Y-102068361D02*
X173857143Y-102068361D01*
X173857143Y-102068361D02*
X173642857Y-101993600D01*
X173642857Y-101993600D02*
X173500000Y-101844076D01*
X173500000Y-101844076D02*
X173428571Y-101694552D01*
X173428571Y-101694552D02*
X173357143Y-101395504D01*
X173357143Y-101395504D02*
X173357143Y-101171219D01*
X173357143Y-101171219D02*
X173428571Y-100872171D01*
X173428571Y-100872171D02*
X173500000Y-100722647D01*
X173500000Y-100722647D02*
X173642857Y-100573123D01*
X173642857Y-100573123D02*
X173857143Y-100498361D01*
X173857143Y-100498361D02*
X174000000Y-100498361D01*
X174000000Y-100498361D02*
X174214286Y-100573123D01*
X174214286Y-100573123D02*
X174285714Y-100647885D01*
X174928571Y-100498361D02*
X174928571Y-101769314D01*
X174928571Y-101769314D02*
X175000000Y-101918838D01*
X175000000Y-101918838D02*
X175071429Y-101993600D01*
X175071429Y-101993600D02*
X175214286Y-102068361D01*
X175214286Y-102068361D02*
X175500000Y-102068361D01*
X175500000Y-102068361D02*
X175642857Y-101993600D01*
X175642857Y-101993600D02*
X175714286Y-101918838D01*
X175714286Y-101918838D02*
X175785714Y-101769314D01*
X175785714Y-101769314D02*
X175785714Y-100498361D01*
X176500000Y-102068361D02*
X176500000Y-100498361D01*
X176500000Y-100498361D02*
X177071429Y-100498361D01*
X177071429Y-100498361D02*
X177214286Y-100573123D01*
X177214286Y-100573123D02*
X177285715Y-100647885D01*
X177285715Y-100647885D02*
X177357143Y-100797409D01*
X177357143Y-100797409D02*
X177357143Y-101021695D01*
X177357143Y-101021695D02*
X177285715Y-101171219D01*
X177285715Y-101171219D02*
X177214286Y-101245980D01*
X177214286Y-101245980D02*
X177071429Y-101320742D01*
X177071429Y-101320742D02*
X176500000Y-101320742D01*
X178785715Y-102068361D02*
X177928572Y-102068361D01*
X178357143Y-102068361D02*
X178357143Y-100498361D01*
X178357143Y-100498361D02*
X178214286Y-100722647D01*
X178214286Y-100722647D02*
X178071429Y-100872171D01*
X178071429Y-100872171D02*
X177928572Y-100946933D01*
X179500000Y-102068361D02*
X179785714Y-102068361D01*
X179785714Y-102068361D02*
X179928571Y-101993600D01*
X179928571Y-101993600D02*
X180000000Y-101918838D01*
X180000000Y-101918838D02*
X180142857Y-101694552D01*
X180142857Y-101694552D02*
X180214286Y-101395504D01*
X180214286Y-101395504D02*
X180214286Y-100797409D01*
X180214286Y-100797409D02*
X180142857Y-100647885D01*
X180142857Y-100647885D02*
X180071429Y-100573123D01*
X180071429Y-100573123D02*
X179928571Y-100498361D01*
X179928571Y-100498361D02*
X179642857Y-100498361D01*
X179642857Y-100498361D02*
X179500000Y-100573123D01*
X179500000Y-100573123D02*
X179428571Y-100647885D01*
X179428571Y-100647885D02*
X179357143Y-100797409D01*
X179357143Y-100797409D02*
X179357143Y-101171219D01*
X179357143Y-101171219D02*
X179428571Y-101320742D01*
X179428571Y-101320742D02*
X179500000Y-101395504D01*
X179500000Y-101395504D02*
X179642857Y-101470266D01*
X179642857Y-101470266D02*
X179928571Y-101470266D01*
X179928571Y-101470266D02*
X180071429Y-101395504D01*
X180071429Y-101395504D02*
X180142857Y-101320742D01*
X180142857Y-101320742D02*
X180214286Y-101171219D01*
X171714285Y-104611761D02*
X171714285Y-103041761D01*
X171714285Y-103041761D02*
X172214285Y-104163190D01*
X172214285Y-104163190D02*
X172714285Y-103041761D01*
X172714285Y-103041761D02*
X172714285Y-104611761D01*
X174285714Y-104462238D02*
X174214286Y-104537000D01*
X174214286Y-104537000D02*
X174000000Y-104611761D01*
X174000000Y-104611761D02*
X173857143Y-104611761D01*
X173857143Y-104611761D02*
X173642857Y-104537000D01*
X173642857Y-104537000D02*
X173500000Y-104387476D01*
X173500000Y-104387476D02*
X173428571Y-104237952D01*
X173428571Y-104237952D02*
X173357143Y-103938904D01*
X173357143Y-103938904D02*
X173357143Y-103714619D01*
X173357143Y-103714619D02*
X173428571Y-103415571D01*
X173428571Y-103415571D02*
X173500000Y-103266047D01*
X173500000Y-103266047D02*
X173642857Y-103116523D01*
X173642857Y-103116523D02*
X173857143Y-103041761D01*
X173857143Y-103041761D02*
X174000000Y-103041761D01*
X174000000Y-103041761D02*
X174214286Y-103116523D01*
X174214286Y-103116523D02*
X174285714Y-103191285D01*
X174928571Y-103041761D02*
X174928571Y-104312714D01*
X174928571Y-104312714D02*
X175000000Y-104462238D01*
X175000000Y-104462238D02*
X175071429Y-104537000D01*
X175071429Y-104537000D02*
X175214286Y-104611761D01*
X175214286Y-104611761D02*
X175500000Y-104611761D01*
X175500000Y-104611761D02*
X175642857Y-104537000D01*
X175642857Y-104537000D02*
X175714286Y-104462238D01*
X175714286Y-104462238D02*
X175785714Y-104312714D01*
X175785714Y-104312714D02*
X175785714Y-103041761D01*
X176500000Y-104611761D02*
X176500000Y-103041761D01*
X176500000Y-103041761D02*
X177071429Y-103041761D01*
X177071429Y-103041761D02*
X177214286Y-103116523D01*
X177214286Y-103116523D02*
X177285715Y-103191285D01*
X177285715Y-103191285D02*
X177357143Y-103340809D01*
X177357143Y-103340809D02*
X177357143Y-103565095D01*
X177357143Y-103565095D02*
X177285715Y-103714619D01*
X177285715Y-103714619D02*
X177214286Y-103789380D01*
X177214286Y-103789380D02*
X177071429Y-103864142D01*
X177071429Y-103864142D02*
X176500000Y-103864142D01*
X177928572Y-103191285D02*
X178000000Y-103116523D01*
X178000000Y-103116523D02*
X178142858Y-103041761D01*
X178142858Y-103041761D02*
X178500000Y-103041761D01*
X178500000Y-103041761D02*
X178642858Y-103116523D01*
X178642858Y-103116523D02*
X178714286Y-103191285D01*
X178714286Y-103191285D02*
X178785715Y-103340809D01*
X178785715Y-103340809D02*
X178785715Y-103490333D01*
X178785715Y-103490333D02*
X178714286Y-103714619D01*
X178714286Y-103714619D02*
X177857143Y-104611761D01*
X177857143Y-104611761D02*
X178785715Y-104611761D01*
X180214286Y-104611761D02*
X179357143Y-104611761D01*
X179785714Y-104611761D02*
X179785714Y-103041761D01*
X179785714Y-103041761D02*
X179642857Y-103266047D01*
X179642857Y-103266047D02*
X179500000Y-103415571D01*
X179500000Y-103415571D02*
X179357143Y-103490333D01*
X171714285Y-107155161D02*
X171714285Y-105585161D01*
X171714285Y-105585161D02*
X172214285Y-106706590D01*
X172214285Y-106706590D02*
X172714285Y-105585161D01*
X172714285Y-105585161D02*
X172714285Y-107155161D01*
X174285714Y-107005638D02*
X174214286Y-107080400D01*
X174214286Y-107080400D02*
X174000000Y-107155161D01*
X174000000Y-107155161D02*
X173857143Y-107155161D01*
X173857143Y-107155161D02*
X173642857Y-107080400D01*
X173642857Y-107080400D02*
X173500000Y-106930876D01*
X173500000Y-106930876D02*
X173428571Y-106781352D01*
X173428571Y-106781352D02*
X173357143Y-106482304D01*
X173357143Y-106482304D02*
X173357143Y-106258019D01*
X173357143Y-106258019D02*
X173428571Y-105958971D01*
X173428571Y-105958971D02*
X173500000Y-105809447D01*
X173500000Y-105809447D02*
X173642857Y-105659923D01*
X173642857Y-105659923D02*
X173857143Y-105585161D01*
X173857143Y-105585161D02*
X174000000Y-105585161D01*
X174000000Y-105585161D02*
X174214286Y-105659923D01*
X174214286Y-105659923D02*
X174285714Y-105734685D01*
X174928571Y-105585161D02*
X174928571Y-106856114D01*
X174928571Y-106856114D02*
X175000000Y-107005638D01*
X175000000Y-107005638D02*
X175071429Y-107080400D01*
X175071429Y-107080400D02*
X175214286Y-107155161D01*
X175214286Y-107155161D02*
X175500000Y-107155161D01*
X175500000Y-107155161D02*
X175642857Y-107080400D01*
X175642857Y-107080400D02*
X175714286Y-107005638D01*
X175714286Y-107005638D02*
X175785714Y-106856114D01*
X175785714Y-106856114D02*
X175785714Y-105585161D01*
X176500000Y-107155161D02*
X176500000Y-105585161D01*
X176500000Y-105585161D02*
X177071429Y-105585161D01*
X177071429Y-105585161D02*
X177214286Y-105659923D01*
X177214286Y-105659923D02*
X177285715Y-105734685D01*
X177285715Y-105734685D02*
X177357143Y-105884209D01*
X177357143Y-105884209D02*
X177357143Y-106108495D01*
X177357143Y-106108495D02*
X177285715Y-106258019D01*
X177285715Y-106258019D02*
X177214286Y-106332780D01*
X177214286Y-106332780D02*
X177071429Y-106407542D01*
X177071429Y-106407542D02*
X176500000Y-106407542D01*
X177928572Y-105734685D02*
X178000000Y-105659923D01*
X178000000Y-105659923D02*
X178142858Y-105585161D01*
X178142858Y-105585161D02*
X178500000Y-105585161D01*
X178500000Y-105585161D02*
X178642858Y-105659923D01*
X178642858Y-105659923D02*
X178714286Y-105734685D01*
X178714286Y-105734685D02*
X178785715Y-105884209D01*
X178785715Y-105884209D02*
X178785715Y-106033733D01*
X178785715Y-106033733D02*
X178714286Y-106258019D01*
X178714286Y-106258019D02*
X177857143Y-107155161D01*
X177857143Y-107155161D02*
X178785715Y-107155161D01*
X179285714Y-105585161D02*
X180214286Y-105585161D01*
X180214286Y-105585161D02*
X179714286Y-106183257D01*
X179714286Y-106183257D02*
X179928571Y-106183257D01*
X179928571Y-106183257D02*
X180071429Y-106258019D01*
X180071429Y-106258019D02*
X180142857Y-106332780D01*
X180142857Y-106332780D02*
X180214286Y-106482304D01*
X180214286Y-106482304D02*
X180214286Y-106856114D01*
X180214286Y-106856114D02*
X180142857Y-107005638D01*
X180142857Y-107005638D02*
X180071429Y-107080400D01*
X180071429Y-107080400D02*
X179928571Y-107155161D01*
X179928571Y-107155161D02*
X179500000Y-107155161D01*
X179500000Y-107155161D02*
X179357143Y-107080400D01*
X179357143Y-107080400D02*
X179285714Y-107005638D01*
X171714285Y-109698561D02*
X171714285Y-108128561D01*
X171714285Y-108128561D02*
X172214285Y-109249990D01*
X172214285Y-109249990D02*
X172714285Y-108128561D01*
X172714285Y-108128561D02*
X172714285Y-109698561D01*
X174285714Y-109549038D02*
X174214286Y-109623800D01*
X174214286Y-109623800D02*
X174000000Y-109698561D01*
X174000000Y-109698561D02*
X173857143Y-109698561D01*
X173857143Y-109698561D02*
X173642857Y-109623800D01*
X173642857Y-109623800D02*
X173500000Y-109474276D01*
X173500000Y-109474276D02*
X173428571Y-109324752D01*
X173428571Y-109324752D02*
X173357143Y-109025704D01*
X173357143Y-109025704D02*
X173357143Y-108801419D01*
X173357143Y-108801419D02*
X173428571Y-108502371D01*
X173428571Y-108502371D02*
X173500000Y-108352847D01*
X173500000Y-108352847D02*
X173642857Y-108203323D01*
X173642857Y-108203323D02*
X173857143Y-108128561D01*
X173857143Y-108128561D02*
X174000000Y-108128561D01*
X174000000Y-108128561D02*
X174214286Y-108203323D01*
X174214286Y-108203323D02*
X174285714Y-108278085D01*
X174928571Y-108128561D02*
X174928571Y-109399514D01*
X174928571Y-109399514D02*
X175000000Y-109549038D01*
X175000000Y-109549038D02*
X175071429Y-109623800D01*
X175071429Y-109623800D02*
X175214286Y-109698561D01*
X175214286Y-109698561D02*
X175500000Y-109698561D01*
X175500000Y-109698561D02*
X175642857Y-109623800D01*
X175642857Y-109623800D02*
X175714286Y-109549038D01*
X175714286Y-109549038D02*
X175785714Y-109399514D01*
X175785714Y-109399514D02*
X175785714Y-108128561D01*
X176500000Y-109698561D02*
X176500000Y-108128561D01*
X176500000Y-108128561D02*
X177071429Y-108128561D01*
X177071429Y-108128561D02*
X177214286Y-108203323D01*
X177214286Y-108203323D02*
X177285715Y-108278085D01*
X177285715Y-108278085D02*
X177357143Y-108427609D01*
X177357143Y-108427609D02*
X177357143Y-108651895D01*
X177357143Y-108651895D02*
X177285715Y-108801419D01*
X177285715Y-108801419D02*
X177214286Y-108876180D01*
X177214286Y-108876180D02*
X177071429Y-108950942D01*
X177071429Y-108950942D02*
X176500000Y-108950942D01*
X177928572Y-108278085D02*
X178000000Y-108203323D01*
X178000000Y-108203323D02*
X178142858Y-108128561D01*
X178142858Y-108128561D02*
X178500000Y-108128561D01*
X178500000Y-108128561D02*
X178642858Y-108203323D01*
X178642858Y-108203323D02*
X178714286Y-108278085D01*
X178714286Y-108278085D02*
X178785715Y-108427609D01*
X178785715Y-108427609D02*
X178785715Y-108577133D01*
X178785715Y-108577133D02*
X178714286Y-108801419D01*
X178714286Y-108801419D02*
X177857143Y-109698561D01*
X177857143Y-109698561D02*
X178785715Y-109698561D01*
X180142857Y-108128561D02*
X179428571Y-108128561D01*
X179428571Y-108128561D02*
X179357143Y-108876180D01*
X179357143Y-108876180D02*
X179428571Y-108801419D01*
X179428571Y-108801419D02*
X179571429Y-108726657D01*
X179571429Y-108726657D02*
X179928571Y-108726657D01*
X179928571Y-108726657D02*
X180071429Y-108801419D01*
X180071429Y-108801419D02*
X180142857Y-108876180D01*
X180142857Y-108876180D02*
X180214286Y-109025704D01*
X180214286Y-109025704D02*
X180214286Y-109399514D01*
X180214286Y-109399514D02*
X180142857Y-109549038D01*
X180142857Y-109549038D02*
X180071429Y-109623800D01*
X180071429Y-109623800D02*
X179928571Y-109698561D01*
X179928571Y-109698561D02*
X179571429Y-109698561D01*
X179571429Y-109698561D02*
X179428571Y-109623800D01*
X179428571Y-109623800D02*
X179357143Y-109549038D01*
X171571427Y-112241961D02*
X171571427Y-110671961D01*
X171571427Y-110671961D02*
X172071427Y-111793390D01*
X172071427Y-111793390D02*
X172571427Y-110671961D01*
X172571427Y-110671961D02*
X172571427Y-112241961D01*
X174142856Y-112092438D02*
X174071428Y-112167200D01*
X174071428Y-112167200D02*
X173857142Y-112241961D01*
X173857142Y-112241961D02*
X173714285Y-112241961D01*
X173714285Y-112241961D02*
X173499999Y-112167200D01*
X173499999Y-112167200D02*
X173357142Y-112017676D01*
X173357142Y-112017676D02*
X173285713Y-111868152D01*
X173285713Y-111868152D02*
X173214285Y-111569104D01*
X173214285Y-111569104D02*
X173214285Y-111344819D01*
X173214285Y-111344819D02*
X173285713Y-111045771D01*
X173285713Y-111045771D02*
X173357142Y-110896247D01*
X173357142Y-110896247D02*
X173499999Y-110746723D01*
X173499999Y-110746723D02*
X173714285Y-110671961D01*
X173714285Y-110671961D02*
X173857142Y-110671961D01*
X173857142Y-110671961D02*
X174071428Y-110746723D01*
X174071428Y-110746723D02*
X174142856Y-110821485D01*
X174785713Y-110671961D02*
X174785713Y-111942914D01*
X174785713Y-111942914D02*
X174857142Y-112092438D01*
X174857142Y-112092438D02*
X174928571Y-112167200D01*
X174928571Y-112167200D02*
X175071428Y-112241961D01*
X175071428Y-112241961D02*
X175357142Y-112241961D01*
X175357142Y-112241961D02*
X175499999Y-112167200D01*
X175499999Y-112167200D02*
X175571428Y-112092438D01*
X175571428Y-112092438D02*
X175642856Y-111942914D01*
X175642856Y-111942914D02*
X175642856Y-110671961D01*
X176357142Y-112241961D02*
X176357142Y-110671961D01*
X176357142Y-110671961D02*
X177214285Y-112241961D01*
X177214285Y-112241961D02*
X177214285Y-110671961D01*
X178785714Y-112092438D02*
X178714286Y-112167200D01*
X178714286Y-112167200D02*
X178500000Y-112241961D01*
X178500000Y-112241961D02*
X178357143Y-112241961D01*
X178357143Y-112241961D02*
X178142857Y-112167200D01*
X178142857Y-112167200D02*
X178000000Y-112017676D01*
X178000000Y-112017676D02*
X177928571Y-111868152D01*
X177928571Y-111868152D02*
X177857143Y-111569104D01*
X177857143Y-111569104D02*
X177857143Y-111344819D01*
X177857143Y-111344819D02*
X177928571Y-111045771D01*
X177928571Y-111045771D02*
X178000000Y-110896247D01*
X178000000Y-110896247D02*
X178142857Y-110746723D01*
X178142857Y-110746723D02*
X178357143Y-110671961D01*
X178357143Y-110671961D02*
X178500000Y-110671961D01*
X178500000Y-110671961D02*
X178714286Y-110746723D01*
X178714286Y-110746723D02*
X178785714Y-110821485D01*
X179357143Y-110821485D02*
X179428571Y-110746723D01*
X179428571Y-110746723D02*
X179571429Y-110671961D01*
X179571429Y-110671961D02*
X179928571Y-110671961D01*
X179928571Y-110671961D02*
X180071429Y-110746723D01*
X180071429Y-110746723D02*
X180142857Y-110821485D01*
X180142857Y-110821485D02*
X180214286Y-110971009D01*
X180214286Y-110971009D02*
X180214286Y-111120533D01*
X180214286Y-111120533D02*
X180142857Y-111344819D01*
X180142857Y-111344819D02*
X179285714Y-112241961D01*
X179285714Y-112241961D02*
X180214286Y-112241961D01*
X171714285Y-114785361D02*
X171714285Y-113215361D01*
X171714285Y-113215361D02*
X172214285Y-114336790D01*
X172214285Y-114336790D02*
X172714285Y-113215361D01*
X172714285Y-113215361D02*
X172714285Y-114785361D01*
X174285714Y-114635838D02*
X174214286Y-114710600D01*
X174214286Y-114710600D02*
X174000000Y-114785361D01*
X174000000Y-114785361D02*
X173857143Y-114785361D01*
X173857143Y-114785361D02*
X173642857Y-114710600D01*
X173642857Y-114710600D02*
X173500000Y-114561076D01*
X173500000Y-114561076D02*
X173428571Y-114411552D01*
X173428571Y-114411552D02*
X173357143Y-114112504D01*
X173357143Y-114112504D02*
X173357143Y-113888219D01*
X173357143Y-113888219D02*
X173428571Y-113589171D01*
X173428571Y-113589171D02*
X173500000Y-113439647D01*
X173500000Y-113439647D02*
X173642857Y-113290123D01*
X173642857Y-113290123D02*
X173857143Y-113215361D01*
X173857143Y-113215361D02*
X174000000Y-113215361D01*
X174000000Y-113215361D02*
X174214286Y-113290123D01*
X174214286Y-113290123D02*
X174285714Y-113364885D01*
X174928571Y-113215361D02*
X174928571Y-114486314D01*
X174928571Y-114486314D02*
X175000000Y-114635838D01*
X175000000Y-114635838D02*
X175071429Y-114710600D01*
X175071429Y-114710600D02*
X175214286Y-114785361D01*
X175214286Y-114785361D02*
X175500000Y-114785361D01*
X175500000Y-114785361D02*
X175642857Y-114710600D01*
X175642857Y-114710600D02*
X175714286Y-114635838D01*
X175714286Y-114635838D02*
X175785714Y-114486314D01*
X175785714Y-114486314D02*
X175785714Y-113215361D01*
X176500000Y-114785361D02*
X176500000Y-113215361D01*
X176500000Y-113215361D02*
X177071429Y-113215361D01*
X177071429Y-113215361D02*
X177214286Y-113290123D01*
X177214286Y-113290123D02*
X177285715Y-113364885D01*
X177285715Y-113364885D02*
X177357143Y-113514409D01*
X177357143Y-113514409D02*
X177357143Y-113738695D01*
X177357143Y-113738695D02*
X177285715Y-113888219D01*
X177285715Y-113888219D02*
X177214286Y-113962980D01*
X177214286Y-113962980D02*
X177071429Y-114037742D01*
X177071429Y-114037742D02*
X176500000Y-114037742D01*
X177928572Y-113364885D02*
X178000000Y-113290123D01*
X178000000Y-113290123D02*
X178142858Y-113215361D01*
X178142858Y-113215361D02*
X178500000Y-113215361D01*
X178500000Y-113215361D02*
X178642858Y-113290123D01*
X178642858Y-113290123D02*
X178714286Y-113364885D01*
X178714286Y-113364885D02*
X178785715Y-113514409D01*
X178785715Y-113514409D02*
X178785715Y-113663933D01*
X178785715Y-113663933D02*
X178714286Y-113888219D01*
X178714286Y-113888219D02*
X177857143Y-114785361D01*
X177857143Y-114785361D02*
X178785715Y-114785361D01*
X179500000Y-114785361D02*
X179785714Y-114785361D01*
X179785714Y-114785361D02*
X179928571Y-114710600D01*
X179928571Y-114710600D02*
X180000000Y-114635838D01*
X180000000Y-114635838D02*
X180142857Y-114411552D01*
X180142857Y-114411552D02*
X180214286Y-114112504D01*
X180214286Y-114112504D02*
X180214286Y-113514409D01*
X180214286Y-113514409D02*
X180142857Y-113364885D01*
X180142857Y-113364885D02*
X180071429Y-113290123D01*
X180071429Y-113290123D02*
X179928571Y-113215361D01*
X179928571Y-113215361D02*
X179642857Y-113215361D01*
X179642857Y-113215361D02*
X179500000Y-113290123D01*
X179500000Y-113290123D02*
X179428571Y-113364885D01*
X179428571Y-113364885D02*
X179357143Y-113514409D01*
X179357143Y-113514409D02*
X179357143Y-113888219D01*
X179357143Y-113888219D02*
X179428571Y-114037742D01*
X179428571Y-114037742D02*
X179500000Y-114112504D01*
X179500000Y-114112504D02*
X179642857Y-114187266D01*
X179642857Y-114187266D02*
X179928571Y-114187266D01*
X179928571Y-114187266D02*
X180071429Y-114112504D01*
X180071429Y-114112504D02*
X180142857Y-114037742D01*
X180142857Y-114037742D02*
X180214286Y-113888219D01*
X173428571Y-117254000D02*
X173642857Y-117328761D01*
X173642857Y-117328761D02*
X173999999Y-117328761D01*
X173999999Y-117328761D02*
X174142857Y-117254000D01*
X174142857Y-117254000D02*
X174214285Y-117179238D01*
X174214285Y-117179238D02*
X174285714Y-117029714D01*
X174285714Y-117029714D02*
X174285714Y-116880190D01*
X174285714Y-116880190D02*
X174214285Y-116730666D01*
X174214285Y-116730666D02*
X174142857Y-116655904D01*
X174142857Y-116655904D02*
X173999999Y-116581142D01*
X173999999Y-116581142D02*
X173714285Y-116506380D01*
X173714285Y-116506380D02*
X173571428Y-116431619D01*
X173571428Y-116431619D02*
X173499999Y-116356857D01*
X173499999Y-116356857D02*
X173428571Y-116207333D01*
X173428571Y-116207333D02*
X173428571Y-116057809D01*
X173428571Y-116057809D02*
X173499999Y-115908285D01*
X173499999Y-115908285D02*
X173571428Y-115833523D01*
X173571428Y-115833523D02*
X173714285Y-115758761D01*
X173714285Y-115758761D02*
X174071428Y-115758761D01*
X174071428Y-115758761D02*
X174285714Y-115833523D01*
X174785713Y-115758761D02*
X175142856Y-117328761D01*
X175142856Y-117328761D02*
X175428570Y-116207333D01*
X175428570Y-116207333D02*
X175714285Y-117328761D01*
X175714285Y-117328761D02*
X176071428Y-115758761D01*
X177499999Y-117179238D02*
X177428571Y-117254000D01*
X177428571Y-117254000D02*
X177214285Y-117328761D01*
X177214285Y-117328761D02*
X177071428Y-117328761D01*
X177071428Y-117328761D02*
X176857142Y-117254000D01*
X176857142Y-117254000D02*
X176714285Y-117104476D01*
X176714285Y-117104476D02*
X176642856Y-116954952D01*
X176642856Y-116954952D02*
X176571428Y-116655904D01*
X176571428Y-116655904D02*
X176571428Y-116431619D01*
X176571428Y-116431619D02*
X176642856Y-116132571D01*
X176642856Y-116132571D02*
X176714285Y-115983047D01*
X176714285Y-115983047D02*
X176857142Y-115833523D01*
X176857142Y-115833523D02*
X177071428Y-115758761D01*
X177071428Y-115758761D02*
X177214285Y-115758761D01*
X177214285Y-115758761D02*
X177428571Y-115833523D01*
X177428571Y-115833523D02*
X177499999Y-115908285D01*
X178857142Y-117328761D02*
X178142856Y-117328761D01*
X178142856Y-117328761D02*
X178142856Y-115758761D01*
X179357142Y-117328761D02*
X179357142Y-115758761D01*
X180214285Y-117328761D02*
X179571428Y-116431619D01*
X180214285Y-115758761D02*
X179357142Y-116655904D01*
X177071428Y-118376923D02*
X176928571Y-118302161D01*
X176928571Y-118302161D02*
X176714285Y-118302161D01*
X176714285Y-118302161D02*
X176499999Y-118376923D01*
X176499999Y-118376923D02*
X176357142Y-118526447D01*
X176357142Y-118526447D02*
X176285713Y-118675971D01*
X176285713Y-118675971D02*
X176214285Y-118975019D01*
X176214285Y-118975019D02*
X176214285Y-119199304D01*
X176214285Y-119199304D02*
X176285713Y-119498352D01*
X176285713Y-119498352D02*
X176357142Y-119647876D01*
X176357142Y-119647876D02*
X176499999Y-119797400D01*
X176499999Y-119797400D02*
X176714285Y-119872161D01*
X176714285Y-119872161D02*
X176857142Y-119872161D01*
X176857142Y-119872161D02*
X177071428Y-119797400D01*
X177071428Y-119797400D02*
X177142856Y-119722638D01*
X177142856Y-119722638D02*
X177142856Y-119199304D01*
X177142856Y-119199304D02*
X176857142Y-119199304D01*
X177785713Y-119872161D02*
X177785713Y-118302161D01*
X177785713Y-118302161D02*
X178642856Y-119872161D01*
X178642856Y-119872161D02*
X178642856Y-118302161D01*
X179357142Y-119872161D02*
X179357142Y-118302161D01*
X179357142Y-118302161D02*
X179714285Y-118302161D01*
X179714285Y-118302161D02*
X179928571Y-118376923D01*
X179928571Y-118376923D02*
X180071428Y-118526447D01*
X180071428Y-118526447D02*
X180142857Y-118675971D01*
X180142857Y-118675971D02*
X180214285Y-118975019D01*
X180214285Y-118975019D02*
X180214285Y-119199304D01*
X180214285Y-119199304D02*
X180142857Y-119498352D01*
X180142857Y-119498352D02*
X180071428Y-119647876D01*
X180071428Y-119647876D02*
X179928571Y-119797400D01*
X179928571Y-119797400D02*
X179714285Y-119872161D01*
X179714285Y-119872161D02*
X179357142Y-119872161D01*
X186107142Y-91894761D02*
X186107142Y-90324761D01*
X186107142Y-90324761D02*
X186607142Y-91446190D01*
X186607142Y-91446190D02*
X187107142Y-90324761D01*
X187107142Y-90324761D02*
X187107142Y-91894761D01*
X188678571Y-91745238D02*
X188607143Y-91820000D01*
X188607143Y-91820000D02*
X188392857Y-91894761D01*
X188392857Y-91894761D02*
X188250000Y-91894761D01*
X188250000Y-91894761D02*
X188035714Y-91820000D01*
X188035714Y-91820000D02*
X187892857Y-91670476D01*
X187892857Y-91670476D02*
X187821428Y-91520952D01*
X187821428Y-91520952D02*
X187750000Y-91221904D01*
X187750000Y-91221904D02*
X187750000Y-90997619D01*
X187750000Y-90997619D02*
X187821428Y-90698571D01*
X187821428Y-90698571D02*
X187892857Y-90549047D01*
X187892857Y-90549047D02*
X188035714Y-90399523D01*
X188035714Y-90399523D02*
X188250000Y-90324761D01*
X188250000Y-90324761D02*
X188392857Y-90324761D01*
X188392857Y-90324761D02*
X188607143Y-90399523D01*
X188607143Y-90399523D02*
X188678571Y-90474285D01*
X189321428Y-90324761D02*
X189321428Y-91595714D01*
X189321428Y-91595714D02*
X189392857Y-91745238D01*
X189392857Y-91745238D02*
X189464286Y-91820000D01*
X189464286Y-91820000D02*
X189607143Y-91894761D01*
X189607143Y-91894761D02*
X189892857Y-91894761D01*
X189892857Y-91894761D02*
X190035714Y-91820000D01*
X190035714Y-91820000D02*
X190107143Y-91745238D01*
X190107143Y-91745238D02*
X190178571Y-91595714D01*
X190178571Y-91595714D02*
X190178571Y-90324761D01*
X190892857Y-91894761D02*
X190892857Y-90324761D01*
X190892857Y-90324761D02*
X191464286Y-90324761D01*
X191464286Y-90324761D02*
X191607143Y-90399523D01*
X191607143Y-90399523D02*
X191678572Y-90474285D01*
X191678572Y-90474285D02*
X191750000Y-90623809D01*
X191750000Y-90623809D02*
X191750000Y-90848095D01*
X191750000Y-90848095D02*
X191678572Y-90997619D01*
X191678572Y-90997619D02*
X191607143Y-91072380D01*
X191607143Y-91072380D02*
X191464286Y-91147142D01*
X191464286Y-91147142D02*
X190892857Y-91147142D01*
X192678572Y-90324761D02*
X192821429Y-90324761D01*
X192821429Y-90324761D02*
X192964286Y-90399523D01*
X192964286Y-90399523D02*
X193035715Y-90474285D01*
X193035715Y-90474285D02*
X193107143Y-90623809D01*
X193107143Y-90623809D02*
X193178572Y-90922857D01*
X193178572Y-90922857D02*
X193178572Y-91296666D01*
X193178572Y-91296666D02*
X193107143Y-91595714D01*
X193107143Y-91595714D02*
X193035715Y-91745238D01*
X193035715Y-91745238D02*
X192964286Y-91820000D01*
X192964286Y-91820000D02*
X192821429Y-91894761D01*
X192821429Y-91894761D02*
X192678572Y-91894761D01*
X192678572Y-91894761D02*
X192535715Y-91820000D01*
X192535715Y-91820000D02*
X192464286Y-91745238D01*
X192464286Y-91745238D02*
X192392857Y-91595714D01*
X192392857Y-91595714D02*
X192321429Y-91296666D01*
X192321429Y-91296666D02*
X192321429Y-90922857D01*
X192321429Y-90922857D02*
X192392857Y-90623809D01*
X192392857Y-90623809D02*
X192464286Y-90474285D01*
X192464286Y-90474285D02*
X192535715Y-90399523D01*
X192535715Y-90399523D02*
X192678572Y-90324761D01*
X194464286Y-90848095D02*
X194464286Y-91894761D01*
X194107143Y-90250000D02*
X193750000Y-91371428D01*
X193750000Y-91371428D02*
X194678571Y-91371428D01*
X186107142Y-94438161D02*
X186107142Y-92868161D01*
X186107142Y-92868161D02*
X186607142Y-93989590D01*
X186607142Y-93989590D02*
X187107142Y-92868161D01*
X187107142Y-92868161D02*
X187107142Y-94438161D01*
X188678571Y-94288638D02*
X188607143Y-94363400D01*
X188607143Y-94363400D02*
X188392857Y-94438161D01*
X188392857Y-94438161D02*
X188250000Y-94438161D01*
X188250000Y-94438161D02*
X188035714Y-94363400D01*
X188035714Y-94363400D02*
X187892857Y-94213876D01*
X187892857Y-94213876D02*
X187821428Y-94064352D01*
X187821428Y-94064352D02*
X187750000Y-93765304D01*
X187750000Y-93765304D02*
X187750000Y-93541019D01*
X187750000Y-93541019D02*
X187821428Y-93241971D01*
X187821428Y-93241971D02*
X187892857Y-93092447D01*
X187892857Y-93092447D02*
X188035714Y-92942923D01*
X188035714Y-92942923D02*
X188250000Y-92868161D01*
X188250000Y-92868161D02*
X188392857Y-92868161D01*
X188392857Y-92868161D02*
X188607143Y-92942923D01*
X188607143Y-92942923D02*
X188678571Y-93017685D01*
X189321428Y-92868161D02*
X189321428Y-94139114D01*
X189321428Y-94139114D02*
X189392857Y-94288638D01*
X189392857Y-94288638D02*
X189464286Y-94363400D01*
X189464286Y-94363400D02*
X189607143Y-94438161D01*
X189607143Y-94438161D02*
X189892857Y-94438161D01*
X189892857Y-94438161D02*
X190035714Y-94363400D01*
X190035714Y-94363400D02*
X190107143Y-94288638D01*
X190107143Y-94288638D02*
X190178571Y-94139114D01*
X190178571Y-94139114D02*
X190178571Y-92868161D01*
X190892857Y-94438161D02*
X190892857Y-92868161D01*
X190892857Y-92868161D02*
X191464286Y-92868161D01*
X191464286Y-92868161D02*
X191607143Y-92942923D01*
X191607143Y-92942923D02*
X191678572Y-93017685D01*
X191678572Y-93017685D02*
X191750000Y-93167209D01*
X191750000Y-93167209D02*
X191750000Y-93391495D01*
X191750000Y-93391495D02*
X191678572Y-93541019D01*
X191678572Y-93541019D02*
X191607143Y-93615780D01*
X191607143Y-93615780D02*
X191464286Y-93690542D01*
X191464286Y-93690542D02*
X190892857Y-93690542D01*
X192678572Y-92868161D02*
X192821429Y-92868161D01*
X192821429Y-92868161D02*
X192964286Y-92942923D01*
X192964286Y-92942923D02*
X193035715Y-93017685D01*
X193035715Y-93017685D02*
X193107143Y-93167209D01*
X193107143Y-93167209D02*
X193178572Y-93466257D01*
X193178572Y-93466257D02*
X193178572Y-93840066D01*
X193178572Y-93840066D02*
X193107143Y-94139114D01*
X193107143Y-94139114D02*
X193035715Y-94288638D01*
X193035715Y-94288638D02*
X192964286Y-94363400D01*
X192964286Y-94363400D02*
X192821429Y-94438161D01*
X192821429Y-94438161D02*
X192678572Y-94438161D01*
X192678572Y-94438161D02*
X192535715Y-94363400D01*
X192535715Y-94363400D02*
X192464286Y-94288638D01*
X192464286Y-94288638D02*
X192392857Y-94139114D01*
X192392857Y-94139114D02*
X192321429Y-93840066D01*
X192321429Y-93840066D02*
X192321429Y-93466257D01*
X192321429Y-93466257D02*
X192392857Y-93167209D01*
X192392857Y-93167209D02*
X192464286Y-93017685D01*
X192464286Y-93017685D02*
X192535715Y-92942923D01*
X192535715Y-92942923D02*
X192678572Y-92868161D01*
X194464286Y-92868161D02*
X194178571Y-92868161D01*
X194178571Y-92868161D02*
X194035714Y-92942923D01*
X194035714Y-92942923D02*
X193964286Y-93017685D01*
X193964286Y-93017685D02*
X193821428Y-93241971D01*
X193821428Y-93241971D02*
X193750000Y-93541019D01*
X193750000Y-93541019D02*
X193750000Y-94139114D01*
X193750000Y-94139114D02*
X193821428Y-94288638D01*
X193821428Y-94288638D02*
X193892857Y-94363400D01*
X193892857Y-94363400D02*
X194035714Y-94438161D01*
X194035714Y-94438161D02*
X194321428Y-94438161D01*
X194321428Y-94438161D02*
X194464286Y-94363400D01*
X194464286Y-94363400D02*
X194535714Y-94288638D01*
X194535714Y-94288638D02*
X194607143Y-94139114D01*
X194607143Y-94139114D02*
X194607143Y-93765304D01*
X194607143Y-93765304D02*
X194535714Y-93615780D01*
X194535714Y-93615780D02*
X194464286Y-93541019D01*
X194464286Y-93541019D02*
X194321428Y-93466257D01*
X194321428Y-93466257D02*
X194035714Y-93466257D01*
X194035714Y-93466257D02*
X193892857Y-93541019D01*
X193892857Y-93541019D02*
X193821428Y-93615780D01*
X193821428Y-93615780D02*
X193750000Y-93765304D01*
X186107142Y-96981561D02*
X186107142Y-95411561D01*
X186107142Y-95411561D02*
X186607142Y-96532990D01*
X186607142Y-96532990D02*
X187107142Y-95411561D01*
X187107142Y-95411561D02*
X187107142Y-96981561D01*
X188678571Y-96832038D02*
X188607143Y-96906800D01*
X188607143Y-96906800D02*
X188392857Y-96981561D01*
X188392857Y-96981561D02*
X188250000Y-96981561D01*
X188250000Y-96981561D02*
X188035714Y-96906800D01*
X188035714Y-96906800D02*
X187892857Y-96757276D01*
X187892857Y-96757276D02*
X187821428Y-96607752D01*
X187821428Y-96607752D02*
X187750000Y-96308704D01*
X187750000Y-96308704D02*
X187750000Y-96084419D01*
X187750000Y-96084419D02*
X187821428Y-95785371D01*
X187821428Y-95785371D02*
X187892857Y-95635847D01*
X187892857Y-95635847D02*
X188035714Y-95486323D01*
X188035714Y-95486323D02*
X188250000Y-95411561D01*
X188250000Y-95411561D02*
X188392857Y-95411561D01*
X188392857Y-95411561D02*
X188607143Y-95486323D01*
X188607143Y-95486323D02*
X188678571Y-95561085D01*
X189321428Y-95411561D02*
X189321428Y-96682514D01*
X189321428Y-96682514D02*
X189392857Y-96832038D01*
X189392857Y-96832038D02*
X189464286Y-96906800D01*
X189464286Y-96906800D02*
X189607143Y-96981561D01*
X189607143Y-96981561D02*
X189892857Y-96981561D01*
X189892857Y-96981561D02*
X190035714Y-96906800D01*
X190035714Y-96906800D02*
X190107143Y-96832038D01*
X190107143Y-96832038D02*
X190178571Y-96682514D01*
X190178571Y-96682514D02*
X190178571Y-95411561D01*
X190892857Y-96981561D02*
X190892857Y-95411561D01*
X190892857Y-95411561D02*
X191464286Y-95411561D01*
X191464286Y-95411561D02*
X191607143Y-95486323D01*
X191607143Y-95486323D02*
X191678572Y-95561085D01*
X191678572Y-95561085D02*
X191750000Y-95710609D01*
X191750000Y-95710609D02*
X191750000Y-95934895D01*
X191750000Y-95934895D02*
X191678572Y-96084419D01*
X191678572Y-96084419D02*
X191607143Y-96159180D01*
X191607143Y-96159180D02*
X191464286Y-96233942D01*
X191464286Y-96233942D02*
X190892857Y-96233942D01*
X192678572Y-95411561D02*
X192821429Y-95411561D01*
X192821429Y-95411561D02*
X192964286Y-95486323D01*
X192964286Y-95486323D02*
X193035715Y-95561085D01*
X193035715Y-95561085D02*
X193107143Y-95710609D01*
X193107143Y-95710609D02*
X193178572Y-96009657D01*
X193178572Y-96009657D02*
X193178572Y-96383466D01*
X193178572Y-96383466D02*
X193107143Y-96682514D01*
X193107143Y-96682514D02*
X193035715Y-96832038D01*
X193035715Y-96832038D02*
X192964286Y-96906800D01*
X192964286Y-96906800D02*
X192821429Y-96981561D01*
X192821429Y-96981561D02*
X192678572Y-96981561D01*
X192678572Y-96981561D02*
X192535715Y-96906800D01*
X192535715Y-96906800D02*
X192464286Y-96832038D01*
X192464286Y-96832038D02*
X192392857Y-96682514D01*
X192392857Y-96682514D02*
X192321429Y-96383466D01*
X192321429Y-96383466D02*
X192321429Y-96009657D01*
X192321429Y-96009657D02*
X192392857Y-95710609D01*
X192392857Y-95710609D02*
X192464286Y-95561085D01*
X192464286Y-95561085D02*
X192535715Y-95486323D01*
X192535715Y-95486323D02*
X192678572Y-95411561D01*
X194035714Y-96084419D02*
X193892857Y-96009657D01*
X193892857Y-96009657D02*
X193821428Y-95934895D01*
X193821428Y-95934895D02*
X193750000Y-95785371D01*
X193750000Y-95785371D02*
X193750000Y-95710609D01*
X193750000Y-95710609D02*
X193821428Y-95561085D01*
X193821428Y-95561085D02*
X193892857Y-95486323D01*
X193892857Y-95486323D02*
X194035714Y-95411561D01*
X194035714Y-95411561D02*
X194321428Y-95411561D01*
X194321428Y-95411561D02*
X194464286Y-95486323D01*
X194464286Y-95486323D02*
X194535714Y-95561085D01*
X194535714Y-95561085D02*
X194607143Y-95710609D01*
X194607143Y-95710609D02*
X194607143Y-95785371D01*
X194607143Y-95785371D02*
X194535714Y-95934895D01*
X194535714Y-95934895D02*
X194464286Y-96009657D01*
X194464286Y-96009657D02*
X194321428Y-96084419D01*
X194321428Y-96084419D02*
X194035714Y-96084419D01*
X194035714Y-96084419D02*
X193892857Y-96159180D01*
X193892857Y-96159180D02*
X193821428Y-96233942D01*
X193821428Y-96233942D02*
X193750000Y-96383466D01*
X193750000Y-96383466D02*
X193750000Y-96682514D01*
X193750000Y-96682514D02*
X193821428Y-96832038D01*
X193821428Y-96832038D02*
X193892857Y-96906800D01*
X193892857Y-96906800D02*
X194035714Y-96981561D01*
X194035714Y-96981561D02*
X194321428Y-96981561D01*
X194321428Y-96981561D02*
X194464286Y-96906800D01*
X194464286Y-96906800D02*
X194535714Y-96832038D01*
X194535714Y-96832038D02*
X194607143Y-96682514D01*
X194607143Y-96682514D02*
X194607143Y-96383466D01*
X194607143Y-96383466D02*
X194535714Y-96233942D01*
X194535714Y-96233942D02*
X194464286Y-96159180D01*
X194464286Y-96159180D02*
X194321428Y-96084419D01*
X186107142Y-99524961D02*
X186107142Y-97954961D01*
X186107142Y-97954961D02*
X186607142Y-99076390D01*
X186607142Y-99076390D02*
X187107142Y-97954961D01*
X187107142Y-97954961D02*
X187107142Y-99524961D01*
X188678571Y-99375438D02*
X188607143Y-99450200D01*
X188607143Y-99450200D02*
X188392857Y-99524961D01*
X188392857Y-99524961D02*
X188250000Y-99524961D01*
X188250000Y-99524961D02*
X188035714Y-99450200D01*
X188035714Y-99450200D02*
X187892857Y-99300676D01*
X187892857Y-99300676D02*
X187821428Y-99151152D01*
X187821428Y-99151152D02*
X187750000Y-98852104D01*
X187750000Y-98852104D02*
X187750000Y-98627819D01*
X187750000Y-98627819D02*
X187821428Y-98328771D01*
X187821428Y-98328771D02*
X187892857Y-98179247D01*
X187892857Y-98179247D02*
X188035714Y-98029723D01*
X188035714Y-98029723D02*
X188250000Y-97954961D01*
X188250000Y-97954961D02*
X188392857Y-97954961D01*
X188392857Y-97954961D02*
X188607143Y-98029723D01*
X188607143Y-98029723D02*
X188678571Y-98104485D01*
X189321428Y-97954961D02*
X189321428Y-99225914D01*
X189321428Y-99225914D02*
X189392857Y-99375438D01*
X189392857Y-99375438D02*
X189464286Y-99450200D01*
X189464286Y-99450200D02*
X189607143Y-99524961D01*
X189607143Y-99524961D02*
X189892857Y-99524961D01*
X189892857Y-99524961D02*
X190035714Y-99450200D01*
X190035714Y-99450200D02*
X190107143Y-99375438D01*
X190107143Y-99375438D02*
X190178571Y-99225914D01*
X190178571Y-99225914D02*
X190178571Y-97954961D01*
X190892857Y-99524961D02*
X190892857Y-97954961D01*
X190892857Y-97954961D02*
X191464286Y-97954961D01*
X191464286Y-97954961D02*
X191607143Y-98029723D01*
X191607143Y-98029723D02*
X191678572Y-98104485D01*
X191678572Y-98104485D02*
X191750000Y-98254009D01*
X191750000Y-98254009D02*
X191750000Y-98478295D01*
X191750000Y-98478295D02*
X191678572Y-98627819D01*
X191678572Y-98627819D02*
X191607143Y-98702580D01*
X191607143Y-98702580D02*
X191464286Y-98777342D01*
X191464286Y-98777342D02*
X190892857Y-98777342D01*
X193178572Y-99524961D02*
X192321429Y-99524961D01*
X192750000Y-99524961D02*
X192750000Y-97954961D01*
X192750000Y-97954961D02*
X192607143Y-98179247D01*
X192607143Y-98179247D02*
X192464286Y-98328771D01*
X192464286Y-98328771D02*
X192321429Y-98403533D01*
X194107143Y-97954961D02*
X194250000Y-97954961D01*
X194250000Y-97954961D02*
X194392857Y-98029723D01*
X194392857Y-98029723D02*
X194464286Y-98104485D01*
X194464286Y-98104485D02*
X194535714Y-98254009D01*
X194535714Y-98254009D02*
X194607143Y-98553057D01*
X194607143Y-98553057D02*
X194607143Y-98926866D01*
X194607143Y-98926866D02*
X194535714Y-99225914D01*
X194535714Y-99225914D02*
X194464286Y-99375438D01*
X194464286Y-99375438D02*
X194392857Y-99450200D01*
X194392857Y-99450200D02*
X194250000Y-99524961D01*
X194250000Y-99524961D02*
X194107143Y-99524961D01*
X194107143Y-99524961D02*
X193964286Y-99450200D01*
X193964286Y-99450200D02*
X193892857Y-99375438D01*
X193892857Y-99375438D02*
X193821428Y-99225914D01*
X193821428Y-99225914D02*
X193750000Y-98926866D01*
X193750000Y-98926866D02*
X193750000Y-98553057D01*
X193750000Y-98553057D02*
X193821428Y-98254009D01*
X193821428Y-98254009D02*
X193892857Y-98104485D01*
X193892857Y-98104485D02*
X193964286Y-98029723D01*
X193964286Y-98029723D02*
X194107143Y-97954961D01*
X186107142Y-102068361D02*
X186107142Y-100498361D01*
X186107142Y-100498361D02*
X186607142Y-101619790D01*
X186607142Y-101619790D02*
X187107142Y-100498361D01*
X187107142Y-100498361D02*
X187107142Y-102068361D01*
X188678571Y-101918838D02*
X188607143Y-101993600D01*
X188607143Y-101993600D02*
X188392857Y-102068361D01*
X188392857Y-102068361D02*
X188250000Y-102068361D01*
X188250000Y-102068361D02*
X188035714Y-101993600D01*
X188035714Y-101993600D02*
X187892857Y-101844076D01*
X187892857Y-101844076D02*
X187821428Y-101694552D01*
X187821428Y-101694552D02*
X187750000Y-101395504D01*
X187750000Y-101395504D02*
X187750000Y-101171219D01*
X187750000Y-101171219D02*
X187821428Y-100872171D01*
X187821428Y-100872171D02*
X187892857Y-100722647D01*
X187892857Y-100722647D02*
X188035714Y-100573123D01*
X188035714Y-100573123D02*
X188250000Y-100498361D01*
X188250000Y-100498361D02*
X188392857Y-100498361D01*
X188392857Y-100498361D02*
X188607143Y-100573123D01*
X188607143Y-100573123D02*
X188678571Y-100647885D01*
X189321428Y-100498361D02*
X189321428Y-101769314D01*
X189321428Y-101769314D02*
X189392857Y-101918838D01*
X189392857Y-101918838D02*
X189464286Y-101993600D01*
X189464286Y-101993600D02*
X189607143Y-102068361D01*
X189607143Y-102068361D02*
X189892857Y-102068361D01*
X189892857Y-102068361D02*
X190035714Y-101993600D01*
X190035714Y-101993600D02*
X190107143Y-101918838D01*
X190107143Y-101918838D02*
X190178571Y-101769314D01*
X190178571Y-101769314D02*
X190178571Y-100498361D01*
X190892857Y-102068361D02*
X190892857Y-100498361D01*
X190892857Y-100498361D02*
X191464286Y-100498361D01*
X191464286Y-100498361D02*
X191607143Y-100573123D01*
X191607143Y-100573123D02*
X191678572Y-100647885D01*
X191678572Y-100647885D02*
X191750000Y-100797409D01*
X191750000Y-100797409D02*
X191750000Y-101021695D01*
X191750000Y-101021695D02*
X191678572Y-101171219D01*
X191678572Y-101171219D02*
X191607143Y-101245980D01*
X191607143Y-101245980D02*
X191464286Y-101320742D01*
X191464286Y-101320742D02*
X190892857Y-101320742D01*
X193178572Y-102068361D02*
X192321429Y-102068361D01*
X192750000Y-102068361D02*
X192750000Y-100498361D01*
X192750000Y-100498361D02*
X192607143Y-100722647D01*
X192607143Y-100722647D02*
X192464286Y-100872171D01*
X192464286Y-100872171D02*
X192321429Y-100946933D01*
X194035714Y-101171219D02*
X193892857Y-101096457D01*
X193892857Y-101096457D02*
X193821428Y-101021695D01*
X193821428Y-101021695D02*
X193750000Y-100872171D01*
X193750000Y-100872171D02*
X193750000Y-100797409D01*
X193750000Y-100797409D02*
X193821428Y-100647885D01*
X193821428Y-100647885D02*
X193892857Y-100573123D01*
X193892857Y-100573123D02*
X194035714Y-100498361D01*
X194035714Y-100498361D02*
X194321428Y-100498361D01*
X194321428Y-100498361D02*
X194464286Y-100573123D01*
X194464286Y-100573123D02*
X194535714Y-100647885D01*
X194535714Y-100647885D02*
X194607143Y-100797409D01*
X194607143Y-100797409D02*
X194607143Y-100872171D01*
X194607143Y-100872171D02*
X194535714Y-101021695D01*
X194535714Y-101021695D02*
X194464286Y-101096457D01*
X194464286Y-101096457D02*
X194321428Y-101171219D01*
X194321428Y-101171219D02*
X194035714Y-101171219D01*
X194035714Y-101171219D02*
X193892857Y-101245980D01*
X193892857Y-101245980D02*
X193821428Y-101320742D01*
X193821428Y-101320742D02*
X193750000Y-101470266D01*
X193750000Y-101470266D02*
X193750000Y-101769314D01*
X193750000Y-101769314D02*
X193821428Y-101918838D01*
X193821428Y-101918838D02*
X193892857Y-101993600D01*
X193892857Y-101993600D02*
X194035714Y-102068361D01*
X194035714Y-102068361D02*
X194321428Y-102068361D01*
X194321428Y-102068361D02*
X194464286Y-101993600D01*
X194464286Y-101993600D02*
X194535714Y-101918838D01*
X194535714Y-101918838D02*
X194607143Y-101769314D01*
X194607143Y-101769314D02*
X194607143Y-101470266D01*
X194607143Y-101470266D02*
X194535714Y-101320742D01*
X194535714Y-101320742D02*
X194464286Y-101245980D01*
X194464286Y-101245980D02*
X194321428Y-101171219D01*
X186107142Y-104611761D02*
X186107142Y-103041761D01*
X186107142Y-103041761D02*
X186607142Y-104163190D01*
X186607142Y-104163190D02*
X187107142Y-103041761D01*
X187107142Y-103041761D02*
X187107142Y-104611761D01*
X188678571Y-104462238D02*
X188607143Y-104537000D01*
X188607143Y-104537000D02*
X188392857Y-104611761D01*
X188392857Y-104611761D02*
X188250000Y-104611761D01*
X188250000Y-104611761D02*
X188035714Y-104537000D01*
X188035714Y-104537000D02*
X187892857Y-104387476D01*
X187892857Y-104387476D02*
X187821428Y-104237952D01*
X187821428Y-104237952D02*
X187750000Y-103938904D01*
X187750000Y-103938904D02*
X187750000Y-103714619D01*
X187750000Y-103714619D02*
X187821428Y-103415571D01*
X187821428Y-103415571D02*
X187892857Y-103266047D01*
X187892857Y-103266047D02*
X188035714Y-103116523D01*
X188035714Y-103116523D02*
X188250000Y-103041761D01*
X188250000Y-103041761D02*
X188392857Y-103041761D01*
X188392857Y-103041761D02*
X188607143Y-103116523D01*
X188607143Y-103116523D02*
X188678571Y-103191285D01*
X189321428Y-103041761D02*
X189321428Y-104312714D01*
X189321428Y-104312714D02*
X189392857Y-104462238D01*
X189392857Y-104462238D02*
X189464286Y-104537000D01*
X189464286Y-104537000D02*
X189607143Y-104611761D01*
X189607143Y-104611761D02*
X189892857Y-104611761D01*
X189892857Y-104611761D02*
X190035714Y-104537000D01*
X190035714Y-104537000D02*
X190107143Y-104462238D01*
X190107143Y-104462238D02*
X190178571Y-104312714D01*
X190178571Y-104312714D02*
X190178571Y-103041761D01*
X190892857Y-104611761D02*
X190892857Y-103041761D01*
X190892857Y-103041761D02*
X191464286Y-103041761D01*
X191464286Y-103041761D02*
X191607143Y-103116523D01*
X191607143Y-103116523D02*
X191678572Y-103191285D01*
X191678572Y-103191285D02*
X191750000Y-103340809D01*
X191750000Y-103340809D02*
X191750000Y-103565095D01*
X191750000Y-103565095D02*
X191678572Y-103714619D01*
X191678572Y-103714619D02*
X191607143Y-103789380D01*
X191607143Y-103789380D02*
X191464286Y-103864142D01*
X191464286Y-103864142D02*
X190892857Y-103864142D01*
X192321429Y-103191285D02*
X192392857Y-103116523D01*
X192392857Y-103116523D02*
X192535715Y-103041761D01*
X192535715Y-103041761D02*
X192892857Y-103041761D01*
X192892857Y-103041761D02*
X193035715Y-103116523D01*
X193035715Y-103116523D02*
X193107143Y-103191285D01*
X193107143Y-103191285D02*
X193178572Y-103340809D01*
X193178572Y-103340809D02*
X193178572Y-103490333D01*
X193178572Y-103490333D02*
X193107143Y-103714619D01*
X193107143Y-103714619D02*
X192250000Y-104611761D01*
X192250000Y-104611761D02*
X193178572Y-104611761D01*
X194107143Y-103041761D02*
X194250000Y-103041761D01*
X194250000Y-103041761D02*
X194392857Y-103116523D01*
X194392857Y-103116523D02*
X194464286Y-103191285D01*
X194464286Y-103191285D02*
X194535714Y-103340809D01*
X194535714Y-103340809D02*
X194607143Y-103639857D01*
X194607143Y-103639857D02*
X194607143Y-104013666D01*
X194607143Y-104013666D02*
X194535714Y-104312714D01*
X194535714Y-104312714D02*
X194464286Y-104462238D01*
X194464286Y-104462238D02*
X194392857Y-104537000D01*
X194392857Y-104537000D02*
X194250000Y-104611761D01*
X194250000Y-104611761D02*
X194107143Y-104611761D01*
X194107143Y-104611761D02*
X193964286Y-104537000D01*
X193964286Y-104537000D02*
X193892857Y-104462238D01*
X193892857Y-104462238D02*
X193821428Y-104312714D01*
X193821428Y-104312714D02*
X193750000Y-104013666D01*
X193750000Y-104013666D02*
X193750000Y-103639857D01*
X193750000Y-103639857D02*
X193821428Y-103340809D01*
X193821428Y-103340809D02*
X193892857Y-103191285D01*
X193892857Y-103191285D02*
X193964286Y-103116523D01*
X193964286Y-103116523D02*
X194107143Y-103041761D01*
X186107142Y-107155161D02*
X186107142Y-105585161D01*
X186107142Y-105585161D02*
X186607142Y-106706590D01*
X186607142Y-106706590D02*
X187107142Y-105585161D01*
X187107142Y-105585161D02*
X187107142Y-107155161D01*
X188678571Y-107005638D02*
X188607143Y-107080400D01*
X188607143Y-107080400D02*
X188392857Y-107155161D01*
X188392857Y-107155161D02*
X188250000Y-107155161D01*
X188250000Y-107155161D02*
X188035714Y-107080400D01*
X188035714Y-107080400D02*
X187892857Y-106930876D01*
X187892857Y-106930876D02*
X187821428Y-106781352D01*
X187821428Y-106781352D02*
X187750000Y-106482304D01*
X187750000Y-106482304D02*
X187750000Y-106258019D01*
X187750000Y-106258019D02*
X187821428Y-105958971D01*
X187821428Y-105958971D02*
X187892857Y-105809447D01*
X187892857Y-105809447D02*
X188035714Y-105659923D01*
X188035714Y-105659923D02*
X188250000Y-105585161D01*
X188250000Y-105585161D02*
X188392857Y-105585161D01*
X188392857Y-105585161D02*
X188607143Y-105659923D01*
X188607143Y-105659923D02*
X188678571Y-105734685D01*
X189321428Y-105585161D02*
X189321428Y-106856114D01*
X189321428Y-106856114D02*
X189392857Y-107005638D01*
X189392857Y-107005638D02*
X189464286Y-107080400D01*
X189464286Y-107080400D02*
X189607143Y-107155161D01*
X189607143Y-107155161D02*
X189892857Y-107155161D01*
X189892857Y-107155161D02*
X190035714Y-107080400D01*
X190035714Y-107080400D02*
X190107143Y-107005638D01*
X190107143Y-107005638D02*
X190178571Y-106856114D01*
X190178571Y-106856114D02*
X190178571Y-105585161D01*
X190892857Y-107155161D02*
X190892857Y-105585161D01*
X190892857Y-105585161D02*
X191464286Y-105585161D01*
X191464286Y-105585161D02*
X191607143Y-105659923D01*
X191607143Y-105659923D02*
X191678572Y-105734685D01*
X191678572Y-105734685D02*
X191750000Y-105884209D01*
X191750000Y-105884209D02*
X191750000Y-106108495D01*
X191750000Y-106108495D02*
X191678572Y-106258019D01*
X191678572Y-106258019D02*
X191607143Y-106332780D01*
X191607143Y-106332780D02*
X191464286Y-106407542D01*
X191464286Y-106407542D02*
X190892857Y-106407542D01*
X192321429Y-105734685D02*
X192392857Y-105659923D01*
X192392857Y-105659923D02*
X192535715Y-105585161D01*
X192535715Y-105585161D02*
X192892857Y-105585161D01*
X192892857Y-105585161D02*
X193035715Y-105659923D01*
X193035715Y-105659923D02*
X193107143Y-105734685D01*
X193107143Y-105734685D02*
X193178572Y-105884209D01*
X193178572Y-105884209D02*
X193178572Y-106033733D01*
X193178572Y-106033733D02*
X193107143Y-106258019D01*
X193107143Y-106258019D02*
X192250000Y-107155161D01*
X192250000Y-107155161D02*
X193178572Y-107155161D01*
X193750000Y-105734685D02*
X193821428Y-105659923D01*
X193821428Y-105659923D02*
X193964286Y-105585161D01*
X193964286Y-105585161D02*
X194321428Y-105585161D01*
X194321428Y-105585161D02*
X194464286Y-105659923D01*
X194464286Y-105659923D02*
X194535714Y-105734685D01*
X194535714Y-105734685D02*
X194607143Y-105884209D01*
X194607143Y-105884209D02*
X194607143Y-106033733D01*
X194607143Y-106033733D02*
X194535714Y-106258019D01*
X194535714Y-106258019D02*
X193678571Y-107155161D01*
X193678571Y-107155161D02*
X194607143Y-107155161D01*
X186107142Y-109698561D02*
X186107142Y-108128561D01*
X186107142Y-108128561D02*
X186607142Y-109249990D01*
X186607142Y-109249990D02*
X187107142Y-108128561D01*
X187107142Y-108128561D02*
X187107142Y-109698561D01*
X188678571Y-109549038D02*
X188607143Y-109623800D01*
X188607143Y-109623800D02*
X188392857Y-109698561D01*
X188392857Y-109698561D02*
X188250000Y-109698561D01*
X188250000Y-109698561D02*
X188035714Y-109623800D01*
X188035714Y-109623800D02*
X187892857Y-109474276D01*
X187892857Y-109474276D02*
X187821428Y-109324752D01*
X187821428Y-109324752D02*
X187750000Y-109025704D01*
X187750000Y-109025704D02*
X187750000Y-108801419D01*
X187750000Y-108801419D02*
X187821428Y-108502371D01*
X187821428Y-108502371D02*
X187892857Y-108352847D01*
X187892857Y-108352847D02*
X188035714Y-108203323D01*
X188035714Y-108203323D02*
X188250000Y-108128561D01*
X188250000Y-108128561D02*
X188392857Y-108128561D01*
X188392857Y-108128561D02*
X188607143Y-108203323D01*
X188607143Y-108203323D02*
X188678571Y-108278085D01*
X189321428Y-108128561D02*
X189321428Y-109399514D01*
X189321428Y-109399514D02*
X189392857Y-109549038D01*
X189392857Y-109549038D02*
X189464286Y-109623800D01*
X189464286Y-109623800D02*
X189607143Y-109698561D01*
X189607143Y-109698561D02*
X189892857Y-109698561D01*
X189892857Y-109698561D02*
X190035714Y-109623800D01*
X190035714Y-109623800D02*
X190107143Y-109549038D01*
X190107143Y-109549038D02*
X190178571Y-109399514D01*
X190178571Y-109399514D02*
X190178571Y-108128561D01*
X190892857Y-109698561D02*
X190892857Y-108128561D01*
X190892857Y-108128561D02*
X191464286Y-108128561D01*
X191464286Y-108128561D02*
X191607143Y-108203323D01*
X191607143Y-108203323D02*
X191678572Y-108278085D01*
X191678572Y-108278085D02*
X191750000Y-108427609D01*
X191750000Y-108427609D02*
X191750000Y-108651895D01*
X191750000Y-108651895D02*
X191678572Y-108801419D01*
X191678572Y-108801419D02*
X191607143Y-108876180D01*
X191607143Y-108876180D02*
X191464286Y-108950942D01*
X191464286Y-108950942D02*
X190892857Y-108950942D01*
X192321429Y-108278085D02*
X192392857Y-108203323D01*
X192392857Y-108203323D02*
X192535715Y-108128561D01*
X192535715Y-108128561D02*
X192892857Y-108128561D01*
X192892857Y-108128561D02*
X193035715Y-108203323D01*
X193035715Y-108203323D02*
X193107143Y-108278085D01*
X193107143Y-108278085D02*
X193178572Y-108427609D01*
X193178572Y-108427609D02*
X193178572Y-108577133D01*
X193178572Y-108577133D02*
X193107143Y-108801419D01*
X193107143Y-108801419D02*
X192250000Y-109698561D01*
X192250000Y-109698561D02*
X193178572Y-109698561D01*
X194464286Y-108651895D02*
X194464286Y-109698561D01*
X194107143Y-108053800D02*
X193750000Y-109175228D01*
X193750000Y-109175228D02*
X194678571Y-109175228D01*
X186107142Y-112241961D02*
X186107142Y-110671961D01*
X186107142Y-110671961D02*
X186607142Y-111793390D01*
X186607142Y-111793390D02*
X187107142Y-110671961D01*
X187107142Y-110671961D02*
X187107142Y-112241961D01*
X188678571Y-112092438D02*
X188607143Y-112167200D01*
X188607143Y-112167200D02*
X188392857Y-112241961D01*
X188392857Y-112241961D02*
X188250000Y-112241961D01*
X188250000Y-112241961D02*
X188035714Y-112167200D01*
X188035714Y-112167200D02*
X187892857Y-112017676D01*
X187892857Y-112017676D02*
X187821428Y-111868152D01*
X187821428Y-111868152D02*
X187750000Y-111569104D01*
X187750000Y-111569104D02*
X187750000Y-111344819D01*
X187750000Y-111344819D02*
X187821428Y-111045771D01*
X187821428Y-111045771D02*
X187892857Y-110896247D01*
X187892857Y-110896247D02*
X188035714Y-110746723D01*
X188035714Y-110746723D02*
X188250000Y-110671961D01*
X188250000Y-110671961D02*
X188392857Y-110671961D01*
X188392857Y-110671961D02*
X188607143Y-110746723D01*
X188607143Y-110746723D02*
X188678571Y-110821485D01*
X189321428Y-110671961D02*
X189321428Y-111942914D01*
X189321428Y-111942914D02*
X189392857Y-112092438D01*
X189392857Y-112092438D02*
X189464286Y-112167200D01*
X189464286Y-112167200D02*
X189607143Y-112241961D01*
X189607143Y-112241961D02*
X189892857Y-112241961D01*
X189892857Y-112241961D02*
X190035714Y-112167200D01*
X190035714Y-112167200D02*
X190107143Y-112092438D01*
X190107143Y-112092438D02*
X190178571Y-111942914D01*
X190178571Y-111942914D02*
X190178571Y-110671961D01*
X190892857Y-112241961D02*
X190892857Y-110671961D01*
X190892857Y-110671961D02*
X191750000Y-112241961D01*
X191750000Y-112241961D02*
X191750000Y-110671961D01*
X193321429Y-112092438D02*
X193250001Y-112167200D01*
X193250001Y-112167200D02*
X193035715Y-112241961D01*
X193035715Y-112241961D02*
X192892858Y-112241961D01*
X192892858Y-112241961D02*
X192678572Y-112167200D01*
X192678572Y-112167200D02*
X192535715Y-112017676D01*
X192535715Y-112017676D02*
X192464286Y-111868152D01*
X192464286Y-111868152D02*
X192392858Y-111569104D01*
X192392858Y-111569104D02*
X192392858Y-111344819D01*
X192392858Y-111344819D02*
X192464286Y-111045771D01*
X192464286Y-111045771D02*
X192535715Y-110896247D01*
X192535715Y-110896247D02*
X192678572Y-110746723D01*
X192678572Y-110746723D02*
X192892858Y-110671961D01*
X192892858Y-110671961D02*
X193035715Y-110671961D01*
X193035715Y-110671961D02*
X193250001Y-110746723D01*
X193250001Y-110746723D02*
X193321429Y-110821485D01*
X194750001Y-112241961D02*
X193892858Y-112241961D01*
X194321429Y-112241961D02*
X194321429Y-110671961D01*
X194321429Y-110671961D02*
X194178572Y-110896247D01*
X194178572Y-110896247D02*
X194035715Y-111045771D01*
X194035715Y-111045771D02*
X193892858Y-111120533D01*
X186107142Y-114785361D02*
X186107142Y-113215361D01*
X186107142Y-113215361D02*
X186607142Y-114336790D01*
X186607142Y-114336790D02*
X187107142Y-113215361D01*
X187107142Y-113215361D02*
X187107142Y-114785361D01*
X188678571Y-114635838D02*
X188607143Y-114710600D01*
X188607143Y-114710600D02*
X188392857Y-114785361D01*
X188392857Y-114785361D02*
X188250000Y-114785361D01*
X188250000Y-114785361D02*
X188035714Y-114710600D01*
X188035714Y-114710600D02*
X187892857Y-114561076D01*
X187892857Y-114561076D02*
X187821428Y-114411552D01*
X187821428Y-114411552D02*
X187750000Y-114112504D01*
X187750000Y-114112504D02*
X187750000Y-113888219D01*
X187750000Y-113888219D02*
X187821428Y-113589171D01*
X187821428Y-113589171D02*
X187892857Y-113439647D01*
X187892857Y-113439647D02*
X188035714Y-113290123D01*
X188035714Y-113290123D02*
X188250000Y-113215361D01*
X188250000Y-113215361D02*
X188392857Y-113215361D01*
X188392857Y-113215361D02*
X188607143Y-113290123D01*
X188607143Y-113290123D02*
X188678571Y-113364885D01*
X189321428Y-113215361D02*
X189321428Y-114486314D01*
X189321428Y-114486314D02*
X189392857Y-114635838D01*
X189392857Y-114635838D02*
X189464286Y-114710600D01*
X189464286Y-114710600D02*
X189607143Y-114785361D01*
X189607143Y-114785361D02*
X189892857Y-114785361D01*
X189892857Y-114785361D02*
X190035714Y-114710600D01*
X190035714Y-114710600D02*
X190107143Y-114635838D01*
X190107143Y-114635838D02*
X190178571Y-114486314D01*
X190178571Y-114486314D02*
X190178571Y-113215361D01*
X190892857Y-114785361D02*
X190892857Y-113215361D01*
X190892857Y-113215361D02*
X191464286Y-113215361D01*
X191464286Y-113215361D02*
X191607143Y-113290123D01*
X191607143Y-113290123D02*
X191678572Y-113364885D01*
X191678572Y-113364885D02*
X191750000Y-113514409D01*
X191750000Y-113514409D02*
X191750000Y-113738695D01*
X191750000Y-113738695D02*
X191678572Y-113888219D01*
X191678572Y-113888219D02*
X191607143Y-113962980D01*
X191607143Y-113962980D02*
X191464286Y-114037742D01*
X191464286Y-114037742D02*
X190892857Y-114037742D01*
X192321429Y-113364885D02*
X192392857Y-113290123D01*
X192392857Y-113290123D02*
X192535715Y-113215361D01*
X192535715Y-113215361D02*
X192892857Y-113215361D01*
X192892857Y-113215361D02*
X193035715Y-113290123D01*
X193035715Y-113290123D02*
X193107143Y-113364885D01*
X193107143Y-113364885D02*
X193178572Y-113514409D01*
X193178572Y-113514409D02*
X193178572Y-113663933D01*
X193178572Y-113663933D02*
X193107143Y-113888219D01*
X193107143Y-113888219D02*
X192250000Y-114785361D01*
X192250000Y-114785361D02*
X193178572Y-114785361D01*
X194035714Y-113888219D02*
X193892857Y-113813457D01*
X193892857Y-113813457D02*
X193821428Y-113738695D01*
X193821428Y-113738695D02*
X193750000Y-113589171D01*
X193750000Y-113589171D02*
X193750000Y-113514409D01*
X193750000Y-113514409D02*
X193821428Y-113364885D01*
X193821428Y-113364885D02*
X193892857Y-113290123D01*
X193892857Y-113290123D02*
X194035714Y-113215361D01*
X194035714Y-113215361D02*
X194321428Y-113215361D01*
X194321428Y-113215361D02*
X194464286Y-113290123D01*
X194464286Y-113290123D02*
X194535714Y-113364885D01*
X194535714Y-113364885D02*
X194607143Y-113514409D01*
X194607143Y-113514409D02*
X194607143Y-113589171D01*
X194607143Y-113589171D02*
X194535714Y-113738695D01*
X194535714Y-113738695D02*
X194464286Y-113813457D01*
X194464286Y-113813457D02*
X194321428Y-113888219D01*
X194321428Y-113888219D02*
X194035714Y-113888219D01*
X194035714Y-113888219D02*
X193892857Y-113962980D01*
X193892857Y-113962980D02*
X193821428Y-114037742D01*
X193821428Y-114037742D02*
X193750000Y-114187266D01*
X193750000Y-114187266D02*
X193750000Y-114486314D01*
X193750000Y-114486314D02*
X193821428Y-114635838D01*
X193821428Y-114635838D02*
X193892857Y-114710600D01*
X193892857Y-114710600D02*
X194035714Y-114785361D01*
X194035714Y-114785361D02*
X194321428Y-114785361D01*
X194321428Y-114785361D02*
X194464286Y-114710600D01*
X194464286Y-114710600D02*
X194535714Y-114635838D01*
X194535714Y-114635838D02*
X194607143Y-114486314D01*
X194607143Y-114486314D02*
X194607143Y-114187266D01*
X194607143Y-114187266D02*
X194535714Y-114037742D01*
X194535714Y-114037742D02*
X194464286Y-113962980D01*
X194464286Y-113962980D02*
X194321428Y-113888219D01*
X186107142Y-117328761D02*
X186107142Y-115758761D01*
X186107142Y-115758761D02*
X186607142Y-116880190D01*
X186607142Y-116880190D02*
X187107142Y-115758761D01*
X187107142Y-115758761D02*
X187107142Y-117328761D01*
X188678571Y-117179238D02*
X188607143Y-117254000D01*
X188607143Y-117254000D02*
X188392857Y-117328761D01*
X188392857Y-117328761D02*
X188250000Y-117328761D01*
X188250000Y-117328761D02*
X188035714Y-117254000D01*
X188035714Y-117254000D02*
X187892857Y-117104476D01*
X187892857Y-117104476D02*
X187821428Y-116954952D01*
X187821428Y-116954952D02*
X187750000Y-116655904D01*
X187750000Y-116655904D02*
X187750000Y-116431619D01*
X187750000Y-116431619D02*
X187821428Y-116132571D01*
X187821428Y-116132571D02*
X187892857Y-115983047D01*
X187892857Y-115983047D02*
X188035714Y-115833523D01*
X188035714Y-115833523D02*
X188250000Y-115758761D01*
X188250000Y-115758761D02*
X188392857Y-115758761D01*
X188392857Y-115758761D02*
X188607143Y-115833523D01*
X188607143Y-115833523D02*
X188678571Y-115908285D01*
X189321428Y-115758761D02*
X189321428Y-117029714D01*
X189321428Y-117029714D02*
X189392857Y-117179238D01*
X189392857Y-117179238D02*
X189464286Y-117254000D01*
X189464286Y-117254000D02*
X189607143Y-117328761D01*
X189607143Y-117328761D02*
X189892857Y-117328761D01*
X189892857Y-117328761D02*
X190035714Y-117254000D01*
X190035714Y-117254000D02*
X190107143Y-117179238D01*
X190107143Y-117179238D02*
X190178571Y-117029714D01*
X190178571Y-117029714D02*
X190178571Y-115758761D01*
X190892857Y-117328761D02*
X190892857Y-115758761D01*
X190892857Y-115758761D02*
X191464286Y-115758761D01*
X191464286Y-115758761D02*
X191607143Y-115833523D01*
X191607143Y-115833523D02*
X191678572Y-115908285D01*
X191678572Y-115908285D02*
X191750000Y-116057809D01*
X191750000Y-116057809D02*
X191750000Y-116282095D01*
X191750000Y-116282095D02*
X191678572Y-116431619D01*
X191678572Y-116431619D02*
X191607143Y-116506380D01*
X191607143Y-116506380D02*
X191464286Y-116581142D01*
X191464286Y-116581142D02*
X190892857Y-116581142D01*
X192250000Y-115758761D02*
X193178572Y-115758761D01*
X193178572Y-115758761D02*
X192678572Y-116356857D01*
X192678572Y-116356857D02*
X192892857Y-116356857D01*
X192892857Y-116356857D02*
X193035715Y-116431619D01*
X193035715Y-116431619D02*
X193107143Y-116506380D01*
X193107143Y-116506380D02*
X193178572Y-116655904D01*
X193178572Y-116655904D02*
X193178572Y-117029714D01*
X193178572Y-117029714D02*
X193107143Y-117179238D01*
X193107143Y-117179238D02*
X193035715Y-117254000D01*
X193035715Y-117254000D02*
X192892857Y-117328761D01*
X192892857Y-117328761D02*
X192464286Y-117328761D01*
X192464286Y-117328761D02*
X192321429Y-117254000D01*
X192321429Y-117254000D02*
X192250000Y-117179238D01*
X194107143Y-115758761D02*
X194250000Y-115758761D01*
X194250000Y-115758761D02*
X194392857Y-115833523D01*
X194392857Y-115833523D02*
X194464286Y-115908285D01*
X194464286Y-115908285D02*
X194535714Y-116057809D01*
X194535714Y-116057809D02*
X194607143Y-116356857D01*
X194607143Y-116356857D02*
X194607143Y-116730666D01*
X194607143Y-116730666D02*
X194535714Y-117029714D01*
X194535714Y-117029714D02*
X194464286Y-117179238D01*
X194464286Y-117179238D02*
X194392857Y-117254000D01*
X194392857Y-117254000D02*
X194250000Y-117328761D01*
X194250000Y-117328761D02*
X194107143Y-117328761D01*
X194107143Y-117328761D02*
X193964286Y-117254000D01*
X193964286Y-117254000D02*
X193892857Y-117179238D01*
X193892857Y-117179238D02*
X193821428Y-117029714D01*
X193821428Y-117029714D02*
X193750000Y-116730666D01*
X193750000Y-116730666D02*
X193750000Y-116356857D01*
X193750000Y-116356857D02*
X193821428Y-116057809D01*
X193821428Y-116057809D02*
X193892857Y-115908285D01*
X193892857Y-115908285D02*
X193964286Y-115833523D01*
X193964286Y-115833523D02*
X194107143Y-115758761D01*
X186035714Y-119797400D02*
X186250000Y-119872161D01*
X186250000Y-119872161D02*
X186607142Y-119872161D01*
X186607142Y-119872161D02*
X186750000Y-119797400D01*
X186750000Y-119797400D02*
X186821428Y-119722638D01*
X186821428Y-119722638D02*
X186892857Y-119573114D01*
X186892857Y-119573114D02*
X186892857Y-119423590D01*
X186892857Y-119423590D02*
X186821428Y-119274066D01*
X186821428Y-119274066D02*
X186750000Y-119199304D01*
X186750000Y-119199304D02*
X186607142Y-119124542D01*
X186607142Y-119124542D02*
X186321428Y-119049780D01*
X186321428Y-119049780D02*
X186178571Y-118975019D01*
X186178571Y-118975019D02*
X186107142Y-118900257D01*
X186107142Y-118900257D02*
X186035714Y-118750733D01*
X186035714Y-118750733D02*
X186035714Y-118601209D01*
X186035714Y-118601209D02*
X186107142Y-118451685D01*
X186107142Y-118451685D02*
X186178571Y-118376923D01*
X186178571Y-118376923D02*
X186321428Y-118302161D01*
X186321428Y-118302161D02*
X186678571Y-118302161D01*
X186678571Y-118302161D02*
X186892857Y-118376923D01*
X187392856Y-118302161D02*
X187749999Y-119872161D01*
X187749999Y-119872161D02*
X188035713Y-118750733D01*
X188035713Y-118750733D02*
X188321428Y-119872161D01*
X188321428Y-119872161D02*
X188678571Y-118302161D01*
X189249999Y-119872161D02*
X189249999Y-118302161D01*
X189249999Y-118302161D02*
X189607142Y-118302161D01*
X189607142Y-118302161D02*
X189821428Y-118376923D01*
X189821428Y-118376923D02*
X189964285Y-118526447D01*
X189964285Y-118526447D02*
X190035714Y-118675971D01*
X190035714Y-118675971D02*
X190107142Y-118975019D01*
X190107142Y-118975019D02*
X190107142Y-119199304D01*
X190107142Y-119199304D02*
X190035714Y-119498352D01*
X190035714Y-119498352D02*
X189964285Y-119647876D01*
X189964285Y-119647876D02*
X189821428Y-119797400D01*
X189821428Y-119797400D02*
X189607142Y-119872161D01*
X189607142Y-119872161D02*
X189249999Y-119872161D01*
X190749999Y-119872161D02*
X190749999Y-118302161D01*
X191750000Y-118302161D02*
X192035714Y-118302161D01*
X192035714Y-118302161D02*
X192178571Y-118376923D01*
X192178571Y-118376923D02*
X192321428Y-118526447D01*
X192321428Y-118526447D02*
X192392857Y-118825495D01*
X192392857Y-118825495D02*
X192392857Y-119348828D01*
X192392857Y-119348828D02*
X192321428Y-119647876D01*
X192321428Y-119647876D02*
X192178571Y-119797400D01*
X192178571Y-119797400D02*
X192035714Y-119872161D01*
X192035714Y-119872161D02*
X191750000Y-119872161D01*
X191750000Y-119872161D02*
X191607143Y-119797400D01*
X191607143Y-119797400D02*
X191464285Y-119647876D01*
X191464285Y-119647876D02*
X191392857Y-119348828D01*
X191392857Y-119348828D02*
X191392857Y-118825495D01*
X191392857Y-118825495D02*
X191464285Y-118526447D01*
X191464285Y-118526447D02*
X191607143Y-118376923D01*
X191607143Y-118376923D02*
X191750000Y-118302161D01*
X174642857Y-86316428D02*
X174500000Y-86245000D01*
X174500000Y-86245000D02*
X174428571Y-86173571D01*
X174428571Y-86173571D02*
X174357143Y-86030714D01*
X174357143Y-86030714D02*
X174357143Y-85602142D01*
X174357143Y-85602142D02*
X174428571Y-85459285D01*
X174428571Y-85459285D02*
X174500000Y-85387857D01*
X174500000Y-85387857D02*
X174642857Y-85316428D01*
X174642857Y-85316428D02*
X174857143Y-85316428D01*
X174857143Y-85316428D02*
X175000000Y-85387857D01*
X175000000Y-85387857D02*
X175071429Y-85459285D01*
X175071429Y-85459285D02*
X175142857Y-85602142D01*
X175142857Y-85602142D02*
X175142857Y-86030714D01*
X175142857Y-86030714D02*
X175071429Y-86173571D01*
X175071429Y-86173571D02*
X175000000Y-86245000D01*
X175000000Y-86245000D02*
X174857143Y-86316428D01*
X174857143Y-86316428D02*
X174642857Y-86316428D01*
X175571429Y-85316428D02*
X176142857Y-85316428D01*
X175785714Y-84816428D02*
X175785714Y-86102142D01*
X175785714Y-86102142D02*
X175857143Y-86245000D01*
X175857143Y-86245000D02*
X176000000Y-86316428D01*
X176000000Y-86316428D02*
X176142857Y-86316428D01*
X176642857Y-86316428D02*
X176642857Y-84816428D01*
X177285715Y-86316428D02*
X177285715Y-85530714D01*
X177285715Y-85530714D02*
X177214286Y-85387857D01*
X177214286Y-85387857D02*
X177071429Y-85316428D01*
X177071429Y-85316428D02*
X176857143Y-85316428D01*
X176857143Y-85316428D02*
X176714286Y-85387857D01*
X176714286Y-85387857D02*
X176642857Y-85459285D01*
X178571429Y-86245000D02*
X178428572Y-86316428D01*
X178428572Y-86316428D02*
X178142858Y-86316428D01*
X178142858Y-86316428D02*
X178000000Y-86245000D01*
X178000000Y-86245000D02*
X177928572Y-86102142D01*
X177928572Y-86102142D02*
X177928572Y-85530714D01*
X177928572Y-85530714D02*
X178000000Y-85387857D01*
X178000000Y-85387857D02*
X178142858Y-85316428D01*
X178142858Y-85316428D02*
X178428572Y-85316428D01*
X178428572Y-85316428D02*
X178571429Y-85387857D01*
X178571429Y-85387857D02*
X178642858Y-85530714D01*
X178642858Y-85530714D02*
X178642858Y-85673571D01*
X178642858Y-85673571D02*
X177928572Y-85816428D01*
X179285714Y-86316428D02*
X179285714Y-85316428D01*
X179285714Y-85602142D02*
X179357143Y-85459285D01*
X179357143Y-85459285D02*
X179428572Y-85387857D01*
X179428572Y-85387857D02*
X179571429Y-85316428D01*
X179571429Y-85316428D02*
X179714286Y-85316428D01*
X181357142Y-86316428D02*
X181357142Y-85316428D01*
X181357142Y-85459285D02*
X181428571Y-85387857D01*
X181428571Y-85387857D02*
X181571428Y-85316428D01*
X181571428Y-85316428D02*
X181785714Y-85316428D01*
X181785714Y-85316428D02*
X181928571Y-85387857D01*
X181928571Y-85387857D02*
X182000000Y-85530714D01*
X182000000Y-85530714D02*
X182000000Y-86316428D01*
X182000000Y-85530714D02*
X182071428Y-85387857D01*
X182071428Y-85387857D02*
X182214285Y-85316428D01*
X182214285Y-85316428D02*
X182428571Y-85316428D01*
X182428571Y-85316428D02*
X182571428Y-85387857D01*
X182571428Y-85387857D02*
X182642857Y-85530714D01*
X182642857Y-85530714D02*
X182642857Y-86316428D01*
X184000000Y-86245000D02*
X183857142Y-86316428D01*
X183857142Y-86316428D02*
X183571428Y-86316428D01*
X183571428Y-86316428D02*
X183428571Y-86245000D01*
X183428571Y-86245000D02*
X183357142Y-86173571D01*
X183357142Y-86173571D02*
X183285714Y-86030714D01*
X183285714Y-86030714D02*
X183285714Y-85602142D01*
X183285714Y-85602142D02*
X183357142Y-85459285D01*
X183357142Y-85459285D02*
X183428571Y-85387857D01*
X183428571Y-85387857D02*
X183571428Y-85316428D01*
X183571428Y-85316428D02*
X183857142Y-85316428D01*
X183857142Y-85316428D02*
X184000000Y-85387857D01*
X185285714Y-85316428D02*
X185285714Y-86316428D01*
X184642856Y-85316428D02*
X184642856Y-86102142D01*
X184642856Y-86102142D02*
X184714285Y-86245000D01*
X184714285Y-86245000D02*
X184857142Y-86316428D01*
X184857142Y-86316428D02*
X185071428Y-86316428D01*
X185071428Y-86316428D02*
X185214285Y-86245000D01*
X185214285Y-86245000D02*
X185285714Y-86173571D01*
X187142856Y-85316428D02*
X187142856Y-86816428D01*
X187142856Y-85387857D02*
X187285714Y-85316428D01*
X187285714Y-85316428D02*
X187571428Y-85316428D01*
X187571428Y-85316428D02*
X187714285Y-85387857D01*
X187714285Y-85387857D02*
X187785714Y-85459285D01*
X187785714Y-85459285D02*
X187857142Y-85602142D01*
X187857142Y-85602142D02*
X187857142Y-86030714D01*
X187857142Y-86030714D02*
X187785714Y-86173571D01*
X187785714Y-86173571D02*
X187714285Y-86245000D01*
X187714285Y-86245000D02*
X187571428Y-86316428D01*
X187571428Y-86316428D02*
X187285714Y-86316428D01*
X187285714Y-86316428D02*
X187142856Y-86245000D01*
X188499999Y-86316428D02*
X188499999Y-85316428D01*
X188499999Y-84816428D02*
X188428571Y-84887857D01*
X188428571Y-84887857D02*
X188499999Y-84959285D01*
X188499999Y-84959285D02*
X188571428Y-84887857D01*
X188571428Y-84887857D02*
X188499999Y-84816428D01*
X188499999Y-84816428D02*
X188499999Y-84959285D01*
X189214285Y-85316428D02*
X189214285Y-86316428D01*
X189214285Y-85459285D02*
X189285714Y-85387857D01*
X189285714Y-85387857D02*
X189428571Y-85316428D01*
X189428571Y-85316428D02*
X189642857Y-85316428D01*
X189642857Y-85316428D02*
X189785714Y-85387857D01*
X189785714Y-85387857D02*
X189857143Y-85530714D01*
X189857143Y-85530714D02*
X189857143Y-86316428D01*
X190500000Y-86245000D02*
X190642857Y-86316428D01*
X190642857Y-86316428D02*
X190928571Y-86316428D01*
X190928571Y-86316428D02*
X191071428Y-86245000D01*
X191071428Y-86245000D02*
X191142857Y-86102142D01*
X191142857Y-86102142D02*
X191142857Y-86030714D01*
X191142857Y-86030714D02*
X191071428Y-85887857D01*
X191071428Y-85887857D02*
X190928571Y-85816428D01*
X190928571Y-85816428D02*
X190714286Y-85816428D01*
X190714286Y-85816428D02*
X190571428Y-85745000D01*
X190571428Y-85745000D02*
X190500000Y-85602142D01*
X190500000Y-85602142D02*
X190500000Y-85530714D01*
X190500000Y-85530714D02*
X190571428Y-85387857D01*
X190571428Y-85387857D02*
X190714286Y-85316428D01*
X190714286Y-85316428D02*
X190928571Y-85316428D01*
X190928571Y-85316428D02*
X191071428Y-85387857D01*
X101324761Y-94642856D02*
X102894761Y-94142856D01*
X102894761Y-94142856D02*
X101324761Y-93642856D01*
X102745238Y-92285714D02*
X102820000Y-92357142D01*
X102820000Y-92357142D02*
X102894761Y-92571428D01*
X102894761Y-92571428D02*
X102894761Y-92714285D01*
X102894761Y-92714285D02*
X102820000Y-92928571D01*
X102820000Y-92928571D02*
X102670476Y-93071428D01*
X102670476Y-93071428D02*
X102520952Y-93142857D01*
X102520952Y-93142857D02*
X102221904Y-93214285D01*
X102221904Y-93214285D02*
X101997619Y-93214285D01*
X101997619Y-93214285D02*
X101698571Y-93142857D01*
X101698571Y-93142857D02*
X101549047Y-93071428D01*
X101549047Y-93071428D02*
X101399523Y-92928571D01*
X101399523Y-92928571D02*
X101324761Y-92714285D01*
X101324761Y-92714285D02*
X101324761Y-92571428D01*
X101324761Y-92571428D02*
X101399523Y-92357142D01*
X101399523Y-92357142D02*
X101474285Y-92285714D01*
X102745238Y-90785714D02*
X102820000Y-90857142D01*
X102820000Y-90857142D02*
X102894761Y-91071428D01*
X102894761Y-91071428D02*
X102894761Y-91214285D01*
X102894761Y-91214285D02*
X102820000Y-91428571D01*
X102820000Y-91428571D02*
X102670476Y-91571428D01*
X102670476Y-91571428D02*
X102520952Y-91642857D01*
X102520952Y-91642857D02*
X102221904Y-91714285D01*
X102221904Y-91714285D02*
X101997619Y-91714285D01*
X101997619Y-91714285D02*
X101698571Y-91642857D01*
X101698571Y-91642857D02*
X101549047Y-91571428D01*
X101549047Y-91571428D02*
X101399523Y-91428571D01*
X101399523Y-91428571D02*
X101324761Y-91214285D01*
X101324761Y-91214285D02*
X101324761Y-91071428D01*
X101324761Y-91071428D02*
X101399523Y-90857142D01*
X101399523Y-90857142D02*
X101474285Y-90785714D01*
X105363400Y-97142857D02*
X105438161Y-96928572D01*
X105438161Y-96928572D02*
X105438161Y-96571429D01*
X105438161Y-96571429D02*
X105363400Y-96428572D01*
X105363400Y-96428572D02*
X105288638Y-96357143D01*
X105288638Y-96357143D02*
X105139114Y-96285714D01*
X105139114Y-96285714D02*
X104989590Y-96285714D01*
X104989590Y-96285714D02*
X104840066Y-96357143D01*
X104840066Y-96357143D02*
X104765304Y-96428572D01*
X104765304Y-96428572D02*
X104690542Y-96571429D01*
X104690542Y-96571429D02*
X104615780Y-96857143D01*
X104615780Y-96857143D02*
X104541019Y-97000000D01*
X104541019Y-97000000D02*
X104466257Y-97071429D01*
X104466257Y-97071429D02*
X104316733Y-97142857D01*
X104316733Y-97142857D02*
X104167209Y-97142857D01*
X104167209Y-97142857D02*
X104017685Y-97071429D01*
X104017685Y-97071429D02*
X103942923Y-97000000D01*
X103942923Y-97000000D02*
X103868161Y-96857143D01*
X103868161Y-96857143D02*
X103868161Y-96500000D01*
X103868161Y-96500000D02*
X103942923Y-96285714D01*
X103868161Y-95785715D02*
X105438161Y-95428572D01*
X105438161Y-95428572D02*
X104316733Y-95142858D01*
X104316733Y-95142858D02*
X105438161Y-94857143D01*
X105438161Y-94857143D02*
X103868161Y-94500001D01*
X105438161Y-93928572D02*
X103868161Y-93928572D01*
X103868161Y-93928572D02*
X103868161Y-93571429D01*
X103868161Y-93571429D02*
X103942923Y-93357143D01*
X103942923Y-93357143D02*
X104092447Y-93214286D01*
X104092447Y-93214286D02*
X104241971Y-93142857D01*
X104241971Y-93142857D02*
X104541019Y-93071429D01*
X104541019Y-93071429D02*
X104765304Y-93071429D01*
X104765304Y-93071429D02*
X105064352Y-93142857D01*
X105064352Y-93142857D02*
X105213876Y-93214286D01*
X105213876Y-93214286D02*
X105363400Y-93357143D01*
X105363400Y-93357143D02*
X105438161Y-93571429D01*
X105438161Y-93571429D02*
X105438161Y-93928572D01*
X105438161Y-92428572D02*
X103868161Y-92428572D01*
X103868161Y-91428571D02*
X103868161Y-91142857D01*
X103868161Y-91142857D02*
X103942923Y-91000000D01*
X103942923Y-91000000D02*
X104092447Y-90857143D01*
X104092447Y-90857143D02*
X104391495Y-90785714D01*
X104391495Y-90785714D02*
X104914828Y-90785714D01*
X104914828Y-90785714D02*
X105213876Y-90857143D01*
X105213876Y-90857143D02*
X105363400Y-91000000D01*
X105363400Y-91000000D02*
X105438161Y-91142857D01*
X105438161Y-91142857D02*
X105438161Y-91428571D01*
X105438161Y-91428571D02*
X105363400Y-91571429D01*
X105363400Y-91571429D02*
X105213876Y-91714286D01*
X105213876Y-91714286D02*
X104914828Y-91785714D01*
X104914828Y-91785714D02*
X104391495Y-91785714D01*
X104391495Y-91785714D02*
X104092447Y-91714286D01*
X104092447Y-91714286D02*
X103942923Y-91571429D01*
X103942923Y-91571429D02*
X103868161Y-91428571D01*
X107906800Y-97571428D02*
X107981561Y-97357143D01*
X107981561Y-97357143D02*
X107981561Y-97000000D01*
X107981561Y-97000000D02*
X107906800Y-96857143D01*
X107906800Y-96857143D02*
X107832038Y-96785714D01*
X107832038Y-96785714D02*
X107682514Y-96714285D01*
X107682514Y-96714285D02*
X107532990Y-96714285D01*
X107532990Y-96714285D02*
X107383466Y-96785714D01*
X107383466Y-96785714D02*
X107308704Y-96857143D01*
X107308704Y-96857143D02*
X107233942Y-97000000D01*
X107233942Y-97000000D02*
X107159180Y-97285714D01*
X107159180Y-97285714D02*
X107084419Y-97428571D01*
X107084419Y-97428571D02*
X107009657Y-97500000D01*
X107009657Y-97500000D02*
X106860133Y-97571428D01*
X106860133Y-97571428D02*
X106710609Y-97571428D01*
X106710609Y-97571428D02*
X106561085Y-97500000D01*
X106561085Y-97500000D02*
X106486323Y-97428571D01*
X106486323Y-97428571D02*
X106411561Y-97285714D01*
X106411561Y-97285714D02*
X106411561Y-96928571D01*
X106411561Y-96928571D02*
X106486323Y-96714285D01*
X106411561Y-96214286D02*
X107981561Y-95857143D01*
X107981561Y-95857143D02*
X106860133Y-95571429D01*
X106860133Y-95571429D02*
X107981561Y-95285714D01*
X107981561Y-95285714D02*
X106411561Y-94928572D01*
X107832038Y-93500000D02*
X107906800Y-93571428D01*
X107906800Y-93571428D02*
X107981561Y-93785714D01*
X107981561Y-93785714D02*
X107981561Y-93928571D01*
X107981561Y-93928571D02*
X107906800Y-94142857D01*
X107906800Y-94142857D02*
X107757276Y-94285714D01*
X107757276Y-94285714D02*
X107607752Y-94357143D01*
X107607752Y-94357143D02*
X107308704Y-94428571D01*
X107308704Y-94428571D02*
X107084419Y-94428571D01*
X107084419Y-94428571D02*
X106785371Y-94357143D01*
X106785371Y-94357143D02*
X106635847Y-94285714D01*
X106635847Y-94285714D02*
X106486323Y-94142857D01*
X106486323Y-94142857D02*
X106411561Y-93928571D01*
X106411561Y-93928571D02*
X106411561Y-93785714D01*
X106411561Y-93785714D02*
X106486323Y-93571428D01*
X106486323Y-93571428D02*
X106561085Y-93500000D01*
X107981561Y-92142857D02*
X107981561Y-92857143D01*
X107981561Y-92857143D02*
X106411561Y-92857143D01*
X107981561Y-91642857D02*
X106411561Y-91642857D01*
X107981561Y-90785714D02*
X107084419Y-91428571D01*
X106411561Y-90785714D02*
X107308704Y-91642857D01*
X109029723Y-93928571D02*
X108954961Y-94071429D01*
X108954961Y-94071429D02*
X108954961Y-94285714D01*
X108954961Y-94285714D02*
X109029723Y-94500000D01*
X109029723Y-94500000D02*
X109179247Y-94642857D01*
X109179247Y-94642857D02*
X109328771Y-94714286D01*
X109328771Y-94714286D02*
X109627819Y-94785714D01*
X109627819Y-94785714D02*
X109852104Y-94785714D01*
X109852104Y-94785714D02*
X110151152Y-94714286D01*
X110151152Y-94714286D02*
X110300676Y-94642857D01*
X110300676Y-94642857D02*
X110450200Y-94500000D01*
X110450200Y-94500000D02*
X110524961Y-94285714D01*
X110524961Y-94285714D02*
X110524961Y-94142857D01*
X110524961Y-94142857D02*
X110450200Y-93928571D01*
X110450200Y-93928571D02*
X110375438Y-93857143D01*
X110375438Y-93857143D02*
X109852104Y-93857143D01*
X109852104Y-93857143D02*
X109852104Y-94142857D01*
X110524961Y-93214286D02*
X108954961Y-93214286D01*
X108954961Y-93214286D02*
X110524961Y-92357143D01*
X110524961Y-92357143D02*
X108954961Y-92357143D01*
X110524961Y-91642857D02*
X108954961Y-91642857D01*
X108954961Y-91642857D02*
X108954961Y-91285714D01*
X108954961Y-91285714D02*
X109029723Y-91071428D01*
X109029723Y-91071428D02*
X109179247Y-90928571D01*
X109179247Y-90928571D02*
X109328771Y-90857142D01*
X109328771Y-90857142D02*
X109627819Y-90785714D01*
X109627819Y-90785714D02*
X109852104Y-90785714D01*
X109852104Y-90785714D02*
X110151152Y-90857142D01*
X110151152Y-90857142D02*
X110300676Y-90928571D01*
X110300676Y-90928571D02*
X110450200Y-91071428D01*
X110450200Y-91071428D02*
X110524961Y-91285714D01*
X110524961Y-91285714D02*
X110524961Y-91642857D01*
X160857142Y-91665714D02*
X160785714Y-91740000D01*
X160785714Y-91740000D02*
X160571428Y-91814285D01*
X160571428Y-91814285D02*
X160428571Y-91814285D01*
X160428571Y-91814285D02*
X160214285Y-91740000D01*
X160214285Y-91740000D02*
X160071428Y-91591428D01*
X160071428Y-91591428D02*
X159999999Y-91442857D01*
X159999999Y-91442857D02*
X159928571Y-91145714D01*
X159928571Y-91145714D02*
X159928571Y-90922857D01*
X159928571Y-90922857D02*
X159999999Y-90625714D01*
X159999999Y-90625714D02*
X160071428Y-90477142D01*
X160071428Y-90477142D02*
X160214285Y-90328571D01*
X160214285Y-90328571D02*
X160428571Y-90254285D01*
X160428571Y-90254285D02*
X160571428Y-90254285D01*
X160571428Y-90254285D02*
X160785714Y-90328571D01*
X160785714Y-90328571D02*
X160857142Y-90402857D01*
X161785714Y-90254285D02*
X162071428Y-90254285D01*
X162071428Y-90254285D02*
X162214285Y-90328571D01*
X162214285Y-90328571D02*
X162357142Y-90477142D01*
X162357142Y-90477142D02*
X162428571Y-90774285D01*
X162428571Y-90774285D02*
X162428571Y-91294285D01*
X162428571Y-91294285D02*
X162357142Y-91591428D01*
X162357142Y-91591428D02*
X162214285Y-91740000D01*
X162214285Y-91740000D02*
X162071428Y-91814285D01*
X162071428Y-91814285D02*
X161785714Y-91814285D01*
X161785714Y-91814285D02*
X161642857Y-91740000D01*
X161642857Y-91740000D02*
X161499999Y-91591428D01*
X161499999Y-91591428D02*
X161428571Y-91294285D01*
X161428571Y-91294285D02*
X161428571Y-90774285D01*
X161428571Y-90774285D02*
X161499999Y-90477142D01*
X161499999Y-90477142D02*
X161642857Y-90328571D01*
X161642857Y-90328571D02*
X161785714Y-90254285D01*
X163785714Y-91814285D02*
X163071428Y-91814285D01*
X163071428Y-91814285D02*
X163071428Y-90254285D01*
X164571429Y-90254285D02*
X164714286Y-90254285D01*
X164714286Y-90254285D02*
X164857143Y-90328571D01*
X164857143Y-90328571D02*
X164928572Y-90402857D01*
X164928572Y-90402857D02*
X165000000Y-90551428D01*
X165000000Y-90551428D02*
X165071429Y-90848571D01*
X165071429Y-90848571D02*
X165071429Y-91220000D01*
X165071429Y-91220000D02*
X165000000Y-91517142D01*
X165000000Y-91517142D02*
X164928572Y-91665714D01*
X164928572Y-91665714D02*
X164857143Y-91740000D01*
X164857143Y-91740000D02*
X164714286Y-91814285D01*
X164714286Y-91814285D02*
X164571429Y-91814285D01*
X164571429Y-91814285D02*
X164428572Y-91740000D01*
X164428572Y-91740000D02*
X164357143Y-91665714D01*
X164357143Y-91665714D02*
X164285714Y-91517142D01*
X164285714Y-91517142D02*
X164214286Y-91220000D01*
X164214286Y-91220000D02*
X164214286Y-90848571D01*
X164214286Y-90848571D02*
X164285714Y-90551428D01*
X164285714Y-90551428D02*
X164357143Y-90402857D01*
X164357143Y-90402857D02*
X164428572Y-90328571D01*
X164428572Y-90328571D02*
X164571429Y-90254285D01*
X160857142Y-94192914D02*
X160785714Y-94267200D01*
X160785714Y-94267200D02*
X160571428Y-94341485D01*
X160571428Y-94341485D02*
X160428571Y-94341485D01*
X160428571Y-94341485D02*
X160214285Y-94267200D01*
X160214285Y-94267200D02*
X160071428Y-94118628D01*
X160071428Y-94118628D02*
X159999999Y-93970057D01*
X159999999Y-93970057D02*
X159928571Y-93672914D01*
X159928571Y-93672914D02*
X159928571Y-93450057D01*
X159928571Y-93450057D02*
X159999999Y-93152914D01*
X159999999Y-93152914D02*
X160071428Y-93004342D01*
X160071428Y-93004342D02*
X160214285Y-92855771D01*
X160214285Y-92855771D02*
X160428571Y-92781485D01*
X160428571Y-92781485D02*
X160571428Y-92781485D01*
X160571428Y-92781485D02*
X160785714Y-92855771D01*
X160785714Y-92855771D02*
X160857142Y-92930057D01*
X161785714Y-92781485D02*
X162071428Y-92781485D01*
X162071428Y-92781485D02*
X162214285Y-92855771D01*
X162214285Y-92855771D02*
X162357142Y-93004342D01*
X162357142Y-93004342D02*
X162428571Y-93301485D01*
X162428571Y-93301485D02*
X162428571Y-93821485D01*
X162428571Y-93821485D02*
X162357142Y-94118628D01*
X162357142Y-94118628D02*
X162214285Y-94267200D01*
X162214285Y-94267200D02*
X162071428Y-94341485D01*
X162071428Y-94341485D02*
X161785714Y-94341485D01*
X161785714Y-94341485D02*
X161642857Y-94267200D01*
X161642857Y-94267200D02*
X161499999Y-94118628D01*
X161499999Y-94118628D02*
X161428571Y-93821485D01*
X161428571Y-93821485D02*
X161428571Y-93301485D01*
X161428571Y-93301485D02*
X161499999Y-93004342D01*
X161499999Y-93004342D02*
X161642857Y-92855771D01*
X161642857Y-92855771D02*
X161785714Y-92781485D01*
X163785714Y-94341485D02*
X163071428Y-94341485D01*
X163071428Y-94341485D02*
X163071428Y-92781485D01*
X165071429Y-94341485D02*
X164214286Y-94341485D01*
X164642857Y-94341485D02*
X164642857Y-92781485D01*
X164642857Y-92781485D02*
X164500000Y-93004342D01*
X164500000Y-93004342D02*
X164357143Y-93152914D01*
X164357143Y-93152914D02*
X164214286Y-93227200D01*
X160857142Y-96720114D02*
X160785714Y-96794400D01*
X160785714Y-96794400D02*
X160571428Y-96868685D01*
X160571428Y-96868685D02*
X160428571Y-96868685D01*
X160428571Y-96868685D02*
X160214285Y-96794400D01*
X160214285Y-96794400D02*
X160071428Y-96645828D01*
X160071428Y-96645828D02*
X159999999Y-96497257D01*
X159999999Y-96497257D02*
X159928571Y-96200114D01*
X159928571Y-96200114D02*
X159928571Y-95977257D01*
X159928571Y-95977257D02*
X159999999Y-95680114D01*
X159999999Y-95680114D02*
X160071428Y-95531542D01*
X160071428Y-95531542D02*
X160214285Y-95382971D01*
X160214285Y-95382971D02*
X160428571Y-95308685D01*
X160428571Y-95308685D02*
X160571428Y-95308685D01*
X160571428Y-95308685D02*
X160785714Y-95382971D01*
X160785714Y-95382971D02*
X160857142Y-95457257D01*
X161785714Y-95308685D02*
X162071428Y-95308685D01*
X162071428Y-95308685D02*
X162214285Y-95382971D01*
X162214285Y-95382971D02*
X162357142Y-95531542D01*
X162357142Y-95531542D02*
X162428571Y-95828685D01*
X162428571Y-95828685D02*
X162428571Y-96348685D01*
X162428571Y-96348685D02*
X162357142Y-96645828D01*
X162357142Y-96645828D02*
X162214285Y-96794400D01*
X162214285Y-96794400D02*
X162071428Y-96868685D01*
X162071428Y-96868685D02*
X161785714Y-96868685D01*
X161785714Y-96868685D02*
X161642857Y-96794400D01*
X161642857Y-96794400D02*
X161499999Y-96645828D01*
X161499999Y-96645828D02*
X161428571Y-96348685D01*
X161428571Y-96348685D02*
X161428571Y-95828685D01*
X161428571Y-95828685D02*
X161499999Y-95531542D01*
X161499999Y-95531542D02*
X161642857Y-95382971D01*
X161642857Y-95382971D02*
X161785714Y-95308685D01*
X163785714Y-96868685D02*
X163071428Y-96868685D01*
X163071428Y-96868685D02*
X163071428Y-95308685D01*
X164214286Y-95457257D02*
X164285714Y-95382971D01*
X164285714Y-95382971D02*
X164428572Y-95308685D01*
X164428572Y-95308685D02*
X164785714Y-95308685D01*
X164785714Y-95308685D02*
X164928572Y-95382971D01*
X164928572Y-95382971D02*
X165000000Y-95457257D01*
X165000000Y-95457257D02*
X165071429Y-95605828D01*
X165071429Y-95605828D02*
X165071429Y-95754400D01*
X165071429Y-95754400D02*
X165000000Y-95977257D01*
X165000000Y-95977257D02*
X164142857Y-96868685D01*
X164142857Y-96868685D02*
X165071429Y-96868685D01*
X160857142Y-99247314D02*
X160785714Y-99321600D01*
X160785714Y-99321600D02*
X160571428Y-99395885D01*
X160571428Y-99395885D02*
X160428571Y-99395885D01*
X160428571Y-99395885D02*
X160214285Y-99321600D01*
X160214285Y-99321600D02*
X160071428Y-99173028D01*
X160071428Y-99173028D02*
X159999999Y-99024457D01*
X159999999Y-99024457D02*
X159928571Y-98727314D01*
X159928571Y-98727314D02*
X159928571Y-98504457D01*
X159928571Y-98504457D02*
X159999999Y-98207314D01*
X159999999Y-98207314D02*
X160071428Y-98058742D01*
X160071428Y-98058742D02*
X160214285Y-97910171D01*
X160214285Y-97910171D02*
X160428571Y-97835885D01*
X160428571Y-97835885D02*
X160571428Y-97835885D01*
X160571428Y-97835885D02*
X160785714Y-97910171D01*
X160785714Y-97910171D02*
X160857142Y-97984457D01*
X161785714Y-97835885D02*
X162071428Y-97835885D01*
X162071428Y-97835885D02*
X162214285Y-97910171D01*
X162214285Y-97910171D02*
X162357142Y-98058742D01*
X162357142Y-98058742D02*
X162428571Y-98355885D01*
X162428571Y-98355885D02*
X162428571Y-98875885D01*
X162428571Y-98875885D02*
X162357142Y-99173028D01*
X162357142Y-99173028D02*
X162214285Y-99321600D01*
X162214285Y-99321600D02*
X162071428Y-99395885D01*
X162071428Y-99395885D02*
X161785714Y-99395885D01*
X161785714Y-99395885D02*
X161642857Y-99321600D01*
X161642857Y-99321600D02*
X161499999Y-99173028D01*
X161499999Y-99173028D02*
X161428571Y-98875885D01*
X161428571Y-98875885D02*
X161428571Y-98355885D01*
X161428571Y-98355885D02*
X161499999Y-98058742D01*
X161499999Y-98058742D02*
X161642857Y-97910171D01*
X161642857Y-97910171D02*
X161785714Y-97835885D01*
X163785714Y-99395885D02*
X163071428Y-99395885D01*
X163071428Y-99395885D02*
X163071428Y-97835885D01*
X164142857Y-97835885D02*
X165071429Y-97835885D01*
X165071429Y-97835885D02*
X164571429Y-98430171D01*
X164571429Y-98430171D02*
X164785714Y-98430171D01*
X164785714Y-98430171D02*
X164928572Y-98504457D01*
X164928572Y-98504457D02*
X165000000Y-98578742D01*
X165000000Y-98578742D02*
X165071429Y-98727314D01*
X165071429Y-98727314D02*
X165071429Y-99098742D01*
X165071429Y-99098742D02*
X165000000Y-99247314D01*
X165000000Y-99247314D02*
X164928572Y-99321600D01*
X164928572Y-99321600D02*
X164785714Y-99395885D01*
X164785714Y-99395885D02*
X164357143Y-99395885D01*
X164357143Y-99395885D02*
X164214286Y-99321600D01*
X164214286Y-99321600D02*
X164142857Y-99247314D01*
X160857142Y-101774514D02*
X160785714Y-101848800D01*
X160785714Y-101848800D02*
X160571428Y-101923085D01*
X160571428Y-101923085D02*
X160428571Y-101923085D01*
X160428571Y-101923085D02*
X160214285Y-101848800D01*
X160214285Y-101848800D02*
X160071428Y-101700228D01*
X160071428Y-101700228D02*
X159999999Y-101551657D01*
X159999999Y-101551657D02*
X159928571Y-101254514D01*
X159928571Y-101254514D02*
X159928571Y-101031657D01*
X159928571Y-101031657D02*
X159999999Y-100734514D01*
X159999999Y-100734514D02*
X160071428Y-100585942D01*
X160071428Y-100585942D02*
X160214285Y-100437371D01*
X160214285Y-100437371D02*
X160428571Y-100363085D01*
X160428571Y-100363085D02*
X160571428Y-100363085D01*
X160571428Y-100363085D02*
X160785714Y-100437371D01*
X160785714Y-100437371D02*
X160857142Y-100511657D01*
X161785714Y-100363085D02*
X162071428Y-100363085D01*
X162071428Y-100363085D02*
X162214285Y-100437371D01*
X162214285Y-100437371D02*
X162357142Y-100585942D01*
X162357142Y-100585942D02*
X162428571Y-100883085D01*
X162428571Y-100883085D02*
X162428571Y-101403085D01*
X162428571Y-101403085D02*
X162357142Y-101700228D01*
X162357142Y-101700228D02*
X162214285Y-101848800D01*
X162214285Y-101848800D02*
X162071428Y-101923085D01*
X162071428Y-101923085D02*
X161785714Y-101923085D01*
X161785714Y-101923085D02*
X161642857Y-101848800D01*
X161642857Y-101848800D02*
X161499999Y-101700228D01*
X161499999Y-101700228D02*
X161428571Y-101403085D01*
X161428571Y-101403085D02*
X161428571Y-100883085D01*
X161428571Y-100883085D02*
X161499999Y-100585942D01*
X161499999Y-100585942D02*
X161642857Y-100437371D01*
X161642857Y-100437371D02*
X161785714Y-100363085D01*
X163785714Y-101923085D02*
X163071428Y-101923085D01*
X163071428Y-101923085D02*
X163071428Y-100363085D01*
X164928572Y-100883085D02*
X164928572Y-101923085D01*
X164571429Y-100288800D02*
X164214286Y-101403085D01*
X164214286Y-101403085D02*
X165142857Y-101403085D01*
X160857142Y-104301714D02*
X160785714Y-104376000D01*
X160785714Y-104376000D02*
X160571428Y-104450285D01*
X160571428Y-104450285D02*
X160428571Y-104450285D01*
X160428571Y-104450285D02*
X160214285Y-104376000D01*
X160214285Y-104376000D02*
X160071428Y-104227428D01*
X160071428Y-104227428D02*
X159999999Y-104078857D01*
X159999999Y-104078857D02*
X159928571Y-103781714D01*
X159928571Y-103781714D02*
X159928571Y-103558857D01*
X159928571Y-103558857D02*
X159999999Y-103261714D01*
X159999999Y-103261714D02*
X160071428Y-103113142D01*
X160071428Y-103113142D02*
X160214285Y-102964571D01*
X160214285Y-102964571D02*
X160428571Y-102890285D01*
X160428571Y-102890285D02*
X160571428Y-102890285D01*
X160571428Y-102890285D02*
X160785714Y-102964571D01*
X160785714Y-102964571D02*
X160857142Y-103038857D01*
X161785714Y-102890285D02*
X162071428Y-102890285D01*
X162071428Y-102890285D02*
X162214285Y-102964571D01*
X162214285Y-102964571D02*
X162357142Y-103113142D01*
X162357142Y-103113142D02*
X162428571Y-103410285D01*
X162428571Y-103410285D02*
X162428571Y-103930285D01*
X162428571Y-103930285D02*
X162357142Y-104227428D01*
X162357142Y-104227428D02*
X162214285Y-104376000D01*
X162214285Y-104376000D02*
X162071428Y-104450285D01*
X162071428Y-104450285D02*
X161785714Y-104450285D01*
X161785714Y-104450285D02*
X161642857Y-104376000D01*
X161642857Y-104376000D02*
X161499999Y-104227428D01*
X161499999Y-104227428D02*
X161428571Y-103930285D01*
X161428571Y-103930285D02*
X161428571Y-103410285D01*
X161428571Y-103410285D02*
X161499999Y-103113142D01*
X161499999Y-103113142D02*
X161642857Y-102964571D01*
X161642857Y-102964571D02*
X161785714Y-102890285D01*
X163785714Y-104450285D02*
X163071428Y-104450285D01*
X163071428Y-104450285D02*
X163071428Y-102890285D01*
X165000000Y-102890285D02*
X164285714Y-102890285D01*
X164285714Y-102890285D02*
X164214286Y-103633142D01*
X164214286Y-103633142D02*
X164285714Y-103558857D01*
X164285714Y-103558857D02*
X164428572Y-103484571D01*
X164428572Y-103484571D02*
X164785714Y-103484571D01*
X164785714Y-103484571D02*
X164928572Y-103558857D01*
X164928572Y-103558857D02*
X165000000Y-103633142D01*
X165000000Y-103633142D02*
X165071429Y-103781714D01*
X165071429Y-103781714D02*
X165071429Y-104153142D01*
X165071429Y-104153142D02*
X165000000Y-104301714D01*
X165000000Y-104301714D02*
X164928572Y-104376000D01*
X164928572Y-104376000D02*
X164785714Y-104450285D01*
X164785714Y-104450285D02*
X164428572Y-104450285D01*
X164428572Y-104450285D02*
X164285714Y-104376000D01*
X164285714Y-104376000D02*
X164214286Y-104301714D01*
X160607142Y-106977485D02*
X160107142Y-106234628D01*
X159749999Y-106977485D02*
X159749999Y-105417485D01*
X159749999Y-105417485D02*
X160321428Y-105417485D01*
X160321428Y-105417485D02*
X160464285Y-105491771D01*
X160464285Y-105491771D02*
X160535714Y-105566057D01*
X160535714Y-105566057D02*
X160607142Y-105714628D01*
X160607142Y-105714628D02*
X160607142Y-105937485D01*
X160607142Y-105937485D02*
X160535714Y-106086057D01*
X160535714Y-106086057D02*
X160464285Y-106160342D01*
X160464285Y-106160342D02*
X160321428Y-106234628D01*
X160321428Y-106234628D02*
X159749999Y-106234628D01*
X161535714Y-105417485D02*
X161821428Y-105417485D01*
X161821428Y-105417485D02*
X161964285Y-105491771D01*
X161964285Y-105491771D02*
X162107142Y-105640342D01*
X162107142Y-105640342D02*
X162178571Y-105937485D01*
X162178571Y-105937485D02*
X162178571Y-106457485D01*
X162178571Y-106457485D02*
X162107142Y-106754628D01*
X162107142Y-106754628D02*
X161964285Y-106903200D01*
X161964285Y-106903200D02*
X161821428Y-106977485D01*
X161821428Y-106977485D02*
X161535714Y-106977485D01*
X161535714Y-106977485D02*
X161392857Y-106903200D01*
X161392857Y-106903200D02*
X161249999Y-106754628D01*
X161249999Y-106754628D02*
X161178571Y-106457485D01*
X161178571Y-106457485D02*
X161178571Y-105937485D01*
X161178571Y-105937485D02*
X161249999Y-105640342D01*
X161249999Y-105640342D02*
X161392857Y-105491771D01*
X161392857Y-105491771D02*
X161535714Y-105417485D01*
X162678571Y-105417485D02*
X163035714Y-106977485D01*
X163035714Y-106977485D02*
X163321428Y-105863200D01*
X163321428Y-105863200D02*
X163607143Y-106977485D01*
X163607143Y-106977485D02*
X163964286Y-105417485D01*
X164821429Y-105417485D02*
X164964286Y-105417485D01*
X164964286Y-105417485D02*
X165107143Y-105491771D01*
X165107143Y-105491771D02*
X165178572Y-105566057D01*
X165178572Y-105566057D02*
X165250000Y-105714628D01*
X165250000Y-105714628D02*
X165321429Y-106011771D01*
X165321429Y-106011771D02*
X165321429Y-106383200D01*
X165321429Y-106383200D02*
X165250000Y-106680342D01*
X165250000Y-106680342D02*
X165178572Y-106828914D01*
X165178572Y-106828914D02*
X165107143Y-106903200D01*
X165107143Y-106903200D02*
X164964286Y-106977485D01*
X164964286Y-106977485D02*
X164821429Y-106977485D01*
X164821429Y-106977485D02*
X164678572Y-106903200D01*
X164678572Y-106903200D02*
X164607143Y-106828914D01*
X164607143Y-106828914D02*
X164535714Y-106680342D01*
X164535714Y-106680342D02*
X164464286Y-106383200D01*
X164464286Y-106383200D02*
X164464286Y-106011771D01*
X164464286Y-106011771D02*
X164535714Y-105714628D01*
X164535714Y-105714628D02*
X164607143Y-105566057D01*
X164607143Y-105566057D02*
X164678572Y-105491771D01*
X164678572Y-105491771D02*
X164821429Y-105417485D01*
X160607142Y-109504685D02*
X160107142Y-108761828D01*
X159749999Y-109504685D02*
X159749999Y-107944685D01*
X159749999Y-107944685D02*
X160321428Y-107944685D01*
X160321428Y-107944685D02*
X160464285Y-108018971D01*
X160464285Y-108018971D02*
X160535714Y-108093257D01*
X160535714Y-108093257D02*
X160607142Y-108241828D01*
X160607142Y-108241828D02*
X160607142Y-108464685D01*
X160607142Y-108464685D02*
X160535714Y-108613257D01*
X160535714Y-108613257D02*
X160464285Y-108687542D01*
X160464285Y-108687542D02*
X160321428Y-108761828D01*
X160321428Y-108761828D02*
X159749999Y-108761828D01*
X161535714Y-107944685D02*
X161821428Y-107944685D01*
X161821428Y-107944685D02*
X161964285Y-108018971D01*
X161964285Y-108018971D02*
X162107142Y-108167542D01*
X162107142Y-108167542D02*
X162178571Y-108464685D01*
X162178571Y-108464685D02*
X162178571Y-108984685D01*
X162178571Y-108984685D02*
X162107142Y-109281828D01*
X162107142Y-109281828D02*
X161964285Y-109430400D01*
X161964285Y-109430400D02*
X161821428Y-109504685D01*
X161821428Y-109504685D02*
X161535714Y-109504685D01*
X161535714Y-109504685D02*
X161392857Y-109430400D01*
X161392857Y-109430400D02*
X161249999Y-109281828D01*
X161249999Y-109281828D02*
X161178571Y-108984685D01*
X161178571Y-108984685D02*
X161178571Y-108464685D01*
X161178571Y-108464685D02*
X161249999Y-108167542D01*
X161249999Y-108167542D02*
X161392857Y-108018971D01*
X161392857Y-108018971D02*
X161535714Y-107944685D01*
X162678571Y-107944685D02*
X163035714Y-109504685D01*
X163035714Y-109504685D02*
X163321428Y-108390400D01*
X163321428Y-108390400D02*
X163607143Y-109504685D01*
X163607143Y-109504685D02*
X163964286Y-107944685D01*
X165321429Y-109504685D02*
X164464286Y-109504685D01*
X164892857Y-109504685D02*
X164892857Y-107944685D01*
X164892857Y-107944685D02*
X164750000Y-108167542D01*
X164750000Y-108167542D02*
X164607143Y-108316114D01*
X164607143Y-108316114D02*
X164464286Y-108390400D01*
X160607142Y-112031885D02*
X160107142Y-111289028D01*
X159749999Y-112031885D02*
X159749999Y-110471885D01*
X159749999Y-110471885D02*
X160321428Y-110471885D01*
X160321428Y-110471885D02*
X160464285Y-110546171D01*
X160464285Y-110546171D02*
X160535714Y-110620457D01*
X160535714Y-110620457D02*
X160607142Y-110769028D01*
X160607142Y-110769028D02*
X160607142Y-110991885D01*
X160607142Y-110991885D02*
X160535714Y-111140457D01*
X160535714Y-111140457D02*
X160464285Y-111214742D01*
X160464285Y-111214742D02*
X160321428Y-111289028D01*
X160321428Y-111289028D02*
X159749999Y-111289028D01*
X161535714Y-110471885D02*
X161821428Y-110471885D01*
X161821428Y-110471885D02*
X161964285Y-110546171D01*
X161964285Y-110546171D02*
X162107142Y-110694742D01*
X162107142Y-110694742D02*
X162178571Y-110991885D01*
X162178571Y-110991885D02*
X162178571Y-111511885D01*
X162178571Y-111511885D02*
X162107142Y-111809028D01*
X162107142Y-111809028D02*
X161964285Y-111957600D01*
X161964285Y-111957600D02*
X161821428Y-112031885D01*
X161821428Y-112031885D02*
X161535714Y-112031885D01*
X161535714Y-112031885D02*
X161392857Y-111957600D01*
X161392857Y-111957600D02*
X161249999Y-111809028D01*
X161249999Y-111809028D02*
X161178571Y-111511885D01*
X161178571Y-111511885D02*
X161178571Y-110991885D01*
X161178571Y-110991885D02*
X161249999Y-110694742D01*
X161249999Y-110694742D02*
X161392857Y-110546171D01*
X161392857Y-110546171D02*
X161535714Y-110471885D01*
X162678571Y-110471885D02*
X163035714Y-112031885D01*
X163035714Y-112031885D02*
X163321428Y-110917600D01*
X163321428Y-110917600D02*
X163607143Y-112031885D01*
X163607143Y-112031885D02*
X163964286Y-110471885D01*
X164464286Y-110620457D02*
X164535714Y-110546171D01*
X164535714Y-110546171D02*
X164678572Y-110471885D01*
X164678572Y-110471885D02*
X165035714Y-110471885D01*
X165035714Y-110471885D02*
X165178572Y-110546171D01*
X165178572Y-110546171D02*
X165250000Y-110620457D01*
X165250000Y-110620457D02*
X165321429Y-110769028D01*
X165321429Y-110769028D02*
X165321429Y-110917600D01*
X165321429Y-110917600D02*
X165250000Y-111140457D01*
X165250000Y-111140457D02*
X164392857Y-112031885D01*
X164392857Y-112031885D02*
X165321429Y-112031885D01*
X160607142Y-114559085D02*
X160107142Y-113816228D01*
X159749999Y-114559085D02*
X159749999Y-112999085D01*
X159749999Y-112999085D02*
X160321428Y-112999085D01*
X160321428Y-112999085D02*
X160464285Y-113073371D01*
X160464285Y-113073371D02*
X160535714Y-113147657D01*
X160535714Y-113147657D02*
X160607142Y-113296228D01*
X160607142Y-113296228D02*
X160607142Y-113519085D01*
X160607142Y-113519085D02*
X160535714Y-113667657D01*
X160535714Y-113667657D02*
X160464285Y-113741942D01*
X160464285Y-113741942D02*
X160321428Y-113816228D01*
X160321428Y-113816228D02*
X159749999Y-113816228D01*
X161535714Y-112999085D02*
X161821428Y-112999085D01*
X161821428Y-112999085D02*
X161964285Y-113073371D01*
X161964285Y-113073371D02*
X162107142Y-113221942D01*
X162107142Y-113221942D02*
X162178571Y-113519085D01*
X162178571Y-113519085D02*
X162178571Y-114039085D01*
X162178571Y-114039085D02*
X162107142Y-114336228D01*
X162107142Y-114336228D02*
X161964285Y-114484800D01*
X161964285Y-114484800D02*
X161821428Y-114559085D01*
X161821428Y-114559085D02*
X161535714Y-114559085D01*
X161535714Y-114559085D02*
X161392857Y-114484800D01*
X161392857Y-114484800D02*
X161249999Y-114336228D01*
X161249999Y-114336228D02*
X161178571Y-114039085D01*
X161178571Y-114039085D02*
X161178571Y-113519085D01*
X161178571Y-113519085D02*
X161249999Y-113221942D01*
X161249999Y-113221942D02*
X161392857Y-113073371D01*
X161392857Y-113073371D02*
X161535714Y-112999085D01*
X162678571Y-112999085D02*
X163035714Y-114559085D01*
X163035714Y-114559085D02*
X163321428Y-113444800D01*
X163321428Y-113444800D02*
X163607143Y-114559085D01*
X163607143Y-114559085D02*
X163964286Y-112999085D01*
X164392857Y-112999085D02*
X165321429Y-112999085D01*
X165321429Y-112999085D02*
X164821429Y-113593371D01*
X164821429Y-113593371D02*
X165035714Y-113593371D01*
X165035714Y-113593371D02*
X165178572Y-113667657D01*
X165178572Y-113667657D02*
X165250000Y-113741942D01*
X165250000Y-113741942D02*
X165321429Y-113890514D01*
X165321429Y-113890514D02*
X165321429Y-114261942D01*
X165321429Y-114261942D02*
X165250000Y-114410514D01*
X165250000Y-114410514D02*
X165178572Y-114484800D01*
X165178572Y-114484800D02*
X165035714Y-114559085D01*
X165035714Y-114559085D02*
X164607143Y-114559085D01*
X164607143Y-114559085D02*
X164464286Y-114484800D01*
X164464286Y-114484800D02*
X164392857Y-114410514D01*
D10*
%TO.C,PRG1*%
X104186905Y-87107619D02*
X104186905Y-86107619D01*
X104186905Y-86107619D02*
X104567857Y-86107619D01*
X104567857Y-86107619D02*
X104663095Y-86155238D01*
X104663095Y-86155238D02*
X104710714Y-86202857D01*
X104710714Y-86202857D02*
X104758333Y-86298095D01*
X104758333Y-86298095D02*
X104758333Y-86440952D01*
X104758333Y-86440952D02*
X104710714Y-86536190D01*
X104710714Y-86536190D02*
X104663095Y-86583809D01*
X104663095Y-86583809D02*
X104567857Y-86631428D01*
X104567857Y-86631428D02*
X104186905Y-86631428D01*
X105758333Y-87107619D02*
X105425000Y-86631428D01*
X105186905Y-87107619D02*
X105186905Y-86107619D01*
X105186905Y-86107619D02*
X105567857Y-86107619D01*
X105567857Y-86107619D02*
X105663095Y-86155238D01*
X105663095Y-86155238D02*
X105710714Y-86202857D01*
X105710714Y-86202857D02*
X105758333Y-86298095D01*
X105758333Y-86298095D02*
X105758333Y-86440952D01*
X105758333Y-86440952D02*
X105710714Y-86536190D01*
X105710714Y-86536190D02*
X105663095Y-86583809D01*
X105663095Y-86583809D02*
X105567857Y-86631428D01*
X105567857Y-86631428D02*
X105186905Y-86631428D01*
X106710714Y-86155238D02*
X106615476Y-86107619D01*
X106615476Y-86107619D02*
X106472619Y-86107619D01*
X106472619Y-86107619D02*
X106329762Y-86155238D01*
X106329762Y-86155238D02*
X106234524Y-86250476D01*
X106234524Y-86250476D02*
X106186905Y-86345714D01*
X106186905Y-86345714D02*
X106139286Y-86536190D01*
X106139286Y-86536190D02*
X106139286Y-86679047D01*
X106139286Y-86679047D02*
X106186905Y-86869523D01*
X106186905Y-86869523D02*
X106234524Y-86964761D01*
X106234524Y-86964761D02*
X106329762Y-87060000D01*
X106329762Y-87060000D02*
X106472619Y-87107619D01*
X106472619Y-87107619D02*
X106567857Y-87107619D01*
X106567857Y-87107619D02*
X106710714Y-87060000D01*
X106710714Y-87060000D02*
X106758333Y-87012380D01*
X106758333Y-87012380D02*
X106758333Y-86679047D01*
X106758333Y-86679047D02*
X106567857Y-86679047D01*
X107710714Y-87107619D02*
X107139286Y-87107619D01*
X107425000Y-87107619D02*
X107425000Y-86107619D01*
X107425000Y-86107619D02*
X107329762Y-86250476D01*
X107329762Y-86250476D02*
X107234524Y-86345714D01*
X107234524Y-86345714D02*
X107139286Y-86393333D01*
%TO.C,H1*%
X56113095Y-109687619D02*
X56113095Y-108687619D01*
X56113095Y-109163809D02*
X56684523Y-109163809D01*
X56684523Y-109687619D02*
X56684523Y-108687619D01*
X57684523Y-109687619D02*
X57113095Y-109687619D01*
X57398809Y-109687619D02*
X57398809Y-108687619D01*
X57398809Y-108687619D02*
X57303571Y-108830476D01*
X57303571Y-108830476D02*
X57208333Y-108925714D01*
X57208333Y-108925714D02*
X57113095Y-108973333D01*
%TO.C,H5*%
X94213095Y-128737619D02*
X94213095Y-127737619D01*
X94213095Y-128213809D02*
X94784523Y-128213809D01*
X94784523Y-128737619D02*
X94784523Y-127737619D01*
X95736904Y-127737619D02*
X95260714Y-127737619D01*
X95260714Y-127737619D02*
X95213095Y-128213809D01*
X95213095Y-128213809D02*
X95260714Y-128166190D01*
X95260714Y-128166190D02*
X95355952Y-128118571D01*
X95355952Y-128118571D02*
X95594047Y-128118571D01*
X95594047Y-128118571D02*
X95689285Y-128166190D01*
X95689285Y-128166190D02*
X95736904Y-128213809D01*
X95736904Y-128213809D02*
X95784523Y-128309047D01*
X95784523Y-128309047D02*
X95784523Y-128547142D01*
X95784523Y-128547142D02*
X95736904Y-128642380D01*
X95736904Y-128642380D02*
X95689285Y-128690000D01*
X95689285Y-128690000D02*
X95594047Y-128737619D01*
X95594047Y-128737619D02*
X95355952Y-128737619D01*
X95355952Y-128737619D02*
X95260714Y-128690000D01*
X95260714Y-128690000D02*
X95213095Y-128642380D01*
%TO.C,H3*%
X56113095Y-147787619D02*
X56113095Y-146787619D01*
X56113095Y-147263809D02*
X56684523Y-147263809D01*
X56684523Y-147787619D02*
X56684523Y-146787619D01*
X57065476Y-146787619D02*
X57684523Y-146787619D01*
X57684523Y-146787619D02*
X57351190Y-147168571D01*
X57351190Y-147168571D02*
X57494047Y-147168571D01*
X57494047Y-147168571D02*
X57589285Y-147216190D01*
X57589285Y-147216190D02*
X57636904Y-147263809D01*
X57636904Y-147263809D02*
X57684523Y-147359047D01*
X57684523Y-147359047D02*
X57684523Y-147597142D01*
X57684523Y-147597142D02*
X57636904Y-147692380D01*
X57636904Y-147692380D02*
X57589285Y-147740000D01*
X57589285Y-147740000D02*
X57494047Y-147787619D01*
X57494047Y-147787619D02*
X57208333Y-147787619D01*
X57208333Y-147787619D02*
X57113095Y-147740000D01*
X57113095Y-147740000D02*
X57065476Y-147692380D01*
%TO.C,H2*%
X132313095Y-109687619D02*
X132313095Y-108687619D01*
X132313095Y-109163809D02*
X132884523Y-109163809D01*
X132884523Y-109687619D02*
X132884523Y-108687619D01*
X133313095Y-108782857D02*
X133360714Y-108735238D01*
X133360714Y-108735238D02*
X133455952Y-108687619D01*
X133455952Y-108687619D02*
X133694047Y-108687619D01*
X133694047Y-108687619D02*
X133789285Y-108735238D01*
X133789285Y-108735238D02*
X133836904Y-108782857D01*
X133836904Y-108782857D02*
X133884523Y-108878095D01*
X133884523Y-108878095D02*
X133884523Y-108973333D01*
X133884523Y-108973333D02*
X133836904Y-109116190D01*
X133836904Y-109116190D02*
X133265476Y-109687619D01*
X133265476Y-109687619D02*
X133884523Y-109687619D01*
%TO.C,J1*%
X155641666Y-87767619D02*
X155641666Y-88481904D01*
X155641666Y-88481904D02*
X155594047Y-88624761D01*
X155594047Y-88624761D02*
X155498809Y-88720000D01*
X155498809Y-88720000D02*
X155355952Y-88767619D01*
X155355952Y-88767619D02*
X155260714Y-88767619D01*
X156641666Y-88767619D02*
X156070238Y-88767619D01*
X156355952Y-88767619D02*
X156355952Y-87767619D01*
X156355952Y-87767619D02*
X156260714Y-87910476D01*
X156260714Y-87910476D02*
X156165476Y-88005714D01*
X156165476Y-88005714D02*
X156070238Y-88053333D01*
%TO.C,CHG1*%
X86122380Y-90015476D02*
X86170000Y-90063095D01*
X86170000Y-90063095D02*
X86217619Y-90205952D01*
X86217619Y-90205952D02*
X86217619Y-90301190D01*
X86217619Y-90301190D02*
X86170000Y-90444047D01*
X86170000Y-90444047D02*
X86074761Y-90539285D01*
X86074761Y-90539285D02*
X85979523Y-90586904D01*
X85979523Y-90586904D02*
X85789047Y-90634523D01*
X85789047Y-90634523D02*
X85646190Y-90634523D01*
X85646190Y-90634523D02*
X85455714Y-90586904D01*
X85455714Y-90586904D02*
X85360476Y-90539285D01*
X85360476Y-90539285D02*
X85265238Y-90444047D01*
X85265238Y-90444047D02*
X85217619Y-90301190D01*
X85217619Y-90301190D02*
X85217619Y-90205952D01*
X85217619Y-90205952D02*
X85265238Y-90063095D01*
X85265238Y-90063095D02*
X85312857Y-90015476D01*
X86217619Y-89586904D02*
X85217619Y-89586904D01*
X85693809Y-89586904D02*
X85693809Y-89015476D01*
X86217619Y-89015476D02*
X85217619Y-89015476D01*
X85265238Y-88015476D02*
X85217619Y-88110714D01*
X85217619Y-88110714D02*
X85217619Y-88253571D01*
X85217619Y-88253571D02*
X85265238Y-88396428D01*
X85265238Y-88396428D02*
X85360476Y-88491666D01*
X85360476Y-88491666D02*
X85455714Y-88539285D01*
X85455714Y-88539285D02*
X85646190Y-88586904D01*
X85646190Y-88586904D02*
X85789047Y-88586904D01*
X85789047Y-88586904D02*
X85979523Y-88539285D01*
X85979523Y-88539285D02*
X86074761Y-88491666D01*
X86074761Y-88491666D02*
X86170000Y-88396428D01*
X86170000Y-88396428D02*
X86217619Y-88253571D01*
X86217619Y-88253571D02*
X86217619Y-88158333D01*
X86217619Y-88158333D02*
X86170000Y-88015476D01*
X86170000Y-88015476D02*
X86122380Y-87967857D01*
X86122380Y-87967857D02*
X85789047Y-87967857D01*
X85789047Y-87967857D02*
X85789047Y-88158333D01*
X86217619Y-87015476D02*
X86217619Y-87586904D01*
X86217619Y-87301190D02*
X85217619Y-87301190D01*
X85217619Y-87301190D02*
X85360476Y-87396428D01*
X85360476Y-87396428D02*
X85455714Y-87491666D01*
X85455714Y-87491666D02*
X85503333Y-87586904D01*
%TO.C,J2*%
X168491666Y-87767619D02*
X168491666Y-88481904D01*
X168491666Y-88481904D02*
X168444047Y-88624761D01*
X168444047Y-88624761D02*
X168348809Y-88720000D01*
X168348809Y-88720000D02*
X168205952Y-88767619D01*
X168205952Y-88767619D02*
X168110714Y-88767619D01*
X168920238Y-87862857D02*
X168967857Y-87815238D01*
X168967857Y-87815238D02*
X169063095Y-87767619D01*
X169063095Y-87767619D02*
X169301190Y-87767619D01*
X169301190Y-87767619D02*
X169396428Y-87815238D01*
X169396428Y-87815238D02*
X169444047Y-87862857D01*
X169444047Y-87862857D02*
X169491666Y-87958095D01*
X169491666Y-87958095D02*
X169491666Y-88053333D01*
X169491666Y-88053333D02*
X169444047Y-88196190D01*
X169444047Y-88196190D02*
X168872619Y-88767619D01*
X168872619Y-88767619D02*
X169491666Y-88767619D01*
%TO.C,H4*%
X132313095Y-147787619D02*
X132313095Y-146787619D01*
X132313095Y-147263809D02*
X132884523Y-147263809D01*
X132884523Y-147787619D02*
X132884523Y-146787619D01*
X133789285Y-147120952D02*
X133789285Y-147787619D01*
X133551190Y-146740000D02*
X133313095Y-147454285D01*
X133313095Y-147454285D02*
X133932142Y-147454285D01*
%TO.C,J3*%
X182761666Y-87767619D02*
X182761666Y-88481904D01*
X182761666Y-88481904D02*
X182714047Y-88624761D01*
X182714047Y-88624761D02*
X182618809Y-88720000D01*
X182618809Y-88720000D02*
X182475952Y-88767619D01*
X182475952Y-88767619D02*
X182380714Y-88767619D01*
X183142619Y-87767619D02*
X183761666Y-87767619D01*
X183761666Y-87767619D02*
X183428333Y-88148571D01*
X183428333Y-88148571D02*
X183571190Y-88148571D01*
X183571190Y-88148571D02*
X183666428Y-88196190D01*
X183666428Y-88196190D02*
X183714047Y-88243809D01*
X183714047Y-88243809D02*
X183761666Y-88339047D01*
X183761666Y-88339047D02*
X183761666Y-88577142D01*
X183761666Y-88577142D02*
X183714047Y-88672380D01*
X183714047Y-88672380D02*
X183666428Y-88720000D01*
X183666428Y-88720000D02*
X183571190Y-88767619D01*
X183571190Y-88767619D02*
X183285476Y-88767619D01*
X183285476Y-88767619D02*
X183190238Y-88720000D01*
X183190238Y-88720000D02*
X183142619Y-88672380D01*
D12*
%TO.C,PRG1*%
X111005000Y-87495000D02*
X111005000Y-88825000D01*
X109675000Y-87495000D02*
X111005000Y-87495000D01*
X108405000Y-87495000D02*
X100725000Y-87495000D01*
X108405000Y-87495000D02*
X108405000Y-90155000D01*
X100725000Y-87495000D02*
X100725000Y-90155000D01*
X108405000Y-90155000D02*
X100725000Y-90155000D01*
D10*
%TO.C,SW6*%
X149600000Y-108900000D02*
X149600000Y-109900000D01*
X149600000Y-95900000D02*
X149600000Y-96900000D01*
X149600000Y-95900000D02*
X148600000Y-95900000D01*
X148600000Y-109900000D02*
X149600000Y-109900000D01*
X136600000Y-95900000D02*
X135600000Y-95900000D01*
X135600000Y-109900000D02*
X136600000Y-109900000D01*
X135600000Y-109900000D02*
X135600000Y-108900000D01*
X135600000Y-96900000D02*
X135600000Y-95900000D01*
%TO.C,SW9*%
X92450000Y-127950000D02*
X92450000Y-128950000D01*
X92450000Y-114950000D02*
X92450000Y-115950000D01*
X92450000Y-114950000D02*
X91450000Y-114950000D01*
X91450000Y-128950000D02*
X92450000Y-128950000D01*
X79450000Y-114950000D02*
X78450000Y-114950000D01*
X78450000Y-128950000D02*
X79450000Y-128950000D01*
X78450000Y-128950000D02*
X78450000Y-127950000D01*
X78450000Y-115950000D02*
X78450000Y-114950000D01*
%TO.C,SW20*%
X73400000Y-166050000D02*
X73400000Y-167050000D01*
X73400000Y-153050000D02*
X73400000Y-154050000D01*
X73400000Y-153050000D02*
X72400000Y-153050000D01*
X72400000Y-167050000D02*
X73400000Y-167050000D01*
X60400000Y-153050000D02*
X59400000Y-153050000D01*
X59400000Y-167050000D02*
X60400000Y-167050000D01*
X59400000Y-167050000D02*
X59400000Y-166050000D01*
X59400000Y-154050000D02*
X59400000Y-153050000D01*
%TO.C,SW19*%
X54350000Y-166050000D02*
X54350000Y-167050000D01*
X54350000Y-153050000D02*
X54350000Y-154050000D01*
X54350000Y-153050000D02*
X53350000Y-153050000D01*
X53350000Y-167050000D02*
X54350000Y-167050000D01*
X41350000Y-153050000D02*
X40350000Y-153050000D01*
X40350000Y-167050000D02*
X41350000Y-167050000D01*
X40350000Y-167050000D02*
X40350000Y-166050000D01*
X40350000Y-154050000D02*
X40350000Y-153050000D01*
%TO.C,SW5*%
X130550000Y-108900000D02*
X130550000Y-109900000D01*
X130550000Y-95900000D02*
X130550000Y-96900000D01*
X130550000Y-95900000D02*
X129550000Y-95900000D01*
X129550000Y-109900000D02*
X130550000Y-109900000D01*
X117550000Y-95900000D02*
X116550000Y-95900000D01*
X116550000Y-109900000D02*
X117550000Y-109900000D01*
X116550000Y-109900000D02*
X116550000Y-108900000D01*
X116550000Y-96900000D02*
X116550000Y-95900000D01*
%TO.C,SW12*%
X149600000Y-127950000D02*
X149600000Y-128950000D01*
X149600000Y-114950000D02*
X149600000Y-115950000D01*
X149600000Y-114950000D02*
X148600000Y-114950000D01*
X148600000Y-128950000D02*
X149600000Y-128950000D01*
X136600000Y-114950000D02*
X135600000Y-114950000D01*
X135600000Y-128950000D02*
X136600000Y-128950000D01*
X135600000Y-128950000D02*
X135600000Y-127950000D01*
X135600000Y-115950000D02*
X135600000Y-114950000D01*
%TO.C,SW2*%
X73400000Y-108900000D02*
X73400000Y-109900000D01*
X73400000Y-95900000D02*
X73400000Y-96900000D01*
X73400000Y-95900000D02*
X72400000Y-95900000D01*
X72400000Y-109900000D02*
X73400000Y-109900000D01*
X60400000Y-95900000D02*
X59400000Y-95900000D01*
X59400000Y-109900000D02*
X60400000Y-109900000D01*
X59400000Y-109900000D02*
X59400000Y-108900000D01*
X59400000Y-96900000D02*
X59400000Y-95900000D01*
%TO.C,SW4*%
X111500000Y-108900000D02*
X111500000Y-109900000D01*
X111500000Y-95900000D02*
X111500000Y-96900000D01*
X111500000Y-95900000D02*
X110500000Y-95900000D01*
X110500000Y-109900000D02*
X111500000Y-109900000D01*
X98500000Y-95900000D02*
X97500000Y-95900000D01*
X97500000Y-109900000D02*
X98500000Y-109900000D01*
X97500000Y-109900000D02*
X97500000Y-108900000D01*
X97500000Y-96900000D02*
X97500000Y-95900000D01*
%TO.C,SW7*%
X54350000Y-127950000D02*
X54350000Y-128950000D01*
X54350000Y-114950000D02*
X54350000Y-115950000D01*
X54350000Y-114950000D02*
X53350000Y-114950000D01*
X53350000Y-128950000D02*
X54350000Y-128950000D01*
X41350000Y-114950000D02*
X40350000Y-114950000D01*
X40350000Y-128950000D02*
X41350000Y-128950000D01*
X40350000Y-128950000D02*
X40350000Y-127950000D01*
X40350000Y-115950000D02*
X40350000Y-114950000D01*
D12*
%TO.C,J1*%
X154645000Y-92345000D02*
X154645000Y-115265000D01*
X154645000Y-92345000D02*
X157305000Y-92345000D01*
X154645000Y-115265000D02*
X157305000Y-115265000D01*
X155975000Y-89745000D02*
X157305000Y-89745000D01*
X157305000Y-89745000D02*
X157305000Y-91075000D01*
X157305000Y-92345000D02*
X157305000Y-115265000D01*
%TO.C,CHG1*%
X84755000Y-87495000D02*
X84755000Y-88825000D01*
X83425000Y-87495000D02*
X84755000Y-87495000D01*
X82155000Y-87495000D02*
X74475000Y-87495000D01*
X82155000Y-87495000D02*
X82155000Y-90155000D01*
X74475000Y-87495000D02*
X74475000Y-90155000D01*
X82155000Y-90155000D02*
X74475000Y-90155000D01*
D10*
%TO.C,SW22*%
X111500000Y-166050000D02*
X111500000Y-167050000D01*
X111500000Y-153050000D02*
X111500000Y-154050000D01*
X111500000Y-153050000D02*
X110500000Y-153050000D01*
X110500000Y-167050000D02*
X111500000Y-167050000D01*
X98500000Y-153050000D02*
X97500000Y-153050000D01*
X97500000Y-167050000D02*
X98500000Y-167050000D01*
X97500000Y-167050000D02*
X97500000Y-166050000D01*
X97500000Y-154050000D02*
X97500000Y-153050000D01*
D12*
%TO.C,J2*%
X167495000Y-92345000D02*
X167495000Y-115265000D01*
X167495000Y-92345000D02*
X170155000Y-92345000D01*
X167495000Y-115265000D02*
X170155000Y-115265000D01*
X168825000Y-89745000D02*
X170155000Y-89745000D01*
X170155000Y-89745000D02*
X170155000Y-91075000D01*
X170155000Y-92345000D02*
X170155000Y-115265000D01*
D10*
%TO.C,SW21*%
X92450000Y-166050000D02*
X92450000Y-167050000D01*
X92450000Y-153050000D02*
X92450000Y-154050000D01*
X92450000Y-153050000D02*
X91450000Y-153050000D01*
X91450000Y-167050000D02*
X92450000Y-167050000D01*
X79450000Y-153050000D02*
X78450000Y-153050000D01*
X78450000Y-167050000D02*
X79450000Y-167050000D01*
X78450000Y-167050000D02*
X78450000Y-166050000D01*
X78450000Y-154050000D02*
X78450000Y-153050000D01*
%TO.C,SW18*%
X149600000Y-147000000D02*
X149600000Y-148000000D01*
X149600000Y-134000000D02*
X149600000Y-135000000D01*
X149600000Y-134000000D02*
X148600000Y-134000000D01*
X148600000Y-148000000D02*
X149600000Y-148000000D01*
X136600000Y-134000000D02*
X135600000Y-134000000D01*
X135600000Y-148000000D02*
X136600000Y-148000000D01*
X135600000Y-148000000D02*
X135600000Y-147000000D01*
X135600000Y-135000000D02*
X135600000Y-134000000D01*
%TO.C,SW13*%
X54350000Y-147000000D02*
X54350000Y-148000000D01*
X54350000Y-134000000D02*
X54350000Y-135000000D01*
X54350000Y-134000000D02*
X53350000Y-134000000D01*
X53350000Y-148000000D02*
X54350000Y-148000000D01*
X41350000Y-134000000D02*
X40350000Y-134000000D01*
X40350000Y-148000000D02*
X41350000Y-148000000D01*
X40350000Y-148000000D02*
X40350000Y-147000000D01*
X40350000Y-135000000D02*
X40350000Y-134000000D01*
%TO.C,SW23*%
X130550000Y-166050000D02*
X130550000Y-167050000D01*
X130550000Y-153050000D02*
X130550000Y-154050000D01*
X130550000Y-153050000D02*
X129550000Y-153050000D01*
X129550000Y-167050000D02*
X130550000Y-167050000D01*
X117550000Y-153050000D02*
X116550000Y-153050000D01*
X116550000Y-167050000D02*
X117550000Y-167050000D01*
X116550000Y-167050000D02*
X116550000Y-166050000D01*
X116550000Y-154050000D02*
X116550000Y-153050000D01*
%TO.C,SW24*%
X149600000Y-166050000D02*
X149600000Y-167050000D01*
X149600000Y-153050000D02*
X149600000Y-154050000D01*
X149600000Y-153050000D02*
X148600000Y-153050000D01*
X148600000Y-167050000D02*
X149600000Y-167050000D01*
X136600000Y-153050000D02*
X135600000Y-153050000D01*
X135600000Y-167050000D02*
X136600000Y-167050000D01*
X135600000Y-167050000D02*
X135600000Y-166050000D01*
X135600000Y-154050000D02*
X135600000Y-153050000D01*
%TO.C,SW14*%
X73400000Y-147000000D02*
X73400000Y-148000000D01*
X73400000Y-134000000D02*
X73400000Y-135000000D01*
X73400000Y-134000000D02*
X72400000Y-134000000D01*
X72400000Y-148000000D02*
X73400000Y-148000000D01*
X60400000Y-134000000D02*
X59400000Y-134000000D01*
X59400000Y-148000000D02*
X60400000Y-148000000D01*
X59400000Y-148000000D02*
X59400000Y-147000000D01*
X59400000Y-135000000D02*
X59400000Y-134000000D01*
%TO.C,SW16*%
X111500000Y-147000000D02*
X111500000Y-148000000D01*
X111500000Y-134000000D02*
X111500000Y-135000000D01*
X111500000Y-134000000D02*
X110500000Y-134000000D01*
X110500000Y-148000000D02*
X111500000Y-148000000D01*
X98500000Y-134000000D02*
X97500000Y-134000000D01*
X97500000Y-148000000D02*
X98500000Y-148000000D01*
X97500000Y-148000000D02*
X97500000Y-147000000D01*
X97500000Y-135000000D02*
X97500000Y-134000000D01*
%TO.C,SW10*%
X111500000Y-127950000D02*
X111500000Y-128950000D01*
X111500000Y-114950000D02*
X111500000Y-115950000D01*
X111500000Y-114950000D02*
X110500000Y-114950000D01*
X110500000Y-128950000D02*
X111500000Y-128950000D01*
X98500000Y-114950000D02*
X97500000Y-114950000D01*
X97500000Y-128950000D02*
X98500000Y-128950000D01*
X97500000Y-128950000D02*
X97500000Y-127950000D01*
X97500000Y-115950000D02*
X97500000Y-114950000D01*
%TO.C,SW1*%
X54350000Y-108900000D02*
X54350000Y-109900000D01*
X54350000Y-95900000D02*
X54350000Y-96900000D01*
X54350000Y-95900000D02*
X53350000Y-95900000D01*
X53350000Y-109900000D02*
X54350000Y-109900000D01*
X41350000Y-95900000D02*
X40350000Y-95900000D01*
X40350000Y-109900000D02*
X41350000Y-109900000D01*
X40350000Y-109900000D02*
X40350000Y-108900000D01*
X40350000Y-96900000D02*
X40350000Y-95900000D01*
%TO.C,SW15*%
X92450000Y-147000000D02*
X92450000Y-148000000D01*
X92450000Y-134000000D02*
X92450000Y-135000000D01*
X92450000Y-134000000D02*
X91450000Y-134000000D01*
X91450000Y-148000000D02*
X92450000Y-148000000D01*
X79450000Y-134000000D02*
X78450000Y-134000000D01*
X78450000Y-148000000D02*
X79450000Y-148000000D01*
X78450000Y-148000000D02*
X78450000Y-147000000D01*
X78450000Y-135000000D02*
X78450000Y-134000000D01*
%TO.C,SW8*%
X73400000Y-127950000D02*
X73400000Y-128950000D01*
X73400000Y-114950000D02*
X73400000Y-115950000D01*
X73400000Y-114950000D02*
X72400000Y-114950000D01*
X72400000Y-128950000D02*
X73400000Y-128950000D01*
X60400000Y-114950000D02*
X59400000Y-114950000D01*
X59400000Y-128950000D02*
X60400000Y-128950000D01*
X59400000Y-128950000D02*
X59400000Y-127950000D01*
X59400000Y-115950000D02*
X59400000Y-114950000D01*
D12*
%TO.C,J3*%
X180495000Y-89745000D02*
X180495000Y-120345000D01*
X180495000Y-89745000D02*
X183095000Y-89745000D01*
X180495000Y-120345000D02*
X185695000Y-120345000D01*
X183095000Y-89745000D02*
X183095000Y-92345000D01*
X183095000Y-92345000D02*
X185695000Y-92345000D01*
X184365000Y-89745000D02*
X185695000Y-89745000D01*
X185695000Y-89745000D02*
X185695000Y-91075000D01*
X185695000Y-92345000D02*
X185695000Y-120345000D01*
D10*
%TO.C,SW3*%
X92450000Y-108900000D02*
X92450000Y-109900000D01*
X92450000Y-95900000D02*
X92450000Y-96900000D01*
X92450000Y-95900000D02*
X91450000Y-95900000D01*
X91450000Y-109900000D02*
X92450000Y-109900000D01*
X79450000Y-95900000D02*
X78450000Y-95900000D01*
X78450000Y-109900000D02*
X79450000Y-109900000D01*
X78450000Y-109900000D02*
X78450000Y-108900000D01*
X78450000Y-96900000D02*
X78450000Y-95900000D01*
%TO.C,SW17*%
X130550000Y-147000000D02*
X130550000Y-148000000D01*
X130550000Y-134000000D02*
X130550000Y-135000000D01*
X130550000Y-134000000D02*
X129550000Y-134000000D01*
X129550000Y-148000000D02*
X130550000Y-148000000D01*
X117550000Y-134000000D02*
X116550000Y-134000000D01*
X116550000Y-148000000D02*
X117550000Y-148000000D01*
X116550000Y-148000000D02*
X116550000Y-147000000D01*
X116550000Y-135000000D02*
X116550000Y-134000000D01*
%TO.C,SW11*%
X130550000Y-127950000D02*
X130550000Y-128950000D01*
X130550000Y-114950000D02*
X130550000Y-115950000D01*
X130550000Y-114950000D02*
X129550000Y-114950000D01*
X129550000Y-128950000D02*
X130550000Y-128950000D01*
X117550000Y-114950000D02*
X116550000Y-114950000D01*
X116550000Y-128950000D02*
X117550000Y-128950000D01*
X116550000Y-128950000D02*
X116550000Y-127950000D01*
X116550000Y-115950000D02*
X116550000Y-114950000D01*
%TD*%
M02*
