%TF.GenerationSoftware,KiCad,Pcbnew,7.0.1*%
%TF.CreationDate,2023-05-06T18:31:28+10:00*%
%TF.ProjectId,switch_grid_test,73776974-6368-45f6-9772-69645f746573,rev?*%
%TF.SameCoordinates,Original*%
%TF.FileFunction,Paste,Bot*%
%TF.FilePolarity,Positive*%
%FSLAX46Y46*%
G04 Gerber Fmt 4.6, Leading zero omitted, Abs format (unit mm)*
G04 Created by KiCad (PCBNEW 7.0.1) date 2023-05-06 18:31:28*
%MOMM*%
%LPD*%
G01*
G04 APERTURE LIST*
G04 Aperture macros list*
%AMRoundRect*
0 Rectangle with rounded corners*
0 $1 Rounding radius*
0 $2 $3 $4 $5 $6 $7 $8 $9 X,Y pos of 4 corners*
0 Add a 4 corners polygon primitive as box body*
4,1,4,$2,$3,$4,$5,$6,$7,$8,$9,$2,$3,0*
0 Add four circle primitives for the rounded corners*
1,1,$1+$1,$2,$3*
1,1,$1+$1,$4,$5*
1,1,$1+$1,$6,$7*
1,1,$1+$1,$8,$9*
0 Add four rect primitives between the rounded corners*
20,1,$1+$1,$2,$3,$4,$5,0*
20,1,$1+$1,$4,$5,$6,$7,0*
20,1,$1+$1,$6,$7,$8,$9,0*
20,1,$1+$1,$8,$9,$2,$3,0*%
G04 Aperture macros list end*
%ADD10R,2.550000X2.500000*%
%ADD11RoundRect,0.112500X-0.187500X-0.112500X0.187500X-0.112500X0.187500X0.112500X-0.187500X0.112500X0*%
%ADD12RoundRect,0.225000X0.918000X0.225000X-0.918000X0.225000X-0.918000X-0.225000X0.918000X-0.225000X0*%
%ADD13RoundRect,0.225000X0.225000X-0.918000X0.225000X0.918000X-0.225000X0.918000X-0.225000X-0.918000X0*%
%ADD14RoundRect,0.225000X-0.918000X-0.225000X0.918000X-0.225000X0.918000X0.225000X-0.918000X0.225000X0*%
%ADD15C,15.000000*%
G04 APERTURE END LIST*
D10*
%TO.C,SW6*%
X136310000Y-107980000D03*
X150160000Y-105440000D03*
%TD*%
%TO.C,SW9*%
X79160000Y-127030000D03*
X93010000Y-124490000D03*
%TD*%
%TO.C,SW20*%
X60110000Y-165130000D03*
X73960000Y-162590000D03*
%TD*%
%TO.C,SW19*%
X41060000Y-165130000D03*
X54910000Y-162590000D03*
%TD*%
%TO.C,SW5*%
X117260000Y-107980000D03*
X131110000Y-105440000D03*
%TD*%
%TO.C,SW12*%
X136310000Y-127030000D03*
X150160000Y-124490000D03*
%TD*%
%TO.C,SW2*%
X60110000Y-107980000D03*
X73960000Y-105440000D03*
%TD*%
%TO.C,SW4*%
X98210000Y-107980000D03*
X112060000Y-105440000D03*
%TD*%
%TO.C,SW7*%
X41060000Y-127030000D03*
X54910000Y-124490000D03*
%TD*%
%TO.C,SW22*%
X98210000Y-165130000D03*
X112060000Y-162590000D03*
%TD*%
%TO.C,SW21*%
X79160000Y-165130000D03*
X93010000Y-162590000D03*
%TD*%
%TO.C,SW18*%
X136310000Y-146080000D03*
X150160000Y-143540000D03*
%TD*%
%TO.C,SW13*%
X41060000Y-146080000D03*
X54910000Y-143540000D03*
%TD*%
%TO.C,SW23*%
X117260000Y-165130000D03*
X131110000Y-162590000D03*
%TD*%
%TO.C,SW24*%
X136310000Y-165130000D03*
X150160000Y-162590000D03*
%TD*%
%TO.C,SW14*%
X60110000Y-146080000D03*
X73960000Y-143540000D03*
%TD*%
%TO.C,SW16*%
X98210000Y-146080000D03*
X112060000Y-143540000D03*
%TD*%
%TO.C,SW10*%
X98210000Y-127030000D03*
X112060000Y-124490000D03*
%TD*%
%TO.C,SW1*%
X41060000Y-107980000D03*
X54910000Y-105440000D03*
%TD*%
%TO.C,SW15*%
X79160000Y-146080000D03*
X93010000Y-143540000D03*
%TD*%
%TO.C,SW8*%
X60110000Y-127030000D03*
X73960000Y-124490000D03*
%TD*%
%TO.C,SW3*%
X79160000Y-107980000D03*
X93010000Y-105440000D03*
%TD*%
%TO.C,SW17*%
X117260000Y-146080000D03*
X131110000Y-143540000D03*
%TD*%
%TO.C,SW11*%
X117260000Y-127030000D03*
X131110000Y-124490000D03*
%TD*%
D11*
%TO.C,D5*%
X126650000Y-111400000D03*
X128750000Y-111400000D03*
%TD*%
%TO.C,D17*%
X126650000Y-149500000D03*
X128750000Y-149500000D03*
%TD*%
%TO.C,D9*%
X88550000Y-130450000D03*
X90650000Y-130450000D03*
%TD*%
%TO.C,D6*%
X145700000Y-111400000D03*
X147800000Y-111400000D03*
%TD*%
%TO.C,D18*%
X145700000Y-149500000D03*
X147800000Y-149500000D03*
%TD*%
%TO.C,D14*%
X69500000Y-149500000D03*
X71600000Y-149500000D03*
%TD*%
%TO.C,D16*%
X107600000Y-149500000D03*
X109700000Y-149500000D03*
%TD*%
%TO.C,D10*%
X107600000Y-130450000D03*
X109700000Y-130450000D03*
%TD*%
D12*
%TO.C,U1*%
X141000000Y-84553500D03*
X141000000Y-85653500D03*
X141000000Y-86753500D03*
X141000000Y-87853500D03*
X141000000Y-88953500D03*
X141000000Y-90053500D03*
X141000000Y-91153500D03*
X141000000Y-92253500D03*
X141000000Y-93353500D03*
X141000000Y-94453500D03*
X141000000Y-95553500D03*
X141000000Y-96653500D03*
D13*
X138550000Y-99753500D03*
X137450000Y-99753500D03*
X136350000Y-99753500D03*
X135250000Y-99753500D03*
X134150000Y-99753500D03*
X133050000Y-99753500D03*
X131950000Y-99753500D03*
X130850000Y-99753500D03*
X129750000Y-99753500D03*
X128650000Y-99753500D03*
X127550000Y-99753500D03*
X126450000Y-99753500D03*
D14*
X124000000Y-96653500D03*
X124000000Y-95553500D03*
X124000000Y-94453500D03*
X124000000Y-93353500D03*
X124000000Y-92253500D03*
X124000000Y-91153500D03*
X124000000Y-90053500D03*
X124000000Y-88953500D03*
X124000000Y-87853500D03*
X124000000Y-86753500D03*
X124000000Y-85653500D03*
X124000000Y-84553500D03*
%TD*%
D11*
%TO.C,D8*%
X69500000Y-130450000D03*
X71600000Y-130450000D03*
%TD*%
%TO.C,D20*%
X69500000Y-155050000D03*
X71600000Y-155050000D03*
%TD*%
%TO.C,D1*%
X50450000Y-111400000D03*
X52550000Y-111400000D03*
%TD*%
%TO.C,D7*%
X50450000Y-130450000D03*
X52550000Y-130450000D03*
%TD*%
%TO.C,D4*%
X107600000Y-111400000D03*
X109700000Y-111400000D03*
%TD*%
%TO.C,D24*%
X145700000Y-155050000D03*
X147800000Y-155050000D03*
%TD*%
%TO.C,D15*%
X88550000Y-149500000D03*
X90650000Y-149500000D03*
%TD*%
%TO.C,D22*%
X107600000Y-155050000D03*
X109700000Y-155050000D03*
%TD*%
%TO.C,D2*%
X69500000Y-111400000D03*
X71600000Y-111400000D03*
%TD*%
%TO.C,D11*%
X126650000Y-130450000D03*
X128750000Y-130450000D03*
%TD*%
D15*
%TO.C,BT1*%
X56937000Y-92050000D03*
%TD*%
D11*
%TO.C,D21*%
X88550000Y-155050000D03*
X90650000Y-155050000D03*
%TD*%
%TO.C,D19*%
X50450000Y-155050000D03*
X52550000Y-155050000D03*
%TD*%
%TO.C,D13*%
X50450000Y-149500000D03*
X52550000Y-149500000D03*
%TD*%
%TO.C,D12*%
X145700000Y-130450000D03*
X147800000Y-130450000D03*
%TD*%
%TO.C,D3*%
X88550000Y-111400000D03*
X90650000Y-111400000D03*
%TD*%
%TO.C,D23*%
X126650000Y-155050000D03*
X128750000Y-155050000D03*
%TD*%
M02*
