%TF.GenerationSoftware,KiCad,Pcbnew,7.0.1*%
%TF.CreationDate,2023-05-06T18:31:28+10:00*%
%TF.ProjectId,switch_grid_test,73776974-6368-45f6-9772-69645f746573,rev?*%
%TF.SameCoordinates,Original*%
%TF.FileFunction,Soldermask,Bot*%
%TF.FilePolarity,Negative*%
%FSLAX46Y46*%
G04 Gerber Fmt 4.6, Leading zero omitted, Abs format (unit mm)*
G04 Created by KiCad (PCBNEW 7.0.1) date 2023-05-06 18:31:28*
%MOMM*%
%LPD*%
G01*
G04 APERTURE LIST*
G04 Aperture macros list*
%AMRoundRect*
0 Rectangle with rounded corners*
0 $1 Rounding radius*
0 $2 $3 $4 $5 $6 $7 $8 $9 X,Y pos of 4 corners*
0 Add a 4 corners polygon primitive as box body*
4,1,4,$2,$3,$4,$5,$6,$7,$8,$9,$2,$3,0*
0 Add four circle primitives for the rounded corners*
1,1,$1+$1,$2,$3*
1,1,$1+$1,$4,$5*
1,1,$1+$1,$6,$7*
1,1,$1+$1,$8,$9*
0 Add four rect primitives between the rounded corners*
20,1,$1+$1,$2,$3,$4,$5,0*
20,1,$1+$1,$4,$5,$6,$7,0*
20,1,$1+$1,$6,$7,$8,$9,0*
20,1,$1+$1,$8,$9,$2,$3,0*%
G04 Aperture macros list end*
%ADD10R,1.700000X1.700000*%
%ADD11O,1.700000X1.700000*%
%ADD12C,1.701800*%
%ADD13C,3.000000*%
%ADD14C,3.987800*%
%ADD15R,2.550000X2.500000*%
%ADD16C,2.000000*%
%ADD17RoundRect,0.112500X-0.187500X-0.112500X0.187500X-0.112500X0.187500X0.112500X-0.187500X0.112500X0*%
%ADD18RoundRect,0.225000X0.918000X0.225000X-0.918000X0.225000X-0.918000X-0.225000X0.918000X-0.225000X0*%
%ADD19RoundRect,0.225000X0.225000X-0.918000X0.225000X0.918000X-0.225000X0.918000X-0.225000X-0.918000X0*%
%ADD20RoundRect,0.225000X-0.918000X-0.225000X0.918000X-0.225000X0.918000X0.225000X-0.918000X0.225000X0*%
%ADD21C,1.524000*%
%ADD22C,15.000000*%
G04 APERTURE END LIST*
D10*
%TO.C,PRG1*%
X109675000Y-88825000D03*
D11*
X107135000Y-88825000D03*
X104595000Y-88825000D03*
X102055000Y-88825000D03*
%TD*%
D12*
%TO.C,SW6*%
X147680000Y-102900000D03*
D13*
X146410000Y-105440000D03*
D14*
X142600000Y-102900000D03*
D13*
X140060000Y-107980000D03*
D12*
X137520000Y-102900000D03*
D15*
X136310000Y-107980000D03*
X150160000Y-105440000D03*
%TD*%
D12*
%TO.C,SW9*%
X90530000Y-121950000D03*
D13*
X89260000Y-124490000D03*
D14*
X85450000Y-121950000D03*
D13*
X82910000Y-127030000D03*
D12*
X80370000Y-121950000D03*
D15*
X79160000Y-127030000D03*
X93010000Y-124490000D03*
%TD*%
D12*
%TO.C,SW20*%
X71480000Y-160050000D03*
D13*
X70210000Y-162590000D03*
D14*
X66400000Y-160050000D03*
D13*
X63860000Y-165130000D03*
D12*
X61320000Y-160050000D03*
D15*
X60110000Y-165130000D03*
X73960000Y-162590000D03*
%TD*%
D16*
%TO.C,H1*%
X56875000Y-112425000D03*
%TD*%
D12*
%TO.C,SW19*%
X52430000Y-160050000D03*
D13*
X51160000Y-162590000D03*
D14*
X47350000Y-160050000D03*
D13*
X44810000Y-165130000D03*
D12*
X42270000Y-160050000D03*
D15*
X41060000Y-165130000D03*
X54910000Y-162590000D03*
%TD*%
D16*
%TO.C,H5*%
X94975000Y-131475000D03*
%TD*%
D12*
%TO.C,SW5*%
X128630000Y-102900000D03*
D13*
X127360000Y-105440000D03*
D14*
X123550000Y-102900000D03*
D13*
X121010000Y-107980000D03*
D12*
X118470000Y-102900000D03*
D15*
X117260000Y-107980000D03*
X131110000Y-105440000D03*
%TD*%
D12*
%TO.C,SW12*%
X147680000Y-121950000D03*
D13*
X146410000Y-124490000D03*
D14*
X142600000Y-121950000D03*
D13*
X140060000Y-127030000D03*
D12*
X137520000Y-121950000D03*
D15*
X136310000Y-127030000D03*
X150160000Y-124490000D03*
%TD*%
D16*
%TO.C,H3*%
X56875000Y-150525000D03*
%TD*%
D12*
%TO.C,SW2*%
X71480000Y-102900000D03*
D13*
X70210000Y-105440000D03*
D14*
X66400000Y-102900000D03*
D13*
X63860000Y-107980000D03*
D12*
X61320000Y-102900000D03*
D15*
X60110000Y-107980000D03*
X73960000Y-105440000D03*
%TD*%
D16*
%TO.C,H2*%
X133075000Y-112425000D03*
%TD*%
D12*
%TO.C,SW4*%
X109580000Y-102900000D03*
D13*
X108310000Y-105440000D03*
D14*
X104500000Y-102900000D03*
D13*
X101960000Y-107980000D03*
D12*
X99420000Y-102900000D03*
D15*
X98210000Y-107980000D03*
X112060000Y-105440000D03*
%TD*%
D12*
%TO.C,SW7*%
X52430000Y-121950000D03*
D13*
X51160000Y-124490000D03*
D14*
X47350000Y-121950000D03*
D13*
X44810000Y-127030000D03*
D12*
X42270000Y-121950000D03*
D15*
X41060000Y-127030000D03*
X54910000Y-124490000D03*
%TD*%
D10*
%TO.C,J1*%
X155975000Y-91075000D03*
D11*
X155975000Y-93615000D03*
X155975000Y-96155000D03*
X155975000Y-98695000D03*
X155975000Y-101235000D03*
X155975000Y-103775000D03*
X155975000Y-106315000D03*
X155975000Y-108855000D03*
X155975000Y-111395000D03*
X155975000Y-113935000D03*
%TD*%
D10*
%TO.C,CHG1*%
X83425000Y-88825000D03*
D11*
X80885000Y-88825000D03*
X78345000Y-88825000D03*
X75805000Y-88825000D03*
%TD*%
D12*
%TO.C,SW22*%
X109580000Y-160050000D03*
D13*
X108310000Y-162590000D03*
D14*
X104500000Y-160050000D03*
D13*
X101960000Y-165130000D03*
D12*
X99420000Y-160050000D03*
D15*
X98210000Y-165130000D03*
X112060000Y-162590000D03*
%TD*%
D10*
%TO.C,J2*%
X168825000Y-91075000D03*
D11*
X168825000Y-93615000D03*
X168825000Y-96155000D03*
X168825000Y-98695000D03*
X168825000Y-101235000D03*
X168825000Y-103775000D03*
X168825000Y-106315000D03*
X168825000Y-108855000D03*
X168825000Y-111395000D03*
X168825000Y-113935000D03*
%TD*%
D12*
%TO.C,SW21*%
X90530000Y-160050000D03*
D13*
X89260000Y-162590000D03*
D14*
X85450000Y-160050000D03*
D13*
X82910000Y-165130000D03*
D12*
X80370000Y-160050000D03*
D15*
X79160000Y-165130000D03*
X93010000Y-162590000D03*
%TD*%
D12*
%TO.C,SW18*%
X147680000Y-141000000D03*
D13*
X146410000Y-143540000D03*
D14*
X142600000Y-141000000D03*
D13*
X140060000Y-146080000D03*
D12*
X137520000Y-141000000D03*
D15*
X136310000Y-146080000D03*
X150160000Y-143540000D03*
%TD*%
D12*
%TO.C,SW13*%
X52430000Y-141000000D03*
D13*
X51160000Y-143540000D03*
D14*
X47350000Y-141000000D03*
D13*
X44810000Y-146080000D03*
D12*
X42270000Y-141000000D03*
D15*
X41060000Y-146080000D03*
X54910000Y-143540000D03*
%TD*%
D12*
%TO.C,SW23*%
X128630000Y-160050000D03*
D13*
X127360000Y-162590000D03*
D14*
X123550000Y-160050000D03*
D13*
X121010000Y-165130000D03*
D12*
X118470000Y-160050000D03*
D15*
X117260000Y-165130000D03*
X131110000Y-162590000D03*
%TD*%
D12*
%TO.C,SW24*%
X147680000Y-160050000D03*
D13*
X146410000Y-162590000D03*
D14*
X142600000Y-160050000D03*
D13*
X140060000Y-165130000D03*
D12*
X137520000Y-160050000D03*
D15*
X136310000Y-165130000D03*
X150160000Y-162590000D03*
%TD*%
D12*
%TO.C,SW14*%
X71480000Y-141000000D03*
D13*
X70210000Y-143540000D03*
D14*
X66400000Y-141000000D03*
D13*
X63860000Y-146080000D03*
D12*
X61320000Y-141000000D03*
D15*
X60110000Y-146080000D03*
X73960000Y-143540000D03*
%TD*%
D12*
%TO.C,SW16*%
X109580000Y-141000000D03*
D13*
X108310000Y-143540000D03*
D14*
X104500000Y-141000000D03*
D13*
X101960000Y-146080000D03*
D12*
X99420000Y-141000000D03*
D15*
X98210000Y-146080000D03*
X112060000Y-143540000D03*
%TD*%
D12*
%TO.C,SW10*%
X109580000Y-121950000D03*
D13*
X108310000Y-124490000D03*
D14*
X104500000Y-121950000D03*
D13*
X101960000Y-127030000D03*
D12*
X99420000Y-121950000D03*
D15*
X98210000Y-127030000D03*
X112060000Y-124490000D03*
%TD*%
D12*
%TO.C,SW1*%
X52430000Y-102900000D03*
D13*
X51160000Y-105440000D03*
D14*
X47350000Y-102900000D03*
D13*
X44810000Y-107980000D03*
D12*
X42270000Y-102900000D03*
D15*
X41060000Y-107980000D03*
X54910000Y-105440000D03*
%TD*%
D12*
%TO.C,SW15*%
X90530000Y-141000000D03*
D13*
X89260000Y-143540000D03*
D14*
X85450000Y-141000000D03*
D13*
X82910000Y-146080000D03*
D12*
X80370000Y-141000000D03*
D15*
X79160000Y-146080000D03*
X93010000Y-143540000D03*
%TD*%
D16*
%TO.C,H4*%
X133075000Y-150525000D03*
%TD*%
D12*
%TO.C,SW8*%
X71480000Y-121950000D03*
D13*
X70210000Y-124490000D03*
D14*
X66400000Y-121950000D03*
D13*
X63860000Y-127030000D03*
D12*
X61320000Y-121950000D03*
D15*
X60110000Y-127030000D03*
X73960000Y-124490000D03*
%TD*%
D10*
%TO.C,J3*%
X184365000Y-91075000D03*
D11*
X181825000Y-91075000D03*
X184365000Y-93615000D03*
X181825000Y-93615000D03*
X184365000Y-96155000D03*
X181825000Y-96155000D03*
X184365000Y-98695000D03*
X181825000Y-98695000D03*
X184365000Y-101235000D03*
X181825000Y-101235000D03*
X184365000Y-103775000D03*
X181825000Y-103775000D03*
X184365000Y-106315000D03*
X181825000Y-106315000D03*
X184365000Y-108855000D03*
X181825000Y-108855000D03*
X184365000Y-111395000D03*
X181825000Y-111395000D03*
X184365000Y-113935000D03*
X181825000Y-113935000D03*
X184365000Y-116475000D03*
X181825000Y-116475000D03*
X184365000Y-119015000D03*
X181825000Y-119015000D03*
%TD*%
D12*
%TO.C,SW3*%
X90530000Y-102900000D03*
D13*
X89260000Y-105440000D03*
D14*
X85450000Y-102900000D03*
D13*
X82910000Y-107980000D03*
D12*
X80370000Y-102900000D03*
D15*
X79160000Y-107980000D03*
X93010000Y-105440000D03*
%TD*%
D12*
%TO.C,SW17*%
X128630000Y-141000000D03*
D13*
X127360000Y-143540000D03*
D14*
X123550000Y-141000000D03*
D13*
X121010000Y-146080000D03*
D12*
X118470000Y-141000000D03*
D15*
X117260000Y-146080000D03*
X131110000Y-143540000D03*
%TD*%
D12*
%TO.C,SW11*%
X128630000Y-121950000D03*
D13*
X127360000Y-124490000D03*
D14*
X123550000Y-121950000D03*
D13*
X121010000Y-127030000D03*
D12*
X118470000Y-121950000D03*
D15*
X117260000Y-127030000D03*
X131110000Y-124490000D03*
%TD*%
D17*
%TO.C,D5*%
X126650000Y-111400000D03*
X128750000Y-111400000D03*
%TD*%
%TO.C,D17*%
X126650000Y-149500000D03*
X128750000Y-149500000D03*
%TD*%
%TO.C,D9*%
X88550000Y-130450000D03*
X90650000Y-130450000D03*
%TD*%
%TO.C,D6*%
X145700000Y-111400000D03*
X147800000Y-111400000D03*
%TD*%
%TO.C,D18*%
X145700000Y-149500000D03*
X147800000Y-149500000D03*
%TD*%
%TO.C,D14*%
X69500000Y-149500000D03*
X71600000Y-149500000D03*
%TD*%
%TO.C,D16*%
X107600000Y-149500000D03*
X109700000Y-149500000D03*
%TD*%
%TO.C,D10*%
X107600000Y-130450000D03*
X109700000Y-130450000D03*
%TD*%
D18*
%TO.C,U1*%
X141000000Y-84553500D03*
X141000000Y-85653500D03*
X141000000Y-86753500D03*
X141000000Y-87853500D03*
X141000000Y-88953500D03*
X141000000Y-90053500D03*
X141000000Y-91153500D03*
X141000000Y-92253500D03*
X141000000Y-93353500D03*
X141000000Y-94453500D03*
X141000000Y-95553500D03*
X141000000Y-96653500D03*
D19*
X138550000Y-99753500D03*
X137450000Y-99753500D03*
X136350000Y-99753500D03*
X135250000Y-99753500D03*
X134150000Y-99753500D03*
X133050000Y-99753500D03*
X131950000Y-99753500D03*
X130850000Y-99753500D03*
X129750000Y-99753500D03*
X128650000Y-99753500D03*
X127550000Y-99753500D03*
X126450000Y-99753500D03*
D20*
X124000000Y-96653500D03*
X124000000Y-95553500D03*
X124000000Y-94453500D03*
X124000000Y-93353500D03*
X124000000Y-92253500D03*
X124000000Y-91153500D03*
X124000000Y-90053500D03*
X124000000Y-88953500D03*
X124000000Y-87853500D03*
X124000000Y-86753500D03*
X124000000Y-85653500D03*
X124000000Y-84553500D03*
%TD*%
D17*
%TO.C,D8*%
X69500000Y-130450000D03*
X71600000Y-130450000D03*
%TD*%
%TO.C,D20*%
X69500000Y-155050000D03*
X71600000Y-155050000D03*
%TD*%
%TO.C,D1*%
X50450000Y-111400000D03*
X52550000Y-111400000D03*
%TD*%
%TO.C,D7*%
X50450000Y-130450000D03*
X52550000Y-130450000D03*
%TD*%
%TO.C,D4*%
X107600000Y-111400000D03*
X109700000Y-111400000D03*
%TD*%
%TO.C,D24*%
X145700000Y-155050000D03*
X147800000Y-155050000D03*
%TD*%
%TO.C,D15*%
X88550000Y-149500000D03*
X90650000Y-149500000D03*
%TD*%
%TO.C,D22*%
X107600000Y-155050000D03*
X109700000Y-155050000D03*
%TD*%
%TO.C,D2*%
X69500000Y-111400000D03*
X71600000Y-111400000D03*
%TD*%
%TO.C,D11*%
X126650000Y-130450000D03*
X128750000Y-130450000D03*
%TD*%
D21*
%TO.C,BT1*%
X46512000Y-90500000D03*
X46512000Y-93600000D03*
X67362000Y-90500000D03*
X67362000Y-93600000D03*
D22*
X56937000Y-92050000D03*
%TD*%
D17*
%TO.C,D21*%
X88550000Y-155050000D03*
X90650000Y-155050000D03*
%TD*%
%TO.C,D19*%
X50450000Y-155050000D03*
X52550000Y-155050000D03*
%TD*%
%TO.C,D13*%
X50450000Y-149500000D03*
X52550000Y-149500000D03*
%TD*%
%TO.C,D12*%
X145700000Y-130450000D03*
X147800000Y-130450000D03*
%TD*%
%TO.C,D3*%
X88550000Y-111400000D03*
X90650000Y-111400000D03*
%TD*%
%TO.C,D23*%
X126650000Y-155050000D03*
X128750000Y-155050000D03*
%TD*%
M02*
