%TF.GenerationSoftware,KiCad,Pcbnew,7.0.1*%
%TF.CreationDate,2023-05-06T18:31:28+10:00*%
%TF.ProjectId,switch_grid_test,73776974-6368-45f6-9772-69645f746573,rev?*%
%TF.SameCoordinates,Original*%
%TF.FileFunction,Legend,Bot*%
%TF.FilePolarity,Positive*%
%FSLAX46Y46*%
G04 Gerber Fmt 4.6, Leading zero omitted, Abs format (unit mm)*
G04 Created by KiCad (PCBNEW 7.0.1) date 2023-05-06 18:31:28*
%MOMM*%
%LPD*%
G01*
G04 APERTURE LIST*
%ADD10C,0.150000*%
%ADD11C,0.100000*%
%ADD12C,0.120000*%
G04 APERTURE END LIST*
D10*
%TO.C,SW6*%
X143933332Y-111570000D02*
X143790475Y-111617619D01*
X143790475Y-111617619D02*
X143552380Y-111617619D01*
X143552380Y-111617619D02*
X143457142Y-111570000D01*
X143457142Y-111570000D02*
X143409523Y-111522380D01*
X143409523Y-111522380D02*
X143361904Y-111427142D01*
X143361904Y-111427142D02*
X143361904Y-111331904D01*
X143361904Y-111331904D02*
X143409523Y-111236666D01*
X143409523Y-111236666D02*
X143457142Y-111189047D01*
X143457142Y-111189047D02*
X143552380Y-111141428D01*
X143552380Y-111141428D02*
X143742856Y-111093809D01*
X143742856Y-111093809D02*
X143838094Y-111046190D01*
X143838094Y-111046190D02*
X143885713Y-110998571D01*
X143885713Y-110998571D02*
X143933332Y-110903333D01*
X143933332Y-110903333D02*
X143933332Y-110808095D01*
X143933332Y-110808095D02*
X143885713Y-110712857D01*
X143885713Y-110712857D02*
X143838094Y-110665238D01*
X143838094Y-110665238D02*
X143742856Y-110617619D01*
X143742856Y-110617619D02*
X143504761Y-110617619D01*
X143504761Y-110617619D02*
X143361904Y-110665238D01*
X143028570Y-110617619D02*
X142790475Y-111617619D01*
X142790475Y-111617619D02*
X142599999Y-110903333D01*
X142599999Y-110903333D02*
X142409523Y-111617619D01*
X142409523Y-111617619D02*
X142171428Y-110617619D01*
X141361904Y-110617619D02*
X141552380Y-110617619D01*
X141552380Y-110617619D02*
X141647618Y-110665238D01*
X141647618Y-110665238D02*
X141695237Y-110712857D01*
X141695237Y-110712857D02*
X141790475Y-110855714D01*
X141790475Y-110855714D02*
X141838094Y-111046190D01*
X141838094Y-111046190D02*
X141838094Y-111427142D01*
X141838094Y-111427142D02*
X141790475Y-111522380D01*
X141790475Y-111522380D02*
X141742856Y-111570000D01*
X141742856Y-111570000D02*
X141647618Y-111617619D01*
X141647618Y-111617619D02*
X141457142Y-111617619D01*
X141457142Y-111617619D02*
X141361904Y-111570000D01*
X141361904Y-111570000D02*
X141314285Y-111522380D01*
X141314285Y-111522380D02*
X141266666Y-111427142D01*
X141266666Y-111427142D02*
X141266666Y-111189047D01*
X141266666Y-111189047D02*
X141314285Y-111093809D01*
X141314285Y-111093809D02*
X141361904Y-111046190D01*
X141361904Y-111046190D02*
X141457142Y-110998571D01*
X141457142Y-110998571D02*
X141647618Y-110998571D01*
X141647618Y-110998571D02*
X141742856Y-111046190D01*
X141742856Y-111046190D02*
X141790475Y-111093809D01*
X141790475Y-111093809D02*
X141838094Y-111189047D01*
%TO.C,SW9*%
X86783332Y-130620000D02*
X86640475Y-130667619D01*
X86640475Y-130667619D02*
X86402380Y-130667619D01*
X86402380Y-130667619D02*
X86307142Y-130620000D01*
X86307142Y-130620000D02*
X86259523Y-130572380D01*
X86259523Y-130572380D02*
X86211904Y-130477142D01*
X86211904Y-130477142D02*
X86211904Y-130381904D01*
X86211904Y-130381904D02*
X86259523Y-130286666D01*
X86259523Y-130286666D02*
X86307142Y-130239047D01*
X86307142Y-130239047D02*
X86402380Y-130191428D01*
X86402380Y-130191428D02*
X86592856Y-130143809D01*
X86592856Y-130143809D02*
X86688094Y-130096190D01*
X86688094Y-130096190D02*
X86735713Y-130048571D01*
X86735713Y-130048571D02*
X86783332Y-129953333D01*
X86783332Y-129953333D02*
X86783332Y-129858095D01*
X86783332Y-129858095D02*
X86735713Y-129762857D01*
X86735713Y-129762857D02*
X86688094Y-129715238D01*
X86688094Y-129715238D02*
X86592856Y-129667619D01*
X86592856Y-129667619D02*
X86354761Y-129667619D01*
X86354761Y-129667619D02*
X86211904Y-129715238D01*
X85878570Y-129667619D02*
X85640475Y-130667619D01*
X85640475Y-130667619D02*
X85449999Y-129953333D01*
X85449999Y-129953333D02*
X85259523Y-130667619D01*
X85259523Y-130667619D02*
X85021428Y-129667619D01*
X84592856Y-130667619D02*
X84402380Y-130667619D01*
X84402380Y-130667619D02*
X84307142Y-130620000D01*
X84307142Y-130620000D02*
X84259523Y-130572380D01*
X84259523Y-130572380D02*
X84164285Y-130429523D01*
X84164285Y-130429523D02*
X84116666Y-130239047D01*
X84116666Y-130239047D02*
X84116666Y-129858095D01*
X84116666Y-129858095D02*
X84164285Y-129762857D01*
X84164285Y-129762857D02*
X84211904Y-129715238D01*
X84211904Y-129715238D02*
X84307142Y-129667619D01*
X84307142Y-129667619D02*
X84497618Y-129667619D01*
X84497618Y-129667619D02*
X84592856Y-129715238D01*
X84592856Y-129715238D02*
X84640475Y-129762857D01*
X84640475Y-129762857D02*
X84688094Y-129858095D01*
X84688094Y-129858095D02*
X84688094Y-130096190D01*
X84688094Y-130096190D02*
X84640475Y-130191428D01*
X84640475Y-130191428D02*
X84592856Y-130239047D01*
X84592856Y-130239047D02*
X84497618Y-130286666D01*
X84497618Y-130286666D02*
X84307142Y-130286666D01*
X84307142Y-130286666D02*
X84211904Y-130239047D01*
X84211904Y-130239047D02*
X84164285Y-130191428D01*
X84164285Y-130191428D02*
X84116666Y-130096190D01*
%TO.C,SW20*%
X68209523Y-168720000D02*
X68066666Y-168767619D01*
X68066666Y-168767619D02*
X67828571Y-168767619D01*
X67828571Y-168767619D02*
X67733333Y-168720000D01*
X67733333Y-168720000D02*
X67685714Y-168672380D01*
X67685714Y-168672380D02*
X67638095Y-168577142D01*
X67638095Y-168577142D02*
X67638095Y-168481904D01*
X67638095Y-168481904D02*
X67685714Y-168386666D01*
X67685714Y-168386666D02*
X67733333Y-168339047D01*
X67733333Y-168339047D02*
X67828571Y-168291428D01*
X67828571Y-168291428D02*
X68019047Y-168243809D01*
X68019047Y-168243809D02*
X68114285Y-168196190D01*
X68114285Y-168196190D02*
X68161904Y-168148571D01*
X68161904Y-168148571D02*
X68209523Y-168053333D01*
X68209523Y-168053333D02*
X68209523Y-167958095D01*
X68209523Y-167958095D02*
X68161904Y-167862857D01*
X68161904Y-167862857D02*
X68114285Y-167815238D01*
X68114285Y-167815238D02*
X68019047Y-167767619D01*
X68019047Y-167767619D02*
X67780952Y-167767619D01*
X67780952Y-167767619D02*
X67638095Y-167815238D01*
X67304761Y-167767619D02*
X67066666Y-168767619D01*
X67066666Y-168767619D02*
X66876190Y-168053333D01*
X66876190Y-168053333D02*
X66685714Y-168767619D01*
X66685714Y-168767619D02*
X66447619Y-167767619D01*
X66114285Y-167862857D02*
X66066666Y-167815238D01*
X66066666Y-167815238D02*
X65971428Y-167767619D01*
X65971428Y-167767619D02*
X65733333Y-167767619D01*
X65733333Y-167767619D02*
X65638095Y-167815238D01*
X65638095Y-167815238D02*
X65590476Y-167862857D01*
X65590476Y-167862857D02*
X65542857Y-167958095D01*
X65542857Y-167958095D02*
X65542857Y-168053333D01*
X65542857Y-168053333D02*
X65590476Y-168196190D01*
X65590476Y-168196190D02*
X66161904Y-168767619D01*
X66161904Y-168767619D02*
X65542857Y-168767619D01*
X64923809Y-167767619D02*
X64828571Y-167767619D01*
X64828571Y-167767619D02*
X64733333Y-167815238D01*
X64733333Y-167815238D02*
X64685714Y-167862857D01*
X64685714Y-167862857D02*
X64638095Y-167958095D01*
X64638095Y-167958095D02*
X64590476Y-168148571D01*
X64590476Y-168148571D02*
X64590476Y-168386666D01*
X64590476Y-168386666D02*
X64638095Y-168577142D01*
X64638095Y-168577142D02*
X64685714Y-168672380D01*
X64685714Y-168672380D02*
X64733333Y-168720000D01*
X64733333Y-168720000D02*
X64828571Y-168767619D01*
X64828571Y-168767619D02*
X64923809Y-168767619D01*
X64923809Y-168767619D02*
X65019047Y-168720000D01*
X65019047Y-168720000D02*
X65066666Y-168672380D01*
X65066666Y-168672380D02*
X65114285Y-168577142D01*
X65114285Y-168577142D02*
X65161904Y-168386666D01*
X65161904Y-168386666D02*
X65161904Y-168148571D01*
X65161904Y-168148571D02*
X65114285Y-167958095D01*
X65114285Y-167958095D02*
X65066666Y-167862857D01*
X65066666Y-167862857D02*
X65019047Y-167815238D01*
X65019047Y-167815238D02*
X64923809Y-167767619D01*
%TO.C,SW19*%
X49159523Y-168720000D02*
X49016666Y-168767619D01*
X49016666Y-168767619D02*
X48778571Y-168767619D01*
X48778571Y-168767619D02*
X48683333Y-168720000D01*
X48683333Y-168720000D02*
X48635714Y-168672380D01*
X48635714Y-168672380D02*
X48588095Y-168577142D01*
X48588095Y-168577142D02*
X48588095Y-168481904D01*
X48588095Y-168481904D02*
X48635714Y-168386666D01*
X48635714Y-168386666D02*
X48683333Y-168339047D01*
X48683333Y-168339047D02*
X48778571Y-168291428D01*
X48778571Y-168291428D02*
X48969047Y-168243809D01*
X48969047Y-168243809D02*
X49064285Y-168196190D01*
X49064285Y-168196190D02*
X49111904Y-168148571D01*
X49111904Y-168148571D02*
X49159523Y-168053333D01*
X49159523Y-168053333D02*
X49159523Y-167958095D01*
X49159523Y-167958095D02*
X49111904Y-167862857D01*
X49111904Y-167862857D02*
X49064285Y-167815238D01*
X49064285Y-167815238D02*
X48969047Y-167767619D01*
X48969047Y-167767619D02*
X48730952Y-167767619D01*
X48730952Y-167767619D02*
X48588095Y-167815238D01*
X48254761Y-167767619D02*
X48016666Y-168767619D01*
X48016666Y-168767619D02*
X47826190Y-168053333D01*
X47826190Y-168053333D02*
X47635714Y-168767619D01*
X47635714Y-168767619D02*
X47397619Y-167767619D01*
X46492857Y-168767619D02*
X47064285Y-168767619D01*
X46778571Y-168767619D02*
X46778571Y-167767619D01*
X46778571Y-167767619D02*
X46873809Y-167910476D01*
X46873809Y-167910476D02*
X46969047Y-168005714D01*
X46969047Y-168005714D02*
X47064285Y-168053333D01*
X46016666Y-168767619D02*
X45826190Y-168767619D01*
X45826190Y-168767619D02*
X45730952Y-168720000D01*
X45730952Y-168720000D02*
X45683333Y-168672380D01*
X45683333Y-168672380D02*
X45588095Y-168529523D01*
X45588095Y-168529523D02*
X45540476Y-168339047D01*
X45540476Y-168339047D02*
X45540476Y-167958095D01*
X45540476Y-167958095D02*
X45588095Y-167862857D01*
X45588095Y-167862857D02*
X45635714Y-167815238D01*
X45635714Y-167815238D02*
X45730952Y-167767619D01*
X45730952Y-167767619D02*
X45921428Y-167767619D01*
X45921428Y-167767619D02*
X46016666Y-167815238D01*
X46016666Y-167815238D02*
X46064285Y-167862857D01*
X46064285Y-167862857D02*
X46111904Y-167958095D01*
X46111904Y-167958095D02*
X46111904Y-168196190D01*
X46111904Y-168196190D02*
X46064285Y-168291428D01*
X46064285Y-168291428D02*
X46016666Y-168339047D01*
X46016666Y-168339047D02*
X45921428Y-168386666D01*
X45921428Y-168386666D02*
X45730952Y-168386666D01*
X45730952Y-168386666D02*
X45635714Y-168339047D01*
X45635714Y-168339047D02*
X45588095Y-168291428D01*
X45588095Y-168291428D02*
X45540476Y-168196190D01*
%TO.C,SW5*%
X120753332Y-110620000D02*
X120610475Y-110667619D01*
X120610475Y-110667619D02*
X120372380Y-110667619D01*
X120372380Y-110667619D02*
X120277142Y-110620000D01*
X120277142Y-110620000D02*
X120229523Y-110572380D01*
X120229523Y-110572380D02*
X120181904Y-110477142D01*
X120181904Y-110477142D02*
X120181904Y-110381904D01*
X120181904Y-110381904D02*
X120229523Y-110286666D01*
X120229523Y-110286666D02*
X120277142Y-110239047D01*
X120277142Y-110239047D02*
X120372380Y-110191428D01*
X120372380Y-110191428D02*
X120562856Y-110143809D01*
X120562856Y-110143809D02*
X120658094Y-110096190D01*
X120658094Y-110096190D02*
X120705713Y-110048571D01*
X120705713Y-110048571D02*
X120753332Y-109953333D01*
X120753332Y-109953333D02*
X120753332Y-109858095D01*
X120753332Y-109858095D02*
X120705713Y-109762857D01*
X120705713Y-109762857D02*
X120658094Y-109715238D01*
X120658094Y-109715238D02*
X120562856Y-109667619D01*
X120562856Y-109667619D02*
X120324761Y-109667619D01*
X120324761Y-109667619D02*
X120181904Y-109715238D01*
X119848570Y-109667619D02*
X119610475Y-110667619D01*
X119610475Y-110667619D02*
X119419999Y-109953333D01*
X119419999Y-109953333D02*
X119229523Y-110667619D01*
X119229523Y-110667619D02*
X118991428Y-109667619D01*
X118134285Y-109667619D02*
X118610475Y-109667619D01*
X118610475Y-109667619D02*
X118658094Y-110143809D01*
X118658094Y-110143809D02*
X118610475Y-110096190D01*
X118610475Y-110096190D02*
X118515237Y-110048571D01*
X118515237Y-110048571D02*
X118277142Y-110048571D01*
X118277142Y-110048571D02*
X118181904Y-110096190D01*
X118181904Y-110096190D02*
X118134285Y-110143809D01*
X118134285Y-110143809D02*
X118086666Y-110239047D01*
X118086666Y-110239047D02*
X118086666Y-110477142D01*
X118086666Y-110477142D02*
X118134285Y-110572380D01*
X118134285Y-110572380D02*
X118181904Y-110620000D01*
X118181904Y-110620000D02*
X118277142Y-110667619D01*
X118277142Y-110667619D02*
X118515237Y-110667619D01*
X118515237Y-110667619D02*
X118610475Y-110620000D01*
X118610475Y-110620000D02*
X118658094Y-110572380D01*
%TO.C,SW12*%
X144409523Y-130620000D02*
X144266666Y-130667619D01*
X144266666Y-130667619D02*
X144028571Y-130667619D01*
X144028571Y-130667619D02*
X143933333Y-130620000D01*
X143933333Y-130620000D02*
X143885714Y-130572380D01*
X143885714Y-130572380D02*
X143838095Y-130477142D01*
X143838095Y-130477142D02*
X143838095Y-130381904D01*
X143838095Y-130381904D02*
X143885714Y-130286666D01*
X143885714Y-130286666D02*
X143933333Y-130239047D01*
X143933333Y-130239047D02*
X144028571Y-130191428D01*
X144028571Y-130191428D02*
X144219047Y-130143809D01*
X144219047Y-130143809D02*
X144314285Y-130096190D01*
X144314285Y-130096190D02*
X144361904Y-130048571D01*
X144361904Y-130048571D02*
X144409523Y-129953333D01*
X144409523Y-129953333D02*
X144409523Y-129858095D01*
X144409523Y-129858095D02*
X144361904Y-129762857D01*
X144361904Y-129762857D02*
X144314285Y-129715238D01*
X144314285Y-129715238D02*
X144219047Y-129667619D01*
X144219047Y-129667619D02*
X143980952Y-129667619D01*
X143980952Y-129667619D02*
X143838095Y-129715238D01*
X143504761Y-129667619D02*
X143266666Y-130667619D01*
X143266666Y-130667619D02*
X143076190Y-129953333D01*
X143076190Y-129953333D02*
X142885714Y-130667619D01*
X142885714Y-130667619D02*
X142647619Y-129667619D01*
X141742857Y-130667619D02*
X142314285Y-130667619D01*
X142028571Y-130667619D02*
X142028571Y-129667619D01*
X142028571Y-129667619D02*
X142123809Y-129810476D01*
X142123809Y-129810476D02*
X142219047Y-129905714D01*
X142219047Y-129905714D02*
X142314285Y-129953333D01*
X141361904Y-129762857D02*
X141314285Y-129715238D01*
X141314285Y-129715238D02*
X141219047Y-129667619D01*
X141219047Y-129667619D02*
X140980952Y-129667619D01*
X140980952Y-129667619D02*
X140885714Y-129715238D01*
X140885714Y-129715238D02*
X140838095Y-129762857D01*
X140838095Y-129762857D02*
X140790476Y-129858095D01*
X140790476Y-129858095D02*
X140790476Y-129953333D01*
X140790476Y-129953333D02*
X140838095Y-130096190D01*
X140838095Y-130096190D02*
X141409523Y-130667619D01*
X141409523Y-130667619D02*
X140790476Y-130667619D01*
%TO.C,SW2*%
X63603332Y-110620000D02*
X63460475Y-110667619D01*
X63460475Y-110667619D02*
X63222380Y-110667619D01*
X63222380Y-110667619D02*
X63127142Y-110620000D01*
X63127142Y-110620000D02*
X63079523Y-110572380D01*
X63079523Y-110572380D02*
X63031904Y-110477142D01*
X63031904Y-110477142D02*
X63031904Y-110381904D01*
X63031904Y-110381904D02*
X63079523Y-110286666D01*
X63079523Y-110286666D02*
X63127142Y-110239047D01*
X63127142Y-110239047D02*
X63222380Y-110191428D01*
X63222380Y-110191428D02*
X63412856Y-110143809D01*
X63412856Y-110143809D02*
X63508094Y-110096190D01*
X63508094Y-110096190D02*
X63555713Y-110048571D01*
X63555713Y-110048571D02*
X63603332Y-109953333D01*
X63603332Y-109953333D02*
X63603332Y-109858095D01*
X63603332Y-109858095D02*
X63555713Y-109762857D01*
X63555713Y-109762857D02*
X63508094Y-109715238D01*
X63508094Y-109715238D02*
X63412856Y-109667619D01*
X63412856Y-109667619D02*
X63174761Y-109667619D01*
X63174761Y-109667619D02*
X63031904Y-109715238D01*
X62698570Y-109667619D02*
X62460475Y-110667619D01*
X62460475Y-110667619D02*
X62269999Y-109953333D01*
X62269999Y-109953333D02*
X62079523Y-110667619D01*
X62079523Y-110667619D02*
X61841428Y-109667619D01*
X61508094Y-109762857D02*
X61460475Y-109715238D01*
X61460475Y-109715238D02*
X61365237Y-109667619D01*
X61365237Y-109667619D02*
X61127142Y-109667619D01*
X61127142Y-109667619D02*
X61031904Y-109715238D01*
X61031904Y-109715238D02*
X60984285Y-109762857D01*
X60984285Y-109762857D02*
X60936666Y-109858095D01*
X60936666Y-109858095D02*
X60936666Y-109953333D01*
X60936666Y-109953333D02*
X60984285Y-110096190D01*
X60984285Y-110096190D02*
X61555713Y-110667619D01*
X61555713Y-110667619D02*
X60936666Y-110667619D01*
%TO.C,SW4*%
X105833332Y-111570000D02*
X105690475Y-111617619D01*
X105690475Y-111617619D02*
X105452380Y-111617619D01*
X105452380Y-111617619D02*
X105357142Y-111570000D01*
X105357142Y-111570000D02*
X105309523Y-111522380D01*
X105309523Y-111522380D02*
X105261904Y-111427142D01*
X105261904Y-111427142D02*
X105261904Y-111331904D01*
X105261904Y-111331904D02*
X105309523Y-111236666D01*
X105309523Y-111236666D02*
X105357142Y-111189047D01*
X105357142Y-111189047D02*
X105452380Y-111141428D01*
X105452380Y-111141428D02*
X105642856Y-111093809D01*
X105642856Y-111093809D02*
X105738094Y-111046190D01*
X105738094Y-111046190D02*
X105785713Y-110998571D01*
X105785713Y-110998571D02*
X105833332Y-110903333D01*
X105833332Y-110903333D02*
X105833332Y-110808095D01*
X105833332Y-110808095D02*
X105785713Y-110712857D01*
X105785713Y-110712857D02*
X105738094Y-110665238D01*
X105738094Y-110665238D02*
X105642856Y-110617619D01*
X105642856Y-110617619D02*
X105404761Y-110617619D01*
X105404761Y-110617619D02*
X105261904Y-110665238D01*
X104928570Y-110617619D02*
X104690475Y-111617619D01*
X104690475Y-111617619D02*
X104499999Y-110903333D01*
X104499999Y-110903333D02*
X104309523Y-111617619D01*
X104309523Y-111617619D02*
X104071428Y-110617619D01*
X103261904Y-110950952D02*
X103261904Y-111617619D01*
X103499999Y-110570000D02*
X103738094Y-111284285D01*
X103738094Y-111284285D02*
X103119047Y-111284285D01*
%TO.C,SW7*%
X48683332Y-130620000D02*
X48540475Y-130667619D01*
X48540475Y-130667619D02*
X48302380Y-130667619D01*
X48302380Y-130667619D02*
X48207142Y-130620000D01*
X48207142Y-130620000D02*
X48159523Y-130572380D01*
X48159523Y-130572380D02*
X48111904Y-130477142D01*
X48111904Y-130477142D02*
X48111904Y-130381904D01*
X48111904Y-130381904D02*
X48159523Y-130286666D01*
X48159523Y-130286666D02*
X48207142Y-130239047D01*
X48207142Y-130239047D02*
X48302380Y-130191428D01*
X48302380Y-130191428D02*
X48492856Y-130143809D01*
X48492856Y-130143809D02*
X48588094Y-130096190D01*
X48588094Y-130096190D02*
X48635713Y-130048571D01*
X48635713Y-130048571D02*
X48683332Y-129953333D01*
X48683332Y-129953333D02*
X48683332Y-129858095D01*
X48683332Y-129858095D02*
X48635713Y-129762857D01*
X48635713Y-129762857D02*
X48588094Y-129715238D01*
X48588094Y-129715238D02*
X48492856Y-129667619D01*
X48492856Y-129667619D02*
X48254761Y-129667619D01*
X48254761Y-129667619D02*
X48111904Y-129715238D01*
X47778570Y-129667619D02*
X47540475Y-130667619D01*
X47540475Y-130667619D02*
X47349999Y-129953333D01*
X47349999Y-129953333D02*
X47159523Y-130667619D01*
X47159523Y-130667619D02*
X46921428Y-129667619D01*
X46635713Y-129667619D02*
X45969047Y-129667619D01*
X45969047Y-129667619D02*
X46397618Y-130667619D01*
%TO.C,SW22*%
X106309523Y-168720000D02*
X106166666Y-168767619D01*
X106166666Y-168767619D02*
X105928571Y-168767619D01*
X105928571Y-168767619D02*
X105833333Y-168720000D01*
X105833333Y-168720000D02*
X105785714Y-168672380D01*
X105785714Y-168672380D02*
X105738095Y-168577142D01*
X105738095Y-168577142D02*
X105738095Y-168481904D01*
X105738095Y-168481904D02*
X105785714Y-168386666D01*
X105785714Y-168386666D02*
X105833333Y-168339047D01*
X105833333Y-168339047D02*
X105928571Y-168291428D01*
X105928571Y-168291428D02*
X106119047Y-168243809D01*
X106119047Y-168243809D02*
X106214285Y-168196190D01*
X106214285Y-168196190D02*
X106261904Y-168148571D01*
X106261904Y-168148571D02*
X106309523Y-168053333D01*
X106309523Y-168053333D02*
X106309523Y-167958095D01*
X106309523Y-167958095D02*
X106261904Y-167862857D01*
X106261904Y-167862857D02*
X106214285Y-167815238D01*
X106214285Y-167815238D02*
X106119047Y-167767619D01*
X106119047Y-167767619D02*
X105880952Y-167767619D01*
X105880952Y-167767619D02*
X105738095Y-167815238D01*
X105404761Y-167767619D02*
X105166666Y-168767619D01*
X105166666Y-168767619D02*
X104976190Y-168053333D01*
X104976190Y-168053333D02*
X104785714Y-168767619D01*
X104785714Y-168767619D02*
X104547619Y-167767619D01*
X104214285Y-167862857D02*
X104166666Y-167815238D01*
X104166666Y-167815238D02*
X104071428Y-167767619D01*
X104071428Y-167767619D02*
X103833333Y-167767619D01*
X103833333Y-167767619D02*
X103738095Y-167815238D01*
X103738095Y-167815238D02*
X103690476Y-167862857D01*
X103690476Y-167862857D02*
X103642857Y-167958095D01*
X103642857Y-167958095D02*
X103642857Y-168053333D01*
X103642857Y-168053333D02*
X103690476Y-168196190D01*
X103690476Y-168196190D02*
X104261904Y-168767619D01*
X104261904Y-168767619D02*
X103642857Y-168767619D01*
X103261904Y-167862857D02*
X103214285Y-167815238D01*
X103214285Y-167815238D02*
X103119047Y-167767619D01*
X103119047Y-167767619D02*
X102880952Y-167767619D01*
X102880952Y-167767619D02*
X102785714Y-167815238D01*
X102785714Y-167815238D02*
X102738095Y-167862857D01*
X102738095Y-167862857D02*
X102690476Y-167958095D01*
X102690476Y-167958095D02*
X102690476Y-168053333D01*
X102690476Y-168053333D02*
X102738095Y-168196190D01*
X102738095Y-168196190D02*
X103309523Y-168767619D01*
X103309523Y-168767619D02*
X102690476Y-168767619D01*
%TO.C,SW21*%
X87259523Y-168720000D02*
X87116666Y-168767619D01*
X87116666Y-168767619D02*
X86878571Y-168767619D01*
X86878571Y-168767619D02*
X86783333Y-168720000D01*
X86783333Y-168720000D02*
X86735714Y-168672380D01*
X86735714Y-168672380D02*
X86688095Y-168577142D01*
X86688095Y-168577142D02*
X86688095Y-168481904D01*
X86688095Y-168481904D02*
X86735714Y-168386666D01*
X86735714Y-168386666D02*
X86783333Y-168339047D01*
X86783333Y-168339047D02*
X86878571Y-168291428D01*
X86878571Y-168291428D02*
X87069047Y-168243809D01*
X87069047Y-168243809D02*
X87164285Y-168196190D01*
X87164285Y-168196190D02*
X87211904Y-168148571D01*
X87211904Y-168148571D02*
X87259523Y-168053333D01*
X87259523Y-168053333D02*
X87259523Y-167958095D01*
X87259523Y-167958095D02*
X87211904Y-167862857D01*
X87211904Y-167862857D02*
X87164285Y-167815238D01*
X87164285Y-167815238D02*
X87069047Y-167767619D01*
X87069047Y-167767619D02*
X86830952Y-167767619D01*
X86830952Y-167767619D02*
X86688095Y-167815238D01*
X86354761Y-167767619D02*
X86116666Y-168767619D01*
X86116666Y-168767619D02*
X85926190Y-168053333D01*
X85926190Y-168053333D02*
X85735714Y-168767619D01*
X85735714Y-168767619D02*
X85497619Y-167767619D01*
X85164285Y-167862857D02*
X85116666Y-167815238D01*
X85116666Y-167815238D02*
X85021428Y-167767619D01*
X85021428Y-167767619D02*
X84783333Y-167767619D01*
X84783333Y-167767619D02*
X84688095Y-167815238D01*
X84688095Y-167815238D02*
X84640476Y-167862857D01*
X84640476Y-167862857D02*
X84592857Y-167958095D01*
X84592857Y-167958095D02*
X84592857Y-168053333D01*
X84592857Y-168053333D02*
X84640476Y-168196190D01*
X84640476Y-168196190D02*
X85211904Y-168767619D01*
X85211904Y-168767619D02*
X84592857Y-168767619D01*
X83640476Y-168767619D02*
X84211904Y-168767619D01*
X83926190Y-168767619D02*
X83926190Y-167767619D01*
X83926190Y-167767619D02*
X84021428Y-167910476D01*
X84021428Y-167910476D02*
X84116666Y-168005714D01*
X84116666Y-168005714D02*
X84211904Y-168053333D01*
%TO.C,SW18*%
X144409523Y-149670000D02*
X144266666Y-149717619D01*
X144266666Y-149717619D02*
X144028571Y-149717619D01*
X144028571Y-149717619D02*
X143933333Y-149670000D01*
X143933333Y-149670000D02*
X143885714Y-149622380D01*
X143885714Y-149622380D02*
X143838095Y-149527142D01*
X143838095Y-149527142D02*
X143838095Y-149431904D01*
X143838095Y-149431904D02*
X143885714Y-149336666D01*
X143885714Y-149336666D02*
X143933333Y-149289047D01*
X143933333Y-149289047D02*
X144028571Y-149241428D01*
X144028571Y-149241428D02*
X144219047Y-149193809D01*
X144219047Y-149193809D02*
X144314285Y-149146190D01*
X144314285Y-149146190D02*
X144361904Y-149098571D01*
X144361904Y-149098571D02*
X144409523Y-149003333D01*
X144409523Y-149003333D02*
X144409523Y-148908095D01*
X144409523Y-148908095D02*
X144361904Y-148812857D01*
X144361904Y-148812857D02*
X144314285Y-148765238D01*
X144314285Y-148765238D02*
X144219047Y-148717619D01*
X144219047Y-148717619D02*
X143980952Y-148717619D01*
X143980952Y-148717619D02*
X143838095Y-148765238D01*
X143504761Y-148717619D02*
X143266666Y-149717619D01*
X143266666Y-149717619D02*
X143076190Y-149003333D01*
X143076190Y-149003333D02*
X142885714Y-149717619D01*
X142885714Y-149717619D02*
X142647619Y-148717619D01*
X141742857Y-149717619D02*
X142314285Y-149717619D01*
X142028571Y-149717619D02*
X142028571Y-148717619D01*
X142028571Y-148717619D02*
X142123809Y-148860476D01*
X142123809Y-148860476D02*
X142219047Y-148955714D01*
X142219047Y-148955714D02*
X142314285Y-149003333D01*
X141171428Y-149146190D02*
X141266666Y-149098571D01*
X141266666Y-149098571D02*
X141314285Y-149050952D01*
X141314285Y-149050952D02*
X141361904Y-148955714D01*
X141361904Y-148955714D02*
X141361904Y-148908095D01*
X141361904Y-148908095D02*
X141314285Y-148812857D01*
X141314285Y-148812857D02*
X141266666Y-148765238D01*
X141266666Y-148765238D02*
X141171428Y-148717619D01*
X141171428Y-148717619D02*
X140980952Y-148717619D01*
X140980952Y-148717619D02*
X140885714Y-148765238D01*
X140885714Y-148765238D02*
X140838095Y-148812857D01*
X140838095Y-148812857D02*
X140790476Y-148908095D01*
X140790476Y-148908095D02*
X140790476Y-148955714D01*
X140790476Y-148955714D02*
X140838095Y-149050952D01*
X140838095Y-149050952D02*
X140885714Y-149098571D01*
X140885714Y-149098571D02*
X140980952Y-149146190D01*
X140980952Y-149146190D02*
X141171428Y-149146190D01*
X141171428Y-149146190D02*
X141266666Y-149193809D01*
X141266666Y-149193809D02*
X141314285Y-149241428D01*
X141314285Y-149241428D02*
X141361904Y-149336666D01*
X141361904Y-149336666D02*
X141361904Y-149527142D01*
X141361904Y-149527142D02*
X141314285Y-149622380D01*
X141314285Y-149622380D02*
X141266666Y-149670000D01*
X141266666Y-149670000D02*
X141171428Y-149717619D01*
X141171428Y-149717619D02*
X140980952Y-149717619D01*
X140980952Y-149717619D02*
X140885714Y-149670000D01*
X140885714Y-149670000D02*
X140838095Y-149622380D01*
X140838095Y-149622380D02*
X140790476Y-149527142D01*
X140790476Y-149527142D02*
X140790476Y-149336666D01*
X140790476Y-149336666D02*
X140838095Y-149241428D01*
X140838095Y-149241428D02*
X140885714Y-149193809D01*
X140885714Y-149193809D02*
X140980952Y-149146190D01*
%TO.C,SW13*%
X49159523Y-149670000D02*
X49016666Y-149717619D01*
X49016666Y-149717619D02*
X48778571Y-149717619D01*
X48778571Y-149717619D02*
X48683333Y-149670000D01*
X48683333Y-149670000D02*
X48635714Y-149622380D01*
X48635714Y-149622380D02*
X48588095Y-149527142D01*
X48588095Y-149527142D02*
X48588095Y-149431904D01*
X48588095Y-149431904D02*
X48635714Y-149336666D01*
X48635714Y-149336666D02*
X48683333Y-149289047D01*
X48683333Y-149289047D02*
X48778571Y-149241428D01*
X48778571Y-149241428D02*
X48969047Y-149193809D01*
X48969047Y-149193809D02*
X49064285Y-149146190D01*
X49064285Y-149146190D02*
X49111904Y-149098571D01*
X49111904Y-149098571D02*
X49159523Y-149003333D01*
X49159523Y-149003333D02*
X49159523Y-148908095D01*
X49159523Y-148908095D02*
X49111904Y-148812857D01*
X49111904Y-148812857D02*
X49064285Y-148765238D01*
X49064285Y-148765238D02*
X48969047Y-148717619D01*
X48969047Y-148717619D02*
X48730952Y-148717619D01*
X48730952Y-148717619D02*
X48588095Y-148765238D01*
X48254761Y-148717619D02*
X48016666Y-149717619D01*
X48016666Y-149717619D02*
X47826190Y-149003333D01*
X47826190Y-149003333D02*
X47635714Y-149717619D01*
X47635714Y-149717619D02*
X47397619Y-148717619D01*
X46492857Y-149717619D02*
X47064285Y-149717619D01*
X46778571Y-149717619D02*
X46778571Y-148717619D01*
X46778571Y-148717619D02*
X46873809Y-148860476D01*
X46873809Y-148860476D02*
X46969047Y-148955714D01*
X46969047Y-148955714D02*
X47064285Y-149003333D01*
X46159523Y-148717619D02*
X45540476Y-148717619D01*
X45540476Y-148717619D02*
X45873809Y-149098571D01*
X45873809Y-149098571D02*
X45730952Y-149098571D01*
X45730952Y-149098571D02*
X45635714Y-149146190D01*
X45635714Y-149146190D02*
X45588095Y-149193809D01*
X45588095Y-149193809D02*
X45540476Y-149289047D01*
X45540476Y-149289047D02*
X45540476Y-149527142D01*
X45540476Y-149527142D02*
X45588095Y-149622380D01*
X45588095Y-149622380D02*
X45635714Y-149670000D01*
X45635714Y-149670000D02*
X45730952Y-149717619D01*
X45730952Y-149717619D02*
X46016666Y-149717619D01*
X46016666Y-149717619D02*
X46111904Y-149670000D01*
X46111904Y-149670000D02*
X46159523Y-149622380D01*
%TO.C,SW23*%
X125359523Y-168720000D02*
X125216666Y-168767619D01*
X125216666Y-168767619D02*
X124978571Y-168767619D01*
X124978571Y-168767619D02*
X124883333Y-168720000D01*
X124883333Y-168720000D02*
X124835714Y-168672380D01*
X124835714Y-168672380D02*
X124788095Y-168577142D01*
X124788095Y-168577142D02*
X124788095Y-168481904D01*
X124788095Y-168481904D02*
X124835714Y-168386666D01*
X124835714Y-168386666D02*
X124883333Y-168339047D01*
X124883333Y-168339047D02*
X124978571Y-168291428D01*
X124978571Y-168291428D02*
X125169047Y-168243809D01*
X125169047Y-168243809D02*
X125264285Y-168196190D01*
X125264285Y-168196190D02*
X125311904Y-168148571D01*
X125311904Y-168148571D02*
X125359523Y-168053333D01*
X125359523Y-168053333D02*
X125359523Y-167958095D01*
X125359523Y-167958095D02*
X125311904Y-167862857D01*
X125311904Y-167862857D02*
X125264285Y-167815238D01*
X125264285Y-167815238D02*
X125169047Y-167767619D01*
X125169047Y-167767619D02*
X124930952Y-167767619D01*
X124930952Y-167767619D02*
X124788095Y-167815238D01*
X124454761Y-167767619D02*
X124216666Y-168767619D01*
X124216666Y-168767619D02*
X124026190Y-168053333D01*
X124026190Y-168053333D02*
X123835714Y-168767619D01*
X123835714Y-168767619D02*
X123597619Y-167767619D01*
X123264285Y-167862857D02*
X123216666Y-167815238D01*
X123216666Y-167815238D02*
X123121428Y-167767619D01*
X123121428Y-167767619D02*
X122883333Y-167767619D01*
X122883333Y-167767619D02*
X122788095Y-167815238D01*
X122788095Y-167815238D02*
X122740476Y-167862857D01*
X122740476Y-167862857D02*
X122692857Y-167958095D01*
X122692857Y-167958095D02*
X122692857Y-168053333D01*
X122692857Y-168053333D02*
X122740476Y-168196190D01*
X122740476Y-168196190D02*
X123311904Y-168767619D01*
X123311904Y-168767619D02*
X122692857Y-168767619D01*
X122359523Y-167767619D02*
X121740476Y-167767619D01*
X121740476Y-167767619D02*
X122073809Y-168148571D01*
X122073809Y-168148571D02*
X121930952Y-168148571D01*
X121930952Y-168148571D02*
X121835714Y-168196190D01*
X121835714Y-168196190D02*
X121788095Y-168243809D01*
X121788095Y-168243809D02*
X121740476Y-168339047D01*
X121740476Y-168339047D02*
X121740476Y-168577142D01*
X121740476Y-168577142D02*
X121788095Y-168672380D01*
X121788095Y-168672380D02*
X121835714Y-168720000D01*
X121835714Y-168720000D02*
X121930952Y-168767619D01*
X121930952Y-168767619D02*
X122216666Y-168767619D01*
X122216666Y-168767619D02*
X122311904Y-168720000D01*
X122311904Y-168720000D02*
X122359523Y-168672380D01*
%TO.C,SW24*%
X144409523Y-168720000D02*
X144266666Y-168767619D01*
X144266666Y-168767619D02*
X144028571Y-168767619D01*
X144028571Y-168767619D02*
X143933333Y-168720000D01*
X143933333Y-168720000D02*
X143885714Y-168672380D01*
X143885714Y-168672380D02*
X143838095Y-168577142D01*
X143838095Y-168577142D02*
X143838095Y-168481904D01*
X143838095Y-168481904D02*
X143885714Y-168386666D01*
X143885714Y-168386666D02*
X143933333Y-168339047D01*
X143933333Y-168339047D02*
X144028571Y-168291428D01*
X144028571Y-168291428D02*
X144219047Y-168243809D01*
X144219047Y-168243809D02*
X144314285Y-168196190D01*
X144314285Y-168196190D02*
X144361904Y-168148571D01*
X144361904Y-168148571D02*
X144409523Y-168053333D01*
X144409523Y-168053333D02*
X144409523Y-167958095D01*
X144409523Y-167958095D02*
X144361904Y-167862857D01*
X144361904Y-167862857D02*
X144314285Y-167815238D01*
X144314285Y-167815238D02*
X144219047Y-167767619D01*
X144219047Y-167767619D02*
X143980952Y-167767619D01*
X143980952Y-167767619D02*
X143838095Y-167815238D01*
X143504761Y-167767619D02*
X143266666Y-168767619D01*
X143266666Y-168767619D02*
X143076190Y-168053333D01*
X143076190Y-168053333D02*
X142885714Y-168767619D01*
X142885714Y-168767619D02*
X142647619Y-167767619D01*
X142314285Y-167862857D02*
X142266666Y-167815238D01*
X142266666Y-167815238D02*
X142171428Y-167767619D01*
X142171428Y-167767619D02*
X141933333Y-167767619D01*
X141933333Y-167767619D02*
X141838095Y-167815238D01*
X141838095Y-167815238D02*
X141790476Y-167862857D01*
X141790476Y-167862857D02*
X141742857Y-167958095D01*
X141742857Y-167958095D02*
X141742857Y-168053333D01*
X141742857Y-168053333D02*
X141790476Y-168196190D01*
X141790476Y-168196190D02*
X142361904Y-168767619D01*
X142361904Y-168767619D02*
X141742857Y-168767619D01*
X140885714Y-168100952D02*
X140885714Y-168767619D01*
X141123809Y-167720000D02*
X141361904Y-168434285D01*
X141361904Y-168434285D02*
X140742857Y-168434285D01*
%TO.C,SW14*%
X68209523Y-149670000D02*
X68066666Y-149717619D01*
X68066666Y-149717619D02*
X67828571Y-149717619D01*
X67828571Y-149717619D02*
X67733333Y-149670000D01*
X67733333Y-149670000D02*
X67685714Y-149622380D01*
X67685714Y-149622380D02*
X67638095Y-149527142D01*
X67638095Y-149527142D02*
X67638095Y-149431904D01*
X67638095Y-149431904D02*
X67685714Y-149336666D01*
X67685714Y-149336666D02*
X67733333Y-149289047D01*
X67733333Y-149289047D02*
X67828571Y-149241428D01*
X67828571Y-149241428D02*
X68019047Y-149193809D01*
X68019047Y-149193809D02*
X68114285Y-149146190D01*
X68114285Y-149146190D02*
X68161904Y-149098571D01*
X68161904Y-149098571D02*
X68209523Y-149003333D01*
X68209523Y-149003333D02*
X68209523Y-148908095D01*
X68209523Y-148908095D02*
X68161904Y-148812857D01*
X68161904Y-148812857D02*
X68114285Y-148765238D01*
X68114285Y-148765238D02*
X68019047Y-148717619D01*
X68019047Y-148717619D02*
X67780952Y-148717619D01*
X67780952Y-148717619D02*
X67638095Y-148765238D01*
X67304761Y-148717619D02*
X67066666Y-149717619D01*
X67066666Y-149717619D02*
X66876190Y-149003333D01*
X66876190Y-149003333D02*
X66685714Y-149717619D01*
X66685714Y-149717619D02*
X66447619Y-148717619D01*
X65542857Y-149717619D02*
X66114285Y-149717619D01*
X65828571Y-149717619D02*
X65828571Y-148717619D01*
X65828571Y-148717619D02*
X65923809Y-148860476D01*
X65923809Y-148860476D02*
X66019047Y-148955714D01*
X66019047Y-148955714D02*
X66114285Y-149003333D01*
X64685714Y-149050952D02*
X64685714Y-149717619D01*
X64923809Y-148670000D02*
X65161904Y-149384285D01*
X65161904Y-149384285D02*
X64542857Y-149384285D01*
%TO.C,SW16*%
X106309523Y-149670000D02*
X106166666Y-149717619D01*
X106166666Y-149717619D02*
X105928571Y-149717619D01*
X105928571Y-149717619D02*
X105833333Y-149670000D01*
X105833333Y-149670000D02*
X105785714Y-149622380D01*
X105785714Y-149622380D02*
X105738095Y-149527142D01*
X105738095Y-149527142D02*
X105738095Y-149431904D01*
X105738095Y-149431904D02*
X105785714Y-149336666D01*
X105785714Y-149336666D02*
X105833333Y-149289047D01*
X105833333Y-149289047D02*
X105928571Y-149241428D01*
X105928571Y-149241428D02*
X106119047Y-149193809D01*
X106119047Y-149193809D02*
X106214285Y-149146190D01*
X106214285Y-149146190D02*
X106261904Y-149098571D01*
X106261904Y-149098571D02*
X106309523Y-149003333D01*
X106309523Y-149003333D02*
X106309523Y-148908095D01*
X106309523Y-148908095D02*
X106261904Y-148812857D01*
X106261904Y-148812857D02*
X106214285Y-148765238D01*
X106214285Y-148765238D02*
X106119047Y-148717619D01*
X106119047Y-148717619D02*
X105880952Y-148717619D01*
X105880952Y-148717619D02*
X105738095Y-148765238D01*
X105404761Y-148717619D02*
X105166666Y-149717619D01*
X105166666Y-149717619D02*
X104976190Y-149003333D01*
X104976190Y-149003333D02*
X104785714Y-149717619D01*
X104785714Y-149717619D02*
X104547619Y-148717619D01*
X103642857Y-149717619D02*
X104214285Y-149717619D01*
X103928571Y-149717619D02*
X103928571Y-148717619D01*
X103928571Y-148717619D02*
X104023809Y-148860476D01*
X104023809Y-148860476D02*
X104119047Y-148955714D01*
X104119047Y-148955714D02*
X104214285Y-149003333D01*
X102785714Y-148717619D02*
X102976190Y-148717619D01*
X102976190Y-148717619D02*
X103071428Y-148765238D01*
X103071428Y-148765238D02*
X103119047Y-148812857D01*
X103119047Y-148812857D02*
X103214285Y-148955714D01*
X103214285Y-148955714D02*
X103261904Y-149146190D01*
X103261904Y-149146190D02*
X103261904Y-149527142D01*
X103261904Y-149527142D02*
X103214285Y-149622380D01*
X103214285Y-149622380D02*
X103166666Y-149670000D01*
X103166666Y-149670000D02*
X103071428Y-149717619D01*
X103071428Y-149717619D02*
X102880952Y-149717619D01*
X102880952Y-149717619D02*
X102785714Y-149670000D01*
X102785714Y-149670000D02*
X102738095Y-149622380D01*
X102738095Y-149622380D02*
X102690476Y-149527142D01*
X102690476Y-149527142D02*
X102690476Y-149289047D01*
X102690476Y-149289047D02*
X102738095Y-149193809D01*
X102738095Y-149193809D02*
X102785714Y-149146190D01*
X102785714Y-149146190D02*
X102880952Y-149098571D01*
X102880952Y-149098571D02*
X103071428Y-149098571D01*
X103071428Y-149098571D02*
X103166666Y-149146190D01*
X103166666Y-149146190D02*
X103214285Y-149193809D01*
X103214285Y-149193809D02*
X103261904Y-149289047D01*
%TO.C,SW10*%
X106309523Y-130620000D02*
X106166666Y-130667619D01*
X106166666Y-130667619D02*
X105928571Y-130667619D01*
X105928571Y-130667619D02*
X105833333Y-130620000D01*
X105833333Y-130620000D02*
X105785714Y-130572380D01*
X105785714Y-130572380D02*
X105738095Y-130477142D01*
X105738095Y-130477142D02*
X105738095Y-130381904D01*
X105738095Y-130381904D02*
X105785714Y-130286666D01*
X105785714Y-130286666D02*
X105833333Y-130239047D01*
X105833333Y-130239047D02*
X105928571Y-130191428D01*
X105928571Y-130191428D02*
X106119047Y-130143809D01*
X106119047Y-130143809D02*
X106214285Y-130096190D01*
X106214285Y-130096190D02*
X106261904Y-130048571D01*
X106261904Y-130048571D02*
X106309523Y-129953333D01*
X106309523Y-129953333D02*
X106309523Y-129858095D01*
X106309523Y-129858095D02*
X106261904Y-129762857D01*
X106261904Y-129762857D02*
X106214285Y-129715238D01*
X106214285Y-129715238D02*
X106119047Y-129667619D01*
X106119047Y-129667619D02*
X105880952Y-129667619D01*
X105880952Y-129667619D02*
X105738095Y-129715238D01*
X105404761Y-129667619D02*
X105166666Y-130667619D01*
X105166666Y-130667619D02*
X104976190Y-129953333D01*
X104976190Y-129953333D02*
X104785714Y-130667619D01*
X104785714Y-130667619D02*
X104547619Y-129667619D01*
X103642857Y-130667619D02*
X104214285Y-130667619D01*
X103928571Y-130667619D02*
X103928571Y-129667619D01*
X103928571Y-129667619D02*
X104023809Y-129810476D01*
X104023809Y-129810476D02*
X104119047Y-129905714D01*
X104119047Y-129905714D02*
X104214285Y-129953333D01*
X103023809Y-129667619D02*
X102928571Y-129667619D01*
X102928571Y-129667619D02*
X102833333Y-129715238D01*
X102833333Y-129715238D02*
X102785714Y-129762857D01*
X102785714Y-129762857D02*
X102738095Y-129858095D01*
X102738095Y-129858095D02*
X102690476Y-130048571D01*
X102690476Y-130048571D02*
X102690476Y-130286666D01*
X102690476Y-130286666D02*
X102738095Y-130477142D01*
X102738095Y-130477142D02*
X102785714Y-130572380D01*
X102785714Y-130572380D02*
X102833333Y-130620000D01*
X102833333Y-130620000D02*
X102928571Y-130667619D01*
X102928571Y-130667619D02*
X103023809Y-130667619D01*
X103023809Y-130667619D02*
X103119047Y-130620000D01*
X103119047Y-130620000D02*
X103166666Y-130572380D01*
X103166666Y-130572380D02*
X103214285Y-130477142D01*
X103214285Y-130477142D02*
X103261904Y-130286666D01*
X103261904Y-130286666D02*
X103261904Y-130048571D01*
X103261904Y-130048571D02*
X103214285Y-129858095D01*
X103214285Y-129858095D02*
X103166666Y-129762857D01*
X103166666Y-129762857D02*
X103119047Y-129715238D01*
X103119047Y-129715238D02*
X103023809Y-129667619D01*
%TO.C,SW1*%
X48683332Y-111570000D02*
X48540475Y-111617619D01*
X48540475Y-111617619D02*
X48302380Y-111617619D01*
X48302380Y-111617619D02*
X48207142Y-111570000D01*
X48207142Y-111570000D02*
X48159523Y-111522380D01*
X48159523Y-111522380D02*
X48111904Y-111427142D01*
X48111904Y-111427142D02*
X48111904Y-111331904D01*
X48111904Y-111331904D02*
X48159523Y-111236666D01*
X48159523Y-111236666D02*
X48207142Y-111189047D01*
X48207142Y-111189047D02*
X48302380Y-111141428D01*
X48302380Y-111141428D02*
X48492856Y-111093809D01*
X48492856Y-111093809D02*
X48588094Y-111046190D01*
X48588094Y-111046190D02*
X48635713Y-110998571D01*
X48635713Y-110998571D02*
X48683332Y-110903333D01*
X48683332Y-110903333D02*
X48683332Y-110808095D01*
X48683332Y-110808095D02*
X48635713Y-110712857D01*
X48635713Y-110712857D02*
X48588094Y-110665238D01*
X48588094Y-110665238D02*
X48492856Y-110617619D01*
X48492856Y-110617619D02*
X48254761Y-110617619D01*
X48254761Y-110617619D02*
X48111904Y-110665238D01*
X47778570Y-110617619D02*
X47540475Y-111617619D01*
X47540475Y-111617619D02*
X47349999Y-110903333D01*
X47349999Y-110903333D02*
X47159523Y-111617619D01*
X47159523Y-111617619D02*
X46921428Y-110617619D01*
X46016666Y-111617619D02*
X46588094Y-111617619D01*
X46302380Y-111617619D02*
X46302380Y-110617619D01*
X46302380Y-110617619D02*
X46397618Y-110760476D01*
X46397618Y-110760476D02*
X46492856Y-110855714D01*
X46492856Y-110855714D02*
X46588094Y-110903333D01*
%TO.C,SW15*%
X87259523Y-149670000D02*
X87116666Y-149717619D01*
X87116666Y-149717619D02*
X86878571Y-149717619D01*
X86878571Y-149717619D02*
X86783333Y-149670000D01*
X86783333Y-149670000D02*
X86735714Y-149622380D01*
X86735714Y-149622380D02*
X86688095Y-149527142D01*
X86688095Y-149527142D02*
X86688095Y-149431904D01*
X86688095Y-149431904D02*
X86735714Y-149336666D01*
X86735714Y-149336666D02*
X86783333Y-149289047D01*
X86783333Y-149289047D02*
X86878571Y-149241428D01*
X86878571Y-149241428D02*
X87069047Y-149193809D01*
X87069047Y-149193809D02*
X87164285Y-149146190D01*
X87164285Y-149146190D02*
X87211904Y-149098571D01*
X87211904Y-149098571D02*
X87259523Y-149003333D01*
X87259523Y-149003333D02*
X87259523Y-148908095D01*
X87259523Y-148908095D02*
X87211904Y-148812857D01*
X87211904Y-148812857D02*
X87164285Y-148765238D01*
X87164285Y-148765238D02*
X87069047Y-148717619D01*
X87069047Y-148717619D02*
X86830952Y-148717619D01*
X86830952Y-148717619D02*
X86688095Y-148765238D01*
X86354761Y-148717619D02*
X86116666Y-149717619D01*
X86116666Y-149717619D02*
X85926190Y-149003333D01*
X85926190Y-149003333D02*
X85735714Y-149717619D01*
X85735714Y-149717619D02*
X85497619Y-148717619D01*
X84592857Y-149717619D02*
X85164285Y-149717619D01*
X84878571Y-149717619D02*
X84878571Y-148717619D01*
X84878571Y-148717619D02*
X84973809Y-148860476D01*
X84973809Y-148860476D02*
X85069047Y-148955714D01*
X85069047Y-148955714D02*
X85164285Y-149003333D01*
X83688095Y-148717619D02*
X84164285Y-148717619D01*
X84164285Y-148717619D02*
X84211904Y-149193809D01*
X84211904Y-149193809D02*
X84164285Y-149146190D01*
X84164285Y-149146190D02*
X84069047Y-149098571D01*
X84069047Y-149098571D02*
X83830952Y-149098571D01*
X83830952Y-149098571D02*
X83735714Y-149146190D01*
X83735714Y-149146190D02*
X83688095Y-149193809D01*
X83688095Y-149193809D02*
X83640476Y-149289047D01*
X83640476Y-149289047D02*
X83640476Y-149527142D01*
X83640476Y-149527142D02*
X83688095Y-149622380D01*
X83688095Y-149622380D02*
X83735714Y-149670000D01*
X83735714Y-149670000D02*
X83830952Y-149717619D01*
X83830952Y-149717619D02*
X84069047Y-149717619D01*
X84069047Y-149717619D02*
X84164285Y-149670000D01*
X84164285Y-149670000D02*
X84211904Y-149622380D01*
%TO.C,SW8*%
X63603332Y-129670000D02*
X63460475Y-129717619D01*
X63460475Y-129717619D02*
X63222380Y-129717619D01*
X63222380Y-129717619D02*
X63127142Y-129670000D01*
X63127142Y-129670000D02*
X63079523Y-129622380D01*
X63079523Y-129622380D02*
X63031904Y-129527142D01*
X63031904Y-129527142D02*
X63031904Y-129431904D01*
X63031904Y-129431904D02*
X63079523Y-129336666D01*
X63079523Y-129336666D02*
X63127142Y-129289047D01*
X63127142Y-129289047D02*
X63222380Y-129241428D01*
X63222380Y-129241428D02*
X63412856Y-129193809D01*
X63412856Y-129193809D02*
X63508094Y-129146190D01*
X63508094Y-129146190D02*
X63555713Y-129098571D01*
X63555713Y-129098571D02*
X63603332Y-129003333D01*
X63603332Y-129003333D02*
X63603332Y-128908095D01*
X63603332Y-128908095D02*
X63555713Y-128812857D01*
X63555713Y-128812857D02*
X63508094Y-128765238D01*
X63508094Y-128765238D02*
X63412856Y-128717619D01*
X63412856Y-128717619D02*
X63174761Y-128717619D01*
X63174761Y-128717619D02*
X63031904Y-128765238D01*
X62698570Y-128717619D02*
X62460475Y-129717619D01*
X62460475Y-129717619D02*
X62269999Y-129003333D01*
X62269999Y-129003333D02*
X62079523Y-129717619D01*
X62079523Y-129717619D02*
X61841428Y-128717619D01*
X61317618Y-129146190D02*
X61412856Y-129098571D01*
X61412856Y-129098571D02*
X61460475Y-129050952D01*
X61460475Y-129050952D02*
X61508094Y-128955714D01*
X61508094Y-128955714D02*
X61508094Y-128908095D01*
X61508094Y-128908095D02*
X61460475Y-128812857D01*
X61460475Y-128812857D02*
X61412856Y-128765238D01*
X61412856Y-128765238D02*
X61317618Y-128717619D01*
X61317618Y-128717619D02*
X61127142Y-128717619D01*
X61127142Y-128717619D02*
X61031904Y-128765238D01*
X61031904Y-128765238D02*
X60984285Y-128812857D01*
X60984285Y-128812857D02*
X60936666Y-128908095D01*
X60936666Y-128908095D02*
X60936666Y-128955714D01*
X60936666Y-128955714D02*
X60984285Y-129050952D01*
X60984285Y-129050952D02*
X61031904Y-129098571D01*
X61031904Y-129098571D02*
X61127142Y-129146190D01*
X61127142Y-129146190D02*
X61317618Y-129146190D01*
X61317618Y-129146190D02*
X61412856Y-129193809D01*
X61412856Y-129193809D02*
X61460475Y-129241428D01*
X61460475Y-129241428D02*
X61508094Y-129336666D01*
X61508094Y-129336666D02*
X61508094Y-129527142D01*
X61508094Y-129527142D02*
X61460475Y-129622380D01*
X61460475Y-129622380D02*
X61412856Y-129670000D01*
X61412856Y-129670000D02*
X61317618Y-129717619D01*
X61317618Y-129717619D02*
X61127142Y-129717619D01*
X61127142Y-129717619D02*
X61031904Y-129670000D01*
X61031904Y-129670000D02*
X60984285Y-129622380D01*
X60984285Y-129622380D02*
X60936666Y-129527142D01*
X60936666Y-129527142D02*
X60936666Y-129336666D01*
X60936666Y-129336666D02*
X60984285Y-129241428D01*
X60984285Y-129241428D02*
X61031904Y-129193809D01*
X61031904Y-129193809D02*
X61127142Y-129146190D01*
%TO.C,SW3*%
X86783332Y-111570000D02*
X86640475Y-111617619D01*
X86640475Y-111617619D02*
X86402380Y-111617619D01*
X86402380Y-111617619D02*
X86307142Y-111570000D01*
X86307142Y-111570000D02*
X86259523Y-111522380D01*
X86259523Y-111522380D02*
X86211904Y-111427142D01*
X86211904Y-111427142D02*
X86211904Y-111331904D01*
X86211904Y-111331904D02*
X86259523Y-111236666D01*
X86259523Y-111236666D02*
X86307142Y-111189047D01*
X86307142Y-111189047D02*
X86402380Y-111141428D01*
X86402380Y-111141428D02*
X86592856Y-111093809D01*
X86592856Y-111093809D02*
X86688094Y-111046190D01*
X86688094Y-111046190D02*
X86735713Y-110998571D01*
X86735713Y-110998571D02*
X86783332Y-110903333D01*
X86783332Y-110903333D02*
X86783332Y-110808095D01*
X86783332Y-110808095D02*
X86735713Y-110712857D01*
X86735713Y-110712857D02*
X86688094Y-110665238D01*
X86688094Y-110665238D02*
X86592856Y-110617619D01*
X86592856Y-110617619D02*
X86354761Y-110617619D01*
X86354761Y-110617619D02*
X86211904Y-110665238D01*
X85878570Y-110617619D02*
X85640475Y-111617619D01*
X85640475Y-111617619D02*
X85449999Y-110903333D01*
X85449999Y-110903333D02*
X85259523Y-111617619D01*
X85259523Y-111617619D02*
X85021428Y-110617619D01*
X84735713Y-110617619D02*
X84116666Y-110617619D01*
X84116666Y-110617619D02*
X84449999Y-110998571D01*
X84449999Y-110998571D02*
X84307142Y-110998571D01*
X84307142Y-110998571D02*
X84211904Y-111046190D01*
X84211904Y-111046190D02*
X84164285Y-111093809D01*
X84164285Y-111093809D02*
X84116666Y-111189047D01*
X84116666Y-111189047D02*
X84116666Y-111427142D01*
X84116666Y-111427142D02*
X84164285Y-111522380D01*
X84164285Y-111522380D02*
X84211904Y-111570000D01*
X84211904Y-111570000D02*
X84307142Y-111617619D01*
X84307142Y-111617619D02*
X84592856Y-111617619D01*
X84592856Y-111617619D02*
X84688094Y-111570000D01*
X84688094Y-111570000D02*
X84735713Y-111522380D01*
%TO.C,SW17*%
X125359523Y-149670000D02*
X125216666Y-149717619D01*
X125216666Y-149717619D02*
X124978571Y-149717619D01*
X124978571Y-149717619D02*
X124883333Y-149670000D01*
X124883333Y-149670000D02*
X124835714Y-149622380D01*
X124835714Y-149622380D02*
X124788095Y-149527142D01*
X124788095Y-149527142D02*
X124788095Y-149431904D01*
X124788095Y-149431904D02*
X124835714Y-149336666D01*
X124835714Y-149336666D02*
X124883333Y-149289047D01*
X124883333Y-149289047D02*
X124978571Y-149241428D01*
X124978571Y-149241428D02*
X125169047Y-149193809D01*
X125169047Y-149193809D02*
X125264285Y-149146190D01*
X125264285Y-149146190D02*
X125311904Y-149098571D01*
X125311904Y-149098571D02*
X125359523Y-149003333D01*
X125359523Y-149003333D02*
X125359523Y-148908095D01*
X125359523Y-148908095D02*
X125311904Y-148812857D01*
X125311904Y-148812857D02*
X125264285Y-148765238D01*
X125264285Y-148765238D02*
X125169047Y-148717619D01*
X125169047Y-148717619D02*
X124930952Y-148717619D01*
X124930952Y-148717619D02*
X124788095Y-148765238D01*
X124454761Y-148717619D02*
X124216666Y-149717619D01*
X124216666Y-149717619D02*
X124026190Y-149003333D01*
X124026190Y-149003333D02*
X123835714Y-149717619D01*
X123835714Y-149717619D02*
X123597619Y-148717619D01*
X122692857Y-149717619D02*
X123264285Y-149717619D01*
X122978571Y-149717619D02*
X122978571Y-148717619D01*
X122978571Y-148717619D02*
X123073809Y-148860476D01*
X123073809Y-148860476D02*
X123169047Y-148955714D01*
X123169047Y-148955714D02*
X123264285Y-149003333D01*
X122359523Y-148717619D02*
X121692857Y-148717619D01*
X121692857Y-148717619D02*
X122121428Y-149717619D01*
%TO.C,SW11*%
X121229523Y-129670000D02*
X121086666Y-129717619D01*
X121086666Y-129717619D02*
X120848571Y-129717619D01*
X120848571Y-129717619D02*
X120753333Y-129670000D01*
X120753333Y-129670000D02*
X120705714Y-129622380D01*
X120705714Y-129622380D02*
X120658095Y-129527142D01*
X120658095Y-129527142D02*
X120658095Y-129431904D01*
X120658095Y-129431904D02*
X120705714Y-129336666D01*
X120705714Y-129336666D02*
X120753333Y-129289047D01*
X120753333Y-129289047D02*
X120848571Y-129241428D01*
X120848571Y-129241428D02*
X121039047Y-129193809D01*
X121039047Y-129193809D02*
X121134285Y-129146190D01*
X121134285Y-129146190D02*
X121181904Y-129098571D01*
X121181904Y-129098571D02*
X121229523Y-129003333D01*
X121229523Y-129003333D02*
X121229523Y-128908095D01*
X121229523Y-128908095D02*
X121181904Y-128812857D01*
X121181904Y-128812857D02*
X121134285Y-128765238D01*
X121134285Y-128765238D02*
X121039047Y-128717619D01*
X121039047Y-128717619D02*
X120800952Y-128717619D01*
X120800952Y-128717619D02*
X120658095Y-128765238D01*
X120324761Y-128717619D02*
X120086666Y-129717619D01*
X120086666Y-129717619D02*
X119896190Y-129003333D01*
X119896190Y-129003333D02*
X119705714Y-129717619D01*
X119705714Y-129717619D02*
X119467619Y-128717619D01*
X118562857Y-129717619D02*
X119134285Y-129717619D01*
X118848571Y-129717619D02*
X118848571Y-128717619D01*
X118848571Y-128717619D02*
X118943809Y-128860476D01*
X118943809Y-128860476D02*
X119039047Y-128955714D01*
X119039047Y-128955714D02*
X119134285Y-129003333D01*
X117610476Y-129717619D02*
X118181904Y-129717619D01*
X117896190Y-129717619D02*
X117896190Y-128717619D01*
X117896190Y-128717619D02*
X117991428Y-128860476D01*
X117991428Y-128860476D02*
X118086666Y-128955714D01*
X118086666Y-128955714D02*
X118181904Y-129003333D01*
%TO.C,D5*%
X128438094Y-113712619D02*
X128438094Y-112712619D01*
X128438094Y-112712619D02*
X128199999Y-112712619D01*
X128199999Y-112712619D02*
X128057142Y-112760238D01*
X128057142Y-112760238D02*
X127961904Y-112855476D01*
X127961904Y-112855476D02*
X127914285Y-112950714D01*
X127914285Y-112950714D02*
X127866666Y-113141190D01*
X127866666Y-113141190D02*
X127866666Y-113284047D01*
X127866666Y-113284047D02*
X127914285Y-113474523D01*
X127914285Y-113474523D02*
X127961904Y-113569761D01*
X127961904Y-113569761D02*
X128057142Y-113665000D01*
X128057142Y-113665000D02*
X128199999Y-113712619D01*
X128199999Y-113712619D02*
X128438094Y-113712619D01*
X126961904Y-112712619D02*
X127438094Y-112712619D01*
X127438094Y-112712619D02*
X127485713Y-113188809D01*
X127485713Y-113188809D02*
X127438094Y-113141190D01*
X127438094Y-113141190D02*
X127342856Y-113093571D01*
X127342856Y-113093571D02*
X127104761Y-113093571D01*
X127104761Y-113093571D02*
X127009523Y-113141190D01*
X127009523Y-113141190D02*
X126961904Y-113188809D01*
X126961904Y-113188809D02*
X126914285Y-113284047D01*
X126914285Y-113284047D02*
X126914285Y-113522142D01*
X126914285Y-113522142D02*
X126961904Y-113617380D01*
X126961904Y-113617380D02*
X127009523Y-113665000D01*
X127009523Y-113665000D02*
X127104761Y-113712619D01*
X127104761Y-113712619D02*
X127342856Y-113712619D01*
X127342856Y-113712619D02*
X127438094Y-113665000D01*
X127438094Y-113665000D02*
X127485713Y-113617380D01*
%TO.C,D17*%
X128914285Y-151812619D02*
X128914285Y-150812619D01*
X128914285Y-150812619D02*
X128676190Y-150812619D01*
X128676190Y-150812619D02*
X128533333Y-150860238D01*
X128533333Y-150860238D02*
X128438095Y-150955476D01*
X128438095Y-150955476D02*
X128390476Y-151050714D01*
X128390476Y-151050714D02*
X128342857Y-151241190D01*
X128342857Y-151241190D02*
X128342857Y-151384047D01*
X128342857Y-151384047D02*
X128390476Y-151574523D01*
X128390476Y-151574523D02*
X128438095Y-151669761D01*
X128438095Y-151669761D02*
X128533333Y-151765000D01*
X128533333Y-151765000D02*
X128676190Y-151812619D01*
X128676190Y-151812619D02*
X128914285Y-151812619D01*
X127390476Y-151812619D02*
X127961904Y-151812619D01*
X127676190Y-151812619D02*
X127676190Y-150812619D01*
X127676190Y-150812619D02*
X127771428Y-150955476D01*
X127771428Y-150955476D02*
X127866666Y-151050714D01*
X127866666Y-151050714D02*
X127961904Y-151098333D01*
X127057142Y-150812619D02*
X126390476Y-150812619D01*
X126390476Y-150812619D02*
X126819047Y-151812619D01*
%TO.C,D9*%
X90338094Y-132762619D02*
X90338094Y-131762619D01*
X90338094Y-131762619D02*
X90099999Y-131762619D01*
X90099999Y-131762619D02*
X89957142Y-131810238D01*
X89957142Y-131810238D02*
X89861904Y-131905476D01*
X89861904Y-131905476D02*
X89814285Y-132000714D01*
X89814285Y-132000714D02*
X89766666Y-132191190D01*
X89766666Y-132191190D02*
X89766666Y-132334047D01*
X89766666Y-132334047D02*
X89814285Y-132524523D01*
X89814285Y-132524523D02*
X89861904Y-132619761D01*
X89861904Y-132619761D02*
X89957142Y-132715000D01*
X89957142Y-132715000D02*
X90099999Y-132762619D01*
X90099999Y-132762619D02*
X90338094Y-132762619D01*
X89290475Y-132762619D02*
X89099999Y-132762619D01*
X89099999Y-132762619D02*
X89004761Y-132715000D01*
X89004761Y-132715000D02*
X88957142Y-132667380D01*
X88957142Y-132667380D02*
X88861904Y-132524523D01*
X88861904Y-132524523D02*
X88814285Y-132334047D01*
X88814285Y-132334047D02*
X88814285Y-131953095D01*
X88814285Y-131953095D02*
X88861904Y-131857857D01*
X88861904Y-131857857D02*
X88909523Y-131810238D01*
X88909523Y-131810238D02*
X89004761Y-131762619D01*
X89004761Y-131762619D02*
X89195237Y-131762619D01*
X89195237Y-131762619D02*
X89290475Y-131810238D01*
X89290475Y-131810238D02*
X89338094Y-131857857D01*
X89338094Y-131857857D02*
X89385713Y-131953095D01*
X89385713Y-131953095D02*
X89385713Y-132191190D01*
X89385713Y-132191190D02*
X89338094Y-132286428D01*
X89338094Y-132286428D02*
X89290475Y-132334047D01*
X89290475Y-132334047D02*
X89195237Y-132381666D01*
X89195237Y-132381666D02*
X89004761Y-132381666D01*
X89004761Y-132381666D02*
X88909523Y-132334047D01*
X88909523Y-132334047D02*
X88861904Y-132286428D01*
X88861904Y-132286428D02*
X88814285Y-132191190D01*
%TO.C,D6*%
X147488094Y-113712619D02*
X147488094Y-112712619D01*
X147488094Y-112712619D02*
X147249999Y-112712619D01*
X147249999Y-112712619D02*
X147107142Y-112760238D01*
X147107142Y-112760238D02*
X147011904Y-112855476D01*
X147011904Y-112855476D02*
X146964285Y-112950714D01*
X146964285Y-112950714D02*
X146916666Y-113141190D01*
X146916666Y-113141190D02*
X146916666Y-113284047D01*
X146916666Y-113284047D02*
X146964285Y-113474523D01*
X146964285Y-113474523D02*
X147011904Y-113569761D01*
X147011904Y-113569761D02*
X147107142Y-113665000D01*
X147107142Y-113665000D02*
X147249999Y-113712619D01*
X147249999Y-113712619D02*
X147488094Y-113712619D01*
X146059523Y-112712619D02*
X146249999Y-112712619D01*
X146249999Y-112712619D02*
X146345237Y-112760238D01*
X146345237Y-112760238D02*
X146392856Y-112807857D01*
X146392856Y-112807857D02*
X146488094Y-112950714D01*
X146488094Y-112950714D02*
X146535713Y-113141190D01*
X146535713Y-113141190D02*
X146535713Y-113522142D01*
X146535713Y-113522142D02*
X146488094Y-113617380D01*
X146488094Y-113617380D02*
X146440475Y-113665000D01*
X146440475Y-113665000D02*
X146345237Y-113712619D01*
X146345237Y-113712619D02*
X146154761Y-113712619D01*
X146154761Y-113712619D02*
X146059523Y-113665000D01*
X146059523Y-113665000D02*
X146011904Y-113617380D01*
X146011904Y-113617380D02*
X145964285Y-113522142D01*
X145964285Y-113522142D02*
X145964285Y-113284047D01*
X145964285Y-113284047D02*
X146011904Y-113188809D01*
X146011904Y-113188809D02*
X146059523Y-113141190D01*
X146059523Y-113141190D02*
X146154761Y-113093571D01*
X146154761Y-113093571D02*
X146345237Y-113093571D01*
X146345237Y-113093571D02*
X146440475Y-113141190D01*
X146440475Y-113141190D02*
X146488094Y-113188809D01*
X146488094Y-113188809D02*
X146535713Y-113284047D01*
%TO.C,D18*%
X147964285Y-151812619D02*
X147964285Y-150812619D01*
X147964285Y-150812619D02*
X147726190Y-150812619D01*
X147726190Y-150812619D02*
X147583333Y-150860238D01*
X147583333Y-150860238D02*
X147488095Y-150955476D01*
X147488095Y-150955476D02*
X147440476Y-151050714D01*
X147440476Y-151050714D02*
X147392857Y-151241190D01*
X147392857Y-151241190D02*
X147392857Y-151384047D01*
X147392857Y-151384047D02*
X147440476Y-151574523D01*
X147440476Y-151574523D02*
X147488095Y-151669761D01*
X147488095Y-151669761D02*
X147583333Y-151765000D01*
X147583333Y-151765000D02*
X147726190Y-151812619D01*
X147726190Y-151812619D02*
X147964285Y-151812619D01*
X146440476Y-151812619D02*
X147011904Y-151812619D01*
X146726190Y-151812619D02*
X146726190Y-150812619D01*
X146726190Y-150812619D02*
X146821428Y-150955476D01*
X146821428Y-150955476D02*
X146916666Y-151050714D01*
X146916666Y-151050714D02*
X147011904Y-151098333D01*
X145869047Y-151241190D02*
X145964285Y-151193571D01*
X145964285Y-151193571D02*
X146011904Y-151145952D01*
X146011904Y-151145952D02*
X146059523Y-151050714D01*
X146059523Y-151050714D02*
X146059523Y-151003095D01*
X146059523Y-151003095D02*
X146011904Y-150907857D01*
X146011904Y-150907857D02*
X145964285Y-150860238D01*
X145964285Y-150860238D02*
X145869047Y-150812619D01*
X145869047Y-150812619D02*
X145678571Y-150812619D01*
X145678571Y-150812619D02*
X145583333Y-150860238D01*
X145583333Y-150860238D02*
X145535714Y-150907857D01*
X145535714Y-150907857D02*
X145488095Y-151003095D01*
X145488095Y-151003095D02*
X145488095Y-151050714D01*
X145488095Y-151050714D02*
X145535714Y-151145952D01*
X145535714Y-151145952D02*
X145583333Y-151193571D01*
X145583333Y-151193571D02*
X145678571Y-151241190D01*
X145678571Y-151241190D02*
X145869047Y-151241190D01*
X145869047Y-151241190D02*
X145964285Y-151288809D01*
X145964285Y-151288809D02*
X146011904Y-151336428D01*
X146011904Y-151336428D02*
X146059523Y-151431666D01*
X146059523Y-151431666D02*
X146059523Y-151622142D01*
X146059523Y-151622142D02*
X146011904Y-151717380D01*
X146011904Y-151717380D02*
X145964285Y-151765000D01*
X145964285Y-151765000D02*
X145869047Y-151812619D01*
X145869047Y-151812619D02*
X145678571Y-151812619D01*
X145678571Y-151812619D02*
X145583333Y-151765000D01*
X145583333Y-151765000D02*
X145535714Y-151717380D01*
X145535714Y-151717380D02*
X145488095Y-151622142D01*
X145488095Y-151622142D02*
X145488095Y-151431666D01*
X145488095Y-151431666D02*
X145535714Y-151336428D01*
X145535714Y-151336428D02*
X145583333Y-151288809D01*
X145583333Y-151288809D02*
X145678571Y-151241190D01*
%TO.C,D14*%
X71764285Y-151812619D02*
X71764285Y-150812619D01*
X71764285Y-150812619D02*
X71526190Y-150812619D01*
X71526190Y-150812619D02*
X71383333Y-150860238D01*
X71383333Y-150860238D02*
X71288095Y-150955476D01*
X71288095Y-150955476D02*
X71240476Y-151050714D01*
X71240476Y-151050714D02*
X71192857Y-151241190D01*
X71192857Y-151241190D02*
X71192857Y-151384047D01*
X71192857Y-151384047D02*
X71240476Y-151574523D01*
X71240476Y-151574523D02*
X71288095Y-151669761D01*
X71288095Y-151669761D02*
X71383333Y-151765000D01*
X71383333Y-151765000D02*
X71526190Y-151812619D01*
X71526190Y-151812619D02*
X71764285Y-151812619D01*
X70240476Y-151812619D02*
X70811904Y-151812619D01*
X70526190Y-151812619D02*
X70526190Y-150812619D01*
X70526190Y-150812619D02*
X70621428Y-150955476D01*
X70621428Y-150955476D02*
X70716666Y-151050714D01*
X70716666Y-151050714D02*
X70811904Y-151098333D01*
X69383333Y-151145952D02*
X69383333Y-151812619D01*
X69621428Y-150765000D02*
X69859523Y-151479285D01*
X69859523Y-151479285D02*
X69240476Y-151479285D01*
%TO.C,D16*%
X109864285Y-151812619D02*
X109864285Y-150812619D01*
X109864285Y-150812619D02*
X109626190Y-150812619D01*
X109626190Y-150812619D02*
X109483333Y-150860238D01*
X109483333Y-150860238D02*
X109388095Y-150955476D01*
X109388095Y-150955476D02*
X109340476Y-151050714D01*
X109340476Y-151050714D02*
X109292857Y-151241190D01*
X109292857Y-151241190D02*
X109292857Y-151384047D01*
X109292857Y-151384047D02*
X109340476Y-151574523D01*
X109340476Y-151574523D02*
X109388095Y-151669761D01*
X109388095Y-151669761D02*
X109483333Y-151765000D01*
X109483333Y-151765000D02*
X109626190Y-151812619D01*
X109626190Y-151812619D02*
X109864285Y-151812619D01*
X108340476Y-151812619D02*
X108911904Y-151812619D01*
X108626190Y-151812619D02*
X108626190Y-150812619D01*
X108626190Y-150812619D02*
X108721428Y-150955476D01*
X108721428Y-150955476D02*
X108816666Y-151050714D01*
X108816666Y-151050714D02*
X108911904Y-151098333D01*
X107483333Y-150812619D02*
X107673809Y-150812619D01*
X107673809Y-150812619D02*
X107769047Y-150860238D01*
X107769047Y-150860238D02*
X107816666Y-150907857D01*
X107816666Y-150907857D02*
X107911904Y-151050714D01*
X107911904Y-151050714D02*
X107959523Y-151241190D01*
X107959523Y-151241190D02*
X107959523Y-151622142D01*
X107959523Y-151622142D02*
X107911904Y-151717380D01*
X107911904Y-151717380D02*
X107864285Y-151765000D01*
X107864285Y-151765000D02*
X107769047Y-151812619D01*
X107769047Y-151812619D02*
X107578571Y-151812619D01*
X107578571Y-151812619D02*
X107483333Y-151765000D01*
X107483333Y-151765000D02*
X107435714Y-151717380D01*
X107435714Y-151717380D02*
X107388095Y-151622142D01*
X107388095Y-151622142D02*
X107388095Y-151384047D01*
X107388095Y-151384047D02*
X107435714Y-151288809D01*
X107435714Y-151288809D02*
X107483333Y-151241190D01*
X107483333Y-151241190D02*
X107578571Y-151193571D01*
X107578571Y-151193571D02*
X107769047Y-151193571D01*
X107769047Y-151193571D02*
X107864285Y-151241190D01*
X107864285Y-151241190D02*
X107911904Y-151288809D01*
X107911904Y-151288809D02*
X107959523Y-151384047D01*
%TO.C,D10*%
X109864285Y-132762619D02*
X109864285Y-131762619D01*
X109864285Y-131762619D02*
X109626190Y-131762619D01*
X109626190Y-131762619D02*
X109483333Y-131810238D01*
X109483333Y-131810238D02*
X109388095Y-131905476D01*
X109388095Y-131905476D02*
X109340476Y-132000714D01*
X109340476Y-132000714D02*
X109292857Y-132191190D01*
X109292857Y-132191190D02*
X109292857Y-132334047D01*
X109292857Y-132334047D02*
X109340476Y-132524523D01*
X109340476Y-132524523D02*
X109388095Y-132619761D01*
X109388095Y-132619761D02*
X109483333Y-132715000D01*
X109483333Y-132715000D02*
X109626190Y-132762619D01*
X109626190Y-132762619D02*
X109864285Y-132762619D01*
X108340476Y-132762619D02*
X108911904Y-132762619D01*
X108626190Y-132762619D02*
X108626190Y-131762619D01*
X108626190Y-131762619D02*
X108721428Y-131905476D01*
X108721428Y-131905476D02*
X108816666Y-132000714D01*
X108816666Y-132000714D02*
X108911904Y-132048333D01*
X107721428Y-131762619D02*
X107626190Y-131762619D01*
X107626190Y-131762619D02*
X107530952Y-131810238D01*
X107530952Y-131810238D02*
X107483333Y-131857857D01*
X107483333Y-131857857D02*
X107435714Y-131953095D01*
X107435714Y-131953095D02*
X107388095Y-132143571D01*
X107388095Y-132143571D02*
X107388095Y-132381666D01*
X107388095Y-132381666D02*
X107435714Y-132572142D01*
X107435714Y-132572142D02*
X107483333Y-132667380D01*
X107483333Y-132667380D02*
X107530952Y-132715000D01*
X107530952Y-132715000D02*
X107626190Y-132762619D01*
X107626190Y-132762619D02*
X107721428Y-132762619D01*
X107721428Y-132762619D02*
X107816666Y-132715000D01*
X107816666Y-132715000D02*
X107864285Y-132667380D01*
X107864285Y-132667380D02*
X107911904Y-132572142D01*
X107911904Y-132572142D02*
X107959523Y-132381666D01*
X107959523Y-132381666D02*
X107959523Y-132143571D01*
X107959523Y-132143571D02*
X107911904Y-131953095D01*
X107911904Y-131953095D02*
X107864285Y-131857857D01*
X107864285Y-131857857D02*
X107816666Y-131810238D01*
X107816666Y-131810238D02*
X107721428Y-131762619D01*
D11*
%TO.C,U1*%
X132961904Y-91116119D02*
X132961904Y-91925642D01*
X132961904Y-91925642D02*
X132914285Y-92020880D01*
X132914285Y-92020880D02*
X132866666Y-92068500D01*
X132866666Y-92068500D02*
X132771428Y-92116119D01*
X132771428Y-92116119D02*
X132580952Y-92116119D01*
X132580952Y-92116119D02*
X132485714Y-92068500D01*
X132485714Y-92068500D02*
X132438095Y-92020880D01*
X132438095Y-92020880D02*
X132390476Y-91925642D01*
X132390476Y-91925642D02*
X132390476Y-91116119D01*
X131390476Y-92116119D02*
X131961904Y-92116119D01*
X131676190Y-92116119D02*
X131676190Y-91116119D01*
X131676190Y-91116119D02*
X131771428Y-91258976D01*
X131771428Y-91258976D02*
X131866666Y-91354214D01*
X131866666Y-91354214D02*
X131961904Y-91401833D01*
D10*
%TO.C,D8*%
X71288094Y-132762619D02*
X71288094Y-131762619D01*
X71288094Y-131762619D02*
X71049999Y-131762619D01*
X71049999Y-131762619D02*
X70907142Y-131810238D01*
X70907142Y-131810238D02*
X70811904Y-131905476D01*
X70811904Y-131905476D02*
X70764285Y-132000714D01*
X70764285Y-132000714D02*
X70716666Y-132191190D01*
X70716666Y-132191190D02*
X70716666Y-132334047D01*
X70716666Y-132334047D02*
X70764285Y-132524523D01*
X70764285Y-132524523D02*
X70811904Y-132619761D01*
X70811904Y-132619761D02*
X70907142Y-132715000D01*
X70907142Y-132715000D02*
X71049999Y-132762619D01*
X71049999Y-132762619D02*
X71288094Y-132762619D01*
X70145237Y-132191190D02*
X70240475Y-132143571D01*
X70240475Y-132143571D02*
X70288094Y-132095952D01*
X70288094Y-132095952D02*
X70335713Y-132000714D01*
X70335713Y-132000714D02*
X70335713Y-131953095D01*
X70335713Y-131953095D02*
X70288094Y-131857857D01*
X70288094Y-131857857D02*
X70240475Y-131810238D01*
X70240475Y-131810238D02*
X70145237Y-131762619D01*
X70145237Y-131762619D02*
X69954761Y-131762619D01*
X69954761Y-131762619D02*
X69859523Y-131810238D01*
X69859523Y-131810238D02*
X69811904Y-131857857D01*
X69811904Y-131857857D02*
X69764285Y-131953095D01*
X69764285Y-131953095D02*
X69764285Y-132000714D01*
X69764285Y-132000714D02*
X69811904Y-132095952D01*
X69811904Y-132095952D02*
X69859523Y-132143571D01*
X69859523Y-132143571D02*
X69954761Y-132191190D01*
X69954761Y-132191190D02*
X70145237Y-132191190D01*
X70145237Y-132191190D02*
X70240475Y-132238809D01*
X70240475Y-132238809D02*
X70288094Y-132286428D01*
X70288094Y-132286428D02*
X70335713Y-132381666D01*
X70335713Y-132381666D02*
X70335713Y-132572142D01*
X70335713Y-132572142D02*
X70288094Y-132667380D01*
X70288094Y-132667380D02*
X70240475Y-132715000D01*
X70240475Y-132715000D02*
X70145237Y-132762619D01*
X70145237Y-132762619D02*
X69954761Y-132762619D01*
X69954761Y-132762619D02*
X69859523Y-132715000D01*
X69859523Y-132715000D02*
X69811904Y-132667380D01*
X69811904Y-132667380D02*
X69764285Y-132572142D01*
X69764285Y-132572142D02*
X69764285Y-132381666D01*
X69764285Y-132381666D02*
X69811904Y-132286428D01*
X69811904Y-132286428D02*
X69859523Y-132238809D01*
X69859523Y-132238809D02*
X69954761Y-132191190D01*
%TO.C,D20*%
X71764285Y-157362619D02*
X71764285Y-156362619D01*
X71764285Y-156362619D02*
X71526190Y-156362619D01*
X71526190Y-156362619D02*
X71383333Y-156410238D01*
X71383333Y-156410238D02*
X71288095Y-156505476D01*
X71288095Y-156505476D02*
X71240476Y-156600714D01*
X71240476Y-156600714D02*
X71192857Y-156791190D01*
X71192857Y-156791190D02*
X71192857Y-156934047D01*
X71192857Y-156934047D02*
X71240476Y-157124523D01*
X71240476Y-157124523D02*
X71288095Y-157219761D01*
X71288095Y-157219761D02*
X71383333Y-157315000D01*
X71383333Y-157315000D02*
X71526190Y-157362619D01*
X71526190Y-157362619D02*
X71764285Y-157362619D01*
X70811904Y-156457857D02*
X70764285Y-156410238D01*
X70764285Y-156410238D02*
X70669047Y-156362619D01*
X70669047Y-156362619D02*
X70430952Y-156362619D01*
X70430952Y-156362619D02*
X70335714Y-156410238D01*
X70335714Y-156410238D02*
X70288095Y-156457857D01*
X70288095Y-156457857D02*
X70240476Y-156553095D01*
X70240476Y-156553095D02*
X70240476Y-156648333D01*
X70240476Y-156648333D02*
X70288095Y-156791190D01*
X70288095Y-156791190D02*
X70859523Y-157362619D01*
X70859523Y-157362619D02*
X70240476Y-157362619D01*
X69621428Y-156362619D02*
X69526190Y-156362619D01*
X69526190Y-156362619D02*
X69430952Y-156410238D01*
X69430952Y-156410238D02*
X69383333Y-156457857D01*
X69383333Y-156457857D02*
X69335714Y-156553095D01*
X69335714Y-156553095D02*
X69288095Y-156743571D01*
X69288095Y-156743571D02*
X69288095Y-156981666D01*
X69288095Y-156981666D02*
X69335714Y-157172142D01*
X69335714Y-157172142D02*
X69383333Y-157267380D01*
X69383333Y-157267380D02*
X69430952Y-157315000D01*
X69430952Y-157315000D02*
X69526190Y-157362619D01*
X69526190Y-157362619D02*
X69621428Y-157362619D01*
X69621428Y-157362619D02*
X69716666Y-157315000D01*
X69716666Y-157315000D02*
X69764285Y-157267380D01*
X69764285Y-157267380D02*
X69811904Y-157172142D01*
X69811904Y-157172142D02*
X69859523Y-156981666D01*
X69859523Y-156981666D02*
X69859523Y-156743571D01*
X69859523Y-156743571D02*
X69811904Y-156553095D01*
X69811904Y-156553095D02*
X69764285Y-156457857D01*
X69764285Y-156457857D02*
X69716666Y-156410238D01*
X69716666Y-156410238D02*
X69621428Y-156362619D01*
%TO.C,D1*%
X52238094Y-113712619D02*
X52238094Y-112712619D01*
X52238094Y-112712619D02*
X51999999Y-112712619D01*
X51999999Y-112712619D02*
X51857142Y-112760238D01*
X51857142Y-112760238D02*
X51761904Y-112855476D01*
X51761904Y-112855476D02*
X51714285Y-112950714D01*
X51714285Y-112950714D02*
X51666666Y-113141190D01*
X51666666Y-113141190D02*
X51666666Y-113284047D01*
X51666666Y-113284047D02*
X51714285Y-113474523D01*
X51714285Y-113474523D02*
X51761904Y-113569761D01*
X51761904Y-113569761D02*
X51857142Y-113665000D01*
X51857142Y-113665000D02*
X51999999Y-113712619D01*
X51999999Y-113712619D02*
X52238094Y-113712619D01*
X50714285Y-113712619D02*
X51285713Y-113712619D01*
X50999999Y-113712619D02*
X50999999Y-112712619D01*
X50999999Y-112712619D02*
X51095237Y-112855476D01*
X51095237Y-112855476D02*
X51190475Y-112950714D01*
X51190475Y-112950714D02*
X51285713Y-112998333D01*
%TO.C,D7*%
X52238094Y-132762619D02*
X52238094Y-131762619D01*
X52238094Y-131762619D02*
X51999999Y-131762619D01*
X51999999Y-131762619D02*
X51857142Y-131810238D01*
X51857142Y-131810238D02*
X51761904Y-131905476D01*
X51761904Y-131905476D02*
X51714285Y-132000714D01*
X51714285Y-132000714D02*
X51666666Y-132191190D01*
X51666666Y-132191190D02*
X51666666Y-132334047D01*
X51666666Y-132334047D02*
X51714285Y-132524523D01*
X51714285Y-132524523D02*
X51761904Y-132619761D01*
X51761904Y-132619761D02*
X51857142Y-132715000D01*
X51857142Y-132715000D02*
X51999999Y-132762619D01*
X51999999Y-132762619D02*
X52238094Y-132762619D01*
X51333332Y-131762619D02*
X50666666Y-131762619D01*
X50666666Y-131762619D02*
X51095237Y-132762619D01*
%TO.C,D4*%
X109388094Y-113712619D02*
X109388094Y-112712619D01*
X109388094Y-112712619D02*
X109149999Y-112712619D01*
X109149999Y-112712619D02*
X109007142Y-112760238D01*
X109007142Y-112760238D02*
X108911904Y-112855476D01*
X108911904Y-112855476D02*
X108864285Y-112950714D01*
X108864285Y-112950714D02*
X108816666Y-113141190D01*
X108816666Y-113141190D02*
X108816666Y-113284047D01*
X108816666Y-113284047D02*
X108864285Y-113474523D01*
X108864285Y-113474523D02*
X108911904Y-113569761D01*
X108911904Y-113569761D02*
X109007142Y-113665000D01*
X109007142Y-113665000D02*
X109149999Y-113712619D01*
X109149999Y-113712619D02*
X109388094Y-113712619D01*
X107959523Y-113045952D02*
X107959523Y-113712619D01*
X108197618Y-112665000D02*
X108435713Y-113379285D01*
X108435713Y-113379285D02*
X107816666Y-113379285D01*
%TO.C,D24*%
X147964285Y-157362619D02*
X147964285Y-156362619D01*
X147964285Y-156362619D02*
X147726190Y-156362619D01*
X147726190Y-156362619D02*
X147583333Y-156410238D01*
X147583333Y-156410238D02*
X147488095Y-156505476D01*
X147488095Y-156505476D02*
X147440476Y-156600714D01*
X147440476Y-156600714D02*
X147392857Y-156791190D01*
X147392857Y-156791190D02*
X147392857Y-156934047D01*
X147392857Y-156934047D02*
X147440476Y-157124523D01*
X147440476Y-157124523D02*
X147488095Y-157219761D01*
X147488095Y-157219761D02*
X147583333Y-157315000D01*
X147583333Y-157315000D02*
X147726190Y-157362619D01*
X147726190Y-157362619D02*
X147964285Y-157362619D01*
X147011904Y-156457857D02*
X146964285Y-156410238D01*
X146964285Y-156410238D02*
X146869047Y-156362619D01*
X146869047Y-156362619D02*
X146630952Y-156362619D01*
X146630952Y-156362619D02*
X146535714Y-156410238D01*
X146535714Y-156410238D02*
X146488095Y-156457857D01*
X146488095Y-156457857D02*
X146440476Y-156553095D01*
X146440476Y-156553095D02*
X146440476Y-156648333D01*
X146440476Y-156648333D02*
X146488095Y-156791190D01*
X146488095Y-156791190D02*
X147059523Y-157362619D01*
X147059523Y-157362619D02*
X146440476Y-157362619D01*
X145583333Y-156695952D02*
X145583333Y-157362619D01*
X145821428Y-156315000D02*
X146059523Y-157029285D01*
X146059523Y-157029285D02*
X145440476Y-157029285D01*
%TO.C,D15*%
X90814285Y-151812619D02*
X90814285Y-150812619D01*
X90814285Y-150812619D02*
X90576190Y-150812619D01*
X90576190Y-150812619D02*
X90433333Y-150860238D01*
X90433333Y-150860238D02*
X90338095Y-150955476D01*
X90338095Y-150955476D02*
X90290476Y-151050714D01*
X90290476Y-151050714D02*
X90242857Y-151241190D01*
X90242857Y-151241190D02*
X90242857Y-151384047D01*
X90242857Y-151384047D02*
X90290476Y-151574523D01*
X90290476Y-151574523D02*
X90338095Y-151669761D01*
X90338095Y-151669761D02*
X90433333Y-151765000D01*
X90433333Y-151765000D02*
X90576190Y-151812619D01*
X90576190Y-151812619D02*
X90814285Y-151812619D01*
X89290476Y-151812619D02*
X89861904Y-151812619D01*
X89576190Y-151812619D02*
X89576190Y-150812619D01*
X89576190Y-150812619D02*
X89671428Y-150955476D01*
X89671428Y-150955476D02*
X89766666Y-151050714D01*
X89766666Y-151050714D02*
X89861904Y-151098333D01*
X88385714Y-150812619D02*
X88861904Y-150812619D01*
X88861904Y-150812619D02*
X88909523Y-151288809D01*
X88909523Y-151288809D02*
X88861904Y-151241190D01*
X88861904Y-151241190D02*
X88766666Y-151193571D01*
X88766666Y-151193571D02*
X88528571Y-151193571D01*
X88528571Y-151193571D02*
X88433333Y-151241190D01*
X88433333Y-151241190D02*
X88385714Y-151288809D01*
X88385714Y-151288809D02*
X88338095Y-151384047D01*
X88338095Y-151384047D02*
X88338095Y-151622142D01*
X88338095Y-151622142D02*
X88385714Y-151717380D01*
X88385714Y-151717380D02*
X88433333Y-151765000D01*
X88433333Y-151765000D02*
X88528571Y-151812619D01*
X88528571Y-151812619D02*
X88766666Y-151812619D01*
X88766666Y-151812619D02*
X88861904Y-151765000D01*
X88861904Y-151765000D02*
X88909523Y-151717380D01*
%TO.C,D22*%
X109864285Y-157362619D02*
X109864285Y-156362619D01*
X109864285Y-156362619D02*
X109626190Y-156362619D01*
X109626190Y-156362619D02*
X109483333Y-156410238D01*
X109483333Y-156410238D02*
X109388095Y-156505476D01*
X109388095Y-156505476D02*
X109340476Y-156600714D01*
X109340476Y-156600714D02*
X109292857Y-156791190D01*
X109292857Y-156791190D02*
X109292857Y-156934047D01*
X109292857Y-156934047D02*
X109340476Y-157124523D01*
X109340476Y-157124523D02*
X109388095Y-157219761D01*
X109388095Y-157219761D02*
X109483333Y-157315000D01*
X109483333Y-157315000D02*
X109626190Y-157362619D01*
X109626190Y-157362619D02*
X109864285Y-157362619D01*
X108911904Y-156457857D02*
X108864285Y-156410238D01*
X108864285Y-156410238D02*
X108769047Y-156362619D01*
X108769047Y-156362619D02*
X108530952Y-156362619D01*
X108530952Y-156362619D02*
X108435714Y-156410238D01*
X108435714Y-156410238D02*
X108388095Y-156457857D01*
X108388095Y-156457857D02*
X108340476Y-156553095D01*
X108340476Y-156553095D02*
X108340476Y-156648333D01*
X108340476Y-156648333D02*
X108388095Y-156791190D01*
X108388095Y-156791190D02*
X108959523Y-157362619D01*
X108959523Y-157362619D02*
X108340476Y-157362619D01*
X107959523Y-156457857D02*
X107911904Y-156410238D01*
X107911904Y-156410238D02*
X107816666Y-156362619D01*
X107816666Y-156362619D02*
X107578571Y-156362619D01*
X107578571Y-156362619D02*
X107483333Y-156410238D01*
X107483333Y-156410238D02*
X107435714Y-156457857D01*
X107435714Y-156457857D02*
X107388095Y-156553095D01*
X107388095Y-156553095D02*
X107388095Y-156648333D01*
X107388095Y-156648333D02*
X107435714Y-156791190D01*
X107435714Y-156791190D02*
X108007142Y-157362619D01*
X108007142Y-157362619D02*
X107388095Y-157362619D01*
%TO.C,D2*%
X71288094Y-113712619D02*
X71288094Y-112712619D01*
X71288094Y-112712619D02*
X71049999Y-112712619D01*
X71049999Y-112712619D02*
X70907142Y-112760238D01*
X70907142Y-112760238D02*
X70811904Y-112855476D01*
X70811904Y-112855476D02*
X70764285Y-112950714D01*
X70764285Y-112950714D02*
X70716666Y-113141190D01*
X70716666Y-113141190D02*
X70716666Y-113284047D01*
X70716666Y-113284047D02*
X70764285Y-113474523D01*
X70764285Y-113474523D02*
X70811904Y-113569761D01*
X70811904Y-113569761D02*
X70907142Y-113665000D01*
X70907142Y-113665000D02*
X71049999Y-113712619D01*
X71049999Y-113712619D02*
X71288094Y-113712619D01*
X70335713Y-112807857D02*
X70288094Y-112760238D01*
X70288094Y-112760238D02*
X70192856Y-112712619D01*
X70192856Y-112712619D02*
X69954761Y-112712619D01*
X69954761Y-112712619D02*
X69859523Y-112760238D01*
X69859523Y-112760238D02*
X69811904Y-112807857D01*
X69811904Y-112807857D02*
X69764285Y-112903095D01*
X69764285Y-112903095D02*
X69764285Y-112998333D01*
X69764285Y-112998333D02*
X69811904Y-113141190D01*
X69811904Y-113141190D02*
X70383332Y-113712619D01*
X70383332Y-113712619D02*
X69764285Y-113712619D01*
%TO.C,D11*%
X128914285Y-132762619D02*
X128914285Y-131762619D01*
X128914285Y-131762619D02*
X128676190Y-131762619D01*
X128676190Y-131762619D02*
X128533333Y-131810238D01*
X128533333Y-131810238D02*
X128438095Y-131905476D01*
X128438095Y-131905476D02*
X128390476Y-132000714D01*
X128390476Y-132000714D02*
X128342857Y-132191190D01*
X128342857Y-132191190D02*
X128342857Y-132334047D01*
X128342857Y-132334047D02*
X128390476Y-132524523D01*
X128390476Y-132524523D02*
X128438095Y-132619761D01*
X128438095Y-132619761D02*
X128533333Y-132715000D01*
X128533333Y-132715000D02*
X128676190Y-132762619D01*
X128676190Y-132762619D02*
X128914285Y-132762619D01*
X127390476Y-132762619D02*
X127961904Y-132762619D01*
X127676190Y-132762619D02*
X127676190Y-131762619D01*
X127676190Y-131762619D02*
X127771428Y-131905476D01*
X127771428Y-131905476D02*
X127866666Y-132000714D01*
X127866666Y-132000714D02*
X127961904Y-132048333D01*
X126438095Y-132762619D02*
X127009523Y-132762619D01*
X126723809Y-132762619D02*
X126723809Y-131762619D01*
X126723809Y-131762619D02*
X126819047Y-131905476D01*
X126819047Y-131905476D02*
X126914285Y-132000714D01*
X126914285Y-132000714D02*
X127009523Y-132048333D01*
D11*
%TO.C,BT1*%
X56151285Y-100911190D02*
X56294142Y-100863571D01*
X56294142Y-100863571D02*
X56341761Y-100815952D01*
X56341761Y-100815952D02*
X56389380Y-100720714D01*
X56389380Y-100720714D02*
X56389380Y-100577857D01*
X56389380Y-100577857D02*
X56341761Y-100482619D01*
X56341761Y-100482619D02*
X56294142Y-100435000D01*
X56294142Y-100435000D02*
X56198904Y-100387380D01*
X56198904Y-100387380D02*
X55817952Y-100387380D01*
X55817952Y-100387380D02*
X55817952Y-101387380D01*
X55817952Y-101387380D02*
X56151285Y-101387380D01*
X56151285Y-101387380D02*
X56246523Y-101339761D01*
X56246523Y-101339761D02*
X56294142Y-101292142D01*
X56294142Y-101292142D02*
X56341761Y-101196904D01*
X56341761Y-101196904D02*
X56341761Y-101101666D01*
X56341761Y-101101666D02*
X56294142Y-101006428D01*
X56294142Y-101006428D02*
X56246523Y-100958809D01*
X56246523Y-100958809D02*
X56151285Y-100911190D01*
X56151285Y-100911190D02*
X55817952Y-100911190D01*
X56675095Y-101387380D02*
X57246523Y-101387380D01*
X56960809Y-100387380D02*
X56960809Y-101387380D01*
X58103666Y-100387380D02*
X57532238Y-100387380D01*
X57817952Y-100387380D02*
X57817952Y-101387380D01*
X57817952Y-101387380D02*
X57722714Y-101244523D01*
X57722714Y-101244523D02*
X57627476Y-101149285D01*
X57627476Y-101149285D02*
X57532238Y-101101666D01*
D10*
%TO.C,D21*%
X90814285Y-157362619D02*
X90814285Y-156362619D01*
X90814285Y-156362619D02*
X90576190Y-156362619D01*
X90576190Y-156362619D02*
X90433333Y-156410238D01*
X90433333Y-156410238D02*
X90338095Y-156505476D01*
X90338095Y-156505476D02*
X90290476Y-156600714D01*
X90290476Y-156600714D02*
X90242857Y-156791190D01*
X90242857Y-156791190D02*
X90242857Y-156934047D01*
X90242857Y-156934047D02*
X90290476Y-157124523D01*
X90290476Y-157124523D02*
X90338095Y-157219761D01*
X90338095Y-157219761D02*
X90433333Y-157315000D01*
X90433333Y-157315000D02*
X90576190Y-157362619D01*
X90576190Y-157362619D02*
X90814285Y-157362619D01*
X89861904Y-156457857D02*
X89814285Y-156410238D01*
X89814285Y-156410238D02*
X89719047Y-156362619D01*
X89719047Y-156362619D02*
X89480952Y-156362619D01*
X89480952Y-156362619D02*
X89385714Y-156410238D01*
X89385714Y-156410238D02*
X89338095Y-156457857D01*
X89338095Y-156457857D02*
X89290476Y-156553095D01*
X89290476Y-156553095D02*
X89290476Y-156648333D01*
X89290476Y-156648333D02*
X89338095Y-156791190D01*
X89338095Y-156791190D02*
X89909523Y-157362619D01*
X89909523Y-157362619D02*
X89290476Y-157362619D01*
X88338095Y-157362619D02*
X88909523Y-157362619D01*
X88623809Y-157362619D02*
X88623809Y-156362619D01*
X88623809Y-156362619D02*
X88719047Y-156505476D01*
X88719047Y-156505476D02*
X88814285Y-156600714D01*
X88814285Y-156600714D02*
X88909523Y-156648333D01*
%TO.C,D19*%
X52714285Y-157362619D02*
X52714285Y-156362619D01*
X52714285Y-156362619D02*
X52476190Y-156362619D01*
X52476190Y-156362619D02*
X52333333Y-156410238D01*
X52333333Y-156410238D02*
X52238095Y-156505476D01*
X52238095Y-156505476D02*
X52190476Y-156600714D01*
X52190476Y-156600714D02*
X52142857Y-156791190D01*
X52142857Y-156791190D02*
X52142857Y-156934047D01*
X52142857Y-156934047D02*
X52190476Y-157124523D01*
X52190476Y-157124523D02*
X52238095Y-157219761D01*
X52238095Y-157219761D02*
X52333333Y-157315000D01*
X52333333Y-157315000D02*
X52476190Y-157362619D01*
X52476190Y-157362619D02*
X52714285Y-157362619D01*
X51190476Y-157362619D02*
X51761904Y-157362619D01*
X51476190Y-157362619D02*
X51476190Y-156362619D01*
X51476190Y-156362619D02*
X51571428Y-156505476D01*
X51571428Y-156505476D02*
X51666666Y-156600714D01*
X51666666Y-156600714D02*
X51761904Y-156648333D01*
X50714285Y-157362619D02*
X50523809Y-157362619D01*
X50523809Y-157362619D02*
X50428571Y-157315000D01*
X50428571Y-157315000D02*
X50380952Y-157267380D01*
X50380952Y-157267380D02*
X50285714Y-157124523D01*
X50285714Y-157124523D02*
X50238095Y-156934047D01*
X50238095Y-156934047D02*
X50238095Y-156553095D01*
X50238095Y-156553095D02*
X50285714Y-156457857D01*
X50285714Y-156457857D02*
X50333333Y-156410238D01*
X50333333Y-156410238D02*
X50428571Y-156362619D01*
X50428571Y-156362619D02*
X50619047Y-156362619D01*
X50619047Y-156362619D02*
X50714285Y-156410238D01*
X50714285Y-156410238D02*
X50761904Y-156457857D01*
X50761904Y-156457857D02*
X50809523Y-156553095D01*
X50809523Y-156553095D02*
X50809523Y-156791190D01*
X50809523Y-156791190D02*
X50761904Y-156886428D01*
X50761904Y-156886428D02*
X50714285Y-156934047D01*
X50714285Y-156934047D02*
X50619047Y-156981666D01*
X50619047Y-156981666D02*
X50428571Y-156981666D01*
X50428571Y-156981666D02*
X50333333Y-156934047D01*
X50333333Y-156934047D02*
X50285714Y-156886428D01*
X50285714Y-156886428D02*
X50238095Y-156791190D01*
%TO.C,D13*%
X52714285Y-151812619D02*
X52714285Y-150812619D01*
X52714285Y-150812619D02*
X52476190Y-150812619D01*
X52476190Y-150812619D02*
X52333333Y-150860238D01*
X52333333Y-150860238D02*
X52238095Y-150955476D01*
X52238095Y-150955476D02*
X52190476Y-151050714D01*
X52190476Y-151050714D02*
X52142857Y-151241190D01*
X52142857Y-151241190D02*
X52142857Y-151384047D01*
X52142857Y-151384047D02*
X52190476Y-151574523D01*
X52190476Y-151574523D02*
X52238095Y-151669761D01*
X52238095Y-151669761D02*
X52333333Y-151765000D01*
X52333333Y-151765000D02*
X52476190Y-151812619D01*
X52476190Y-151812619D02*
X52714285Y-151812619D01*
X51190476Y-151812619D02*
X51761904Y-151812619D01*
X51476190Y-151812619D02*
X51476190Y-150812619D01*
X51476190Y-150812619D02*
X51571428Y-150955476D01*
X51571428Y-150955476D02*
X51666666Y-151050714D01*
X51666666Y-151050714D02*
X51761904Y-151098333D01*
X50857142Y-150812619D02*
X50238095Y-150812619D01*
X50238095Y-150812619D02*
X50571428Y-151193571D01*
X50571428Y-151193571D02*
X50428571Y-151193571D01*
X50428571Y-151193571D02*
X50333333Y-151241190D01*
X50333333Y-151241190D02*
X50285714Y-151288809D01*
X50285714Y-151288809D02*
X50238095Y-151384047D01*
X50238095Y-151384047D02*
X50238095Y-151622142D01*
X50238095Y-151622142D02*
X50285714Y-151717380D01*
X50285714Y-151717380D02*
X50333333Y-151765000D01*
X50333333Y-151765000D02*
X50428571Y-151812619D01*
X50428571Y-151812619D02*
X50714285Y-151812619D01*
X50714285Y-151812619D02*
X50809523Y-151765000D01*
X50809523Y-151765000D02*
X50857142Y-151717380D01*
%TO.C,D12*%
X147964285Y-132762619D02*
X147964285Y-131762619D01*
X147964285Y-131762619D02*
X147726190Y-131762619D01*
X147726190Y-131762619D02*
X147583333Y-131810238D01*
X147583333Y-131810238D02*
X147488095Y-131905476D01*
X147488095Y-131905476D02*
X147440476Y-132000714D01*
X147440476Y-132000714D02*
X147392857Y-132191190D01*
X147392857Y-132191190D02*
X147392857Y-132334047D01*
X147392857Y-132334047D02*
X147440476Y-132524523D01*
X147440476Y-132524523D02*
X147488095Y-132619761D01*
X147488095Y-132619761D02*
X147583333Y-132715000D01*
X147583333Y-132715000D02*
X147726190Y-132762619D01*
X147726190Y-132762619D02*
X147964285Y-132762619D01*
X146440476Y-132762619D02*
X147011904Y-132762619D01*
X146726190Y-132762619D02*
X146726190Y-131762619D01*
X146726190Y-131762619D02*
X146821428Y-131905476D01*
X146821428Y-131905476D02*
X146916666Y-132000714D01*
X146916666Y-132000714D02*
X147011904Y-132048333D01*
X146059523Y-131857857D02*
X146011904Y-131810238D01*
X146011904Y-131810238D02*
X145916666Y-131762619D01*
X145916666Y-131762619D02*
X145678571Y-131762619D01*
X145678571Y-131762619D02*
X145583333Y-131810238D01*
X145583333Y-131810238D02*
X145535714Y-131857857D01*
X145535714Y-131857857D02*
X145488095Y-131953095D01*
X145488095Y-131953095D02*
X145488095Y-132048333D01*
X145488095Y-132048333D02*
X145535714Y-132191190D01*
X145535714Y-132191190D02*
X146107142Y-132762619D01*
X146107142Y-132762619D02*
X145488095Y-132762619D01*
%TO.C,D3*%
X90338094Y-113712619D02*
X90338094Y-112712619D01*
X90338094Y-112712619D02*
X90099999Y-112712619D01*
X90099999Y-112712619D02*
X89957142Y-112760238D01*
X89957142Y-112760238D02*
X89861904Y-112855476D01*
X89861904Y-112855476D02*
X89814285Y-112950714D01*
X89814285Y-112950714D02*
X89766666Y-113141190D01*
X89766666Y-113141190D02*
X89766666Y-113284047D01*
X89766666Y-113284047D02*
X89814285Y-113474523D01*
X89814285Y-113474523D02*
X89861904Y-113569761D01*
X89861904Y-113569761D02*
X89957142Y-113665000D01*
X89957142Y-113665000D02*
X90099999Y-113712619D01*
X90099999Y-113712619D02*
X90338094Y-113712619D01*
X89433332Y-112712619D02*
X88814285Y-112712619D01*
X88814285Y-112712619D02*
X89147618Y-113093571D01*
X89147618Y-113093571D02*
X89004761Y-113093571D01*
X89004761Y-113093571D02*
X88909523Y-113141190D01*
X88909523Y-113141190D02*
X88861904Y-113188809D01*
X88861904Y-113188809D02*
X88814285Y-113284047D01*
X88814285Y-113284047D02*
X88814285Y-113522142D01*
X88814285Y-113522142D02*
X88861904Y-113617380D01*
X88861904Y-113617380D02*
X88909523Y-113665000D01*
X88909523Y-113665000D02*
X89004761Y-113712619D01*
X89004761Y-113712619D02*
X89290475Y-113712619D01*
X89290475Y-113712619D02*
X89385713Y-113665000D01*
X89385713Y-113665000D02*
X89433332Y-113617380D01*
%TO.C,D23*%
X128914285Y-157362619D02*
X128914285Y-156362619D01*
X128914285Y-156362619D02*
X128676190Y-156362619D01*
X128676190Y-156362619D02*
X128533333Y-156410238D01*
X128533333Y-156410238D02*
X128438095Y-156505476D01*
X128438095Y-156505476D02*
X128390476Y-156600714D01*
X128390476Y-156600714D02*
X128342857Y-156791190D01*
X128342857Y-156791190D02*
X128342857Y-156934047D01*
X128342857Y-156934047D02*
X128390476Y-157124523D01*
X128390476Y-157124523D02*
X128438095Y-157219761D01*
X128438095Y-157219761D02*
X128533333Y-157315000D01*
X128533333Y-157315000D02*
X128676190Y-157362619D01*
X128676190Y-157362619D02*
X128914285Y-157362619D01*
X127961904Y-156457857D02*
X127914285Y-156410238D01*
X127914285Y-156410238D02*
X127819047Y-156362619D01*
X127819047Y-156362619D02*
X127580952Y-156362619D01*
X127580952Y-156362619D02*
X127485714Y-156410238D01*
X127485714Y-156410238D02*
X127438095Y-156457857D01*
X127438095Y-156457857D02*
X127390476Y-156553095D01*
X127390476Y-156553095D02*
X127390476Y-156648333D01*
X127390476Y-156648333D02*
X127438095Y-156791190D01*
X127438095Y-156791190D02*
X128009523Y-157362619D01*
X128009523Y-157362619D02*
X127390476Y-157362619D01*
X127057142Y-156362619D02*
X126438095Y-156362619D01*
X126438095Y-156362619D02*
X126771428Y-156743571D01*
X126771428Y-156743571D02*
X126628571Y-156743571D01*
X126628571Y-156743571D02*
X126533333Y-156791190D01*
X126533333Y-156791190D02*
X126485714Y-156838809D01*
X126485714Y-156838809D02*
X126438095Y-156934047D01*
X126438095Y-156934047D02*
X126438095Y-157172142D01*
X126438095Y-157172142D02*
X126485714Y-157267380D01*
X126485714Y-157267380D02*
X126533333Y-157315000D01*
X126533333Y-157315000D02*
X126628571Y-157362619D01*
X126628571Y-157362619D02*
X126914285Y-157362619D01*
X126914285Y-157362619D02*
X127009523Y-157315000D01*
X127009523Y-157315000D02*
X127057142Y-157267380D01*
%TO.C,SW6*%
X148950000Y-107345000D02*
X148950000Y-106964000D01*
X148950000Y-103916000D02*
X148950000Y-103535000D01*
X148569000Y-103535000D02*
X148950000Y-103535000D01*
X146410000Y-109885000D02*
X137520000Y-109885000D01*
X145064162Y-103535000D02*
X146791000Y-103535000D01*
X137520000Y-109885000D02*
X137520000Y-109504000D01*
X137520000Y-106456000D02*
X137520000Y-105440000D01*
X137520000Y-105440000D02*
X142600000Y-105440000D01*
X146410000Y-109885000D02*
G75*
G03*
X148950000Y-107345000I-1J2540001D01*
G01*
X142600000Y-105440000D02*
G75*
G03*
X145064161Y-103516040I0J2539999D01*
G01*
%TO.C,SW9*%
X91800000Y-126395000D02*
X91800000Y-126014000D01*
X91800000Y-122966000D02*
X91800000Y-122585000D01*
X91419000Y-122585000D02*
X91800000Y-122585000D01*
X89260000Y-128935000D02*
X80370000Y-128935000D01*
X87914162Y-122585000D02*
X89641000Y-122585000D01*
X80370000Y-128935000D02*
X80370000Y-128554000D01*
X80370000Y-125506000D02*
X80370000Y-124490000D01*
X80370000Y-124490000D02*
X85450000Y-124490000D01*
X89260000Y-128935000D02*
G75*
G03*
X91800000Y-126395000I-1J2540001D01*
G01*
X85450000Y-124490000D02*
G75*
G03*
X87914161Y-122566040I0J2539999D01*
G01*
%TO.C,SW20*%
X72750000Y-164495000D02*
X72750000Y-164114000D01*
X72750000Y-161066000D02*
X72750000Y-160685000D01*
X72369000Y-160685000D02*
X72750000Y-160685000D01*
X70210000Y-167035000D02*
X61320000Y-167035000D01*
X68864162Y-160685000D02*
X70591000Y-160685000D01*
X61320000Y-167035000D02*
X61320000Y-166654000D01*
X61320000Y-163606000D02*
X61320000Y-162590000D01*
X61320000Y-162590000D02*
X66400000Y-162590000D01*
X70210000Y-167035000D02*
G75*
G03*
X72750000Y-164495000I-1J2540001D01*
G01*
X66400000Y-162590000D02*
G75*
G03*
X68864161Y-160666040I0J2539999D01*
G01*
%TO.C,SW19*%
X53700000Y-164495000D02*
X53700000Y-164114000D01*
X53700000Y-161066000D02*
X53700000Y-160685000D01*
X53319000Y-160685000D02*
X53700000Y-160685000D01*
X51160000Y-167035000D02*
X42270000Y-167035000D01*
X49814162Y-160685000D02*
X51541000Y-160685000D01*
X42270000Y-167035000D02*
X42270000Y-166654000D01*
X42270000Y-163606000D02*
X42270000Y-162590000D01*
X42270000Y-162590000D02*
X47350000Y-162590000D01*
X51160000Y-167035000D02*
G75*
G03*
X53700000Y-164495000I-1J2540001D01*
G01*
X47350000Y-162590000D02*
G75*
G03*
X49814161Y-160666040I0J2539999D01*
G01*
%TO.C,SW5*%
X129900000Y-107345000D02*
X129900000Y-106964000D01*
X129900000Y-103916000D02*
X129900000Y-103535000D01*
X129519000Y-103535000D02*
X129900000Y-103535000D01*
X127360000Y-109885000D02*
X118470000Y-109885000D01*
X126014162Y-103535000D02*
X127741000Y-103535000D01*
X118470000Y-109885000D02*
X118470000Y-109504000D01*
X118470000Y-106456000D02*
X118470000Y-105440000D01*
X118470000Y-105440000D02*
X123550000Y-105440000D01*
X127360000Y-109885000D02*
G75*
G03*
X129900000Y-107345000I-1J2540001D01*
G01*
X123550000Y-105440000D02*
G75*
G03*
X126014161Y-103516040I0J2539999D01*
G01*
%TO.C,SW12*%
X148950000Y-126395000D02*
X148950000Y-126014000D01*
X148950000Y-122966000D02*
X148950000Y-122585000D01*
X148569000Y-122585000D02*
X148950000Y-122585000D01*
X146410000Y-128935000D02*
X137520000Y-128935000D01*
X145064162Y-122585000D02*
X146791000Y-122585000D01*
X137520000Y-128935000D02*
X137520000Y-128554000D01*
X137520000Y-125506000D02*
X137520000Y-124490000D01*
X137520000Y-124490000D02*
X142600000Y-124490000D01*
X146410000Y-128935000D02*
G75*
G03*
X148950000Y-126395000I-1J2540001D01*
G01*
X142600000Y-124490000D02*
G75*
G03*
X145064161Y-122566040I0J2539999D01*
G01*
%TO.C,SW2*%
X72750000Y-107345000D02*
X72750000Y-106964000D01*
X72750000Y-103916000D02*
X72750000Y-103535000D01*
X72369000Y-103535000D02*
X72750000Y-103535000D01*
X70210000Y-109885000D02*
X61320000Y-109885000D01*
X68864162Y-103535000D02*
X70591000Y-103535000D01*
X61320000Y-109885000D02*
X61320000Y-109504000D01*
X61320000Y-106456000D02*
X61320000Y-105440000D01*
X61320000Y-105440000D02*
X66400000Y-105440000D01*
X70210000Y-109885000D02*
G75*
G03*
X72750000Y-107345000I-1J2540001D01*
G01*
X66400000Y-105440000D02*
G75*
G03*
X68864161Y-103516040I0J2539999D01*
G01*
%TO.C,SW4*%
X110850000Y-107345000D02*
X110850000Y-106964000D01*
X110850000Y-103916000D02*
X110850000Y-103535000D01*
X110469000Y-103535000D02*
X110850000Y-103535000D01*
X108310000Y-109885000D02*
X99420000Y-109885000D01*
X106964162Y-103535000D02*
X108691000Y-103535000D01*
X99420000Y-109885000D02*
X99420000Y-109504000D01*
X99420000Y-106456000D02*
X99420000Y-105440000D01*
X99420000Y-105440000D02*
X104500000Y-105440000D01*
X108310000Y-109885000D02*
G75*
G03*
X110850000Y-107345000I-1J2540001D01*
G01*
X104500000Y-105440000D02*
G75*
G03*
X106964161Y-103516040I0J2539999D01*
G01*
%TO.C,SW7*%
X53700000Y-126395000D02*
X53700000Y-126014000D01*
X53700000Y-122966000D02*
X53700000Y-122585000D01*
X53319000Y-122585000D02*
X53700000Y-122585000D01*
X51160000Y-128935000D02*
X42270000Y-128935000D01*
X49814162Y-122585000D02*
X51541000Y-122585000D01*
X42270000Y-128935000D02*
X42270000Y-128554000D01*
X42270000Y-125506000D02*
X42270000Y-124490000D01*
X42270000Y-124490000D02*
X47350000Y-124490000D01*
X51160000Y-128935000D02*
G75*
G03*
X53700000Y-126395000I-1J2540001D01*
G01*
X47350000Y-124490000D02*
G75*
G03*
X49814161Y-122566040I0J2539999D01*
G01*
%TO.C,SW22*%
X110850000Y-164495000D02*
X110850000Y-164114000D01*
X110850000Y-161066000D02*
X110850000Y-160685000D01*
X110469000Y-160685000D02*
X110850000Y-160685000D01*
X108310000Y-167035000D02*
X99420000Y-167035000D01*
X106964162Y-160685000D02*
X108691000Y-160685000D01*
X99420000Y-167035000D02*
X99420000Y-166654000D01*
X99420000Y-163606000D02*
X99420000Y-162590000D01*
X99420000Y-162590000D02*
X104500000Y-162590000D01*
X108310000Y-167035000D02*
G75*
G03*
X110850000Y-164495000I-1J2540001D01*
G01*
X104500000Y-162590000D02*
G75*
G03*
X106964161Y-160666040I0J2539999D01*
G01*
%TO.C,SW21*%
X91800000Y-164495000D02*
X91800000Y-164114000D01*
X91800000Y-161066000D02*
X91800000Y-160685000D01*
X91419000Y-160685000D02*
X91800000Y-160685000D01*
X89260000Y-167035000D02*
X80370000Y-167035000D01*
X87914162Y-160685000D02*
X89641000Y-160685000D01*
X80370000Y-167035000D02*
X80370000Y-166654000D01*
X80370000Y-163606000D02*
X80370000Y-162590000D01*
X80370000Y-162590000D02*
X85450000Y-162590000D01*
X89260000Y-167035000D02*
G75*
G03*
X91800000Y-164495000I-1J2540001D01*
G01*
X85450000Y-162590000D02*
G75*
G03*
X87914161Y-160666040I0J2539999D01*
G01*
%TO.C,SW18*%
X148950000Y-145445000D02*
X148950000Y-145064000D01*
X148950000Y-142016000D02*
X148950000Y-141635000D01*
X148569000Y-141635000D02*
X148950000Y-141635000D01*
X146410000Y-147985000D02*
X137520000Y-147985000D01*
X145064162Y-141635000D02*
X146791000Y-141635000D01*
X137520000Y-147985000D02*
X137520000Y-147604000D01*
X137520000Y-144556000D02*
X137520000Y-143540000D01*
X137520000Y-143540000D02*
X142600000Y-143540000D01*
X146410000Y-147985000D02*
G75*
G03*
X148950000Y-145445000I-1J2540001D01*
G01*
X142600000Y-143540000D02*
G75*
G03*
X145064161Y-141616040I0J2539999D01*
G01*
%TO.C,SW13*%
X53700000Y-145445000D02*
X53700000Y-145064000D01*
X53700000Y-142016000D02*
X53700000Y-141635000D01*
X53319000Y-141635000D02*
X53700000Y-141635000D01*
X51160000Y-147985000D02*
X42270000Y-147985000D01*
X49814162Y-141635000D02*
X51541000Y-141635000D01*
X42270000Y-147985000D02*
X42270000Y-147604000D01*
X42270000Y-144556000D02*
X42270000Y-143540000D01*
X42270000Y-143540000D02*
X47350000Y-143540000D01*
X51160000Y-147985000D02*
G75*
G03*
X53700000Y-145445000I-1J2540001D01*
G01*
X47350000Y-143540000D02*
G75*
G03*
X49814161Y-141616040I0J2539999D01*
G01*
%TO.C,SW23*%
X129900000Y-164495000D02*
X129900000Y-164114000D01*
X129900000Y-161066000D02*
X129900000Y-160685000D01*
X129519000Y-160685000D02*
X129900000Y-160685000D01*
X127360000Y-167035000D02*
X118470000Y-167035000D01*
X126014162Y-160685000D02*
X127741000Y-160685000D01*
X118470000Y-167035000D02*
X118470000Y-166654000D01*
X118470000Y-163606000D02*
X118470000Y-162590000D01*
X118470000Y-162590000D02*
X123550000Y-162590000D01*
X127360000Y-167035000D02*
G75*
G03*
X129900000Y-164495000I-1J2540001D01*
G01*
X123550000Y-162590000D02*
G75*
G03*
X126014161Y-160666040I0J2539999D01*
G01*
%TO.C,SW24*%
X148950000Y-164495000D02*
X148950000Y-164114000D01*
X148950000Y-161066000D02*
X148950000Y-160685000D01*
X148569000Y-160685000D02*
X148950000Y-160685000D01*
X146410000Y-167035000D02*
X137520000Y-167035000D01*
X145064162Y-160685000D02*
X146791000Y-160685000D01*
X137520000Y-167035000D02*
X137520000Y-166654000D01*
X137520000Y-163606000D02*
X137520000Y-162590000D01*
X137520000Y-162590000D02*
X142600000Y-162590000D01*
X146410000Y-167035000D02*
G75*
G03*
X148950000Y-164495000I-1J2540001D01*
G01*
X142600000Y-162590000D02*
G75*
G03*
X145064161Y-160666040I0J2539999D01*
G01*
%TO.C,SW14*%
X72750000Y-145445000D02*
X72750000Y-145064000D01*
X72750000Y-142016000D02*
X72750000Y-141635000D01*
X72369000Y-141635000D02*
X72750000Y-141635000D01*
X70210000Y-147985000D02*
X61320000Y-147985000D01*
X68864162Y-141635000D02*
X70591000Y-141635000D01*
X61320000Y-147985000D02*
X61320000Y-147604000D01*
X61320000Y-144556000D02*
X61320000Y-143540000D01*
X61320000Y-143540000D02*
X66400000Y-143540000D01*
X70210000Y-147985000D02*
G75*
G03*
X72750000Y-145445000I-1J2540001D01*
G01*
X66400000Y-143540000D02*
G75*
G03*
X68864161Y-141616040I0J2539999D01*
G01*
%TO.C,SW16*%
X110850000Y-145445000D02*
X110850000Y-145064000D01*
X110850000Y-142016000D02*
X110850000Y-141635000D01*
X110469000Y-141635000D02*
X110850000Y-141635000D01*
X108310000Y-147985000D02*
X99420000Y-147985000D01*
X106964162Y-141635000D02*
X108691000Y-141635000D01*
X99420000Y-147985000D02*
X99420000Y-147604000D01*
X99420000Y-144556000D02*
X99420000Y-143540000D01*
X99420000Y-143540000D02*
X104500000Y-143540000D01*
X108310000Y-147985000D02*
G75*
G03*
X110850000Y-145445000I-1J2540001D01*
G01*
X104500000Y-143540000D02*
G75*
G03*
X106964161Y-141616040I0J2539999D01*
G01*
%TO.C,SW10*%
X110850000Y-126395000D02*
X110850000Y-126014000D01*
X110850000Y-122966000D02*
X110850000Y-122585000D01*
X110469000Y-122585000D02*
X110850000Y-122585000D01*
X108310000Y-128935000D02*
X99420000Y-128935000D01*
X106964162Y-122585000D02*
X108691000Y-122585000D01*
X99420000Y-128935000D02*
X99420000Y-128554000D01*
X99420000Y-125506000D02*
X99420000Y-124490000D01*
X99420000Y-124490000D02*
X104500000Y-124490000D01*
X108310000Y-128935000D02*
G75*
G03*
X110850000Y-126395000I-1J2540001D01*
G01*
X104500000Y-124490000D02*
G75*
G03*
X106964161Y-122566040I0J2539999D01*
G01*
%TO.C,SW1*%
X53700000Y-107345000D02*
X53700000Y-106964000D01*
X53700000Y-103916000D02*
X53700000Y-103535000D01*
X53319000Y-103535000D02*
X53700000Y-103535000D01*
X51160000Y-109885000D02*
X42270000Y-109885000D01*
X49814162Y-103535000D02*
X51541000Y-103535000D01*
X42270000Y-109885000D02*
X42270000Y-109504000D01*
X42270000Y-106456000D02*
X42270000Y-105440000D01*
X42270000Y-105440000D02*
X47350000Y-105440000D01*
X51160000Y-109885000D02*
G75*
G03*
X53700000Y-107345000I-1J2540001D01*
G01*
X47350000Y-105440000D02*
G75*
G03*
X49814161Y-103516040I0J2539999D01*
G01*
%TO.C,SW15*%
X91800000Y-145445000D02*
X91800000Y-145064000D01*
X91800000Y-142016000D02*
X91800000Y-141635000D01*
X91419000Y-141635000D02*
X91800000Y-141635000D01*
X89260000Y-147985000D02*
X80370000Y-147985000D01*
X87914162Y-141635000D02*
X89641000Y-141635000D01*
X80370000Y-147985000D02*
X80370000Y-147604000D01*
X80370000Y-144556000D02*
X80370000Y-143540000D01*
X80370000Y-143540000D02*
X85450000Y-143540000D01*
X89260000Y-147985000D02*
G75*
G03*
X91800000Y-145445000I-1J2540001D01*
G01*
X85450000Y-143540000D02*
G75*
G03*
X87914161Y-141616040I0J2539999D01*
G01*
%TO.C,SW8*%
X72750000Y-126395000D02*
X72750000Y-126014000D01*
X72750000Y-122966000D02*
X72750000Y-122585000D01*
X72369000Y-122585000D02*
X72750000Y-122585000D01*
X70210000Y-128935000D02*
X61320000Y-128935000D01*
X68864162Y-122585000D02*
X70591000Y-122585000D01*
X61320000Y-128935000D02*
X61320000Y-128554000D01*
X61320000Y-125506000D02*
X61320000Y-124490000D01*
X61320000Y-124490000D02*
X66400000Y-124490000D01*
X70210000Y-128935000D02*
G75*
G03*
X72750000Y-126395000I-1J2540001D01*
G01*
X66400000Y-124490000D02*
G75*
G03*
X68864161Y-122566040I0J2539999D01*
G01*
%TO.C,SW3*%
X91800000Y-107345000D02*
X91800000Y-106964000D01*
X91800000Y-103916000D02*
X91800000Y-103535000D01*
X91419000Y-103535000D02*
X91800000Y-103535000D01*
X89260000Y-109885000D02*
X80370000Y-109885000D01*
X87914162Y-103535000D02*
X89641000Y-103535000D01*
X80370000Y-109885000D02*
X80370000Y-109504000D01*
X80370000Y-106456000D02*
X80370000Y-105440000D01*
X80370000Y-105440000D02*
X85450000Y-105440000D01*
X89260000Y-109885000D02*
G75*
G03*
X91800000Y-107345000I-1J2540001D01*
G01*
X85450000Y-105440000D02*
G75*
G03*
X87914161Y-103516040I0J2539999D01*
G01*
%TO.C,SW17*%
X129900000Y-145445000D02*
X129900000Y-145064000D01*
X129900000Y-142016000D02*
X129900000Y-141635000D01*
X129519000Y-141635000D02*
X129900000Y-141635000D01*
X127360000Y-147985000D02*
X118470000Y-147985000D01*
X126014162Y-141635000D02*
X127741000Y-141635000D01*
X118470000Y-147985000D02*
X118470000Y-147604000D01*
X118470000Y-144556000D02*
X118470000Y-143540000D01*
X118470000Y-143540000D02*
X123550000Y-143540000D01*
X127360000Y-147985000D02*
G75*
G03*
X129900000Y-145445000I-1J2540001D01*
G01*
X123550000Y-143540000D02*
G75*
G03*
X126014161Y-141616040I0J2539999D01*
G01*
%TO.C,SW11*%
X129900000Y-126395000D02*
X129900000Y-126014000D01*
X129900000Y-122966000D02*
X129900000Y-122585000D01*
X129519000Y-122585000D02*
X129900000Y-122585000D01*
X127360000Y-128935000D02*
X118470000Y-128935000D01*
X126014162Y-122585000D02*
X127741000Y-122585000D01*
X118470000Y-128935000D02*
X118470000Y-128554000D01*
X118470000Y-125506000D02*
X118470000Y-124490000D01*
X118470000Y-124490000D02*
X123550000Y-124490000D01*
X127360000Y-128935000D02*
G75*
G03*
X129900000Y-126395000I-1J2540001D01*
G01*
X123550000Y-124490000D02*
G75*
G03*
X126014161Y-122566040I0J2539999D01*
G01*
D12*
%TO.C,D5*%
X126090000Y-110550000D02*
X128750000Y-110550000D01*
X126090000Y-112250000D02*
X126090000Y-110550000D01*
X126090000Y-112250000D02*
X128750000Y-112250000D01*
%TO.C,D17*%
X126090000Y-148650000D02*
X128750000Y-148650000D01*
X126090000Y-150350000D02*
X126090000Y-148650000D01*
X126090000Y-150350000D02*
X128750000Y-150350000D01*
%TO.C,D9*%
X87990000Y-129600000D02*
X90650000Y-129600000D01*
X87990000Y-131300000D02*
X87990000Y-129600000D01*
X87990000Y-131300000D02*
X90650000Y-131300000D01*
%TO.C,D6*%
X145140000Y-110550000D02*
X147800000Y-110550000D01*
X145140000Y-112250000D02*
X145140000Y-110550000D01*
X145140000Y-112250000D02*
X147800000Y-112250000D01*
%TO.C,D18*%
X145140000Y-148650000D02*
X147800000Y-148650000D01*
X145140000Y-150350000D02*
X145140000Y-148650000D01*
X145140000Y-150350000D02*
X147800000Y-150350000D01*
%TO.C,D14*%
X68940000Y-148650000D02*
X71600000Y-148650000D01*
X68940000Y-150350000D02*
X68940000Y-148650000D01*
X68940000Y-150350000D02*
X71600000Y-150350000D01*
%TO.C,D16*%
X107040000Y-148650000D02*
X109700000Y-148650000D01*
X107040000Y-150350000D02*
X107040000Y-148650000D01*
X107040000Y-150350000D02*
X109700000Y-150350000D01*
%TO.C,D10*%
X107040000Y-129600000D02*
X109700000Y-129600000D01*
X107040000Y-131300000D02*
X107040000Y-129600000D01*
X107040000Y-131300000D02*
X109700000Y-131300000D01*
%TO.C,D8*%
X68940000Y-129600000D02*
X71600000Y-129600000D01*
X68940000Y-131300000D02*
X68940000Y-129600000D01*
X68940000Y-131300000D02*
X71600000Y-131300000D01*
%TO.C,D20*%
X68940000Y-154200000D02*
X71600000Y-154200000D01*
X68940000Y-155900000D02*
X68940000Y-154200000D01*
X68940000Y-155900000D02*
X71600000Y-155900000D01*
%TO.C,D1*%
X49890000Y-110550000D02*
X52550000Y-110550000D01*
X49890000Y-112250000D02*
X49890000Y-110550000D01*
X49890000Y-112250000D02*
X52550000Y-112250000D01*
%TO.C,D7*%
X49890000Y-129600000D02*
X52550000Y-129600000D01*
X49890000Y-131300000D02*
X49890000Y-129600000D01*
X49890000Y-131300000D02*
X52550000Y-131300000D01*
%TO.C,D4*%
X107040000Y-110550000D02*
X109700000Y-110550000D01*
X107040000Y-112250000D02*
X107040000Y-110550000D01*
X107040000Y-112250000D02*
X109700000Y-112250000D01*
%TO.C,D24*%
X145140000Y-154200000D02*
X147800000Y-154200000D01*
X145140000Y-155900000D02*
X145140000Y-154200000D01*
X145140000Y-155900000D02*
X147800000Y-155900000D01*
%TO.C,D15*%
X87990000Y-148650000D02*
X90650000Y-148650000D01*
X87990000Y-150350000D02*
X87990000Y-148650000D01*
X87990000Y-150350000D02*
X90650000Y-150350000D01*
%TO.C,D22*%
X107040000Y-154200000D02*
X109700000Y-154200000D01*
X107040000Y-155900000D02*
X107040000Y-154200000D01*
X107040000Y-155900000D02*
X109700000Y-155900000D01*
%TO.C,D2*%
X68940000Y-110550000D02*
X71600000Y-110550000D01*
X68940000Y-112250000D02*
X68940000Y-110550000D01*
X68940000Y-112250000D02*
X71600000Y-112250000D01*
%TO.C,D11*%
X126090000Y-129600000D02*
X128750000Y-129600000D01*
X126090000Y-131300000D02*
X126090000Y-129600000D01*
X126090000Y-131300000D02*
X128750000Y-131300000D01*
D11*
%TO.C,BT1*%
X66937000Y-92050000D02*
G75*
G03*
X66937000Y-92050000I-10000000J0D01*
G01*
D12*
%TO.C,D21*%
X87990000Y-154200000D02*
X90650000Y-154200000D01*
X87990000Y-155900000D02*
X87990000Y-154200000D01*
X87990000Y-155900000D02*
X90650000Y-155900000D01*
%TO.C,D19*%
X49890000Y-154200000D02*
X52550000Y-154200000D01*
X49890000Y-155900000D02*
X49890000Y-154200000D01*
X49890000Y-155900000D02*
X52550000Y-155900000D01*
%TO.C,D13*%
X49890000Y-148650000D02*
X52550000Y-148650000D01*
X49890000Y-150350000D02*
X49890000Y-148650000D01*
X49890000Y-150350000D02*
X52550000Y-150350000D01*
%TO.C,D12*%
X145140000Y-129600000D02*
X147800000Y-129600000D01*
X145140000Y-131300000D02*
X145140000Y-129600000D01*
X145140000Y-131300000D02*
X147800000Y-131300000D01*
%TO.C,D3*%
X87990000Y-110550000D02*
X90650000Y-110550000D01*
X87990000Y-112250000D02*
X87990000Y-110550000D01*
X87990000Y-112250000D02*
X90650000Y-112250000D01*
%TO.C,D23*%
X126090000Y-154200000D02*
X128750000Y-154200000D01*
X126090000Y-155900000D02*
X126090000Y-154200000D01*
X126090000Y-155900000D02*
X128750000Y-155900000D01*
%TD*%
M02*
